<?xml version="1.0" encoding="UTF-8"?>
<svg xmlns="http://www.w3.org/2000/svg" xmlns:xlink="http://www.w3.org/1999/xlink" width="957.539429pt" height="636.245422pt" viewBox="0 0 957.539429 636.245422" version="1.1">
<defs>
<clipPath id="clip1">
  <path d="M 0 546 L 268 546 L 268 636.246094 L 0 636.246094 Z M 0 546 "/>
</clipPath>
<clipPath id="clip2">
  <path d="M 817 0 L 957.539062 0 L 957.539062 169 L 817 169 Z M 817 0 "/>
</clipPath>
<clipPath id="clip3">
  <path d="M 447 1 L 957.539062 1 L 957.539062 440 L 447 440 Z M 447 1 "/>
</clipPath>
<clipPath id="clip4">
  <path d="M 443 0 L 957.539062 0 L 957.539062 445 L 443 445 Z M 443 0 "/>
</clipPath>
</defs>
<g id="surface1">
<path style="fill:none;stroke-width:2.4;stroke-linecap:round;stroke-linejoin:round;stroke:rgb(58.822632%,58.822632%,58.822632%);stroke-opacity:1;stroke-miterlimit:4;" d="M 622.476562 351.144531 L 711.457031 315.941406 L 764.257812 292.476562 "/>
<path style="fill:none;stroke-width:2.4;stroke-linecap:round;stroke-linejoin:round;stroke:rgb(58.822632%,58.822632%,58.822632%);stroke-opacity:1;stroke-miterlimit:4;" d="M 655.230469 350.65625 C 655.230469 350.65625 713.902344 337.453125 716.34375 337.453125 C 718.789062 337.453125 738.835938 326.210938 738.835938 326.210938 L 742.257812 324.253906 L 773.546875 309.585938 "/>
<path style="fill:none;stroke-width:2.4;stroke-linecap:round;stroke-linejoin:round;stroke:rgb(58.822632%,58.822632%,58.822632%);stroke-opacity:1;stroke-miterlimit:4;" d="M 490.15625 374.625 C 490.15625 374.625 507.269531 352.136719 510.203125 349.203125 C 513.136719 346.269531 525.359375 326.226562 525.359375 326.226562 L 519.003906 307.648438 "/>
<path style="fill:none;stroke-width:2.4;stroke-linecap:round;stroke-linejoin:round;stroke:rgb(58.822632%,58.822632%,58.822632%);stroke-opacity:1;stroke-miterlimit:4;" d="M 505.039062 409.859375 L 484.503906 432.347656 L 475.703125 436.261719 "/>
<path style="fill:none;stroke-width:2.4;stroke-linecap:round;stroke-linejoin:round;stroke:rgb(58.822632%,58.822632%,58.822632%);stroke-opacity:1;stroke-miterlimit:4;" d="M 398.457031 511.550781 L 487.4375 476.351562 L 540.238281 452.882812 "/>
<path style="fill:none;stroke-width:2.4;stroke-linecap:round;stroke-linejoin:round;stroke:rgb(58.822632%,58.822632%,58.822632%);stroke-opacity:1;stroke-miterlimit:4;" d="M 508.949219 430.882812 L 514.816406 426.972656 L 528.996094 415.238281 L 540.238281 402.527344 "/>
<path style="fill:none;stroke-width:2.4;stroke-linecap:round;stroke-linejoin:round;stroke:rgb(58.822632%,58.822632%,58.822632%);stroke-opacity:1;stroke-miterlimit:4;" d="M 548.550781 409.859375 L 574.464844 396.171875 L 594.996094 382.96875 L 615.042969 369.28125 L 629.21875 355.589844 L 641.441406 339.945312 L 658.066406 318.921875 "/>
<path style="fill:none;stroke-width:2.4;stroke-linecap:round;stroke-linejoin:round;stroke:rgb(58.822632%,58.822632%,58.822632%);stroke-opacity:1;stroke-miterlimit:4;" d="M 597.929688 406.925781 C 601.839844 404.96875 622.375 387.371094 622.375 387.371094 L 638.507812 375.148438 L 657.578125 344.835938 L 673.222656 337.992188 L 683 330.65625 L 686.910156 321.855469 "/>
<path style="fill:none;stroke-width:2.4;stroke-linecap:round;stroke-linejoin:round;stroke:rgb(58.822632%,58.822632%,58.822632%);stroke-opacity:1;stroke-miterlimit:4;" d="M 374.011719 491.996094 L 436.105469 478.792969 L 478.636719 458.75 L 521.660156 446.039062 "/>
<path style="fill:none;stroke-width:2.4;stroke-linecap:round;stroke-linejoin:round;stroke:rgb(58.822632%,58.822632%,58.822632%);stroke-opacity:1;stroke-miterlimit:4;" d="M 324.5 505.105469 L 346.992188 482.125 L 379.257812 456.214844 L 403.703125 435.191406 L 427.660156 414.167969 L 451.125 378.480469 L 471.171875 350.613281 L 495.128906 316.878906 L 512.238281 288.519531 L 523.484375 262.609375 L 523.972656 247.453125 L 538.152344 229.851562 L 540.105469 225.453125 "/>
<path style="fill:none;stroke-width:2.4;stroke-linecap:round;stroke-linejoin:round;stroke:rgb(58.822632%,58.822632%,58.822632%);stroke-opacity:1;stroke-miterlimit:4;" d="M 406.28125 412.792969 L 424.859375 377.589844 L 456.148438 331.144531 L 479.617188 299.367188 L 506.015625 275.898438 L 521.660156 260.742188 "/>
<path style="fill:none;stroke-width:2.4;stroke-linecap:round;stroke-linejoin:round;stroke:rgb(58.822632%,58.822632%,58.822632%);stroke-opacity:1;stroke-miterlimit:4;" d="M 452.726562 403.503906 L 480.59375 374.167969 L 492.816406 356.570312 L 510.417969 338.480469 L 516.285156 315.011719 "/>
<path style="fill:none;stroke-width:2.4;stroke-linecap:round;stroke-linejoin:round;stroke:rgb(58.822632%,58.822632%,58.822632%);stroke-opacity:1;stroke-miterlimit:4;" d="M 508.148438 333.117188 L 513.035156 322.363281 L 516.457031 311.117188 "/>
<path style="fill:none;stroke-width:2.4;stroke-linecap:round;stroke-linejoin:round;stroke:rgb(58.822632%,58.822632%,58.822632%);stroke-opacity:1;stroke-miterlimit:4;" d="M 517.925781 330.183594 L 526.238281 318.449219 L 536.503906 304.273438 L 549.601562 285.335938 "/>
<path style="fill:none;stroke-width:2.4;stroke-linecap:round;stroke-linejoin:round;stroke:rgb(58.822632%,58.822632%,58.822632%);stroke-opacity:1;stroke-miterlimit:4;" d="M 490.859375 384.925781 L 504.550781 373.191406 L 518.726562 360.96875 L 525.082031 348.746094 L 530.460938 337.5 "/>
<path style="fill:none;stroke-width:2.4;stroke-linecap:round;stroke-linejoin:round;stroke:rgb(58.822632%,58.822632%,58.822632%);stroke-opacity:1;stroke-miterlimit:4;" d="M 509.835938 392.199219 C 509.835938 392.199219 518.148438 374.109375 518.636719 371.667969 C 519.125 369.222656 523.527344 350.15625 523.527344 350.15625 L 531.347656 334.019531 L 541.617188 312.019531 L 548.949219 292.953125 "/>
<path style="fill:none;stroke-width:2.4;stroke-linecap:round;stroke-linejoin:round;stroke:rgb(58.822632%,58.822632%,58.822632%);stroke-opacity:1;stroke-miterlimit:4;" d="M 555.882812 364.878906 C 555.882812 364.878906 569.574219 336.035156 571.53125 334.570312 C 573.484375 333.101562 590.597656 317.457031 590.597656 317.457031 C 590.597656 317.457031 599.398438 298.878906 600.375 296.921875 C 601.351562 294.96875 607.707031 275.410156 607.707031 275.410156 L 614.554688 259.765625 L 618.953125 241.675781 L 622.863281 228.476562 "/>
<path style="fill:none;stroke-width:2.4;stroke-linecap:round;stroke-linejoin:round;stroke:rgb(58.822632%,58.822632%,58.822632%);stroke-opacity:1;stroke-miterlimit:4;" d="M 548.238281 348.519531 L 547.257812 342.894531 L 544.816406 332.628906 L 541.390625 317.960938 L 540.902344 308.671875 "/>
<path style="fill:none;stroke-width:2.4;stroke-linecap:round;stroke-linejoin:round;stroke:rgb(58.822632%,58.822632%,58.822632%);stroke-opacity:1;stroke-miterlimit:4;" d="M 559.972656 317.71875 L 555.570312 301.582031 "/>
<path style="fill:none;stroke-width:2.4;stroke-linecap:round;stroke-linejoin:round;stroke:rgb(58.822632%,58.822632%,58.822632%);stroke-opacity:1;stroke-miterlimit:4;" d="M 562.613281 348.582031 L 562.125 331.46875 L 558.703125 324.625 "/>
<path style="fill:none;stroke-width:2.4;stroke-linecap:round;stroke-linejoin:round;stroke:rgb(58.822632%,58.822632%,58.822632%);stroke-opacity:1;stroke-miterlimit:4;" d="M 431.214844 511.0625 C 431.214844 511.0625 489.882812 497.863281 492.328125 497.863281 C 494.773438 497.863281 514.816406 486.617188 514.816406 486.617188 L 518.238281 484.660156 L 549.527344 469.996094 "/>
<path style="fill:none;stroke-width:2.4;stroke-linecap:round;stroke-linejoin:round;stroke:rgb(58.822632%,58.822632%,58.822632%);stroke-opacity:1;stroke-miterlimit:4;" d="M 313.4375 470.832031 L 362.3125 403.996094 L 381.238281 382.773438 L 396.503906 367.324219 L 421.4375 329.679688 L 443.925781 291.546875 L 468.859375 271.5 "/>
<path style="fill:none;stroke-width:2.4;stroke-linecap:round;stroke-linejoin:round;stroke:rgb(58.822632%,58.822632%,58.822632%);stroke-opacity:1;stroke-miterlimit:4;" d="M 324.011719 431.316406 C 324.011719 431.316406 341.125 408.828125 344.058594 405.894531 C 346.992188 402.960938 359.214844 382.914062 359.214844 382.914062 L 352.859375 364.335938 "/>
<path style="fill:none;stroke-width:2.4;stroke-linecap:round;stroke-linejoin:round;stroke:rgb(58.822632%,58.822632%,58.822632%);stroke-opacity:1;stroke-miterlimit:4;" d="M 257.230469 585.972656 L 285.867188 579.753906 L 309.195312 572.558594 L 332.183594 564.761719 L 349.519531 555.386719 L 365.496094 543.601562 L 387.15625 527.820312 "/>
<path style="fill:none;stroke-width:2.4;stroke-linecap:round;stroke-linejoin:round;stroke:rgb(58.822632%,58.822632%,58.822632%);stroke-opacity:1;stroke-miterlimit:4;" d="M 290.03125 513.914062 C 290.03125 513.914062 302.898438 498.722656 304.027344 496.5 C 305.15625 494.277344 314.519531 477.09375 314.519531 477.09375 L 326.390625 463.65625 L 342.191406 445.226562 L 354.382812 428.832031 L 357.875 418.132812 "/>
<path style="fill:none;stroke-width:2.4;stroke-linecap:round;stroke-linejoin:round;stroke:rgb(58.822632%,58.822632%,58.822632%);stroke-opacity:1;stroke-miterlimit:4;" d="M 276.386719 544.621094 C 276.386719 544.621094 297.324219 520.515625 299.601562 519.628906 C 301.878906 518.742188 322.566406 508.273438 322.566406 508.273438 C 322.566406 508.273438 336.039062 492.742188 337.503906 491.121094 C 338.972656 489.503906 350.351562 472.375 350.351562 472.375 L 361.148438 459.144531 L 370.25 442.902344 L 377.566406 431.242188 "/>
<path style="fill:none;stroke-width:2.4;stroke-linecap:round;stroke-linejoin:round;stroke:rgb(58.822632%,58.822632%,58.822632%);stroke-opacity:1;stroke-miterlimit:4;" d="M 343.625 481.917969 L 344.195312 476.238281 L 344.601562 465.695312 L 345.246094 450.648438 L 347.273438 441.566406 "/>
<path style="fill:none;stroke-width:2.4;stroke-linecap:round;stroke-linejoin:round;stroke:rgb(58.822632%,58.822632%,58.822632%);stroke-opacity:1;stroke-miterlimit:4;" d="M 351.414062 470.386719 L 349.453125 457.402344 L 353.417969 446.835938 L 353.933594 432.257812 "/>
<path style="fill:none;stroke-width:2.4;stroke-linecap:round;stroke-linejoin:round;stroke:rgb(58.822632%,58.822632%,58.822632%);stroke-opacity:1;stroke-miterlimit:4;" d="M 363.207031 455.40625 L 363.304688 438.683594 "/>
<path style="fill:none;stroke-width:2.4;stroke-linecap:round;stroke-linejoin:round;stroke:rgb(58.822632%,58.822632%,58.822632%);stroke-opacity:1;stroke-miterlimit:4;" d="M 335.171875 494.023438 L 339.300781 477.410156 L 337.84375 469.898438 "/>
<path style="fill:none;stroke-width:2.4;stroke-linecap:round;stroke-linejoin:round;stroke:rgb(58.822632%,58.822632%,58.822632%);stroke-opacity:1;stroke-miterlimit:4;" d="M 729.054688 249.453125 L 708.523438 271.941406 L 699.722656 275.851562 "/>
<path style="fill:none;stroke-width:2.4;stroke-linecap:round;stroke-linejoin:round;stroke:rgb(58.822632%,58.822632%,58.822632%);stroke-opacity:1;stroke-miterlimit:4;" d="M 712.921875 274.875 L 730.035156 260.695312 L 741.277344 247.007812 L 756.921875 234.296875 L 778.433594 216.695312 L 787.234375 208.871094 "/>
<path style="fill:none;stroke-width:2.4;stroke-linecap:butt;stroke-linejoin:round;stroke:rgb(58.822632%,58.822632%,58.822632%);stroke-opacity:1;stroke-miterlimit:4;" d="M 732.96875 270.472656 L 738.835938 266.5625 L 753.011719 254.828125 L 764.257812 242.117188 "/>
<path style="fill:none;stroke-width:2.4;stroke-linecap:round;stroke-linejoin:round;stroke:rgb(100%,0%,0%);stroke-opacity:1;stroke-miterlimit:4;" d="M 772.570312 249.453125 L 798.480469 235.761719 L 819.015625 222.5625 L 839.058594 208.871094 L 853.238281 195.183594 L 865.460938 179.539062 L 882.082031 158.515625 "/>
<path style="fill:none;stroke-width:2.4;stroke-linecap:round;stroke-linejoin:round;stroke:rgb(100%,0%,0%);stroke-opacity:1;stroke-miterlimit:4;" d="M 834.277344 230.765625 C 838.1875 228.8125 858.71875 211.210938 858.71875 211.210938 L 874.855469 198.988281 L 893.921875 168.675781 L 909.566406 161.832031 L 919.34375 154.496094 L 923.253906 145.695312 "/>
<path style="fill:none;stroke-width:2.4;stroke-linecap:round;stroke-linejoin:round;stroke:rgb(58.822632%,58.822632%,58.822632%);stroke-opacity:1;stroke-miterlimit:4;" d="M 598.03125 331.585938 L 660.121094 318.386719 L 702.65625 298.34375 L 745.679688 285.628906 "/>
<path style="fill:none;stroke-width:2.4;stroke-linecap:round;stroke-linejoin:round;stroke:rgb(100%,0%,0%);stroke-opacity:1;stroke-miterlimit:4;" d="M 669.410156 272.429688 L 691.898438 249.453125 L 724.167969 223.539062 L 748.613281 202.515625 L 772.570312 181.496094 L 796.035156 145.804688 L 816.082031 117.9375 L 840.039062 84.203125 L 857.148438 55.847656 L 868.394531 29.933594 L 868.882812 14.777344 L 865.445312 6.160156 "/>
<path style="fill:none;stroke-width:2.4;stroke-linecap:round;stroke-linejoin:miter;stroke:rgb(100%,0%,0%);stroke-opacity:1;stroke-miterlimit:4;" d="M 630.296875 252.386719 L 648.875 217.183594 L 680.167969 170.738281 L 703.632812 138.960938 L 730.035156 115.492188 L 745.679688 100.335938 "/>
<path style="fill:none;stroke-width:2.4;stroke-linecap:round;stroke-linejoin:round;stroke:rgb(100%,0%,0%);stroke-opacity:1;stroke-miterlimit:4;" d="M 676.742188 243.097656 L 704.609375 213.761719 L 716.832031 196.160156 L 734.433594 178.070312 L 740.300781 154.605469 "/>
<path style="fill:none;stroke-width:2.4;stroke-linecap:round;stroke-linejoin:round;stroke:rgb(100%,0%,0%);stroke-opacity:1;stroke-miterlimit:4;" d="M 743.722656 167.316406 L 748.613281 156.558594 L 752.035156 145.316406 "/>
<path style="fill:none;stroke-width:2.4;stroke-linecap:round;stroke-linejoin:round;stroke:rgb(100%,0%,0%);stroke-opacity:1;stroke-miterlimit:4;" d="M 753.5 164.382812 L 761.8125 152.648438 L 772.078125 138.472656 L 784.792969 121.847656 L 789.191406 115.003906 "/>
<path style="fill:none;stroke-width:2.4;stroke-linecap:round;stroke-linejoin:round;stroke:rgb(100%,0%,0%);stroke-opacity:1;stroke-miterlimit:4;" d="M 758.878906 167.804688 L 772.570312 156.070312 L 786.746094 143.847656 L 793.101562 131.625 L 798.480469 120.382812 "/>
<path style="fill:none;stroke-width:2.4;stroke-linecap:round;stroke-linejoin:round;stroke:rgb(100%,0%,0%);stroke-opacity:1;stroke-miterlimit:4;" d="M 784.792969 171.226562 C 784.792969 171.226562 793.101562 153.136719 793.589844 150.695312 C 794.082031 148.25 798.480469 129.183594 798.480469 129.183594 L 806.304688 113.046875 L 816.570312 91.046875 L 823.902344 71.980469 L 824.390625 60.734375 "/>
<path style="fill:none;stroke-width:2.4;stroke-linecap:round;stroke-linejoin:round;stroke:rgb(100%,0%,0%);stroke-opacity:1;stroke-miterlimit:4;" d="M 819.203125 165.945312 C 819.203125 165.945312 832.890625 137.097656 834.847656 135.632812 C 836.800781 134.164062 853.914062 118.519531 853.914062 118.519531 C 853.914062 118.519531 862.714844 99.941406 863.691406 97.984375 C 864.667969 96.03125 871.027344 76.472656 871.027344 76.472656 L 877.871094 60.828125 L 882.269531 42.738281 L 886.179688 29.539062 "/>
<path style="fill:none;stroke-width:2.4;stroke-linecap:round;stroke-linejoin:round;stroke:rgb(100%,0%,0%);stroke-opacity:1;stroke-miterlimit:4;" d="M 867.113281 87.476562 L 866.136719 81.851562 L 863.691406 71.585938 L 860.269531 56.917969 L 859.941406 49.082031 "/>
<path style="fill:none;stroke-width:2.4;stroke-linecap:round;stroke-linejoin:round;stroke:rgb(100%,0%,0%);stroke-opacity:1;stroke-miterlimit:4;" d="M 871.515625 74.273438 L 866.136719 62.296875 L 867.113281 51.050781 L 864.175781 39.453125 "/>
<path style="fill:none;stroke-width:2.4;stroke-linecap:round;stroke-linejoin:round;stroke:rgb(100%,0%,0%);stroke-opacity:1;stroke-miterlimit:4;" d="M 878.847656 56.675781 L 874.449219 40.539062 "/>
<path style="fill:none;stroke-width:2.4;stroke-linecap:round;stroke-linejoin:round;stroke:rgb(100%,0%,0%);stroke-opacity:1;stroke-miterlimit:4;" d="M 862.226562 101.410156 L 861.738281 84.296875 L 858.3125 77.453125 "/>
<path style="fill:none;stroke-width:2.4;stroke-linecap:round;stroke-linejoin:miter;stroke:rgb(100%,0%,0%);stroke-opacity:1;stroke-miterlimit:4;" d="M 549.785156 284.996094 L 604.050781 240.507812 L 646.097656 193.082031 L 649.03125 158.371094 L 673.964844 120.726562 L 696.457031 82.589844 L 721.390625 62.546875 "/>
<path style="fill:none;stroke-width:2.4;stroke-linecap:round;stroke-linejoin:round;stroke:rgb(58.822632%,58.822632%,58.822632%);stroke-opacity:1;stroke-miterlimit:4;" d="M 488.90625 435.28125 L 506.015625 421.105469 L 517.261719 407.414062 L 532.90625 394.703125 L 554.417969 377.101562 L 563.21875 369.28125 "/>
<path style="fill:none;stroke-width:2.4;stroke-linecap:round;stroke-linejoin:round;stroke:rgb(100%,0%,0%);stroke-opacity:1;stroke-miterlimit:4;" d="M 727.722656 111.667969 C 727.722656 111.667969 740.589844 96.480469 741.714844 94.257812 C 742.84375 92.035156 752.207031 74.851562 752.207031 74.851562 L 764.078125 61.414062 L 779.882812 42.980469 L 792.070312 26.589844 L 795.566406 15.886719 "/>
<path style="fill:none;stroke-width:2.4;stroke-linecap:round;stroke-linejoin:round;stroke:rgb(100%,0%,0%);stroke-opacity:1;stroke-miterlimit:4;" d="M 774.382812 46.539062 L 774.949219 40.863281 L 775.355469 30.316406 L 776.003906 15.269531 L 778.027344 6.191406 "/>
<path style="fill:none;stroke-width:2.4;stroke-linecap:round;stroke-linejoin:round;stroke:rgb(100%,0%,0%);stroke-opacity:1;stroke-miterlimit:4;" d="M 781.398438 40.402344 L 780.207031 22.023438 L 784.171875 11.457031 L 785.378906 1.71875 "/>
<path style="fill:none;stroke-width:2.4;stroke-linecap:round;stroke-linejoin:round;stroke:rgb(100%,0%,0%);stroke-opacity:1;stroke-miterlimit:4;" d="M 793.960938 20.027344 L 794.0625 3.304688 "/>
<path style="fill:none;stroke-width:2.4;stroke-linecap:round;stroke-linejoin:round;stroke:rgb(100%,0%,0%);stroke-opacity:1;stroke-miterlimit:4;" d="M 765.925781 58.648438 L 770.054688 42.035156 L 768.597656 34.519531 "/>
<g clip-path="url(#clip1)" clip-rule="nonzero">
<path style="fill:none;stroke-width:2.4;stroke-linecap:round;stroke-linejoin:round;stroke:rgb(100%,0%,0%);stroke-opacity:1;stroke-miterlimit:4;" d="M 1.199219 635.046875 L 72.234375 616.46875 L 137.804688 585.867188 L 199.003906 568.382812 L 266.757812 547.617188 "/>
</g>
<path style="fill:none;stroke-width:2.4;stroke-linecap:round;stroke-linejoin:round;stroke:rgb(100%,0%,0%);stroke-opacity:1;stroke-miterlimit:4;" d="M 443.800781 436.148438 L 398.992188 471.121094 L 365.113281 500.625 L 311.566406 527.949219 L 263.734375 548.710938 "/>
<path style="fill:none;stroke-width:2.4;stroke-linecap:round;stroke-linejoin:round;stroke:rgb(100%,0%,0%);stroke-opacity:1;stroke-miterlimit:4;" d="M 565.996094 353.414062 L 535.597656 377.136719 L 472.210938 415.386719 L 442.707031 437.242188 "/>
<path style="fill:none;stroke-width:2.4;stroke-linecap:round;stroke-linejoin:round;stroke:rgb(100%,0%,0%);stroke-opacity:1;stroke-miterlimit:4;" d="M 692.964844 258.015625 L 654.714844 284.246094 L 596.796875 327.957031 L 565.105469 354.1875 "/>
<path style="fill:none;stroke-width:2.4;stroke-linecap:round;stroke-linejoin:round;stroke:rgb(100%,0%,0%);stroke-opacity:1;stroke-miterlimit:4;" d="M 820.828125 166.21875 L 782.578125 203.375 L 732.308594 229.601562 L 692.390625 258.398438 "/>
<g clip-path="url(#clip2)" clip-rule="nonzero">
<path style="fill:none;stroke-width:2.4;stroke-linecap:round;stroke-linejoin:round;stroke:rgb(100%,0%,0%);stroke-opacity:1;stroke-miterlimit:4;" d="M 956.339844 1.199219 L 921.367188 40.542969 L 884.210938 98.460938 L 852.332031 136.179688 L 818.640625 167.3125 "/>
</g>
<path style="fill:none;stroke-width:2.4;stroke-linecap:round;stroke-linejoin:round;stroke:rgb(100%,0%,0%);stroke-opacity:1;stroke-miterlimit:4;" d="M 772.570312 181.496094 L 796.035156 145.804688 L 816.082031 117.9375 L 840.039062 84.203125 L 857.148438 55.847656 L 868.394531 29.933594 L 868.882812 14.777344 "/>
<path style="fill:none;stroke-width:2.4;stroke-linecap:round;stroke-linejoin:miter;stroke:rgb(58.822632%,58.822632%,58.822632%);stroke-opacity:1;stroke-miterlimit:4;" d="M 646.097656 193.082031 L 649.03125 158.371094 L 673.964844 120.726562 L 696.457031 82.589844 L 721.390625 62.546875 "/>
<path style="fill:none;stroke-width:1.827314;stroke-linecap:round;stroke-linejoin:round;stroke:rgb(100%,0%,0%);stroke-opacity:1;stroke-miterlimit:4;" d="M 282.207626 380.03803 L 349.953202 353.238065 L 390.156617 335.369147 " transform="matrix(1,-0.851486,0.851486,1,0,0)"/>
<path style="fill:none;stroke-width:1.827314;stroke-linecap:round;stroke-linejoin:round;stroke:rgb(100%,0%,0%);stroke-opacity:1;stroke-miterlimit:4;" d="M 307.145098 379.666469 C 307.145098 379.666469 351.815541 369.616789 353.676252 369.615221 C 355.539227 369.61558 370.798259 361.053745 370.798259 361.053745 L 373.404784 359.566133 L 397.22723 348.397487 " transform="matrix(1,-0.851486,0.851486,1,0,0)"/>
<path style="fill:none;stroke-width:1.827314;stroke-linecap:round;stroke-linejoin:round;stroke:rgb(100%,0%,0%);stroke-opacity:1;stroke-miterlimit:4;" d="M 225.922006 424.744425 L 245.649955 414.319842 L 261.285426 404.269945 L 276.547083 393.847063 L 287.340183 383.423955 L 296.646746 371.512426 L 309.302307 355.507209 " transform="matrix(1,-0.851486,0.851486,1,0,0)"/>
<path style="fill:none;stroke-width:1.827314;stroke-linecap:round;stroke-linejoin:round;stroke:rgb(100%,0%,0%);stroke-opacity:1;stroke-miterlimit:4;" d="M 263.516445 422.50947 C 266.494273 421.021612 282.128782 407.619333 282.128782 407.619333 L 294.414629 398.314934 L 308.930994 375.23401 L 320.842799 370.025183 L 328.287729 364.442562 L 331.264955 357.739346 " transform="matrix(1,-0.851486,0.851486,1,0,0)"/>
<path style="fill:none;stroke-width:1.827314;stroke-linecap:round;stroke-linejoin:round;stroke:rgb(100%,0%,0%);stroke-opacity:1;stroke-miterlimit:4;" d="M 263.592748 365.148659 L 310.868773 355.098846 L 343.253646 339.838174 L 376.012264 330.15746 " transform="matrix(1,-0.851486,0.851486,1,0,0)"/>
<path style="fill:none;stroke-width:1.979878;stroke-linecap:round;stroke-linejoin:round;stroke:rgb(100%,0%,0%);stroke-opacity:1;stroke-miterlimit:4;" d="M 198.247726 -677.742667 C 198.247726 -677.742667 208.861687 -690.275295 209.79396 -692.109212 C 210.721754 -693.942293 218.448937 -708.116833 218.448937 -708.116833 L 228.241032 -719.204743 L 241.278947 -734.408651 L 251.332516 -747.930695 L 254.215286 -756.756372 " transform="matrix(0.685141,-1,-1,-0.685141,0,0)"/>
<path style="fill:none;stroke-width:1.979878;stroke-linecap:round;stroke-linejoin:round;stroke:rgb(100%,0%,0%);stroke-opacity:1;stroke-miterlimit:4;" d="M 236.739527 -731.471919 L 237.21099 -736.156713 L 237.543903 -744.858308 L 238.07849 -757.269384 L 239.748373 -764.758091 " transform="matrix(0.685141,-1,-1,-0.685141,0,0)"/>
<path style="fill:none;stroke-width:1.979878;stroke-linecap:round;stroke-linejoin:round;stroke:rgb(100%,0%,0%);stroke-opacity:1;stroke-miterlimit:4;" d="M 242.529568 -736.536174 L 241.544652 -751.695356 L 244.815785 -760.415106 L 245.811474 -768.447762 " transform="matrix(0.685141,-1,-1,-0.685141,0,0)"/>
<path style="fill:none;stroke-width:1.979878;stroke-linecap:round;stroke-linejoin:round;stroke:rgb(100%,0%,0%);stroke-opacity:1;stroke-miterlimit:4;" d="M 252.893864 -753.345326 L 252.974971 -767.141319 " transform="matrix(0.685141,-1,-1,-0.685141,0,0)"/>
<path style="fill:none;stroke-width:1.979878;stroke-linecap:round;stroke-linejoin:round;stroke:rgb(100%,0%,0%);stroke-opacity:1;stroke-miterlimit:4;" d="M 229.764421 -721.485225 L 233.170289 -735.190788 L 231.970712 -741.387667 " transform="matrix(0.685141,-1,-1,-0.685141,0,0)"/>
<path style="fill:none;stroke-width:2.120485;stroke-linecap:round;stroke-linejoin:round;stroke:rgb(100%,0%,0%);stroke-opacity:1;stroke-miterlimit:4;" d="M 728.991875 -140.311145 L 710.849785 -120.44008 L 703.075002 -116.986621 " transform="matrix(1,0.530102,-0.530102,1,0,0)"/>
<path style="fill:none;stroke-width:2.120485;stroke-linecap:round;stroke-linejoin:round;stroke:rgb(100%,0%,0%);stroke-opacity:1;stroke-miterlimit:4;" d="M 732.447567 -121.736764 L 737.631629 -125.191877 L 750.159246 -135.559354 L 760.092628 -146.789904 " transform="matrix(1,0.530102,-0.530102,1,0,0)"/>
<path style="fill:none;stroke-width:2.120485;stroke-linecap:round;stroke-linejoin:round;stroke:rgb(100%,0%,0%);stroke-opacity:1;stroke-miterlimit:4;" d="M 714.738786 -117.849304 L 729.855061 -130.378096 L 739.791027 -142.473297 L 753.615064 -153.70379 L 772.621081 -169.25548 L 780.395437 -176.165744 " transform="matrix(1,0.530102,-0.530102,1,0,0)"/>
<path style="fill:none;stroke-width:2.120485;stroke-linecap:round;stroke-linejoin:round;stroke:rgb(100%,0%,0%);stroke-opacity:1;stroke-miterlimit:4;" d="M 788.804595 -174.760174 L 770.665554 -154.890726 L 762.889338 -151.432601 " transform="matrix(1,0.530102,-0.530102,1,0,0)"/>
<path style="fill:none;stroke-width:2.120485;stroke-linecap:round;stroke-linejoin:round;stroke:rgb(100%,0%,0%);stroke-opacity:1;stroke-miterlimit:4;" d="M 792.260286 -156.185793 L 797.444349 -159.640907 L 809.971966 -170.008384 L 819.908397 -181.24055 " transform="matrix(1,0.530102,-0.530102,1,0,0)"/>
<path style="fill:none;stroke-width:2.120485;stroke-linecap:round;stroke-linejoin:round;stroke:rgb(100%,0%,0%);stroke-opacity:1;stroke-miterlimit:4;" d="M 774.551505 -152.298333 L 789.669396 -164.824076 L 799.605362 -176.919277 L 813.429399 -188.14977 L 832.435417 -203.701461 L 840.209772 -210.611725 " transform="matrix(1,0.530102,-0.530102,1,0,0)"/>
<path style="fill:none;stroke-width:1.931789;stroke-linecap:round;stroke-linejoin:round;stroke:rgb(100%,0%,0%);stroke-opacity:1;stroke-miterlimit:4;" d="M 340.331911 331.30404 L 323.804216 349.404731 L 316.72089 352.553891 " transform="matrix(1,-0.737215,0.737215,1,0,0)"/>
<path style="fill:none;stroke-width:1.931789;stroke-linecap:round;stroke-linejoin:round;stroke:rgb(100%,0%,0%);stroke-opacity:1;stroke-miterlimit:4;" d="M 343.480293 348.22273 L 348.202896 345.075398 L 359.61378 335.632204 L 368.665598 325.39909 " transform="matrix(1,-0.737215,0.737215,1,0,0)"/>
<path style="fill:none;stroke-width:1.931789;stroke-linecap:round;stroke-linejoin:round;stroke:rgb(100%,0%,0%);stroke-opacity:1;stroke-miterlimit:4;" d="M 327.345261 351.765243 L 341.120806 340.354375 L 350.170549 329.334575 L 362.764115 319.103116 L 380.078211 304.937639 L 387.162031 298.640407 " transform="matrix(1,-0.737215,0.737215,1,0,0)"/>
<g clip-path="url(#clip3)" clip-rule="nonzero">
<path style=" stroke:none;fill-rule:evenodd;fill:rgb(0%,0%,100%);fill-opacity:0.0273972;" d="M 564.433594 68.078125 C 660.273438 -15.136719 862.335938 -17.246094 923.121094 45.296875 C 996.367188 120.664062 950.554688 323.375 829.339844 383.605469 C 715.996094 439.925781 457.496094 450.722656 447.558594 430.597656 C 464.253906 321.964844 431.132812 183.824219 564.433594 68.078125 Z M 564.433594 68.078125 "/>
</g>
<g clip-path="url(#clip4)" clip-rule="nonzero">
<path style="fill:none;stroke-width:0.8;stroke-linecap:butt;stroke-linejoin:miter;stroke:rgb(0%,0%,0%);stroke-opacity:1;stroke-miterlimit:4;" d="M 564.433594 68.078125 C 660.273438 -15.136719 862.335938 -17.246094 923.121094 45.296875 C 996.367188 120.664062 950.554688 323.375 829.339844 383.605469 C 715.996094 439.925781 457.496094 450.722656 447.558594 430.597656 C 464.253906 321.964844 431.132812 183.824219 564.433594 68.078125 Z M 564.433594 68.078125 "/>
</g>
<path style="fill-rule:evenodd;fill:rgb(100%,0%,100%);fill-opacity:0.0593608;stroke-width:0.8;stroke-linecap:butt;stroke-linejoin:miter;stroke:rgb(0%,0%,0%);stroke-opacity:1;stroke-miterlimit:4;" d="M 590.753906 162.269531 C 661.894531 86.5625 790.730469 68.296875 846.460938 124.21875 C 902.191406 180.140625 808.457031 329.15625 710.65625 371.441406 C 612.855469 413.722656 495.777344 418.992188 485.972656 403.59375 C 479.59375 391.675781 519.609375 237.976562 590.753906 162.269531 Z M 590.753906 162.269531 "/>
<path style="fill-rule:evenodd;fill:rgb(100%,0%,0%);fill-opacity:0.0821918;stroke-width:0.8;stroke-linecap:butt;stroke-linejoin:miter;stroke:rgb(0%,0%,0%);stroke-opacity:1;stroke-miterlimit:4;" d="M 590.757812 227.078125 C 634.773438 184.042969 724.964844 162.554688 748.679688 203.253906 C 772.394531 243.957031 727.074219 306.351562 695.132812 330.980469 C 634.976562 377.367188 528.117188 392.585938 522.304688 382.765625 C 516.492188 372.945312 546.742188 270.109375 590.757812 227.078125 Z M 590.757812 227.078125 "/>
</g>
</svg>
