<?xml version="1.0" encoding="UTF-8" standalone="no"?>
<!-- Created with Inkscape (http://www.inkscape.org/) -->

<svg
   xmlns:dc="http://purl.org/dc/elements/1.1/"
   xmlns:cc="http://creativecommons.org/ns#"
   xmlns:rdf="http://www.w3.org/1999/02/22-rdf-syntax-ns#"
   xmlns:svg="http://www.w3.org/2000/svg"
   xmlns="http://www.w3.org/2000/svg"
   version="1.1"
   width="1042.5"
   height="955.79541"
   id="svg2">
  <defs
     id="defs4" />
  <metadata
     id="metadata7">
    <rdf:RDF>
      <cc:Work
         rdf:about="">
        <dc:format>image/svg+xml</dc:format>
        <dc:type
           rdf:resource="http://purl.org/dc/dcmitype/StillImage" />
        <dc:title></dc:title>
      </cc:Work>
    </rdf:RDF>
  </metadata>
  <g
     transform="translate(0.5,-97.066803)"
     id="layer1">
    <path
       d="m 0,1052.3622 136.45127,0 4.72615,-119.08107 11.42857,-175.71433 15.71429,-160 15.71428,-144.28572 21.42857,-135.71428 24.28572,-158.57143 14.28571,-61.428567 41.42857,68.571427 108.57143,161.42857 121.42857,208.57143 92.85716,180 84.2857,157.14285 42.8571,84.28575 37.3203,94.79537 268.71661,-0.5096"
       id="path2996"
       style="fill:none;stroke:#000000;stroke-width:1px;stroke-linecap:butt;stroke-linejoin:miter;stroke-opacity:1" />
    <path
       d="m 0,151.85251 118.32028,1.42857 18.57142,28.57143 74.28572,590 31.42857,84.28572 80,-31.42857 87.14286,-68.57143 71.42857,-17.14286 70,-42.85714 54.28567,-55.71429 45.7143,-42.85714 55.7143,-11.42857 45.7143,-21.42857 20,-28.57143 101.4286,71.42857 65.7143,-30 101.75111,42.85714"
       id="path3000"
       style="fill:none;stroke:#000000;stroke-width:1px;stroke-linecap:butt;stroke-linejoin:miter;stroke-opacity:1" />
  </g>
</svg>
