<?xml version="1.0" encoding="UTF-8" standalone="no"?>
<!-- Created with Inkscape (http://www.inkscape.org/) -->

<svg
   xmlns:dc="http://purl.org/dc/elements/1.1/"
   xmlns:cc="http://creativecommons.org/ns#"
   xmlns:rdf="http://www.w3.org/1999/02/22-rdf-syntax-ns#"
   xmlns:svg="http://www.w3.org/2000/svg"
   xmlns="http://www.w3.org/2000/svg"
   xmlns:sodipodi="http://sodipodi.sourceforge.net/DTD/sodipodi-0.dtd"
   xmlns:inkscape="http://www.inkscape.org/namespaces/inkscape"
   id="svg2"
   version="1.1"
   inkscape:version="0.91 r13725"
   width="572.6875"
   height="309.5"
   xml:space="preserve"
   sodipodi:docname="Elongation2.svg"><metadata
     id="metadata8"><rdf:RDF><cc:Work
         rdf:about=""><dc:format>image/svg+xml</dc:format><dc:type
           rdf:resource="http://purl.org/dc/dcmitype/StillImage" /><dc:title /></cc:Work></rdf:RDF></metadata><defs
     id="defs6"><marker
       inkscape:isstock="true"
       style="overflow:visible;"
       id="marker6313"
       refX="0.0"
       refY="0.0"
       orient="auto"
       inkscape:stockid="Arrow1Lend"><path
         transform="scale(0.8) rotate(180) translate(12.5,0)"
         style="fill-rule:evenodd;stroke:#000000;stroke-width:1pt;stroke-opacity:1;fill:#000000;fill-opacity:1"
         d="M 0.0,0.0 L 5.0,-5.0 L -12.5,0.0 L 5.0,5.0 L 0.0,0.0 z "
         id="path6315" /></marker><marker
       inkscape:isstock="true"
       style="overflow:visible"
       id="marker6279"
       refX="0.0"
       refY="0.0"
       orient="auto"
       inkscape:stockid="Arrow1Lstart"><path
         transform="scale(0.8) translate(12.5,0)"
         style="fill-rule:evenodd;stroke:#000000;stroke-width:1pt;stroke-opacity:1;fill:#000000;fill-opacity:1"
         d="M 0.0,0.0 L 5.0,-5.0 L -12.5,0.0 L 5.0,5.0 L 0.0,0.0 z "
         id="path6281" /></marker><marker
       inkscape:stockid="Arrow1Lend"
       orient="auto"
       refY="0.0"
       refX="0.0"
       id="Arrow1Lend"
       style="overflow:visible;"
       inkscape:isstock="true"
       inkscape:collect="always"><path
         id="path5928"
         d="M 0.0,0.0 L 5.0,-5.0 L -12.5,0.0 L 5.0,5.0 L 0.0,0.0 z "
         style="fill-rule:evenodd;stroke:#000000;stroke-width:1pt;stroke-opacity:1;fill:#000000;fill-opacity:1"
         transform="scale(0.8) rotate(180) translate(12.5,0)" /></marker><marker
       inkscape:stockid="Arrow1Lstart"
       orient="auto"
       refY="0.0"
       refX="0.0"
       id="Arrow1Lstart"
       style="overflow:visible"
       inkscape:isstock="true"
       inkscape:collect="always"><path
         id="path5925"
         d="M 0.0,0.0 L 5.0,-5.0 L -12.5,0.0 L 5.0,5.0 L 0.0,0.0 z "
         style="fill-rule:evenodd;stroke:#000000;stroke-width:1pt;stroke-opacity:1;fill:#000000;fill-opacity:1"
         transform="scale(0.8) translate(12.5,0)" /></marker><marker
       inkscape:stockid="Arrow1Mstart"
       orient="auto"
       refY="0.0"
       refX="0.0"
       id="Arrow1Mstart"
       style="overflow:visible"
       inkscape:isstock="true"><path
         id="path5931"
         d="M 0.0,0.0 L 5.0,-5.0 L -12.5,0.0 L 5.0,5.0 L 0.0,0.0 z "
         style="fill-rule:evenodd;stroke:#000000;stroke-width:1pt;stroke-opacity:1;fill:#000000;fill-opacity:1"
         transform="scale(0.4) translate(10,0)" /></marker><clipPath
       clipPathUnits="userSpaceOnUse"
       id="clipPath16"><path
         d="m 143.6,150.4 341.2,0 0,234.1 -341.2,0 0,-234.1 z"
         clip-rule="evenodd"
         id="path18"
         inkscape:connector-curvature="0" /></clipPath><clipPath
       clipPathUnits="userSpaceOnUse"
       id="clipPath632"><path
         d="m 0,-0.2 793.6,0 0,595.2 L 0,595 0,-0.2 z"
         clip-rule="evenodd"
         id="path634"
         inkscape:connector-curvature="0" /></clipPath></defs><sodipodi:namedview
     pagecolor="#ffffff"
     bordercolor="#666666"
     borderopacity="1"
     objecttolerance="10"
     gridtolerance="10"
     guidetolerance="10"
     inkscape:pageopacity="0"
     inkscape:pageshadow="2"
     inkscape:window-width="1347"
     inkscape:window-height="784"
     id="namedview4"
     showgrid="false"
     fit-margin-top="0"
     fit-margin-left="0"
     fit-margin-right="0"
     fit-margin-bottom="0"
     inkscape:zoom="1.697446"
     inkscape:cx="200.06887"
     inkscape:cy="154.18445"
     inkscape:window-x="0"
     inkscape:window-y="0"
     inkscape:window-maximized="0"
     inkscape:current-layer="g10"
     showguides="true"
     inkscape:guide-bbox="true" /><g
     inkscape:groupmode="layer"
     id="layer1"
     inkscape:label="Elongation3"><g
       style=""
       id="g5852"
       transform="matrix(1.1198236,0,0,-1.3558045,-97.407107,511.87031)"><g
         id="g5836"><path
           d="m 382.5,297.7 c 0,-43.6 11.8,-78.9 26.4,-78.9 14.5,0 26.3,35.3 26.3,78.9 0,43.6 -11.8,78.9 -26.3,78.9 -14.6,0 -26.4,-35.3 -26.4,-78.9 l 0,0 z"
           style="fill:none;stroke:#000000;stroke-width:0.59204;stroke-linecap:round;stroke-linejoin:round;stroke-miterlimit:10;stroke-dasharray:none;stroke-opacity:1"
           id="path5838"
           inkscape:connector-curvature="0" /></g><g
         id="g5840"><path
           d="m 170.5,376.6 c -14.6,0.4 -26.4,-34.7 -26.6,-78.3 0,-43.6 11.6,-79.1 26.2,-79.5 0.3,0 0.6,0 0.9,0"
           style="fill:none;stroke:#000000;stroke-width:0.59204;stroke-linecap:round;stroke-linejoin:round;stroke-miterlimit:10;stroke-dasharray:none;stroke-opacity:1"
           id="path5842"
           inkscape:connector-curvature="0" /></g><g
         id="g5844"><path
           d="m 410.1,376.6 c -237.8,0 -237.8,0 -237.8,0"
           style="fill:none;stroke:#000000;stroke-width:0.59204;stroke-linecap:round;stroke-linejoin:round;stroke-miterlimit:10;stroke-dasharray:none;stroke-opacity:1"
           id="path5846"
           inkscape:connector-curvature="0" /></g><g
         id="g5848"><path
           d="m 409.1,219 c -238.6,0 -238.6,0 -238.6,0"
           style="fill:none;stroke:#000000;stroke-width:0.59204;stroke-linecap:round;stroke-linejoin:round;stroke-miterlimit:10;stroke-dasharray:none;stroke-opacity:1"
           id="path5850"
           inkscape:connector-curvature="0" /></g></g></g><g
     id="g10"
     inkscape:groupmode="layer"
     inkscape:label="Elongation2"
     transform="matrix(1.25,0,0,-1.25,-131.8125,480.625)"><g
       id="g20"
       style="stroke:#000000;stroke-opacity:1;stroke-width:1;stroke-miterlimit:4;stroke-dasharray:4,4;stroke-dashoffset:0"><path
         d="m 382.5,297.7 c 0,-43.6 11.8,-78.9 26.4,-78.9 14.5,0 26.3,35.3 26.3,78.9 0,43.6 -11.8,78.9 -26.3,78.9 -14.6,0 -26.4,-35.3 -26.4,-78.9 l 0,0 z"
         style="fill:none;stroke:#000000;stroke-width:1;stroke-linecap:round;stroke-linejoin:round;stroke-miterlimit:4;stroke-dasharray:4,4;stroke-opacity:1;stroke-dashoffset:0"
         id="path22"
         inkscape:connector-curvature="0" /></g><g
       id="g24"
       style="stroke:#000000;stroke-opacity:1;stroke-width:1;stroke-miterlimit:4;stroke-dasharray:4,4;stroke-dashoffset:0"><path
         d="m 170.5,376.6 c -14.6,0.4 -26.4,-34.7 -26.6,-78.3 0,-43.6 11.6,-79.1 26.2,-79.5 0.3,0 0.6,0 0.9,0"
         style="fill:none;stroke:#000000;stroke-width:1;stroke-linecap:round;stroke-linejoin:round;stroke-miterlimit:4;stroke-dasharray:4,4;stroke-opacity:1;stroke-dashoffset:0"
         id="path26"
         inkscape:connector-curvature="0" /></g><g
       id="g28"
       style="stroke:#000000;stroke-opacity:1;stroke-width:1;stroke-miterlimit:4;stroke-dasharray:4,4;stroke-dashoffset:0"><path
         d="m 410.1,376.6 c -237.8,0 -237.8,0 -237.8,0"
         style="fill:none;stroke:#000000;stroke-width:1;stroke-linecap:round;stroke-linejoin:round;stroke-miterlimit:4;stroke-dasharray:4,4;stroke-opacity:1;stroke-dashoffset:0"
         id="path30"
         inkscape:connector-curvature="0" /></g><g
       id="g32"
       style="stroke:#000000;stroke-opacity:1;stroke-width:1;stroke-miterlimit:4;stroke-dasharray:4,4;stroke-dashoffset:0"><path
         d="m 409.1,219 c -238.6,0 -238.6,0 -238.6,0"
         style="fill:none;stroke:#000000;stroke-width:1;stroke-linecap:round;stroke-linejoin:round;stroke-miterlimit:4;stroke-dasharray:4,4;stroke-opacity:1;stroke-dashoffset:0"
         id="path34"
         inkscape:connector-curvature="0" /></g><g
       id="g580"><path
         d="m 482.2,384.3 0,-172.3"
         style="fill:none;stroke:#000000;stroke-width:0.59204;stroke-linecap:round;stroke-linejoin:round;stroke-miterlimit:10;stroke-dasharray:none;stroke-opacity:1"
         id="path582"
         inkscape:connector-curvature="0" /></g><g
       id="g584"><path
         d="m 482.2,378.3 2.4,-2.3 -2.4,8.3 -2.4,-8.3 2.4,2.3 0,0 z"
         style="fill:none;stroke:#000000;stroke-width:0.59170002;stroke-linecap:butt;stroke-linejoin:miter;stroke-miterlimit:7.66129017;stroke-dasharray:none;stroke-opacity:1"
         id="path586"
         inkscape:connector-curvature="0" /></g><g
       id="g588"><path
         d="m 482.2,218 -2.4,2.3 2.4,-8.3 2.4,8.3 -2.4,-2.3 0,0 z"
         style="fill:none;stroke:#000000;stroke-width:0.59170002;stroke-linecap:butt;stroke-linejoin:miter;stroke-miterlimit:7.66129017;stroke-dasharray:none;stroke-opacity:1"
         id="path590"
         inkscape:connector-curvature="0" /></g><g
       id="g592"><path
         d="m 456.7,374.1 0,-158.7"
         style="fill:none;stroke:#000000;stroke-width:0.59204;stroke-linecap:round;stroke-linejoin:round;stroke-miterlimit:10;stroke-dasharray:none;stroke-opacity:1"
         id="path594"
         inkscape:connector-curvature="0" /></g><g
       id="g596"><path
         d="m 456.7,368.2 2.4,-2.4 -2.4,8.3 -2.3,-8.3 2.3,2.4 0,0 z"
         style="fill:none;stroke:#000000;stroke-width:0.59170002;stroke-linecap:butt;stroke-linejoin:miter;stroke-miterlimit:7.66129017;stroke-dasharray:none;stroke-opacity:1"
         id="path598"
         inkscape:connector-curvature="0" /></g><g
       id="g600"><path
         d="m 456.7,221.3 -2.3,2.4 2.3,-8.3 2.4,8.3 -2.4,-2.4 0,0 z"
         style="fill:none;stroke:#000000;stroke-width:0.59170002;stroke-linecap:butt;stroke-linejoin:miter;stroke-miterlimit:7.66129017;stroke-dasharray:none;stroke-opacity:1"
         id="path602"
         inkscape:connector-curvature="0" /></g><path
       d="m 290,138.63006 -4.5,0 0,19.5 9,0 0,-19.5 -4.5,0 z"
       style="fill:#ffffff;fill-opacity:1;fill-rule:evenodd;stroke:none"
       id="path636"
       inkscape:connector-curvature="0" /><path
       d="m 292.7,157.83006 c 0,0 0,0.3 -0.3,0.3 -0.7,0 -2.8,-0.3 -3.5,-0.3 -0.2,0 -0.5,0 -0.5,-0.6 0,-0.3 0.3,-0.3 0.7,-0.3 1.3,0 1.4,-0.2 1.4,-0.5 l -0.1,-0.5 -3.5,-14 c -0.1,-0.3 -0.2,-0.6 -0.2,-1 0,-1.6 1.3,-2.6 2.5,-2.6 1,0 1.7,0.6 2.2,1.6 0.5,1 0.9,2.7 0.9,2.8 0,0.2 -0.3,0.2 -0.4,0.2 -0.3,0 -0.3,-0.1 -0.4,-0.4 -0.5,-1.9 -1,-3.6 -2.2,-3.6 -0.8,0 -0.8,0.9 -0.8,1.3 0,0.7 0,0.8 0.2,1.4 l 4,16.2 z"
       style="fill:#000000;fill-opacity:1;fill-rule:evenodd;stroke:none"
       id="path638"
       inkscape:connector-curvature="0" /><path
       d="m 285.9,174.93006 -37.6,0 0,21.7 75.2,0 0,-21.7 -37.6,0 z"
       style="fill:#ffffff;fill-opacity:1;fill-rule:evenodd;stroke:none"
       id="path640"
       inkscape:connector-curvature="0" /><path
       d="m 255.5,196.33006 c 0,0 0,0.3 -0.3,0.3 -0.7,0 -2.8,-0.2 -3.5,-0.3 -0.2,0 -0.6,0 -0.6,-0.5 0,-0.4 0.4,-0.4 0.8,-0.4 1.3,0 1.4,-0.2 1.4,-0.4 l -0.1,-0.6 -3.6,-14 c 0,-0.3 -0.1,-0.5 -0.1,-0.9 0,-1.6 1.3,-2.7 2.5,-2.7 1,0 1.7,0.6 2.2,1.6 0.5,1.1 0.8,2.8 0.8,2.8 0,0.3 -0.2,0.3 -0.3,0.3 -0.3,0 -0.3,-0.1 -0.4,-0.5 -0.5,-1.8 -1,-3.5 -2.2,-3.5 -0.8,0 -0.8,0.9 -0.8,1.3 0,0.7 0,0.8 0.2,1.3 l 4,16.2 z"
       style="fill:#000000;fill-opacity:1;fill-rule:evenodd;stroke:none"
       id="path642"
       inkscape:connector-curvature="0" /><path
       d="m 303.6,196.83006 c -0.1,0.3 -0.2,0.5 -0.7,0.5 -0.4,0 -0.5,-0.2 -0.7,-0.5 l -9.4,-19.1 c -0.2,-0.2 -0.2,-0.2 -0.2,-0.3 0,-0.2 0.2,-0.2 0.6,-0.2 l 19.5,0 c 0.4,0 0.6,0 0.6,0.2 0,0.1 0,0.1 -0.1,0.3 l -9.6,19.1 z m -1.5,-2.3 7.5,-15.2 -15.1,0 7.6,15.2 z"
       style="fill:#000000;fill-opacity:1;fill-rule:evenodd;stroke:none"
       id="path646"
       inkscape:connector-curvature="0" /><path
       d="m 321.8,196.33006 c 0,0 0,0.3 -0.3,0.3 -0.7,0 -2.8,-0.2 -3.5,-0.3 -0.2,0 -0.5,0 -0.5,-0.5 0,-0.4 0.3,-0.4 0.7,-0.4 1.3,0 1.4,-0.2 1.4,-0.4 l -0.1,-0.6 -3.6,-14 c 0,-0.3 -0.1,-0.5 -0.1,-0.9 0,-1.6 1.3,-2.7 2.5,-2.7 1,0 1.7,0.6 2.2,1.6 0.5,1.1 0.8,2.8 0.8,2.8 0,0.3 -0.2,0.3 -0.3,0.3 -0.3,0 -0.3,-0.1 -0.4,-0.5 -0.5,-1.8 -1,-3.5 -2.2,-3.5 -0.8,0 -0.8,0.9 -0.8,1.3 0,0.7 0,0.8 0.2,1.3 l 4,16.2 z"
       style="fill:#000000;fill-opacity:1;fill-rule:evenodd;stroke:none"
       id="path648"
       inkscape:connector-curvature="0" /><path
       d="m 520.4,282.2 -43.2,0 0,21.8 86.4,0 0,-21.8 -43.2,0 z"
       style="fill:#ffffff;fill-opacity:1;fill-rule:evenodd;stroke:none"
       id="path650"
       inkscape:connector-curvature="0" /><path
       d="m 491.6,303.7 c 0,0 0,0.3 -0.3,0.3 -0.5,0 -3.1,-0.3 -3.6,-0.3 -0.2,0 -0.4,-0.2 -0.4,-0.6 0,-0.3 0.3,-0.3 0.7,-0.3 1.3,0 1.4,-0.2 1.4,-0.5 l -0.1,-0.5 -1.7,-6.7 c -0.5,1.1 -1.3,1.8 -2.6,1.8 -3.2,0 -6.7,-4.1 -6.7,-8.2 0,-2.6 1.5,-4.5 3.7,-4.5 0.6,0 2,0.2 3.7,2.1 0.2,-1.2 1.2,-2.1 2.5,-2.1 1,0 1.7,0.6 2.1,1.6 0.5,0.9 0.9,2.7 0.9,2.8 0,0.2 -0.3,0.2 -0.4,0.2 -0.3,0 -0.3,-0.1 -0.4,-0.5 -0.4,-1.8 -1,-3.5 -2.1,-3.5 -0.8,0 -0.9,0.7 -0.9,1.3 0,0.7 0.1,0.9 0.2,1.3 l 4,16.3 z m -5.8,-15.9 c -0.1,-0.4 -0.1,-0.5 -0.5,-1 -1.3,-1.5 -2.4,-2 -3.2,-2 -1.4,0 -1.8,1.5 -1.8,2.6 0,1.5 0.9,4.9 1.6,6.2 0.8,1.6 2,2.7 3.2,2.7 1.8,0 2.1,-2.3 2.1,-2.5 0,-0.2 0,-0.3 0,-0.5 l -1.4,-5.5 z"
       style="fill:#000000;fill-opacity:1;fill-rule:evenodd;stroke:none"
       id="path652"
       inkscape:connector-curvature="0" /><path
       d="m 509.4,290.9 7.8,0 c 0.4,0 0.9,0 0.9,0.6 0,0.6 -0.5,0.6 -0.9,0.6 l -7.8,0 0,7.8 c 0,0.4 0,0.9 -0.6,0.9 -0.6,0 -0.6,-0.5 -0.6,-0.9 l 0,-7.8 -7.7,0 c -0.4,0 -1,0 -1,-0.6 0,-0.6 0.6,-0.6 1,-0.6 l 7.7,0 0,-7.8 c 0,-0.4 0,-0.9 0.6,-0.9 0.6,0 0.6,0.5 0.6,0.9 l 0,7.8 z"
       style="fill:#000000;fill-opacity:1;fill-rule:evenodd;stroke:none"
       id="path654"
       inkscape:connector-curvature="0" /><path
       d="m 538.2,304.1 c -0.2,0.3 -0.3,0.5 -0.8,0.5 -0.4,0 -0.5,-0.2 -0.7,-0.5 l -9.4,-19 c -0.2,-0.3 -0.2,-0.3 -0.2,-0.4 0,-0.2 0.2,-0.2 0.7,-0.2 l 19.4,0 c 0.4,0 0.6,0 0.6,0.2 0,0.1 0,0.1 -0.1,0.4 l -9.5,19 z m -1.6,-2.3 7.5,-15.2 -15.1,0 7.6,15.2 z"
       style="fill:#000000;fill-opacity:1;fill-rule:evenodd;stroke:none"
       id="path656"
       inkscape:connector-curvature="0" /><path
       d="m 563.5,303.7 c 0,0 0,0.3 -0.3,0.3 -0.5,0 -3.1,-0.3 -3.6,-0.3 -0.2,0 -0.4,-0.2 -0.4,-0.6 0,-0.3 0.2,-0.3 0.6,-0.3 1.4,0 1.5,-0.2 1.5,-0.5 l -0.1,-0.5 -1.7,-6.7 c -0.5,1.1 -1.3,1.8 -2.6,1.8 -3.3,0 -6.8,-4.1 -6.8,-8.2 0,-2.6 1.6,-4.5 3.8,-4.5 0.5,0 2,0.2 3.6,2.1 0.3,-1.2 1.2,-2.1 2.6,-2.1 1,0 1.6,0.6 2,1.6 0.5,0.9 0.9,2.7 0.9,2.8 0,0.2 -0.2,0.2 -0.3,0.2 -0.3,0 -0.3,-0.1 -0.4,-0.5 -0.5,-1.8 -1,-3.5 -2.1,-3.5 -0.8,0 -0.9,0.7 -0.9,1.3 0,0.7 0.1,0.9 0.1,1.3 l 4.1,16.3 z m -5.8,-15.9 c -0.2,-0.4 -0.2,-0.5 -0.6,-1 -1.2,-1.5 -2.4,-2 -3.2,-2 -1.4,0 -1.8,1.5 -1.8,2.6 0,1.5 0.9,4.9 1.6,6.2 0.9,1.6 2.1,2.7 3.3,2.7 1.8,0 2.1,-2.3 2.1,-2.5 0,-0.2 0,-0.3 -0.1,-0.5 l -1.3,-5.5 z"
       style="fill:#000000;fill-opacity:1;fill-rule:evenodd;stroke:none"
       id="path658"
       inkscape:connector-curvature="0" /><path
       d="m 453.1,284.2 -7.3,0 0,19.5 14.6,0 0,-19.5 -7.3,0 z"
       style="fill:#ffffff;fill-opacity:1;fill-rule:evenodd;stroke:none"
       id="path660"
       inkscape:connector-curvature="0" /><path
       d="m 460.3,303.3 c 0,0 0,0.4 -0.4,0.4 -0.4,0 -3,-0.3 -3.5,-0.4 -0.2,0 -0.4,-0.1 -0.4,-0.5 0,-0.3 0.2,-0.3 0.6,-0.3 1.4,0 1.5,-0.2 1.5,-0.5 l -0.1,-0.6 -1.7,-6.6 c -0.5,1.1 -1.3,1.8 -2.6,1.8 -3.3,0 -6.8,-4.1 -6.8,-8.2 0,-2.6 1.5,-4.5 3.8,-4.5 0.5,0 2,0.2 3.6,2.2 0.3,-1.2 1.2,-2.2 2.6,-2.2 1,0 1.6,0.6 2,1.6 0.5,0.9 0.9,2.7 0.9,2.8 0,0.2 -0.2,0.2 -0.3,0.2 -0.3,0 -0.3,-0.1 -0.4,-0.5 -0.5,-1.8 -1,-3.5 -2.2,-3.5 -0.7,0 -0.8,0.8 -0.8,1.3 0,0.7 0.1,0.9 0.1,1.4 l 4.1,16.1 z m -5.8,-15.7 c -0.2,-0.5 -0.2,-0.6 -0.6,-1.1 -1.2,-1.5 -2.4,-2 -3.2,-2 -1.4,0 -1.8,1.6 -1.8,2.7 0,1.4 0.9,4.8 1.6,6.1 0.9,1.6 2.1,2.6 3.3,2.6 1.8,0 2.1,-2.3 2.1,-2.4 0,-0.2 0,-0.3 -0.1,-0.5 l -1.3,-5.4 z"
       style="fill:#000000;fill-opacity:1;fill-rule:evenodd;stroke:none"
       id="path662"
       inkscape:connector-curvature="0" /><path
       d="m 432.9,296.6 -26,0"
       style="fill:none;stroke:#000000;stroke-width:0.1;stroke-linecap:butt;stroke-linejoin:miter;stroke-miterlimit:10;stroke-dasharray:none;stroke-opacity:1"
       id="path664"
       inkscape:connector-curvature="0" /><path
       d="m 394.8,296.6 12.7,-4.3 0,8.5 -12.7,-4.2 z"
       style="fill:#000000;fill-opacity:1;fill-rule:evenodd;stroke:none"
       id="path666"
       inkscape:connector-curvature="0" /><path
       d="m 105.5,296.6 25.9,0"
       style="fill:none;stroke:#000000;stroke-width:0.1;stroke-linecap:butt;stroke-linejoin:miter;stroke-miterlimit:10;stroke-dasharray:none;stroke-opacity:1"
       id="path668"
       inkscape:connector-curvature="0" /><path
       d="m 143.6,296.6 -12.7,4.2 0,-8.5 12.7,4.3 z"
       style="fill:#000000;fill-opacity:1;fill-rule:evenodd;stroke:none"
       id="path670"
       inkscape:connector-curvature="0" /><text
       transform="scale(1,-1)"
       id="text672"
       x="122.5"
       y="-277.10001"><tspan
         style="font-style:italic;font-variant:normal;font-weight:bold;font-size:18px;font-family:'Times New Roman';-inkscape-font-specification:TimesNewRomanPS-BoldItalicMT;writing-mode:lr-tb;fill:#000000;fill-opacity:1;fill-rule:nonzero;stroke:none"
         x="122.5"
         y="-277.10001"
         id="tspan674">F</tspan></text>
<text
       transform="scale(1,-1)"
       id="text676"
       x="418.10001"
       y="-281.29999"><tspan
         style="font-style:italic;font-variant:normal;font-weight:bold;font-size:18px;font-family:'Times New Roman';-inkscape-font-specification:TimesNewRomanPS-BoldItalicMT;writing-mode:lr-tb;fill:#000000;fill-opacity:1;fill-rule:nonzero;stroke:none"
         x="418.10001"
         y="-281.29999"
         id="tspan678">F</tspan></text>
<path
       style="fill:none;fill-rule:evenodd;stroke:#000000;stroke-width:1.60000002;stroke-linecap:butt;stroke-linejoin:miter;stroke-miterlimit:4;stroke-dasharray:none;stroke-opacity:1"
       d="m 267.68464,185.85359 c 17.39673,0 16.99215,0 16.99215,0"
       id="path5917"
       inkscape:connector-curvature="0" /><path
       style="fill:none;fill-rule:evenodd;stroke:#000000;stroke-width:0.80000001px;stroke-linecap:butt;stroke-linejoin:miter;stroke-opacity:1;marker-start:url(#Arrow1Lstart);marker-end:url(#Arrow1Lend)"
       d="m 178.27353,186.55098 61.09085,0 m 92.64771,0 62.30457,0"
       id="path5919"
       inkscape:connector-curvature="0"
       sodipodi:nodetypes="cccc" /><path
       sodipodi:nodetypes="cccc"
       inkscape:connector-curvature="0"
       id="path6277"
       d="m 168.9683,149.75098 104.38039,0 m 31.96144,0 101.14378,0"
       style="fill:none;fill-rule:evenodd;stroke:#000000;stroke-width:0.80000001px;stroke-linecap:butt;stroke-linejoin:miter;stroke-opacity:1;marker-start:url(#marker6279);marker-end:url(#marker6313)" /><path
       inkscape:connector-curvature="0"
       id="path4231"
       d="m 276.18071,194.34967 c 0,-17.39673 0,-16.99215 0,-16.99215"
       style="fill:none;fill-rule:evenodd;stroke:#000000;stroke-width:1.60000002;stroke-linecap:butt;stroke-linejoin:miter;stroke-miterlimit:4;stroke-dasharray:none;stroke-opacity:1" /></g></svg>