<?xml version="1.0" encoding="UTF-8" standalone="no"?>
<!-- Created with Inkscape (http://www.inkscape.org/) -->

<svg
   xmlns:dc="http://purl.org/dc/elements/1.1/"
   xmlns:cc="http://creativecommons.org/ns#"
   xmlns:rdf="http://www.w3.org/1999/02/22-rdf-syntax-ns#"
   xmlns:svg="http://www.w3.org/2000/svg"
   xmlns="http://www.w3.org/2000/svg"
   xmlns:sodipodi="http://sodipodi.sourceforge.net/DTD/sodipodi-0.dtd"
   xmlns:inkscape="http://www.inkscape.org/namespaces/inkscape"
   width="353.35895mm"
   height="217.62564mm"
   viewBox="0 0 353.35895 217.62564"
   version="1.1"
   id="svg8"
   inkscape:version="0.92.3 (2405546, 2018-03-11)"
   sodipodi:docname="ExtendedAndPoint.svg">
  <defs
     id="defs2" />
  <sodipodi:namedview
     id="base"
     pagecolor="#ffffff"
     bordercolor="#666666"
     borderopacity="1.0"
     inkscape:pageopacity="0.0"
     inkscape:pageshadow="2"
     inkscape:zoom="0.763461"
     inkscape:cx="672.64844"
     inkscape:cy="507.15986"
     inkscape:document-units="mm"
     inkscape:current-layer="layer1"
     showgrid="false"
     inkscape:snap-grids="false"
     inkscape:snap-to-guides="false"
     inkscape:snap-others="false"
     inkscape:object-nodes="false"
     inkscape:snap-nodes="false"
     inkscape:snap-global="false"
     inkscape:window-width="1920"
     inkscape:window-height="1026"
     inkscape:window-x="0"
     inkscape:window-y="0"
     inkscape:window-maximized="1"
     fit-margin-top="0"
     fit-margin-left="0"
     fit-margin-right="0"
     fit-margin-bottom="0"
     showguides="true"
     inkscape:guide-bbox="true" />
  <metadata
     id="metadata5">
    <rdf:RDF>
      <cc:Work
         rdf:about="">
        <dc:format>image/svg+xml</dc:format>
        <dc:type
           rdf:resource="http://purl.org/dc/dcmitype/StillImage" />
        <dc:title></dc:title>
      </cc:Work>
    </rdf:RDF>
  </metadata>
  <g
     inkscape:label="Layer 1"
     inkscape:groupmode="layer"
     id="layer1"
     transform="translate(162.64287,-45.502836)">
    <path
       sodipodi:nodetypes="aaaaaaaaaaaaa"
       inkscape:connector-curvature="0"
       id="path823"
       d="m 35.529766,70.063092 c -19.375354,1.156268 -40.7773577,-5.798535 -58.160313,2.837088 -6.813661,3.384937 -15.75207,9.966277 -14.658292,17.495381 2.011089,13.843479 21.450965,19.653749 34.9907545,23.169529 13.9236845,3.61548 28.8995005,-0.60942 43.0291805,-3.30993 9.401676,-1.79689 17.947051,-7.17515 27.425188,-8.51127 7.493126,-1.05628 15.20285,1.52394 22.696707,0.47285 11.108619,-1.55809 23.907299,-2.325497 32.153709,-9.929788 3.11993,-2.876994 5.06746,-7.590818 4.72849,-11.821201 -0.36703,-4.580578 -3.33649,-9.174111 -7.09273,-11.821202 -7.22641,-5.09259 -17.16611,-5.201332 -26.006683,-5.201332 -6.429497,0 -12.542005,2.924234 -18.913922,3.782787 -13.310418,1.793447 -26.785242,2.037004 -40.192089,2.837088 z"
       style="fill:#e5e5e5;fill-opacity:1;stroke:#f97a00;stroke-width:0.62549984;stroke-linecap:butt;stroke-linejoin:miter;stroke-miterlimit:4;stroke-dasharray:none;stroke-opacity:1" />
    <path
       style="fill:#cccccc;stroke:#f90000;stroke-width:0.5;stroke-linecap:butt;stroke-linejoin:miter;stroke-miterlimit:4;stroke-dasharray:none;stroke-opacity:1"
       d="m 35.529766,73.238094 c -15.487896,0.924275 -32.5958207,-4.635121 -46.49107,2.267857 -5.446573,2.705785 -12.591586,7.96665 -11.717263,13.98512 1.607586,11.065949 17.1470563,15.710449 27.970234,18.520829 11.13005,2.89007 23.101127,-0.48715 34.395838,-2.64583 7.51533,-1.43636 14.389387,-5.464265 21.922618,-6.803573 6.086202,-1.082045 12.411621,-0.0014 18.520832,-0.944939 8.622439,-1.331665 18.781794,-0.842754 25.324435,-6.614583 2.544,-2.244279 4.05074,-6.067802 3.77978,-9.449404 -0.29339,-3.661534 -2.59947,-7.432759 -5.66967,-9.449405 -6.002031,-3.942407 -14.1749,-2.778752 -21.355675,-2.834823 -4.883567,-0.03813 -9.689658,1.245353 -14.552082,1.700894 -10.689166,1.001425 -21.41107,1.628301 -32.127977,2.267857 z"
       id="path10"
       inkscape:connector-curvature="0"
       sodipodi:nodetypes="aaaaaaaaaaaaa" />
    <path
       style="fill:none;stroke:#000000;stroke-width:0.26458332px;stroke-linecap:butt;stroke-linejoin:miter;stroke-opacity:1"
       d="M -2.7214289,45.721427 -162.58209,128.40612 H 153.8363 l 36.67641,-82.770902 z"
       id="path12"
       inkscape:connector-curvature="0"
       sodipodi:nodetypes="ccccc" />
    <path
       style="fill:none;stroke:#000000;stroke-width:1.5;stroke-linecap:round;stroke-linejoin:bevel;stroke-miterlimit:4;stroke-dasharray:none;stroke-opacity:1"
       d="m 16.630957,84.680381 h 50.613816 l -11.41395,-3.05836"
       id="path14"
       inkscape:connector-curvature="0" />
    <path
       inkscape:connector-curvature="0"
       id="path821"
       d="M 66.678205,89.556781 H 16.064388 l 11.413952,3.05836"
       style="fill:none;stroke:#000000;stroke-width:1.5;stroke-linecap:round;stroke-linejoin:bevel;stroke-miterlimit:4;stroke-dasharray:3.00000008, 3.00000008;stroke-dashoffset:0;stroke-opacity:1" />
    <path
       sodipodi:nodetypes="cccccc"
       inkscape:connector-curvature="0"
       id="path843"
       d="m 111.01791,81.234213 h 13.7161 l -2.66338,-1.46838 m 2.66338,1.48513 -2.66338,1.46839 z"
       style="fill:none;stroke:#000000;stroke-width:0.5;stroke-linecap:round;stroke-linejoin:bevel;stroke-miterlimit:4;stroke-dasharray:none;stroke-opacity:1" />
    <path
       style="fill:none;stroke:#000000;stroke-width:0.5;stroke-linecap:round;stroke-linejoin:bevel;stroke-miterlimit:4;stroke-dasharray:none;stroke-opacity:1"
       d="m 107.7186,89.998744 11.21344,5.068268 -1.72705,-2.503415 m 1.71956,2.5184 -3.03881,0.124107 z"
       id="path845"
       inkscape:connector-curvature="0"
       sodipodi:nodetypes="cccccc" />
    <path
       style="fill:none;stroke:#000000;stroke-width:0.5;stroke-linecap:round;stroke-linejoin:bevel;stroke-miterlimit:4;stroke-dasharray:none;stroke-opacity:1"
       d="m 94.795737,96.29456 2.579645,4.66872 -0.01453,-3.041304 m -1.04e-4,3.049464 -2.579532,-1.61115 z"
       id="path849"
       inkscape:connector-curvature="0"
       sodipodi:nodetypes="cccccc" />
    <path
       style="fill:none;stroke:#000000;stroke-width:0.5;stroke-linecap:round;stroke-linejoin:bevel;stroke-miterlimit:4;stroke-dasharray:none;stroke-opacity:1"
       d="M -25.077464,87.47082 H -35.20279 l 2.66338,-1.46838 m -2.66338,1.48513 2.66338,1.46839 z"
       id="path851"
       inkscape:connector-curvature="0"
       sodipodi:nodetypes="cccccc" />
    <path
       sodipodi:nodetypes="cccccc"
       inkscape:connector-curvature="0"
       id="path853"
       d="m -19.959059,97.08773 -9.000749,4.63775 1.695001,-2.525212 m -1.687329,2.540102 3.040144,0.0854 z"
       style="fill:none;stroke:#000000;stroke-width:0.5;stroke-linecap:round;stroke-linejoin:bevel;stroke-miterlimit:4;stroke-dasharray:none;stroke-opacity:1" />
    <path
       sodipodi:nodetypes="cccccc"
       inkscape:connector-curvature="0"
       id="path855"
       d="m -13.737583,75.322805 -4.157682,-3.071848 1.231201,2.780986 m -1.221059,-2.794324 3.008858,0.443358 z"
       style="fill:none;stroke:#000000;stroke-width:0.5;stroke-linecap:round;stroke-linejoin:bevel;stroke-miterlimit:4;stroke-dasharray:none;stroke-opacity:1" />
    <path
       sodipodi:nodetypes="cccccc"
       inkscape:connector-curvature="0"
       id="path857"
       d="m 107.43263,73.494699 11.67967,-3.874789 -2.96666,-0.669843 m 2.97131,0.685938 -2.15002,2.151091 z"
       style="fill:none;stroke:#000000;stroke-width:0.5;stroke-linecap:round;stroke-linejoin:bevel;stroke-miterlimit:4;stroke-dasharray:none;stroke-opacity:1" />
    <path
       sodipodi:nodetypes="cccccc"
       inkscape:connector-curvature="0"
       id="path859"
       d="m -4.4453133,106.61874 -3.4269072,4.08752 2.8321445,-1.10848 m -2.8450132,1.09779 0.5744114,-2.98661 z"
       style="fill:none;stroke:#000000;stroke-width:0.5;stroke-linecap:round;stroke-linejoin:bevel;stroke-miterlimit:4;stroke-dasharray:none;stroke-opacity:1"
       inkscape:transform-center-x="1.8932789"
       inkscape:transform-center-y="1.1438939" />
    <path
       inkscape:transform-center-y="2.2635139"
       inkscape:transform-center-x="0.3820909"
       style="fill:none;stroke:#000000;stroke-width:0.5;stroke-linecap:round;stroke-linejoin:bevel;stroke-miterlimit:4;stroke-dasharray:none;stroke-opacity:1"
       d="m 30.075392,107.92585 1.030654,3.9627 0.681104,-2.9641 m -0.697183,2.9687 -2.142936,-2.15815 z"
       id="path861"
       inkscape:connector-curvature="0"
       sodipodi:nodetypes="cccccc" />
    <path
       sodipodi:nodetypes="cccccc"
       inkscape:connector-curvature="0"
       id="path863"
       d="m 60.919033,99.261906 1.030654,3.962704 0.681104,-2.9641 m -0.697183,2.9687 -2.142936,-2.15815 z"
       style="fill:none;stroke:#000000;stroke-width:0.5;stroke-linecap:round;stroke-linejoin:bevel;stroke-miterlimit:4;stroke-dasharray:none;stroke-opacity:1"
       inkscape:transform-center-x="0.3820909"
       inkscape:transform-center-y="2.2635139" />
    <path
       inkscape:transform-center-y="-1.6574531"
       inkscape:transform-center-x="-1.1112546"
       style="fill:none;stroke:#000000;stroke-width:0.5;stroke-linecap:round;stroke-linejoin:bevel;stroke-miterlimit:4;stroke-dasharray:none;stroke-opacity:1"
       d="m 85.843953,68.345257 1.202362,-3.122137 -2.394826,1.874726 m 2.410216,-1.868182 0.30698,3.025815 z"
       id="path865"
       inkscape:connector-curvature="0"
       sodipodi:nodetypes="cccccc" />
    <path
       sodipodi:nodetypes="cccccc"
       inkscape:connector-curvature="0"
       id="path867"
       d="m 35.063733,73.213643 0.01277,-3.345632 -1.571046,2.604152 m 1.587758,-2.603511 1.363518,2.718567 z"
       style="fill:none;stroke:#000000;stroke-width:0.5;stroke-linecap:round;stroke-linejoin:bevel;stroke-miterlimit:4;stroke-dasharray:none;stroke-opacity:1"
       inkscape:transform-center-x="-0.7663356"
       inkscape:transform-center-y="-2.0991806" />
    <path
       inkscape:transform-center-y="-2.2696286"
       inkscape:transform-center-x="-0.28522615"
       style="fill:none;stroke:#000000;stroke-width:0.5;stroke-linecap:round;stroke-linejoin:bevel;stroke-miterlimit:4;stroke-dasharray:none;stroke-opacity:1"
       d="m -0.16523541,71.795898 -1.26353209,-3.097887 -0.4597341,3.0064 m 0.4754286,-3.012177 2.29686893,1.993534 z"
       id="path869"
       inkscape:connector-curvature="0"
       sodipodi:nodetypes="cccccc" />
    <path
       d="m 43.096796,215.23351 a 4.0002956,4.0002956 0 0 1 -3.996805,4.00029 4.0002956,4.0002956 0 0 1 -4.00378,-3.99331 4.0002956,4.0002956 0 0 1 3.989817,-4.00727 4.0002956,4.0002956 0 0 1 4.010744,3.98632"
       sodipodi:open="true"
       sodipodi:end="6.2796946"
       sodipodi:start="0"
       sodipodi:ry="4.0002956"
       sodipodi:rx="4.0002956"
       sodipodi:cy="215.23351"
       sodipodi:cx="39.0965"
       sodipodi:type="arc"
       id="path894"
       style="fill:#000000;fill-opacity:1;stroke:none;stroke-width:0.48095584;stroke-linecap:round;stroke-linejoin:bevel;stroke-miterlimit:4;stroke-dasharray:none;stroke-dashoffset:0;stroke-opacity:1;paint-order:markers fill stroke"
       inkscape:transform-center-y="-130.0096"
       inkscape:transform-center-x="-1.7738373e-06" />
    <path
       style="fill:none;stroke:#000000;stroke-width:1.44286752;stroke-linecap:round;stroke-linejoin:bevel;stroke-miterlimit:4;stroke-dasharray:none;stroke-opacity:1"
       d="m 38.776426,211.73667 48.685649,0.025 -10.977525,-2.94738 m 10.64442,3.0839 -10.981051,2.93608 z"
       id="path909"
       inkscape:connector-curvature="0"
       sodipodi:nodetypes="cccccc" />
    <path
       sodipodi:nodetypes="cccccc"
       inkscape:connector-curvature="0"
       id="path913"
       d="m 38.580537,218.40384 -48.685649,0.025 10.97752593,-2.94738 m -10.64441983,3.08391 10.9810495,2.93607 z"
       style="fill:none;stroke:#000000;stroke-width:1.44286752;stroke-linecap:round;stroke-linejoin:bevel;stroke-miterlimit:4;stroke-dasharray:none;stroke-opacity:1" />
    <path
       sodipodi:nodetypes="cccccc"
       inkscape:connector-curvature="0"
       id="path915"
       d="m 41.924432,215.72666 0.02501,-48.68566 -2.947375,10.97753 m 3.083899,-10.64442 2.936081,10.98105 z"
       style="fill:none;stroke:#000000;stroke-width:1.44286752;stroke-linecap:round;stroke-linejoin:bevel;stroke-miterlimit:4;stroke-dasharray:none;stroke-opacity:1" />
    <path
       style="fill:none;stroke:#000000;stroke-width:1.44286752;stroke-linecap:round;stroke-linejoin:bevel;stroke-miterlimit:4;stroke-dasharray:none;stroke-opacity:1"
       d="m 36.25735,214.25576 0.02501,48.68564 -2.947374,-10.97753 m 3.083898,10.64442 2.936081,-10.98105 z"
       id="path917"
       inkscape:connector-curvature="0"
       sodipodi:nodetypes="cccccc" />
    <path
       sodipodi:nodetypes="ccccc"
       inkscape:connector-curvature="0"
       id="path927"
       d="M -2.7214289,172.21501 -162.58209,254.8997 H 153.8363 l 36.67641,-82.7709 z"
       style="fill:none;stroke:#000000;stroke-width:0.26458332px;stroke-linecap:butt;stroke-linejoin:miter;stroke-opacity:1" />
    <text
       xml:space="preserve"
       style="font-style:normal;font-weight:normal;font-size:4.23333311px;line-height:1.25;font-family:sans-serif;letter-spacing:0px;word-spacing:0px;fill:#000000;fill-opacity:1;stroke:none;stroke-width:0.26458332"
       x="-127.9871"
       y="67.669899"
       id="text933"><tspan
         sodipodi:role="line"
         id="tspan931"
         x="-127.9871"
         y="67.669899"
         style="font-size:9.87777805px;stroke-width:0.26458332">(a)</tspan><tspan
         sodipodi:role="line"
         x="-127.9871"
         y="75.023109"
         style="font-size:7.76111126px;stroke-width:0.26458332"
         id="tspan935" /></text>
    <text
       id="text941"
       y="188.96512"
       x="-127.9871"
       style="font-style:normal;font-weight:normal;font-size:4.23333311px;line-height:1.25;font-family:sans-serif;letter-spacing:0px;word-spacing:0px;fill:#000000;fill-opacity:1;stroke:none;stroke-width:0.26458332"
       xml:space="preserve"
       inkscape:transform-center-y="-104.66044"><tspan
         style="font-size:9.87777805px;stroke-width:0.26458332"
         y="188.96512"
         x="-127.9871"
         id="tspan937"
         sodipodi:role="line">(b)</tspan><tspan
         id="tspan939"
         style="font-size:7.76111126px;stroke-width:0.26458332"
         y="196.31833"
         x="-127.9871"
         sodipodi:role="line" /></text>
  </g>
</svg>
