<?xml version="1.0" encoding="UTF-8" standalone="no"?>
<!-- Created with Inkscape (http://www.inkscape.org/) -->

<svg
   xmlns:ns0="http://www.iki.fi/pav/software/textext/"
   xmlns:dc="http://purl.org/dc/elements/1.1/"
   xmlns:cc="http://creativecommons.org/ns#"
   xmlns:rdf="http://www.w3.org/1999/02/22-rdf-syntax-ns#"
   xmlns:svg="http://www.w3.org/2000/svg"
   xmlns="http://www.w3.org/2000/svg"
   xmlns:xlink="http://www.w3.org/1999/xlink"
   xmlns:sodipodi="http://sodipodi.sourceforge.net/DTD/sodipodi-0.dtd"
   xmlns:inkscape="http://www.inkscape.org/namespaces/inkscape"
   width="710.55664"
   height="293.30096"
   id="svg2"
   sodipodi:version="0.32"
   inkscape:version="0.91 r13725"
   version="1.0"
   sodipodi:docname="InterfaceSketchSimple.svg"
   inkscape:output_extension="org.inkscape.output.svg.inkscape"
   inkscape:export-filename="/home/snielsen/Corso/PlaneWaveSketch.png"
   inkscape:export-xdpi="200"
   inkscape:export-ydpi="200">
  <sodipodi:namedview
     id="base"
     pagecolor="#ffffff"
     bordercolor="#666666"
     borderopacity="1.0"
     gridtolerance="10000"
     guidetolerance="10"
     objecttolerance="10"
     inkscape:pageopacity="0.0"
     inkscape:pageshadow="2"
     inkscape:zoom="1.38168"
     inkscape:cx="362.25905"
     inkscape:cy="147.25736"
     inkscape:document-units="px"
     inkscape:current-layer="layer1"
     width="1052.3622px"
     height="744.09448px"
     showguides="true"
     inkscape:guide-bbox="true"
     inkscape:window-width="1920"
     inkscape:window-height="1032"
     inkscape:window-x="0"
     inkscape:window-y="0"
     showgrid="false"
     fit-margin-top="0"
     fit-margin-left="0"
     fit-margin-right="0"
     fit-margin-bottom="0"
     inkscape:window-maximized="1" />
  <defs
     id="defs4">
    <marker
       style="overflow:visible"
       id="Arrow2Send"
       refX="0"
       refY="0"
       orient="auto"
       inkscape:stockid="Arrow2Send">
      <path
         inkscape:connector-curvature="0"
         transform="matrix(-0.3,0,0,-0.3,0.69,0)"
         d="M 8.7185878,4.0337352 -2.2072895,0.01601326 8.7185884,-4.0017078 c -1.7454984,2.3720609 -1.7354408,5.6174519 -6e-7,8.035443 z"
         style="font-size:12px;fill-rule:evenodd;stroke-width:0.625;stroke-linejoin:round"
         id="path5370" />
    </marker>
    <marker
       style="overflow:visible"
       id="StopM"
       refX="0"
       refY="0"
       orient="auto"
       inkscape:stockid="StopM">
      <path
         inkscape:connector-curvature="0"
         transform="scale(0.4,0.4)"
         style="fill:none;stroke:#000000;stroke-width:1pt"
         d="M 0,5.65 0,-5.65"
         id="path5447" />
    </marker>
    <marker
       style="overflow:visible"
       id="StopL"
       refX="0"
       refY="0"
       orient="auto"
       inkscape:stockid="StopL">
      <path
         inkscape:connector-curvature="0"
         transform="scale(0.8,0.8)"
         style="fill:none;stroke:#000000;stroke-width:1pt"
         d="M 0,5.65 0,-5.65"
         id="path5444" />
    </marker>
    <marker
       style="overflow:visible"
       id="Dot_l"
       refX="0"
       refY="0"
       orient="auto"
       inkscape:stockid="Dot_l">
      <path
         inkscape:connector-curvature="0"
         transform="matrix(0.8,0,0,0.8,5.92,0.8)"
         style="fill-rule:evenodd;stroke:#000000;stroke-width:1pt;marker-start:none;marker-end:none"
         d="m -2.5,-1 c 0,2.76 -2.24,5 -5,5 -2.76,0 -5,-2.24 -5,-5 0,-2.76 2.24,-5 5,-5 2.76,0 5,2.24 5,5 z"
         id="path5399" />
    </marker>
    <marker
       style="overflow:visible"
       id="Arrow2Mend"
       refX="0"
       refY="0"
       orient="auto"
       inkscape:stockid="Arrow2Mend">
      <path
         inkscape:connector-curvature="0"
         transform="scale(-0.6,-0.6)"
         d="M 8.7185878,4.0337352 -2.2072895,0.01601326 8.7185884,-4.0017078 c -1.7454984,2.3720609 -1.7354408,5.6174519 -6e-7,8.035443 z"
         style="font-size:12px;fill-rule:evenodd;stroke-width:0.625;stroke-linejoin:round"
         id="path3164" />
    </marker>
    <marker
       style="overflow:visible"
       id="Arrow2Lend"
       refX="0"
       refY="0"
       orient="auto"
       inkscape:stockid="Arrow2Lend">
      <path
         inkscape:connector-curvature="0"
         transform="matrix(-1.1,0,0,-1.1,-1.1,0)"
         d="M 8.7185878,4.0337352 -2.2072895,0.01601326 8.7185884,-4.0017078 c -1.7454984,2.3720609 -1.7354408,5.6174519 -6e-7,8.035443 z"
         style="font-size:12px;fill-rule:evenodd;stroke-width:0.625;stroke-linejoin:round"
         id="path3158" />
    </marker>
    <marker
       style="overflow:visible"
       id="Arrow1Send"
       refX="0"
       refY="0"
       orient="auto"
       inkscape:stockid="Arrow1Send">
      <path
         inkscape:connector-curvature="0"
         transform="matrix(-0.2,0,0,-0.2,-1.2,0)"
         style="fill-rule:evenodd;stroke:#000000;stroke-width:1pt;marker-start:none"
         d="M 0,0 5,-5 -12.5,0 5,5 0,0 Z"
         id="path3152" />
    </marker>
    <marker
       style="overflow:visible"
       id="Arrow1Mend"
       refX="0"
       refY="0"
       orient="auto"
       inkscape:stockid="Arrow1Mend">
      <path
         inkscape:connector-curvature="0"
         transform="matrix(-0.4,0,0,-0.4,-4,0)"
         style="fill-rule:evenodd;stroke:#000000;stroke-width:1pt;marker-start:none"
         d="M 0,0 5,-5 -12.5,0 5,5 0,0 Z"
         id="path3146" />
    </marker>
    <marker
       refX="0"
       inkscape:stockid="Arrow1Lend"
       refY="0"
       orient="auto"
       id="Arrow1Lend"
       style="overflow:visible">
      <path
         inkscape:connector-curvature="0"
         id="path3140"
         d="M 0,0 5,-5 -12.5,0 5,5 0,0 Z"
         transform="matrix(-0.8,0,0,-0.8,-10,0)"
         style="fill-rule:evenodd;stroke:#000000;stroke-width:1pt;marker-start:none" />
    </marker>
    <marker
       refX="0"
       inkscape:stockid="Arrow1Lstart"
       refY="0"
       orient="auto"
       id="Arrow1Lstart"
       style="overflow:visible">
      <path
         inkscape:connector-curvature="0"
         id="path3137"
         d="M 0,0 5,-5 -12.5,0 5,5 0,0 Z"
         transform="matrix(0.8,0,0,0.8,10,0)"
         style="fill-rule:evenodd;stroke:#000000;stroke-width:1pt;marker-start:none" />
    </marker>
    <pattern
       id="pattern5300"
       patternTransform="translate(227.91318,156.44648)"
       height="72.4667"
       width="264.44588"
       patternUnits="userSpaceOnUse">
      <path
         style="fill:none;fill-rule:evenodd;stroke:#000000;stroke-width:1px;stroke-linecap:butt;stroke-linejoin:miter;stroke-opacity:1"
         d="M 0.5,71.9667 L 263.94588,0.5"
         id="path3334" />
    </pattern>
    <pattern
       id="pattern10156"
       patternTransform="translate(-127.11771,56.453624)"
       height="76.26932"
       width="338.31389"
       patternUnits="userSpaceOnUse">
      <path
         style="fill:none;fill-rule:evenodd;stroke:#000000;stroke-width:2;stroke-linecap:butt;stroke-linejoin:miter;stroke-miterlimit:4;stroke-dasharray:8, 8;stroke-dashoffset:0;stroke-opacity:1"
         d="M 1,75.26932 L 337.31389,1"
         id="path7245" />
    </pattern>
    <pattern
       id="pattern12105"
       patternTransform="matrix(1.0840052,0,0,1.0840052,34.032693,125.11772)"
       height="226.20926"
       width="706.85787"
       patternUnits="userSpaceOnUse">
      <path
         style="fill:none;fill-rule:evenodd;stroke:#000000;stroke-width:2;stroke-linecap:butt;stroke-linejoin:miter;stroke-miterlimit:4;stroke-dasharray:4, 4;stroke-dashoffset:0;stroke-opacity:1"
         d="M 1,225.20926 L 705.85787,1"
         id="path11134" />
    </pattern>
    <clipPath
       id="clipPath3359"
       clipPathUnits="userSpaceOnUse">
      <rect
         transform="matrix(0.8446651,0.5352951,-0.5352951,0.8446651,0,0)"
         y="30.881437"
         x="96.514427"
         height="349.20343"
         width="613.11755"
         id="rect3361"
         style="fill:none;stroke:none" />
    </clipPath>
    <clipPath
       id="clipPath5765"
       clipPathUnits="userSpaceOnUse">
      <rect
         y="185.07123"
         x="19.506651"
         height="324.02713"
         width="573.27881"
         id="rect5767"
         style="fill:none;stroke:none" />
    </clipPath>
  </defs>
  <metadata
     id="metadata7">
    <rdf:RDF>
      <cc:Work
         rdf:about="">
        <dc:format>image/svg+xml</dc:format>
        <dc:type
           rdf:resource="http://purl.org/dc/dcmitype/StillImage" />
        <dc:title></dc:title>
      </cc:Work>
    </rdf:RDF>
  </metadata>
  <g
     transform="translate(-138.0862,-88.983073)"
     inkscape:groupmode="layer"
     id="layer1"
     inkscape:label="Layer 1">
    <path
       inkscape:connector-curvature="0"
       sodipodi:nodetypes="ccc"
       id="path2160"
       d="m 171.82573,379.554 0,-283.054646 674.08707,0"
       style="fill:none;stroke:#000000;stroke-width:1.5;stroke-linecap:butt;stroke-linejoin:miter;stroke-miterlimit:4;stroke-dasharray:none;stroke-opacity:1;marker-start:url(#Arrow1Lstart);marker-end:url(#Arrow1Lend)" />
    <path
       inkscape:connector-curvature="0"
       id="path7403"
       d=""
       style="fill:none;stroke:#000000;stroke-width:1px;stroke-linecap:butt;stroke-linejoin:miter;stroke-opacity:1" />
    <text
       sodipodi:linespacing="100%"
       id="text3328"
       y="604.6748"
       x="660.93634"
       style="font-style:normal;font-variant:normal;font-weight:normal;font-stretch:normal;font-size:28px;line-height:100%;font-family:Utopia;text-align:start;writing-mode:lr-tb;text-anchor:start;fill:#000000;fill-opacity:1;stroke:none"
       xml:space="preserve"><tspan
         y="604.6748"
         x="660.93634"
         id="tspan3330"
         sodipodi:role="line" /></text>
    <text
       sodipodi:linespacing="100%"
       id="text3332"
       y="610.33875"
       x="662.67908"
       style="font-style:normal;font-variant:normal;font-weight:normal;font-stretch:normal;font-size:28px;line-height:100%;font-family:Utopia;text-align:start;writing-mode:lr-tb;text-anchor:start;fill:#000000;fill-opacity:1;stroke:none"
       xml:space="preserve"><tspan
         y="610.33875"
         x="662.67908"
         id="tspan3334"
         sodipodi:role="line" /></text>
    <path
       inkscape:connector-curvature="0"
       id="path3372"
       d="m 802.24745,184.80207 -628.40206,0"
       style="fill:none;stroke:#000000;stroke-width:2;stroke-linecap:butt;stroke-linejoin:miter;stroke-miterlimit:4;stroke-dasharray:6, 6;stroke-dashoffset:0;stroke-opacity:1"
       sodipodi:nodetypes="cc" />
    <g
       style="stroke:#0000ff;stroke-width:3.37785697;stroke-miterlimit:4;stroke-dasharray:none;stroke-opacity:1"
       transform="matrix(0.7561982,0,0,0.4635983,782.75463,213.38526)"
       id="g7898">
      <g
         style="stroke:#0000ff;stroke-width:3.37785697;stroke-miterlimit:4;stroke-dasharray:none;stroke-opacity:1"
         id="g6879"
         transform="translate(-256.55919,-40.357626)">
        <path
           inkscape:connector-curvature="0"
           id="path5894"
           d="M 282.56073,-122.32634 57.653755,-19.81772"
           style="fill:none;stroke:#0000ff;stroke-width:3.37785697;stroke-linecap:butt;stroke-linejoin:miter;stroke-miterlimit:4;stroke-dasharray:none;stroke-opacity:1"
           sodipodi:nodetypes="cc" />
        <path
           inkscape:connector-curvature="0"
           id="path5896"
           d="M -45.305465,-212.95779 -469.06056,-19.81772"
           style="fill:none;stroke:#0000ff;stroke-width:3.37785697;stroke-linecap:butt;stroke-linejoin:miter;stroke-miterlimit:4;stroke-dasharray:none;stroke-opacity:1" />
        <path
           inkscape:connector-curvature="0"
           id="path5898"
           d="M 29.939435,-212.95779 -393.81566,-19.81772"
           style="fill:none;stroke:#0000ff;stroke-width:3.37785697;stroke-linecap:butt;stroke-linejoin:miter;stroke-miterlimit:4;stroke-dasharray:none;stroke-opacity:1" />
        <path
           inkscape:connector-curvature="0"
           id="path5900"
           d="M 105.18432,-212.95779 -318.57076,-19.81772"
           style="fill:none;stroke:#0000ff;stroke-width:3.37785697;stroke-linecap:butt;stroke-linejoin:miter;stroke-miterlimit:4;stroke-dasharray:none;stroke-opacity:1" />
        <path
           inkscape:connector-curvature="0"
           id="path5902"
           d="m 180.42924,-212.95779 -423.7551,193.14007"
           style="fill:none;stroke:#0000ff;stroke-width:3.37785697;stroke-linecap:butt;stroke-linejoin:miter;stroke-miterlimit:4;stroke-dasharray:none;stroke-opacity:1" />
        <path
           inkscape:connector-curvature="0"
           id="path5904"
           d="M 255.67413,-212.95779 -168.08096,-19.81772"
           style="fill:none;stroke:#0000ff;stroke-width:3.37785697;stroke-linecap:butt;stroke-linejoin:miter;stroke-miterlimit:4;stroke-dasharray:none;stroke-opacity:1" />
        <path
           inkscape:connector-curvature="0"
           id="path5906"
           d="M 282.41629,-190.8511 -92.836045,-19.81772"
           style="fill:none;stroke:#0000ff;stroke-width:3.37785697;stroke-linecap:butt;stroke-linejoin:miter;stroke-miterlimit:4;stroke-dasharray:none;stroke-opacity:1"
           sodipodi:nodetypes="cc" />
        <path
           inkscape:connector-curvature="0"
           id="path5908"
           d="M 281.40145,-156.09326 -17.591145,-19.81772"
           style="fill:none;stroke:#0000ff;stroke-width:3.37785697;stroke-linecap:butt;stroke-linejoin:miter;stroke-miterlimit:4;stroke-dasharray:none;stroke-opacity:1"
           sodipodi:nodetypes="cc" />
      </g>
      <g
         id="g6919"
         transform="matrix(1.7822737,0,0,1,565.23488,18.345311)"
         style="stroke:#0000ff;stroke-width:2.53019547;stroke-miterlimit:4;stroke-dasharray:none;stroke-opacity:1">
        <path
           inkscape:connector-curvature="0"
           id="path6889"
           d="M -428.57582,-78.159388 -569.82751,282.17656"
           style="fill:none;stroke:#0000ff;stroke-width:2.53019547;stroke-linecap:butt;stroke-linejoin:miter;stroke-miterlimit:4;stroke-dasharray:none;stroke-opacity:1" />
        <path
           inkscape:connector-curvature="0"
           id="path6905"
           d="M -470.82751,-78.159389 -612.0792,282.17656"
           style="fill:none;stroke:#0000ff;stroke-width:2.53019547;stroke-linecap:butt;stroke-linejoin:miter;stroke-miterlimit:4;stroke-dasharray:none;stroke-opacity:1" />
        <path
           inkscape:connector-curvature="0"
           id="path6907"
           d="M -513.0792,-78.159389 -654.33089,282.17656"
           style="fill:none;stroke:#0000ff;stroke-width:2.53019547;stroke-linecap:butt;stroke-linejoin:miter;stroke-miterlimit:4;stroke-dasharray:none;stroke-opacity:1" />
        <path
           inkscape:connector-curvature="0"
           id="path6909"
           d="M -555.33089,-78.159389 -696.58258,282.17656"
           style="fill:none;stroke:#0000ff;stroke-width:2.53019547;stroke-linecap:butt;stroke-linejoin:miter;stroke-miterlimit:4;stroke-dasharray:none;stroke-opacity:1" />
        <path
           inkscape:connector-curvature="0"
           id="path6911"
           d="M -597.58258,-78.159389 -738.83427,282.17656"
           style="fill:none;stroke:#0000ff;stroke-width:2.53019547;stroke-linecap:butt;stroke-linejoin:miter;stroke-miterlimit:4;stroke-dasharray:none;stroke-opacity:1" />
        <path
           inkscape:connector-curvature="0"
           id="path6913"
           d="M -639.83427,-78.159389 -765.94532,243.55248"
           style="fill:none;stroke:#0000ff;stroke-width:2.53019547;stroke-linecap:butt;stroke-linejoin:miter;stroke-miterlimit:4;stroke-dasharray:none;stroke-opacity:1"
           sodipodi:nodetypes="cc" />
        <path
           inkscape:connector-curvature="0"
           id="path6915"
           d="M -682.08596,-78.159389 -766.64061,137.54126"
           style="fill:none;stroke:#0000ff;stroke-width:2.53019547;stroke-linecap:butt;stroke-linejoin:miter;stroke-miterlimit:4;stroke-dasharray:none;stroke-opacity:1"
           sodipodi:nodetypes="cc" />
        <path
           inkscape:connector-curvature="0"
           id="path6917"
           d="M -724.33765,-78.159389 -767.79484,32.700797"
           style="fill:none;stroke:#0000ff;stroke-width:2.53019547;stroke-linecap:butt;stroke-linejoin:miter;stroke-miterlimit:4;stroke-dasharray:none;stroke-opacity:1"
           sodipodi:nodetypes="cc" />
      </g>
    </g>
    <rect
       style="opacity:1;fill:#ffffff;fill-opacity:1;fill-rule:nonzero;stroke:none;stroke-width:5;stroke-linecap:round;stroke-linejoin:round;stroke-miterlimit:4;stroke-dasharray:none;stroke-dashoffset:0;stroke-opacity:1"
       id="rect4398"
       width="49.055473"
       height="22.594233"
       x="371.97379"
       y="134.06969" />
    <path
       inkscape:connector-curvature="0"
       sodipodi:nodetypes="cc"
       id="path13056"
       d="M 404.48959,99.176419 434.475,179.06472"
       style="fill:#ff0000;fill-rule:evenodd;stroke:#000000;stroke-width:5;stroke-linecap:round;stroke-linejoin:miter;stroke-miterlimit:4;stroke-dasharray:none;stroke-opacity:1;marker-end:url(#Arrow2Send)" />
    <path
       inkscape:connector-curvature="0"
       sodipodi:nodetypes="cc"
       id="path2270"
       d="m 401.23755,98.294682 0,78.697268"
       style="fill:none;stroke:#000000;stroke-width:2.5;stroke-linecap:butt;stroke-linejoin:miter;stroke-miterlimit:4;stroke-dasharray:2.5, 5;stroke-dashoffset:0;stroke-opacity:1" />
    <path
       inkscape:connector-curvature="0"
       sodipodi:nodetypes="cc"
       id="path2274"
       d="m 472.8579,227.59376 0,66.57171"
       style="fill:none;stroke:#000000;stroke-width:2.5;stroke-linecap:butt;stroke-linejoin:miter;stroke-miterlimit:4;stroke-dasharray:2.5, 5;stroke-dashoffset:0;stroke-opacity:1" />
    <path
       inkscape:connector-curvature="0"
       sodipodi:nodetypes="cc"
       id="path2276"
       d="m 400.72577,152.06851 c 13.31434,2.61531 20.04404,-6.98558 20.04404,-6.98558"
       style="fill:none;stroke:#000000;stroke-width:2.5;stroke-linecap:butt;stroke-linejoin:miter;stroke-miterlimit:4;stroke-dasharray:none;stroke-opacity:1" />
    <path
       inkscape:connector-curvature="0"
       sodipodi:nodetypes="cc"
       id="path2280"
       d="m 473.93088,251.34748 c 10.30825,1.09322 13.31434,-7.84595 13.31434,-7.84595"
       style="fill:none;stroke:#000000;stroke-width:2.5;stroke-linecap:butt;stroke-linejoin:miter;stroke-miterlimit:4;stroke-dasharray:none;stroke-opacity:1" />
    <rect
       y="236.46191"
       x="440.73068"
       height="28.384285"
       width="27.342775"
       id="rect4400"
       style="opacity:1;fill:#ffffff;fill-opacity:1;fill-rule:nonzero;stroke:none;stroke-width:5;stroke-linecap:round;stroke-linejoin:round;stroke-miterlimit:4;stroke-dasharray:none;stroke-dashoffset:0;stroke-opacity:1" />
    <path
       style="fill:#ff0000;fill-rule:evenodd;stroke:#000000;stroke-width:5;stroke-linecap:round;stroke-linejoin:round;stroke-miterlimit:4;stroke-dasharray:none;stroke-opacity:1;marker-end:url(#Arrow2Send)"
       d="m 438.16122,187.75918 121.44705,130.7539"
       id="path3115"
       sodipodi:nodetypes="cc"
       inkscape:connector-curvature="0" />
    <path
       style="fill:none;stroke:#000000;stroke-width:2.5;stroke-linecap:butt;stroke-linejoin:miter;stroke-miterlimit:4;stroke-dasharray:2.5, 5;stroke-dashoffset:0;stroke-opacity:1"
       d="m 472.8579,227.59376 0,66.57171"
       id="path3117"
       sodipodi:nodetypes="cc"
       inkscape:connector-curvature="0" />
    <text
       sodipodi:linespacing="125%"
       id="text3131"
       y="127.58009"
       x="820.92487"
       style="font-style:normal;font-variant:normal;font-weight:normal;font-stretch:normal;font-size:36px;line-height:125%;font-family:Serif;-inkscape-font-specification:Serif;text-align:start;letter-spacing:0px;word-spacing:0px;writing-mode:lr-tb;text-anchor:start;fill:#000000;fill-opacity:1;stroke:none"
       xml:space="preserve"><tspan
         y="127.58009"
         x="820.92487"
         id="tspan3133"
         sodipodi:role="line">x</tspan></text>
    <text
       sodipodi:linespacing="125%"
       id="text3135"
       y="378.0065"
       x="136.64479"
       style="font-style:normal;font-variant:normal;font-weight:normal;font-stretch:normal;font-size:36px;line-height:125%;font-family:Serif;-inkscape-font-specification:Serif;text-align:start;letter-spacing:0px;word-spacing:0px;writing-mode:lr-tb;text-anchor:start;fill:#000000;fill-opacity:1;stroke:none"
       xml:space="preserve"><tspan
         y="378.0065"
         x="136.64479"
         id="tspan3137"
         sodipodi:role="line">z</tspan></text>
    <g
       id="g4402"
       transform="translate(0,-16.646402)">
      <path
         sodipodi:type="arc"
         style="fill:none;stroke:#000000;stroke-width:1.43038988;stroke-linecap:round;stroke-linejoin:round;stroke-miterlimit:4;stroke-dasharray:none;stroke-dashoffset:0;stroke-opacity:1"
         id="path4049"
         sodipodi:cx="236.35376"
         sodipodi:cy="162.18846"
         sodipodi:rx="18.569044"
         sodipodi:ry="18.569044"
         d="m 236.21537,143.61993 a 18.569044,18.569044 0 0 1 18.70682,18.4171 18.569044,18.569044 0 0 1 -18.40396,18.71975 18.569044,18.569044 0 0 1 -18.73267,-18.3908 18.569044,18.569044 0 0 1 18.37764,-18.74559"
         sodipodi:start="4.7049364"
         sodipodi:end="4.7021267"
         sodipodi:open="true" />
      <text
         xml:space="preserve"
         style="font-style:normal;font-variant:normal;font-weight:normal;font-stretch:normal;font-size:25.74701691px;line-height:125%;font-family:Serif;-inkscape-font-specification:Serif;text-align:start;letter-spacing:0px;word-spacing:0px;writing-mode:lr-tb;text-anchor:start;fill:#000000;fill-opacity:1;stroke:none"
         x="228.45453"
         y="169.35638"
         id="text4619"
         sodipodi:linespacing="125%"><tspan
           sodipodi:role="line"
           id="tspan4621"
           x="228.45453"
           y="169.35638">a</tspan></text>
    </g>
    <rect
       style="opacity:1;fill:#ffffff;fill-opacity:1;fill-rule:nonzero;stroke:none;stroke-width:5;stroke-linecap:round;stroke-linejoin:round;stroke-miterlimit:4;stroke-dasharray:none;stroke-dashoffset:0;stroke-opacity:1"
       id="rect4412"
       width="41.094151"
       height="42.859417"
       x="215.64238"
       y="216.19673" />
    <g
       id="g4407"
       transform="translate(0,28.950264)">
      <path
         sodipodi:open="true"
         sodipodi:end="4.7021267"
         sodipodi:start="4.7049364"
         d="m 236.57084,190.7761 a 18.921167,18.921167 0 0 1 19.06155,18.76635 18.921167,18.921167 0 0 1 -18.75295,19.07472 18.921167,18.921167 0 0 1 -19.08789,-18.73954 18.921167,18.921167 0 0 1 18.72613,-19.10105"
         sodipodi:ry="18.921167"
         sodipodi:rx="18.921167"
         sodipodi:cy="209.69675"
         sodipodi:cx="236.71185"
         id="path4630"
         style="fill:none;stroke:#000000;stroke-width:1.45751417;stroke-linecap:round;stroke-linejoin:round;stroke-miterlimit:4;stroke-dasharray:none;stroke-dashoffset:0;stroke-opacity:1"
         sodipodi:type="arc" />
      <text
         sodipodi:linespacing="125%"
         id="text4632"
         y="218.49109"
         x="228.64893"
         style="font-style:normal;font-variant:normal;font-weight:normal;font-stretch:normal;font-size:26.23525429px;line-height:125%;font-family:Serif;-inkscape-font-specification:Serif;text-align:start;letter-spacing:0px;word-spacing:0px;writing-mode:lr-tb;text-anchor:start;fill:#000000;fill-opacity:1;stroke:none"
         xml:space="preserve"><tspan
           y="218.49109"
           x="228.64893"
           id="tspan4634"
           sodipodi:role="line">b</tspan></text>
    </g>
    <g
       transform="matrix(2.5652728,0,0,2.5652728,-198.49137,-199.56664)"
       ns0:text="$j_a$"
       ns0:preamble="/data/Classes/PhysicsForGeoscientists/Book/Figures/preamble.tex"
       id="g3651">
      <defs
         id="defs3653">
        <g
           id="g3655">
          <symbol
             style="overflow:visible"
             overflow="visible"
             id="symbol3657">
            <path
               inkscape:connector-curvature="0"
               style="stroke:none"
               d=""
               id="path3659" />
          </symbol>
          <symbol
             style="overflow:visible"
             overflow="visible"
             id="symbol3661">
            <path
               inkscape:connector-curvature="0"
               style="stroke:none"
               d="m 2.453125,-4.375 -0.03125,-0.015625 c -0.890625,0.15625 -1.390625,0.234375 -1.6875,0.25 l 0,0.15625 0.265625,0 L 1.0625,-4 c 0.078125,0 0.28125,0.046875 0.328125,0.09375 0.046875,0.03125 0.078125,0.125 0.078125,0.234375 0,0.09375 -0.046875,0.359375 -0.15625,0.796875 L 0.59375,0.03125 C 0.25,1.390625 0.015625,1.828125 -0.375,1.828125 c -0.125,0 -0.1875,-0.03125 -0.1875,-0.109375 0,-0.03125 0.015625,-0.046875 0.046875,-0.109375 0.0625,-0.078125 0.09375,-0.125 0.09375,-0.203125 0,-0.203125 -0.1875,-0.375 -0.421875,-0.375 -0.21875,0 -0.390625,0.1875 -0.390625,0.421875 0,0.34375 0.328125,0.609375 0.78125,0.609375 0.875,0 1.46875,-0.75 1.875,-2.34375 z M 2.25,-6.515625 c -0.265625,0 -0.46875,0.21875 -0.46875,0.53125 0,0.3125 0.1875,0.515625 0.484375,0.515625 0.25,0 0.484375,-0.21875 0.484375,-0.5 0,-0.296875 -0.234375,-0.546875 -0.5,-0.546875 z m 0,0"
               id="path3663" />
          </symbol>
          <symbol
             style="overflow:visible"
             overflow="visible"
             id="symbol3665">
            <path
               inkscape:connector-curvature="0"
               style="stroke:none"
               d=""
               id="path3667" />
          </symbol>
          <symbol
             style="overflow:visible"
             overflow="visible"
             id="symbol3669">
            <path
               inkscape:connector-curvature="0"
               style="stroke:none"
               d="M 3.421875,-0.8125 C 3.3125,-0.703125 3.265625,-0.65625 3.21875,-0.609375 3,-0.375 2.890625,-0.296875 2.828125,-0.296875 c -0.0625,0 -0.09375,-0.046875 -0.09375,-0.09375 0,-0.15625 0.296875,-1.421875 0.65625,-2.6875 0.015625,-0.078125 0.03125,-0.078125 0.03125,-0.15625 L 3.375,-3.25 2.921875,-3.203125 2.90625,-3.171875 2.828125,-2.828125 C 2.765625,-3.09375 2.546875,-3.25 2.234375,-3.25 1.265625,-3.25 0.125,-1.90625 0.125,-0.734375 c 0,0.515625 0.28125,0.8125 0.75,0.8125 0.515625,0 0.84375,-0.234375 1.484375,-1.15625 C 2.21875,-0.5 2.1875,-0.40625 2.1875,-0.234375 c 0,0.21875 0.09375,0.3125 0.296875,0.3125 0.296875,0 0.484375,-0.140625 1.03125,-0.8125 z M 2.28125,-3.09375 c 0.25,0.015625 0.40625,0.203125 0.40625,0.453125 0,0.625 -0.359375,1.484375 -0.875,2.03125 C 1.640625,-0.40625 1.390625,-0.28125 1.171875,-0.28125 0.921875,-0.28125 0.75,-0.5 0.75,-0.828125 c 0,-0.40625 0.28125,-1.15625 0.59375,-1.625 0.296875,-0.421875 0.640625,-0.65625 0.9375,-0.640625 z m 0,0"
               id="path3671" />
          </symbol>
        </g>
      </defs>
      <g
         id="g3673">
        <g
           style="fill:#000000;fill-opacity:1"
           id="g3675">
          <g
             transform="translate(224.92599,134.765)"
             id="use3677">
            <path
               inkscape:connector-curvature="0"
               style="stroke:none"
               d="m 2.453125,-4.375 -0.03125,-0.015625 c -0.890625,0.15625 -1.390625,0.234375 -1.6875,0.25 l 0,0.15625 0.265625,0 L 1.0625,-4 c 0.078125,0 0.28125,0.046875 0.328125,0.09375 0.046875,0.03125 0.078125,0.125 0.078125,0.234375 0,0.09375 -0.046875,0.359375 -0.15625,0.796875 L 0.59375,0.03125 C 0.25,1.390625 0.015625,1.828125 -0.375,1.828125 c -0.125,0 -0.1875,-0.03125 -0.1875,-0.109375 0,-0.03125 0.015625,-0.046875 0.046875,-0.109375 0.0625,-0.078125 0.09375,-0.125 0.09375,-0.203125 0,-0.203125 -0.1875,-0.375 -0.421875,-0.375 -0.21875,0 -0.390625,0.1875 -0.390625,0.421875 0,0.34375 0.328125,0.609375 0.78125,0.609375 0.875,0 1.46875,-0.75 1.875,-2.34375 z M 2.25,-6.515625 c -0.265625,0 -0.46875,0.21875 -0.46875,0.53125 0,0.3125 0.1875,0.515625 0.484375,0.515625 0.25,0 0.484375,-0.21875 0.484375,-0.5 0,-0.296875 -0.234375,-0.546875 -0.5,-0.546875 z m 0,0"
               id="path3869" />
          </g>
        </g>
        <g
           style="fill:#000000;fill-opacity:1"
           id="g3679">
          <g
             transform="translate(227.696,136.259)"
             id="use3681">
            <path
               inkscape:connector-curvature="0"
               style="stroke:none"
               d="M 3.421875,-0.8125 C 3.3125,-0.703125 3.265625,-0.65625 3.21875,-0.609375 3,-0.375 2.890625,-0.296875 2.828125,-0.296875 c -0.0625,0 -0.09375,-0.046875 -0.09375,-0.09375 0,-0.15625 0.296875,-1.421875 0.65625,-2.6875 0.015625,-0.078125 0.03125,-0.078125 0.03125,-0.15625 L 3.375,-3.25 2.921875,-3.203125 2.90625,-3.171875 2.828125,-2.828125 C 2.765625,-3.09375 2.546875,-3.25 2.234375,-3.25 1.265625,-3.25 0.125,-1.90625 0.125,-0.734375 c 0,0.515625 0.28125,0.8125 0.75,0.8125 0.515625,0 0.84375,-0.234375 1.484375,-1.15625 C 2.21875,-0.5 2.1875,-0.40625 2.1875,-0.234375 c 0,0.21875 0.09375,0.3125 0.296875,0.3125 0.296875,0 0.484375,-0.140625 1.03125,-0.8125 z M 2.28125,-3.09375 c 0.25,0.015625 0.40625,0.203125 0.40625,0.453125 0,0.625 -0.359375,1.484375 -0.875,2.03125 C 1.640625,-0.40625 1.390625,-0.28125 1.171875,-0.28125 0.921875,-0.28125 0.75,-0.5 0.75,-0.828125 c 0,-0.40625 0.28125,-1.15625 0.59375,-1.625 0.296875,-0.421875 0.640625,-0.65625 0.9375,-0.640625 z m 0,0"
               id="path3877" />
          </g>
        </g>
      </g>
    </g>
    <g
       id="g4101"
       ns0:preamble="/data/Classes/PhysicsForGeoscientists/Book/Figures/preamble.tex"
       ns0:text="$j_b$"
       transform="matrix(2,0,0,2,5.6651995,-23.112067)">
      <defs
         id="defs4103">
        <g
           id="g4105">
          <symbol
             id="textext-e39f29d5-0"
             overflow="visible"
             style="overflow:visible">
            <path
               id="path4108"
               d=""
               style="stroke:none"
               inkscape:connector-curvature="0" />
          </symbol>
          <symbol
             id="textext-e39f29d5-1"
             overflow="visible"
             style="overflow:visible">
            <path
               id="path4111"
               d="m 2.453125,-4.375 -0.03125,-0.015625 c -0.890625,0.15625 -1.390625,0.234375 -1.6875,0.25 l 0,0.15625 0.265625,0 L 1.0625,-4 c 0.078125,0 0.28125,0.046875 0.328125,0.09375 0.046875,0.03125 0.078125,0.125 0.078125,0.234375 0,0.09375 -0.046875,0.359375 -0.15625,0.796875 L 0.59375,0.03125 C 0.25,1.390625 0.015625,1.828125 -0.375,1.828125 c -0.125,0 -0.1875,-0.03125 -0.1875,-0.109375 0,-0.03125 0.015625,-0.046875 0.046875,-0.109375 0.0625,-0.078125 0.09375,-0.125 0.09375,-0.203125 0,-0.203125 -0.1875,-0.375 -0.421875,-0.375 -0.21875,0 -0.390625,0.1875 -0.390625,0.421875 0,0.34375 0.328125,0.609375 0.78125,0.609375 0.875,0 1.46875,-0.75 1.875,-2.34375 z M 2.25,-6.515625 c -0.265625,0 -0.46875,0.21875 -0.46875,0.53125 0,0.3125 0.1875,0.515625 0.484375,0.515625 0.25,0 0.484375,-0.21875 0.484375,-0.5 0,-0.296875 -0.234375,-0.546875 -0.5,-0.546875 z m 0,0"
               style="stroke:none"
               inkscape:connector-curvature="0" />
          </symbol>
          <symbol
             id="textext-e39f29d5-2"
             overflow="visible"
             style="overflow:visible">
            <path
               id="path4114"
               d=""
               style="stroke:none"
               inkscape:connector-curvature="0" />
          </symbol>
          <symbol
             id="textext-e39f29d5-3"
             overflow="visible"
             style="overflow:visible">
            <path
               id="path4117"
               d="m 0.8125,-4.734375 c 0.4375,0 0.484375,0.03125 0.484375,0.1875 0,0.0625 -0.03125,0.15625 -0.078125,0.328125 C 1.203125,-4.171875 1.1875,-4.125 1.1875,-4.078125 l -0.015625,0.046875 -1,3.6875 0,0.03125 c 0,0.171875 0.5625,0.390625 0.984375,0.390625 1.109375,0 2.328125,-1.28125 2.328125,-2.453125 0,-0.515625 -0.359375,-0.875 -0.84375,-0.875 -0.53125,0 -0.90625,0.296875 -1.4375,1.109375 C 1.59375,-3.546875 1.640625,-3.734375 1.96875,-5 L 1.9375,-5.03125 c -0.359375,0.0625 -0.625,0.109375 -1.125,0.15625 z m 1.53125,1.84375 c 0.3125,0 0.515625,0.25 0.515625,0.640625 0,0.484375 -0.375,1.265625 -0.8125,1.71875 -0.265625,0.28125 -0.59375,0.4375 -0.90625,0.4375 -0.21875,0 -0.34375,-0.078125 -0.34375,-0.25 0,-0.4375 0.234375,-1.15625 0.53125,-1.703125 0.328125,-0.5625 0.65625,-0.84375 1.015625,-0.84375 z m 0,0"
               style="stroke:none"
               inkscape:connector-curvature="0" />
          </symbol>
        </g>
      </defs>
      <g
         id="textext-e39f29d5-4"
         transform="matrix(1.1893773,0,0,1.1893773,-45.198521,-20.600203)">
        <g
           id="g4120"
           style="fill:#000000;fill-opacity:1">
          <use
             id="use4122"
             y="134.765"
             x="224.92599"
             xlink:href="#textext-e39f29d5-1"
             width="973.45264"
             height="290.55466" />
        </g>
        <g
           id="g4124"
           style="fill:#000000;fill-opacity:1">
          <use
             id="use4126"
             y="136.35001"
             x="227.696"
             xlink:href="#textext-e39f29d5-3"
             width="973.45264"
             height="290.55466" />
        </g>
      </g>
    </g>
  </g>
</svg>
