<?xml version="1.0" encoding="UTF-8" standalone="no"?>
<!-- Created with Inkscape (http://www.inkscape.org/) -->

<svg
   xmlns:ns1="http://www.iki.fi/pav/software/textext/"
   xmlns:dc="http://purl.org/dc/elements/1.1/"
   xmlns:cc="http://creativecommons.org/ns#"
   xmlns:rdf="http://www.w3.org/1999/02/22-rdf-syntax-ns#"
   xmlns:svg="http://www.w3.org/2000/svg"
   xmlns="http://www.w3.org/2000/svg"
   xmlns:sodipodi="http://sodipodi.sourceforge.net/DTD/sodipodi-0.dtd"
   xmlns:inkscape="http://www.inkscape.org/namespaces/inkscape"
   width="60.449764mm"
   height="108.76858mm"
   viewBox="0 0 214.19208 385.40049"
   id="svg4444"
   version="1.1"
   inkscape:version="0.91 r13725"
   sodipodi:docname="jazz.svg">
  <sodipodi:namedview
     id="base"
     pagecolor="#ffffff"
     bordercolor="#666666"
     borderopacity="1.0"
     inkscape:pageopacity="0.0"
     inkscape:pageshadow="2"
     inkscape:zoom="2.293718"
     inkscape:cx="107.09604"
     inkscape:cy="140.38343"
     inkscape:document-units="px"
     inkscape:current-layer="layer1"
     showgrid="false"
     showguides="false"
     fit-margin-top="0"
     fit-margin-left="0"
     fit-margin-right="0"
     fit-margin-bottom="0"
     inkscape:window-width="1920"
     inkscape:window-height="1035"
     inkscape:window-x="175"
     inkscape:window-y="0"
     inkscape:window-maximized="0" />
  <defs
     id="defs4446">
    <marker
       inkscape:isstock="true"
       style="overflow:visible"
       id="marker6339"
       refX="0"
       refY="0"
       orient="auto"
       inkscape:stockid="Arrow2Mend">
      <path
         transform="scale(-0.6,-0.6)"
         d="M 8.7185878,4.0337352 -2.2072895,0.01601326 8.7185884,-4.0017078 c -1.7454984,2.3720609 -1.7354408,5.6174519 -6e-7,8.035443 z"
         style="fill:#000000;fill-opacity:1;fill-rule:evenodd;stroke:#000000;stroke-width:0.625;stroke-linejoin:round;stroke-opacity:1"
         id="path6341"
         inkscape:connector-curvature="0" />
    </marker>
    <marker
       inkscape:stockid="Arrow2Mstart"
       orient="auto"
       refY="0"
       refX="0"
       id="marker6233"
       style="overflow:visible"
       inkscape:isstock="true">
      <path
         id="path6235"
         style="fill:#000000;fill-opacity:1;fill-rule:evenodd;stroke:#000000;stroke-width:0.625;stroke-linejoin:round;stroke-opacity:1"
         d="M 8.7185878,4.0337352 -2.2072895,0.01601326 8.7185884,-4.0017078 c -1.7454984,2.3720609 -1.7354408,5.6174519 -6e-7,8.035443 z"
         transform="scale(0.6,0.6)"
         inkscape:connector-curvature="0" />
    </marker>
    <marker
       inkscape:isstock="true"
       style="overflow:visible"
       id="marker6173"
       refX="0"
       refY="0"
       orient="auto"
       inkscape:stockid="Arrow2Mstart"
       inkscape:collect="always">
      <path
         transform="scale(0.6,0.6)"
         d="M 8.7185878,4.0337352 -2.2072895,0.01601326 8.7185884,-4.0017078 c -1.7454984,2.3720609 -1.7354408,5.6174519 -6e-7,8.035443 z"
         style="fill:#000000;fill-opacity:1;fill-rule:evenodd;stroke:#000000;stroke-width:0.625;stroke-linejoin:round;stroke-opacity:1"
         id="path6175"
         inkscape:connector-curvature="0" />
    </marker>
    <marker
       inkscape:stockid="Arrow2Mstart"
       orient="auto"
       refY="0"
       refX="0"
       id="marker6055"
       style="overflow:visible"
       inkscape:isstock="true"
       inkscape:collect="always">
      <path
         id="path6057"
         style="fill:#000000;fill-opacity:1;fill-rule:evenodd;stroke:#000000;stroke-width:0.625;stroke-linejoin:round;stroke-opacity:1"
         d="M 8.7185878,4.0337352 -2.2072895,0.01601326 8.7185884,-4.0017078 c -1.7454984,2.3720609 -1.7354408,5.6174519 -6e-7,8.035443 z"
         transform="scale(0.6,0.6)"
         inkscape:connector-curvature="0" />
    </marker>
    <marker
       inkscape:stockid="Arrow2Mend"
       orient="auto"
       refY="0"
       refX="0"
       id="marker5961"
       style="overflow:visible"
       inkscape:isstock="true"
       inkscape:collect="always">
      <path
         id="path5963"
         style="fill:#000000;fill-opacity:1;fill-rule:evenodd;stroke:#000000;stroke-width:0.625;stroke-linejoin:round;stroke-opacity:1"
         d="M 8.7185878,4.0337352 -2.2072895,0.01601326 8.7185884,-4.0017078 c -1.7454984,2.3720609 -1.7354408,5.6174519 -6e-7,8.035443 z"
         transform="scale(-0.6,-0.6)"
         inkscape:connector-curvature="0" />
    </marker>
    <marker
       inkscape:isstock="true"
       style="overflow:visible"
       id="marker5795"
       refX="0"
       refY="0"
       orient="auto"
       inkscape:stockid="Arrow2Mstart">
      <path
         transform="scale(0.6,0.6)"
         d="M 8.7185878,4.0337352 -2.2072895,0.01601326 8.7185884,-4.0017078 c -1.7454984,2.3720609 -1.7354408,5.6174519 -6e-7,8.035443 z"
         style="fill:#000000;fill-opacity:1;fill-rule:evenodd;stroke:#000000;stroke-width:0.625;stroke-linejoin:round;stroke-opacity:1"
         id="path5797"
         inkscape:connector-curvature="0" />
    </marker>
    <marker
       inkscape:isstock="true"
       style="overflow:visible"
       id="marker5725"
       refX="0"
       refY="0"
       orient="auto"
       inkscape:stockid="Arrow2Mstart"
       inkscape:collect="always">
      <path
         transform="scale(0.6,0.6)"
         d="M 8.7185878,4.0337352 -2.2072895,0.01601326 8.7185884,-4.0017078 c -1.7454984,2.3720609 -1.7354408,5.6174519 -6e-7,8.035443 z"
         style="fill:#000000;fill-opacity:1;fill-rule:evenodd;stroke:#000000;stroke-width:0.625;stroke-linejoin:round;stroke-opacity:1"
         id="path5727"
         inkscape:connector-curvature="0" />
    </marker>
    <marker
       inkscape:isstock="true"
       style="overflow:visible"
       id="marker5649"
       refX="0"
       refY="0"
       orient="auto"
       inkscape:stockid="Arrow2Mend">
      <path
         transform="scale(-0.6,-0.6)"
         d="M 8.7185878,4.0337352 -2.2072895,0.01601326 8.7185884,-4.0017078 c -1.7454984,2.3720609 -1.7354408,5.6174519 -6e-7,8.035443 z"
         style="fill:#000000;fill-opacity:1;fill-rule:evenodd;stroke:#000000;stroke-width:0.625;stroke-linejoin:round;stroke-opacity:1"
         id="path5651"
         inkscape:connector-curvature="0" />
    </marker>
    <marker
       inkscape:isstock="true"
       style="overflow:visible"
       id="marker5591"
       refX="0"
       refY="0"
       orient="auto"
       inkscape:stockid="Arrow2Mend"
       inkscape:collect="always">
      <path
         transform="scale(-0.6,-0.6)"
         d="M 8.7185878,4.0337352 -2.2072895,0.01601326 8.7185884,-4.0017078 c -1.7454984,2.3720609 -1.7354408,5.6174519 -6e-7,8.035443 z"
         style="fill:#000000;fill-opacity:1;fill-rule:evenodd;stroke:#000000;stroke-width:0.625;stroke-linejoin:round;stroke-opacity:1"
         id="path5593"
         inkscape:connector-curvature="0" />
    </marker>
    <marker
       inkscape:isstock="true"
       style="overflow:visible"
       id="marker5527"
       refX="0"
       refY="0"
       orient="auto"
       inkscape:stockid="Arrow1Mend">
      <path
         transform="matrix(-0.4,0,0,-0.4,-4,0)"
         style="fill:#000000;fill-opacity:1;fill-rule:evenodd;stroke:#000000;stroke-width:1pt;stroke-opacity:1"
         d="M 0,0 5,-5 -12.5,0 5,5 0,0 Z"
         id="path5529"
         inkscape:connector-curvature="0" />
    </marker>
    <marker
       inkscape:stockid="Arrow1Mend"
       orient="auto"
       refY="0"
       refX="0"
       id="marker5469"
       style="overflow:visible"
       inkscape:isstock="true">
      <path
         id="path5471"
         d="M 0,0 5,-5 -12.5,0 5,5 0,0 Z"
         style="fill:#000000;fill-opacity:1;fill-rule:evenodd;stroke:#000000;stroke-width:1pt;stroke-opacity:1"
         transform="matrix(-0.4,0,0,-0.4,-4,0)"
         inkscape:connector-curvature="0" />
    </marker>
    <marker
       inkscape:stockid="Arrow2Mend"
       orient="auto"
       refY="0"
       refX="0"
       id="Arrow2Mend"
       style="overflow:visible"
       inkscape:isstock="true"
       inkscape:collect="always">
      <path
         id="path5052"
         style="fill:#000000;fill-opacity:1;fill-rule:evenodd;stroke:#000000;stroke-width:0.625;stroke-linejoin:round;stroke-opacity:1"
         d="M 8.7185878,4.0337352 -2.2072895,0.01601326 8.7185884,-4.0017078 c -1.7454984,2.3720609 -1.7354408,5.6174519 -6e-7,8.035443 z"
         transform="scale(-0.6,-0.6)"
         inkscape:connector-curvature="0" />
    </marker>
    <marker
       inkscape:stockid="Arrow2Mstart"
       orient="auto"
       refY="0"
       refX="0"
       id="Arrow2Mstart"
       style="overflow:visible"
       inkscape:isstock="true">
      <path
         id="path5049"
         style="fill:#000000;fill-opacity:1;fill-rule:evenodd;stroke:#000000;stroke-width:0.625;stroke-linejoin:round;stroke-opacity:1"
         d="M 8.7185878,4.0337352 -2.2072895,0.01601326 8.7185884,-4.0017078 c -1.7454984,2.3720609 -1.7354408,5.6174519 -6e-7,8.035443 z"
         transform="scale(0.6,0.6)"
         inkscape:connector-curvature="0" />
    </marker>
    <marker
       inkscape:stockid="Arrow1Lstart"
       orient="auto"
       refY="0"
       refX="0"
       id="Arrow1Lstart"
       style="overflow:visible"
       inkscape:isstock="true">
      <path
         id="path5025"
         d="M 0,0 5,-5 -12.5,0 5,5 0,0 Z"
         style="fill:#000000;fill-opacity:1;fill-rule:evenodd;stroke:#000000;stroke-width:1pt;stroke-opacity:1"
         transform="matrix(0.8,0,0,0.8,10,0)"
         inkscape:connector-curvature="0" />
    </marker>
  </defs>
  <metadata
     id="metadata4449">
    <rdf:RDF>
      <cc:Work
         rdf:about="">
        <dc:format>image/svg+xml</dc:format>
        <dc:type
           rdf:resource="http://purl.org/dc/dcmitype/StillImage" />
        <dc:title></dc:title>
      </cc:Work>
    </rdf:RDF>
  </metadata>
  <g
     inkscape:label="Layer 1"
     inkscape:groupmode="layer"
     id="layer1"
     transform="translate(-330.75362,-378.21368)">
    <rect
       style="opacity:1;fill:#d1d1d1;fill-opacity:1;fill-rule:evenodd;stroke:#000000;stroke-width:1;stroke-linecap:butt;stroke-linejoin:round;stroke-miterlimit:4;stroke-dasharray:none;stroke-dashoffset:0;stroke-opacity:1"
       id="rect5003"
       width="173.06335"
       height="124.62217"
       x="331.63574"
       y="412.69025" />
    <rect
       style="opacity:1;fill:#d1d1d1;fill-opacity:1;fill-rule:evenodd;stroke:#000000;stroke-width:1;stroke-linecap:butt;stroke-linejoin:round;stroke-miterlimit:4;stroke-dasharray:none;stroke-dashoffset:0;stroke-opacity:1"
       id="rect5005"
       width="212.80995"
       height="123.38009"
       x="331.63574"
       y="606.45496" />
    <path
       style="fill:none;fill-rule:evenodd;stroke:#000000;stroke-width:1;stroke-linecap:butt;stroke-linejoin:miter;stroke-miterlimit:4;stroke-dasharray:6, 6;stroke-dashoffset:0;stroke-opacity:1"
       d="m 379.66289,466.92782 0,280.94646"
       id="path5007"
       inkscape:connector-curvature="0"
       sodipodi:nodetypes="cc" />
    <path
       style="fill:none;fill-rule:evenodd;stroke:#000000;stroke-width:1;stroke-linecap:butt;stroke-linejoin:miter;stroke-miterlimit:4;stroke-dasharray:6, 6;stroke-dashoffset:0;stroke-opacity:1"
       d="M 392.01357,633.78076 392.4276,747.3763"
       id="path5009"
       inkscape:connector-curvature="0"
       sodipodi:nodetypes="cc" />
    <path
       style="fill:none;fill-rule:evenodd;stroke:#000000;stroke-width:1;stroke-linecap:butt;stroke-linejoin:miter;stroke-miterlimit:4;stroke-dasharray:6, 6;stroke-dashoffset:0;stroke-opacity:1"
       d="m 457.5,465.27171 0,284.42587"
       id="path5011"
       inkscape:connector-curvature="0"
       sodipodi:nodetypes="cc" />
    <path
       style="fill:none;fill-rule:evenodd;stroke:#000000;stroke-width:1;stroke-linecap:butt;stroke-linejoin:miter;stroke-miterlimit:4;stroke-dasharray:6, 6;stroke-dashoffset:0;stroke-opacity:1"
       d="m 478.06108,634.19478 0,113.09972"
       id="path5013"
       inkscape:connector-curvature="0"
       sodipodi:nodetypes="cc" />
    <path
       style="fill:none;fill-rule:evenodd;stroke:#000000;stroke-width:1;stroke-linecap:butt;stroke-linejoin:miter;stroke-miterlimit:4;stroke-dasharray:6, 6;stroke-dashoffset:0;stroke-opacity:1"
       d="m 504.28507,540.21062 0,47.61312"
       id="path5015"
       inkscape:connector-curvature="0" />
    <path
       style="fill:none;fill-rule:evenodd;stroke:#000000;stroke-width:1;stroke-linecap:butt;stroke-linejoin:miter;stroke-miterlimit:4;stroke-dasharray:6, 6;stroke-dashoffset:0;stroke-opacity:1"
       d="m 544.33995,539.90234 0,71.6267"
       id="path5017"
       inkscape:connector-curvature="0"
       sodipodi:nodetypes="cc" />
    <path
       style="fill:none;fill-rule:evenodd;stroke:#000000;stroke-width:1px;stroke-linecap:butt;stroke-linejoin:miter;stroke-opacity:1;marker-start:url(#marker6055);marker-end:url(#marker5961)"
       d="m 381.00921,580.37125 76.29246,0"
       id="path5019"
       inkscape:connector-curvature="0"
       sodipodi:nodetypes="cc" />
    <path
       style="fill:none;fill-rule:evenodd;stroke:#000000;stroke-width:1px;stroke-linecap:butt;stroke-linejoin:miter;stroke-opacity:1;marker-start:url(#marker6173);marker-end:url(#Arrow2Mend)"
       d="m 503.67271,579.95723 39.7466,0"
       id="path5365"
       inkscape:connector-curvature="0" />
    <path
       sodipodi:nodetypes="cc"
       style="fill:none;fill-rule:evenodd;stroke:#000000;stroke-width:1px;stroke-linecap:butt;stroke-linejoin:miter;stroke-opacity:1;marker-end:url(#marker5527)"
       d="m 456.47361,668.14501 21.56001,0"
       id="path5367"
       inkscape:connector-curvature="0" />
    <path
       style="fill:none;fill-rule:evenodd;stroke:#000000;stroke-width:1px;stroke-linecap:butt;stroke-linejoin:miter;stroke-opacity:1;marker-end:url(#marker5469)"
       d="m 379.05053,668.14501 10.35068,0"
       id="path5369"
       inkscape:connector-curvature="0" />
    <path
       style="fill:none;fill-rule:evenodd;stroke:#000000;stroke-width:1px;stroke-linecap:butt;stroke-linejoin:miter;stroke-opacity:1;marker-end:url(#marker5591)"
       d="m 360.41931,749.70836 18.63122,0"
       id="path5371"
       inkscape:connector-curvature="0" />
    <path
       style="fill:none;fill-rule:evenodd;stroke:#000000;stroke-width:1px;stroke-linecap:butt;stroke-linejoin:miter;stroke-opacity:1;marker-start:url(#marker5725)"
       d="m 393.30303,749.70836 19.45928,0"
       id="path5373"
       inkscape:connector-curvature="0" />
    <path
       style="fill:none;fill-rule:evenodd;stroke:#000000;stroke-width:1px;stroke-linecap:butt;stroke-linejoin:miter;stroke-opacity:1;marker-end:url(#marker5649)"
       d="m 437.42836,749.29433 19.45928,0"
       id="path5375"
       inkscape:connector-curvature="0" />
    <path
       style="fill:none;fill-rule:evenodd;stroke:#000000;stroke-width:1px;stroke-linecap:butt;stroke-linejoin:miter;stroke-opacity:1;marker-start:url(#marker5795)"
       d="m 473.44872,749.70836 19.45928,0"
       id="path5377"
       inkscape:connector-curvature="0" />
    <path
       style="fill:none;fill-rule:evenodd;stroke:#000000;stroke-width:1px;stroke-linecap:butt;stroke-linejoin:miter;stroke-opacity:1;marker-start:url(#marker6233);marker-end:url(#marker6339)"
       d="m 332.26546,399.44139 172.64933,0"
       id="path6225"
       inkscape:connector-curvature="0" />
    <path
       style="color:#000000;display:inline;overflow:visible;visibility:visible;fill:#000000;fill-opacity:1;fill-rule:evenodd;stroke:none;stroke-width:1px;stroke-linecap:butt;stroke-linejoin:miter;stroke-miterlimit:4;stroke-dasharray:none;stroke-dashoffset:0;stroke-opacity:1;marker:none;enable-background:accumulate"
       id="path6445"
       sodipodi:type="arc"
       sodipodi:cx="379.7034"
       sodipodi:cy="478.12421"
       sodipodi:rx="2.0370629"
       sodipodi:ry="2.0370629"
       sodipodi:start="4.712389"
       sodipodi:end="4.709579"
       sodipodi:open="true"
       d="m 379.7034,476.08714 a 2.0370629,2.0370629 0 0 1 2.03706,2.03564 2.0370629,2.0370629 0 0 1 -2.0342,2.03849 2.0370629,2.0370629 0 0 1 -2.03992,-2.03277 2.0370629,2.0370629 0 0 1 2.03134,-2.04135" />
    <path
       d="m 457.37152,476.08714 a 2.0370629,2.0370629 0 0 1 2.03706,2.03564 2.0370629,2.0370629 0 0 1 -2.0342,2.03849 2.0370629,2.0370629 0 0 1 -2.03992,-2.03277 2.0370629,2.0370629 0 0 1 2.03134,-2.04135"
       sodipodi:open="true"
       sodipodi:end="4.709579"
       sodipodi:start="4.712389"
       sodipodi:ry="2.0370629"
       sodipodi:rx="2.0370629"
       sodipodi:cy="478.12421"
       sodipodi:cx="457.37152"
       sodipodi:type="arc"
       id="path7839"
       style="color:#000000;display:inline;overflow:visible;visibility:visible;fill:#000000;fill-opacity:1;fill-rule:evenodd;stroke:none;stroke-width:1px;stroke-linecap:butt;stroke-linejoin:miter;stroke-miterlimit:4;stroke-dasharray:none;stroke-dashoffset:0;stroke-opacity:1;marker:none;enable-background:accumulate" />
    <path
       style="color:#000000;display:inline;overflow:visible;visibility:visible;fill:#000000;fill-opacity:1;fill-rule:evenodd;stroke:none;stroke-width:1px;stroke-linecap:butt;stroke-linejoin:miter;stroke-miterlimit:4;stroke-dasharray:none;stroke-dashoffset:0;stroke-opacity:1;marker:none;enable-background:accumulate"
       id="path7841"
       sodipodi:type="arc"
       sodipodi:cx="457.37152"
       sodipodi:cy="667.90326"
       sodipodi:rx="2.0370629"
       sodipodi:ry="2.0370629"
       sodipodi:start="4.712389"
       sodipodi:end="4.709579"
       sodipodi:open="true"
       d="m 457.37152,665.8662 a 2.0370629,2.0370629 0 0 1 2.03706,2.03563 2.0370629,2.0370629 0 0 1 -2.0342,2.03849 2.0370629,2.0370629 0 0 1 -2.03992,-2.03277 2.0370629,2.0370629 0 0 1 2.03134,-2.04135" />
    <path
       d="m 478.39764,665.8662 a 2.0370629,2.0370629 0 0 1 2.03707,2.03563 2.0370629,2.0370629 0 0 1 -2.0342,2.03849 2.0370629,2.0370629 0 0 1 -2.03992,-2.03277 2.0370629,2.0370629 0 0 1 2.03133,-2.04135"
       sodipodi:open="true"
       sodipodi:end="4.709579"
       sodipodi:start="4.712389"
       sodipodi:ry="2.0370629"
       sodipodi:rx="2.0370629"
       sodipodi:cy="667.90326"
       sodipodi:cx="478.39764"
       sodipodi:type="arc"
       id="path7843"
       style="color:#000000;display:inline;overflow:visible;visibility:visible;fill:#000000;fill-opacity:1;fill-rule:evenodd;stroke:none;stroke-width:1px;stroke-linecap:butt;stroke-linejoin:miter;stroke-miterlimit:4;stroke-dasharray:none;stroke-dashoffset:0;stroke-opacity:1;marker:none;enable-background:accumulate" />
    <path
       style="color:#000000;display:inline;overflow:visible;visibility:visible;fill:#000000;fill-opacity:1;fill-rule:evenodd;stroke:none;stroke-width:1px;stroke-linecap:butt;stroke-linejoin:miter;stroke-miterlimit:4;stroke-dasharray:none;stroke-dashoffset:0;stroke-opacity:1;marker:none;enable-background:accumulate"
       id="path7845"
       sodipodi:type="arc"
       sodipodi:cx="392.09753"
       sodipodi:cy="667.90326"
       sodipodi:rx="2.0370629"
       sodipodi:ry="2.0370629"
       sodipodi:start="4.712389"
       sodipodi:end="4.709579"
       sodipodi:open="true"
       d="m 392.09753,665.8662 a 2.0370629,2.0370629 0 0 1 2.03707,2.03563 2.0370629,2.0370629 0 0 1 -2.0342,2.03849 2.0370629,2.0370629 0 0 1 -2.03992,-2.03277 2.0370629,2.0370629 0 0 1 2.03133,-2.04135" />
    <path
       d="m 379.71576,665.8662 a 2.0370629,2.0370629 0 0 1 2.03706,2.03563 2.0370629,2.0370629 0 0 1 -2.0342,2.03849 2.0370629,2.0370629 0 0 1 -2.03992,-2.03277 2.0370629,2.0370629 0 0 1 2.03134,-2.04135"
       sodipodi:open="true"
       sodipodi:end="4.709579"
       sodipodi:start="4.712389"
       sodipodi:ry="2.0370629"
       sodipodi:rx="2.0370629"
       sodipodi:cy="667.90326"
       sodipodi:cx="379.71576"
       sodipodi:type="arc"
       id="path7847"
       style="color:#000000;display:inline;overflow:visible;visibility:visible;fill:#000000;fill-opacity:1;fill-rule:evenodd;stroke:none;stroke-width:1px;stroke-linecap:butt;stroke-linejoin:miter;stroke-miterlimit:4;stroke-dasharray:none;stroke-dashoffset:0;stroke-opacity:1;marker:none;enable-background:accumulate" />
    <text
       xml:space="preserve"
       style="font-style:normal;font-variant:normal;font-weight:normal;font-stretch:normal;font-size:15px;line-height:125%;font-family:sans-serif;-inkscape-font-specification:'sans-serif, Normal';text-align:start;letter-spacing:0px;word-spacing:0px;writing-mode:lr-tb;text-anchor:start;fill:#000000;fill-opacity:1;stroke:none;stroke-width:1px;stroke-linecap:butt;stroke-linejoin:miter;stroke-opacity:1"
       x="384.54135"
       y="483.44034"
       id="text7849"
       sodipodi:linespacing="125%"><tspan
         sodipodi:role="line"
         id="tspan7851"
         x="384.54135"
         y="483.44034"
         style="font-style:italic;font-variant:normal;font-weight:normal;font-stretch:normal;font-size:12.5px;font-family:sans-serif;-inkscape-font-specification:'sans-serif Italic'">P</tspan></text>
    <text
       sodipodi:linespacing="125%"
       id="text7853"
       y="672.80414"
       x="396.09259"
       style="font-style:normal;font-variant:normal;font-weight:normal;font-stretch:normal;font-size:15px;line-height:125%;font-family:sans-serif;-inkscape-font-specification:'sans-serif, Normal';text-align:start;letter-spacing:0px;word-spacing:0px;writing-mode:lr-tb;text-anchor:start;fill:#000000;fill-opacity:1;stroke:none;stroke-width:1px;stroke-linecap:butt;stroke-linejoin:miter;stroke-opacity:1"
       xml:space="preserve"><tspan
         style="font-style:italic;font-variant:normal;font-weight:normal;font-stretch:normal;font-size:12.5px;font-family:sans-serif;-inkscape-font-specification:'sans-serif Italic'"
         y="672.80414"
         x="396.09259"
         id="tspan7855"
         sodipodi:role="line">P'</tspan></text>
    <text
       xml:space="preserve"
       style="font-style:normal;font-variant:normal;font-weight:normal;font-stretch:normal;font-size:15px;line-height:125%;font-family:sans-serif;-inkscape-font-specification:'sans-serif, Normal';text-align:start;letter-spacing:0px;word-spacing:0px;writing-mode:lr-tb;text-anchor:start;fill:#000000;fill-opacity:1;stroke:none;stroke-width:1px;stroke-linecap:butt;stroke-linejoin:miter;stroke-opacity:1"
       x="461.36658"
       y="483.02505"
       id="text7857"
       sodipodi:linespacing="125%"><tspan
         sodipodi:role="line"
         id="tspan7859"
         x="461.36658"
         y="483.02505"
         style="font-style:italic;font-variant:normal;font-weight:normal;font-stretch:normal;font-size:12.5px;font-family:sans-serif;-inkscape-font-specification:'sans-serif Italic'">Q</tspan></text>
    <text
       sodipodi:linespacing="125%"
       id="text7861"
       y="671.97357"
       x="481.56216"
       style="font-style:normal;font-variant:normal;font-weight:normal;font-stretch:normal;font-size:15px;line-height:125%;font-family:sans-serif;-inkscape-font-specification:'sans-serif, Normal';text-align:start;letter-spacing:0px;word-spacing:0px;writing-mode:lr-tb;text-anchor:start;fill:#000000;fill-opacity:1;stroke:none;stroke-width:1px;stroke-linecap:butt;stroke-linejoin:miter;stroke-opacity:1"
       xml:space="preserve"><tspan
         style="font-style:italic;font-variant:normal;font-weight:normal;font-stretch:normal;font-size:12.5px;font-family:sans-serif;-inkscape-font-specification:'sans-serif Italic'"
         y="671.97357"
         x="481.56216"
         id="tspan7863"
         sodipodi:role="line">Q'</tspan></text>
    <g
       transform="matrix(2,0,0,2,388.75598,372.35018)"
       ns1:textextver="0.8"
       ns1:converter="pdf2svg"
       ns1:text="$\\ell$"
       ns1:preamble="/Users/stefan/.config/inkscape/extensions/default_packages.tex"
       ns1:scale="2.0"
       id="g8211">
      <g
         id="surface1">
        <g
           style="fill:#000000;fill-opacity:1"
           id="g8214">
          <path
             inkscape:connector-curvature="0"
             style="stroke:none"
             d="m 0.15625,-0.984375 c -0.015625,0.03125 -0.046875,0.0625 -0.046875,0.09375 0,0.046875 0.0625,0.140625 0.125,0.140625 C 0.28125,-0.75 0.3125,-0.78125 0.59375,-1.0625 0.671875,-1.140625 0.875,-1.328125 0.953125,-1.40625 1.046875,-0.625 1.328125,0.125 2.0625,0.125 c 0.40625,0 0.75,-0.234375 0.953125,-0.390625 C 3.15625,-0.359375 3.625,-0.75 3.625,-0.84375 c 0,-0.03125 -0.03125,-0.125 -0.109375,-0.125 -0.03125,0 -0.046875,0.015625 -0.140625,0.09375 -0.640625,0.625 -1,0.78125 -1.296875,0.78125 -0.4375,0 -0.609375,-0.53125 -0.609375,-1.296875 0,-0.0625 0.03125,-0.515625 0.0625,-0.578125 C 1.546875,-2 1.546875,-2.015625 1.75,-2.21875 2.546875,-3.015625 3.96875,-4.703125 3.96875,-6.25 c 0,-0.171875 0,-0.78125 -0.59375,-0.78125 -0.828125,0 -1.5625,1.640625 -1.65625,1.875 -0.484375,1.09375 -0.796875,2.25 -0.796875,3.4375 z M 1.578125,-2.375 C 1.59375,-2.5 2.03125,-4.703125 2.59375,-5.875 c 0.265625,-0.53125 0.484375,-0.9375 0.796875,-0.9375 0.34375,0 0.34375,0.359375 0.34375,0.515625 0,1.671875 -1.6875,3.421875 -2.15625,3.921875 z m 0,0"
             transform="translate(14.944,9.963)"
             id="path8216" />
        </g>
      </g>
    </g>
    <g
       id="g8352"
       ns1:scale="2.0"
       ns1:preamble="/Users/stefan/.config/inkscape/extensions/default_packages.tex"
       ns1:text="$\\Delta\\ell$"
       ns1:converter="pdf2svg"
       ns1:textextver="0.8"
       transform="matrix(2,0,0,2,483.73493,555.25904)">
      <g
         id="g8354">
        <g
           id="g8356"
           style="fill:#000000;fill-opacity:1">
          <path
             id="path8358"
             transform="translate(14.944,9.963)"
             d="m 0.0625,0 6,0 -2.796875,-6.859375 z m 0.703125,-0.515625 2.125,-4.5625 1.890625,4.5625 z m 0,0"
             style="stroke:none"
             inkscape:connector-curvature="0" />
        </g>
        <g
           id="g8360"
           style="fill:#000000;fill-opacity:1">
          <path
             id="path8362"
             transform="translate(21.041,9.963)"
             d="m 0.15625,-0.984375 c -0.015625,0.03125 -0.046875,0.0625 -0.046875,0.09375 0,0.046875 0.0625,0.140625 0.125,0.140625 C 0.28125,-0.75 0.3125,-0.78125 0.59375,-1.0625 0.671875,-1.140625 0.875,-1.328125 0.953125,-1.40625 1.046875,-0.625 1.328125,0.125 2.0625,0.125 c 0.40625,0 0.75,-0.234375 0.953125,-0.390625 C 3.15625,-0.359375 3.625,-0.75 3.625,-0.84375 c 0,-0.03125 -0.03125,-0.125 -0.109375,-0.125 -0.03125,0 -0.046875,0.015625 -0.140625,0.09375 -0.640625,0.625 -1,0.78125 -1.296875,0.78125 -0.4375,0 -0.609375,-0.53125 -0.609375,-1.296875 0,-0.0625 0.03125,-0.515625 0.0625,-0.578125 C 1.546875,-2 1.546875,-2.015625 1.75,-2.21875 2.546875,-3.015625 3.96875,-4.703125 3.96875,-6.25 c 0,-0.171875 0,-0.78125 -0.59375,-0.78125 -0.828125,0 -1.5625,1.640625 -1.65625,1.875 -0.484375,1.09375 -0.796875,2.25 -0.796875,3.4375 z M 1.578125,-2.375 C 1.59375,-2.5 2.03125,-4.703125 2.59375,-5.875 c 0.265625,-0.53125 0.484375,-0.9375 0.796875,-0.9375 0.34375,0 0.34375,0.359375 0.34375,0.515625 0,1.671875 -1.6875,3.421875 -2.15625,3.921875 z m 0,0"
             style="stroke:none"
             inkscape:connector-curvature="0" />
        </g>
      </g>
    </g>
    <g
       transform="matrix(2,0,0,2,376.57241,553.93521)"
       ns1:textextver="0.8"
       ns1:converter="pdf2svg"
       ns1:text="$dx$"
       ns1:preamble="/Users/stefan/.config/inkscape/extensions/default_packages.tex"
       ns1:scale="2.0"
       id="g9257">
      <g
         id="g9259">
        <g
           style="fill:#000000;fill-opacity:1"
           id="g9261">
          <path
             inkscape:connector-curvature="0"
             style="stroke:none"
             d="m 4.609375,-1.109375 c -0.53125,0.625 -0.640625,0.703125 -0.8125,0.703125 -0.09375,0 -0.171875,-0.078125 -0.171875,-0.1875 0,-0.140625 0.3125,-1.359375 0.640625,-2.453125 C 4.53125,-3.96875 4.75,-4.765625 5.25,-6.765625 L 5.203125,-6.8125 c -0.53125,0.109375 -0.890625,0.171875 -1.53125,0.234375 l 0,0.171875 c 0.5625,0.015625 0.625,0.046875 0.625,0.25 0,0.140625 -0.015625,0.1875 -0.15625,0.703125 L 3.703125,-3.8125 C 3.625,-4.234375 3.453125,-4.390625 3.0625,-4.390625 c -1.296875,0 -2.90625,1.875 -2.90625,3.359375 0,0.71875 0.390625,1.140625 1.046875,1.140625 0.671875,0 1.109375,-0.3125 1.78125,-1.3125 -0.109375,0.5 -0.125,0.65625 -0.125,0.890625 0,0.265625 0.171875,0.4375 0.421875,0.4375 0.421875,0 0.9375,-0.40625 1.453125,-1.125 z m -1.515625,-3.0625 c 0.3125,0.03125 0.453125,0.21875 0.453125,0.578125 0,1.515625 -1.03125,3.21875 -1.953125,3.21875 -0.34375,0 -0.578125,-0.265625 -0.578125,-0.65625 0,-0.828125 0.5,-1.984375 1.15625,-2.671875 C 2.453125,-4 2.828125,-4.1875 3.09375,-4.171875 Z m 0,0"
             transform="translate(14.944,9.963)"
             id="path9263" />
        </g>
        <g
           style="fill:#000000;fill-opacity:1"
           id="g9265">
          <path
             inkscape:connector-curvature="0"
             style="stroke:none"
             d="M 4,-1.109375 C 3.921875,-1.015625 3.875,-0.953125 3.78125,-0.84375 3.5625,-0.53125 3.4375,-0.4375 3.328125,-0.4375 3.1875,-0.4375 3.09375,-0.5625 3.015625,-0.84375 3,-0.921875 2.984375,-0.984375 2.984375,-1.015625 2.734375,-2.03125 2.625,-2.484375 2.625,-2.625 c 0.4375,-0.78125 0.796875,-1.21875 0.96875,-1.21875 0.0625,0 0.140625,0.03125 0.25,0.078125 0.109375,0.078125 0.1875,0.09375 0.265625,0.09375 0.203125,0 0.34375,-0.140625 0.34375,-0.359375 0,-0.203125 -0.171875,-0.359375 -0.40625,-0.359375 -0.4375,0 -0.8125,0.359375 -1.5,1.421875 L 2.4375,-3.515625 c -0.140625,-0.6875 -0.25,-0.875 -0.53125,-0.875 -0.21875,0 -0.546875,0.078125 -1.15625,0.28125 L 0.640625,-4.0625 0.671875,-3.921875 C 1.0625,-4 1.140625,-4.03125 1.234375,-4.03125 c 0.25,0 0.3125,0.09375 0.453125,0.6875 l 0.28125,1.234375 -0.8125,1.15625 C 0.953125,-0.640625 0.75,-0.46875 0.640625,-0.46875 0.59375,-0.46875 0.484375,-0.5 0.390625,-0.5625 0.265625,-0.625 0.15625,-0.65625 0.0625,-0.65625 c -0.1875,0 -0.328125,0.140625 -0.328125,0.34375 0,0.265625 0.203125,0.421875 0.5,0.421875 0.296875,0 0.421875,-0.09375 0.921875,-0.703125 0.265625,-0.3125 0.484375,-0.578125 0.890625,-1.15625 l 0.3125,1.1875 c 0.125,0.515625 0.25,0.671875 0.578125,0.671875 0.375,0 0.625,-0.234375 1.203125,-1.140625 z m 0,0"
             transform="translate(20.443355,9.963)"
             id="path9267" />
        </g>
      </g>
    </g>
    <g
       id="g9553"
       ns1:scale="2.0"
       ns1:preamble="/Users/stefan/.config/inkscape/extensions/default_packages.tex"
       ns1:text="$u_x$"
       ns1:converter="pdf2svg"
       ns1:textextver="0.8"
       transform="matrix(2,0,0,2,349.70713,740.5439)">
      <g
         id="g9555">
        <g
           id="g9557"
           style="fill:#000000;fill-opacity:1">
          <path
             id="path9559"
             transform="translate(14.944,9.963)"
             d="M 4.59375,-1.171875 C 4.078125,-0.515625 3.921875,-0.375 3.765625,-0.375 c -0.0625,0 -0.109375,-0.0625 -0.109375,-0.171875 0,-0.0625 0,-0.0625 0.1875,-0.78125 l 0.796875,-2.984375 -0.75,0 c -0.5625,1.546875 -0.625,1.703125 -1.09375,2.4375 -0.59375,0.953125 -1.078125,1.453125 -1.40625,1.453125 -0.109375,0 -0.203125,-0.09375 -0.203125,-0.25 0,-0.03125 0,-0.0625 0.015625,-0.078125 l 0.90625,-3.625 -0.03125,-0.015625 c -0.578125,0.125 -0.9375,0.1875 -1.5,0.265625 l 0,0.140625 c 0.375,0 0.40625,0 0.484375,0.0625 C 1.125,-3.90625 1.171875,-3.8125 1.171875,-3.75 c 0,0.078125 -0.046875,0.328125 -0.140625,0.671875 l -0.359375,1.40625 c -0.1875,0.71875 -0.25,1.046875 -0.25,1.234375 0,0.359375 0.171875,0.546875 0.53125,0.546875 0.703125,0 1.234375,-0.53125 2.375,-2.46875 C 3.046875,-1.28125 2.875,-0.59375 2.875,-0.390625 c 0,0.296875 0.1875,0.484375 0.484375,0.484375 0.46875,0 0.703125,-0.203125 1.375,-1.171875 z m 0,0"
             style="stroke:none"
             inkscape:connector-curvature="0" />
        </g>
        <g
           id="g9561"
           style="fill:#000000;fill-opacity:1">
          <path
             id="path9563"
             transform="translate(19.925,11.457)"
             d="M 2.96875,-0.8125 C 2.90625,-0.75 2.875,-0.703125 2.796875,-0.625 c -0.15625,0.234375 -0.25,0.296875 -0.328125,0.296875 -0.109375,0 -0.1875,-0.09375 -0.234375,-0.296875 C 2.21875,-0.6875 2.21875,-0.734375 2.203125,-0.75 2.015625,-1.5 1.9375,-1.84375 1.9375,-1.953125 c 0.328125,-0.5625 0.59375,-0.890625 0.71875,-0.890625 0.046875,0 0.109375,0.03125 0.1875,0.0625 0.078125,0.046875 0.140625,0.0625 0.1875,0.0625 0.15625,0 0.265625,-0.109375 0.265625,-0.265625 C 3.296875,-3.140625 3.171875,-3.25 3,-3.25 c -0.328125,0 -0.609375,0.265625 -1.125,1.046875 L 1.796875,-2.609375 C 1.703125,-3.109375 1.609375,-3.25 1.421875,-3.25 1.25,-3.25 1,-3.1875 0.546875,-3.03125 L 0.46875,-3.015625 0.5,-2.890625 c 0.28125,-0.078125 0.34375,-0.09375 0.421875,-0.09375 0.171875,0 0.21875,0.078125 0.328125,0.515625 l 0.203125,0.90625 -0.59375,0.859375 c -0.15625,0.21875 -0.296875,0.359375 -0.375,0.359375 -0.046875,0 -0.125,-0.03125 -0.203125,-0.0625 -0.09375,-0.0625 -0.171875,-0.078125 -0.234375,-0.078125 -0.140625,0 -0.25,0.109375 -0.25,0.25 0,0.203125 0.15625,0.3125 0.375,0.3125 0.21875,0 0.3125,-0.0625 0.6875,-0.515625 0.1875,-0.234375 0.34375,-0.4375 0.65625,-0.859375 l 0.21875,0.890625 c 0.109375,0.375 0.203125,0.484375 0.4375,0.484375 0.28125,0 0.46875,-0.171875 0.890625,-0.84375 z m 0,0"
             style="stroke:none"
             inkscape:connector-curvature="0" />
        </g>
      </g>
    </g>
    <g
       transform="matrix(2,0,0,2,429.18299,740.5439)"
       ns1:textextver="0.8"
       ns1:converter="pdf2svg"
       ns1:text="$u_x$"
       ns1:preamble="/Users/stefan/.config/inkscape/extensions/default_packages.tex"
       ns1:scale="2.0"
       id="g9649">
      <g
         id="g9651">
        <g
           style="fill:#000000;fill-opacity:1"
           id="g9653">
          <path
             inkscape:connector-curvature="0"
             style="stroke:none"
             d="M 4.59375,-1.171875 C 4.078125,-0.515625 3.921875,-0.375 3.765625,-0.375 c -0.0625,0 -0.109375,-0.0625 -0.109375,-0.171875 0,-0.0625 0,-0.0625 0.1875,-0.78125 l 0.796875,-2.984375 -0.75,0 c -0.5625,1.546875 -0.625,1.703125 -1.09375,2.4375 -0.59375,0.953125 -1.078125,1.453125 -1.40625,1.453125 -0.109375,0 -0.203125,-0.09375 -0.203125,-0.25 0,-0.03125 0,-0.0625 0.015625,-0.078125 l 0.90625,-3.625 -0.03125,-0.015625 c -0.578125,0.125 -0.9375,0.1875 -1.5,0.265625 l 0,0.140625 c 0.375,0 0.40625,0 0.484375,0.0625 C 1.125,-3.90625 1.171875,-3.8125 1.171875,-3.75 c 0,0.078125 -0.046875,0.328125 -0.140625,0.671875 l -0.359375,1.40625 c -0.1875,0.71875 -0.25,1.046875 -0.25,1.234375 0,0.359375 0.171875,0.546875 0.53125,0.546875 0.703125,0 1.234375,-0.53125 2.375,-2.46875 C 3.046875,-1.28125 2.875,-0.59375 2.875,-0.390625 c 0,0.296875 0.1875,0.484375 0.484375,0.484375 0.46875,0 0.703125,-0.203125 1.375,-1.171875 z m 0,0"
             transform="translate(14.944,9.963)"
             id="path9655" />
        </g>
        <g
           style="fill:#000000;fill-opacity:1"
           id="g9657">
          <path
             inkscape:connector-curvature="0"
             style="stroke:none"
             d="M 2.96875,-0.8125 C 2.90625,-0.75 2.875,-0.703125 2.796875,-0.625 c -0.15625,0.234375 -0.25,0.296875 -0.328125,0.296875 -0.109375,0 -0.1875,-0.09375 -0.234375,-0.296875 C 2.21875,-0.6875 2.21875,-0.734375 2.203125,-0.75 2.015625,-1.5 1.9375,-1.84375 1.9375,-1.953125 c 0.328125,-0.5625 0.59375,-0.890625 0.71875,-0.890625 0.046875,0 0.109375,0.03125 0.1875,0.0625 0.078125,0.046875 0.140625,0.0625 0.1875,0.0625 0.15625,0 0.265625,-0.109375 0.265625,-0.265625 C 3.296875,-3.140625 3.171875,-3.25 3,-3.25 c -0.328125,0 -0.609375,0.265625 -1.125,1.046875 L 1.796875,-2.609375 C 1.703125,-3.109375 1.609375,-3.25 1.421875,-3.25 1.25,-3.25 1,-3.1875 0.546875,-3.03125 L 0.46875,-3.015625 0.5,-2.890625 c 0.28125,-0.078125 0.34375,-0.09375 0.421875,-0.09375 0.171875,0 0.21875,0.078125 0.328125,0.515625 l 0.203125,0.90625 -0.59375,0.859375 c -0.15625,0.21875 -0.296875,0.359375 -0.375,0.359375 -0.046875,0 -0.125,-0.03125 -0.203125,-0.0625 -0.09375,-0.0625 -0.171875,-0.078125 -0.234375,-0.078125 -0.140625,0 -0.25,0.109375 -0.25,0.25 0,0.203125 0.15625,0.3125 0.375,0.3125 0.21875,0 0.3125,-0.0625 0.6875,-0.515625 0.1875,-0.234375 0.34375,-0.4375 0.65625,-0.859375 l 0.21875,0.890625 c 0.109375,0.375 0.203125,0.484375 0.4375,0.484375 0.28125,0 0.46875,-0.171875 0.890625,-0.84375 z m 0,0"
             transform="translate(19.925,11.457)"
             id="path9659" />
        </g>
      </g>
    </g>
  </g>
</svg>
