<?xml version="1.0" encoding="UTF-8" standalone="no"?>
<!-- Created with Inkscape (http://www.inkscape.org/) -->

<svg
   xmlns:dc="http://purl.org/dc/elements/1.1/"
   xmlns:cc="http://creativecommons.org/ns#"
   xmlns:rdf="http://www.w3.org/1999/02/22-rdf-syntax-ns#"
   xmlns:svg="http://www.w3.org/2000/svg"
   xmlns="http://www.w3.org/2000/svg"
   xmlns:sodipodi="http://sodipodi.sourceforge.net/DTD/sodipodi-0.dtd"
   xmlns:inkscape="http://www.inkscape.org/namespaces/inkscape"
   width="178.44319mm"
   height="119.88386mm"
   viewBox="0 0 632.27902 424.78531"
   id="svg2"
   version="1.1"
   inkscape:version="0.91 r13725"
   sodipodi:docname="MouseProp.svg">
  <defs
     id="defs4" />
  <sodipodi:namedview
     id="base"
     pagecolor="#ffffff"
     bordercolor="#666666"
     borderopacity="1.0"
     inkscape:pageopacity="0.0"
     inkscape:pageshadow="2"
     inkscape:zoom="1.1457741"
     inkscape:cx="393.14837"
     inkscape:cy="99.879491"
     inkscape:document-units="px"
     inkscape:current-layer="layer1"
     showgrid="false"
     showguides="true"
     inkscape:guide-bbox="true"
     fit-margin-top="0"
     fit-margin-left="0"
     fit-margin-right="0"
     fit-margin-bottom="0"
     inkscape:window-width="1920"
     inkscape:window-height="1032"
     inkscape:window-x="1440"
     inkscape:window-y="0"
     inkscape:window-maximized="1" />
  <metadata
     id="metadata7">
    <rdf:RDF>
      <cc:Work
         rdf:about="">
        <dc:format>image/svg+xml</dc:format>
        <dc:type
           rdf:resource="http://purl.org/dc/dcmitype/StillImage" />
        <dc:title></dc:title>
      </cc:Work>
    </rdf:RDF>
  </metadata>
  <g
     inkscape:label="Layer 1"
     inkscape:groupmode="layer"
     id="layer1"
     transform="translate(-124.2708,-338.20496)">
    <path
       style="fill:none;fill-rule:evenodd;stroke:#000000;stroke-width:3;stroke-linecap:butt;stroke-linejoin:miter;stroke-miterlimit:4;stroke-dasharray:none;stroke-opacity:1"
       d="m 136.74557,676.83132 68.39099,0 c -8.45306,-7.50018 -14.09725,-15.43248 -11.09879,-27.68612 -18.49998,10.85577 -36.55501,-4.58249 -28.18603,-23.118 11.87156,-26.29297 39.67902,-9.38096 35.61805,11.08081 3.51037,-3.65441 11.40222,-6.87668 18.36965,-8.37043 -15.50185,-16.90994 0.25336,-36.26424 17.96949,-29.48243 17.71613,6.78181 8.2575,32.3441 -3.62969,32.81554 0,0 9.11762,9.60759 6.0742,16.64875 -2.13144,4.93121 18.01978,4.8097 21.31533,0.4692 -0.81335,-7.66276 11.73882,-9.46248 14.93293,-1.82066 3.19411,7.64181 -5.22393,17.42293 -13.63653,9.90725 0,0 -9.0841,12.73301 -19.55609,19.55609 l 466.79888,0"
       id="path4138"
       inkscape:connector-curvature="0"
       sodipodi:nodetypes="cccscczssczccc" />
    <path
       sodipodi:nodetypes="cccscczssczccc"
       inkscape:connector-curvature="0"
       id="path4142"
       d="m 136.51439,577.11971 226.18068,0 c -8.45306,-7.50018 -14.09725,-15.43248 -11.09879,-27.68612 -18.49998,10.85577 -36.55501,-4.58249 -28.18603,-23.118 11.87156,-26.29297 39.67902,-9.38096 35.61805,11.08081 3.51037,-3.65441 11.40222,-6.87668 18.36965,-8.37043 -15.50185,-16.90994 0.25336,-36.26424 17.96949,-29.48243 17.71613,6.78181 8.2575,32.3441 -3.62969,32.81554 0,0 9.11762,9.60759 6.0742,16.64875 -2.13144,4.93121 18.01978,4.8097 21.31533,0.4692 -0.81335,-7.66276 11.73882,-9.46248 14.93293,-1.82066 3.19411,7.64181 -5.22393,17.42293 -13.63653,9.90725 0,0 -9.0841,12.73301 -19.55609,19.55609 l 308.61958,0"
       style="fill:none;fill-rule:evenodd;stroke:#000000;stroke-width:3;stroke-linecap:butt;stroke-linejoin:miter;stroke-miterlimit:4;stroke-dasharray:none;stroke-opacity:1" />
    <path
       style="fill:none;fill-rule:evenodd;stroke:#000000;stroke-width:3;stroke-linecap:butt;stroke-linejoin:miter;stroke-miterlimit:4;stroke-dasharray:none;stroke-opacity:1"
       d="m 136.66086,477.40808 382.01215,0 c -8.45306,-7.50018 -14.09725,-15.43248 -11.09879,-27.68612 -18.49998,10.85577 -36.55501,-4.58249 -28.18603,-23.118 11.87156,-26.29297 39.67902,-9.38096 35.61805,11.08081 3.51037,-3.65441 11.40222,-6.87668 18.36965,-8.37043 -15.50185,-16.90994 0.25336,-36.26424 17.96949,-29.48243 17.71613,6.78181 8.2575,32.3441 -3.62969,32.81554 0,0 9.11762,9.60759 6.0742,16.64875 -2.13144,4.93121 18.01978,4.8097 21.31533,0.4692 -0.81335,-7.66276 11.73882,-9.46248 14.93293,-1.82066 3.19411,7.64181 -5.22393,17.42293 -13.63653,9.90725 0,0 -9.0841,12.73301 -19.55609,19.55609 l 153.22679,0"
       id="path4144"
       inkscape:connector-curvature="0"
       sodipodi:nodetypes="cccscczssczccc" />
    <path
       style="fill:none;fill-rule:evenodd;stroke:#000000;stroke-width:2;stroke-linecap:round;stroke-linejoin:round;stroke-miterlimit:4;stroke-dasharray:none;stroke-opacity:1"
       d="m 136.43462,398.17138 0,350.92578 565.55651,0"
       id="path4150"
       inkscape:connector-curvature="0"
       sodipodi:nodetypes="ccc" />
    <path
       sodipodi:nodetypes="ccccc"
       inkscape:connector-curvature="0"
       id="path4154"
       d="m 125.59822,418.0342 10.62902,-30.63002 10.75775,31.00099 -10.6642,-4.57673 z"
       style="fill:#000000;fill-opacity:1;fill-rule:evenodd;stroke:#000000;stroke-width:0.27370057px;stroke-linecap:round;stroke-linejoin:round;stroke-opacity:1" />
    <path
       style="fill:#000000;fill-opacity:1;fill-rule:evenodd;stroke:#000000;stroke-width:0.27370057px;stroke-linecap:round;stroke-linejoin:round;stroke-opacity:1"
       d="m 688.46414,737.90044 30.63002,10.62902 -31.00099,10.75775 4.57673,-10.6642 z"
       id="path4156"
       inkscape:connector-curvature="0"
       sodipodi:nodetypes="ccccc" />
    <text
       xml:space="preserve"
       style="font-style:normal;font-variant:normal;font-weight:normal;font-stretch:normal;font-size:62.5px;line-height:125%;font-family:Serif;-inkscape-font-specification:'Serif, Normal';text-align:start;letter-spacing:0px;word-spacing:0px;writing-mode:lr-tb;text-anchor:start;fill:#000000;fill-opacity:1;stroke:none;stroke-width:1px;stroke-linecap:butt;stroke-linejoin:miter;stroke-opacity:1"
       x="748.50995"
       y="719.35162"
       id="text4158"
       sodipodi:linespacing="125%"><tspan
         sodipodi:role="line"
         id="tspan4160"
         x="748.50995"
         y="719.35162"></tspan></text>
    <text
       xml:space="preserve"
       style="font-style:normal;font-variant:normal;font-weight:normal;font-stretch:normal;font-size:62.5px;line-height:125%;font-family:Serif;-inkscape-font-specification:'Serif, Normal';text-align:start;letter-spacing:0px;word-spacing:0px;writing-mode:lr-tb;text-anchor:start;fill:#000000;fill-opacity:1;stroke:none;stroke-width:1px;stroke-linecap:butt;stroke-linejoin:miter;stroke-opacity:1"
       x="722.06488"
       y="762.99023"
       id="text4162"
       sodipodi:linespacing="125%"><tspan
         sodipodi:role="line"
         id="tspan4164"
         x="722.06488"
         y="762.99023">x</tspan></text>
    <text
       xml:space="preserve"
       style="font-style:normal;font-variant:normal;font-weight:normal;font-stretch:normal;font-size:62.5px;line-height:125%;font-family:Serif;-inkscape-font-specification:'Serif, Normal';text-align:start;letter-spacing:0px;word-spacing:0px;writing-mode:lr-tb;text-anchor:start;fill:#000000;fill-opacity:1;stroke:none;stroke-width:1px;stroke-linecap:butt;stroke-linejoin:miter;stroke-opacity:1"
       x="122.47026"
       y="380.71594"
       id="text4166"
       sodipodi:linespacing="125%"><tspan
         sodipodi:role="line"
         id="tspan4168"
         x="122.47026"
         y="380.71594">t</tspan></text>
    <path
       style="fill:none;fill-rule:evenodd;stroke:#000000;stroke-width:1;stroke-linecap:butt;stroke-linejoin:miter;stroke-miterlimit:4;stroke-dasharray:4, 4;stroke-dashoffset:0;stroke-opacity:1"
       d="M 135.87873,749.02587 630.74064,433.95506"
       id="path4210"
       inkscape:connector-curvature="0"
       sodipodi:nodetypes="cc" />
    <text
       xml:space="preserve"
       style="font-style:normal;font-variant:normal;font-weight:normal;font-stretch:normal;font-size:30px;line-height:125%;font-family:Serif;-inkscape-font-specification:'Serif, Normal';text-align:start;letter-spacing:0px;word-spacing:0px;writing-mode:lr-tb;text-anchor:start;fill:#000000;fill-opacity:1;stroke:none;stroke-width:1px;stroke-linecap:butt;stroke-linejoin:miter;stroke-opacity:1"
       x="279.08429"
       y="729.93286"
       id="text4212"
       sodipodi:linespacing="125%"
       transform="matrix(0.8187154,-0.57419952,0.57419952,0.8187154,0,0)"><tspan
         sodipodi:role="line"
         id="tspan4214"
         x="279.08429"
         y="729.93286"
         style="font-size:50px">t=x/c</tspan></text>
  </g>
</svg>
