<?xml version="1.0" encoding="UTF-8" standalone="no"?>
<!-- Created with Inkscape (http://www.inkscape.org/) -->

<svg
   xmlns:dc="http://purl.org/dc/elements/1.1/"
   xmlns:cc="http://creativecommons.org/ns#"
   xmlns:rdf="http://www.w3.org/1999/02/22-rdf-syntax-ns#"
   xmlns:svg="http://www.w3.org/2000/svg"
   xmlns="http://www.w3.org/2000/svg"
   xmlns:sodipodi="http://sodipodi.sourceforge.net/DTD/sodipodi-0.dtd"
   xmlns:inkscape="http://www.inkscape.org/namespaces/inkscape"
   width="1138.0496"
   height="262.9595"
   id="svg2"
   version="1.1"
   inkscape:version="0.48.4 r9939"
   sodipodi:docname="New document 1">
  <defs
     id="defs4" />
  <sodipodi:namedview
     id="base"
     pagecolor="#ffffff"
     bordercolor="#666666"
     borderopacity="1.0"
     inkscape:pageopacity="0.0"
     inkscape:pageshadow="2"
     inkscape:zoom="0.62421684"
     inkscape:cx="494.88237"
     inkscape:cy="-203.5201"
     inkscape:document-units="px"
     inkscape:current-layer="layer1"
     showgrid="false"
     fit-margin-top="0"
     fit-margin-left="0"
     fit-margin-right="0"
     fit-margin-bottom="0"
     inkscape:window-width="1857"
     inkscape:window-height="1056"
     inkscape:window-x="63"
     inkscape:window-y="24"
     inkscape:window-maximized="1" />
  <metadata
     id="metadata7">
    <rdf:RDF>
      <cc:Work
         rdf:about="">
        <dc:format>image/svg+xml</dc:format>
        <dc:type
           rdf:resource="http://purl.org/dc/dcmitype/StillImage" />
        <dc:title></dc:title>
      </cc:Work>
    </rdf:RDF>
  </metadata>
  <g
     inkscape:label="Layer 1"
     inkscape:groupmode="layer"
     id="layer1"
     transform="translate(194.12486,-197.1214)">
    <path
       sodipodi:type="arc"
       style="fill:#000000;fill-opacity:1;stroke:#000000;stroke-width:3;stroke-linecap:round;stroke-linejoin:round;stroke-miterlimit:4;stroke-opacity:1;stroke-dasharray:none;stroke-dashoffset:0"
       id="path2985"
       sodipodi:cx="-94.58799"
       sodipodi:cy="381.75034"
       sodipodi:rx="11.894299"
       sodipodi:ry="12.460693"
       d="m -94.676632,369.28999 c 6.568857,-0.0513 11.933655,5.48582 11.98261,12.36748 0.04896,6.88166 -5.236468,12.50193 -11.805325,12.55321 -6.568853,0.0513 -11.933653,-5.48582 -11.982613,-12.36748 -0.0489,-6.86799 5.21626,-12.48242 11.77191,-12.5529"
       sodipodi:start="4.7049364"
       sodipodi:end="10.985312"
       sodipodi:open="true"
       transform="translate(-3.211389,-4.5311612)" />
    <path
       sodipodi:open="true"
       sodipodi:end="10.985312"
       sodipodi:start="4.7049364"
       d="m -94.676632,369.28999 c 6.568857,-0.0513 11.933655,5.48582 11.98261,12.36748 0.04896,6.88166 -5.236468,12.50193 -11.805325,12.55321 -6.568853,0.0513 -11.933653,-5.48582 -11.982613,-12.36748 -0.0489,-6.86799 5.21626,-12.48242 11.77191,-12.5529"
       sodipodi:ry="12.460693"
       sodipodi:rx="11.894299"
       sodipodi:cy="381.75034"
       sodipodi:cx="-94.58799"
       id="path2987"
       style="fill:#000000;fill-opacity:1;stroke:#000000;stroke-width:3;stroke-linecap:round;stroke-linejoin:round;stroke-miterlimit:4;stroke-opacity:1;stroke-dasharray:none;stroke-dashoffset:0"
       sodipodi:type="arc"
       transform="translate(-46,-4.5311612)" />
    <path
       sodipodi:type="arc"
       style="fill:#000000;fill-opacity:1;stroke:#000000;stroke-width:3;stroke-linecap:round;stroke-linejoin:round;stroke-miterlimit:4;stroke-opacity:1;stroke-dasharray:none;stroke-dashoffset:0"
       id="path2989"
       sodipodi:cx="-94.58799"
       sodipodi:cy="381.75034"
       sodipodi:rx="11.894299"
       sodipodi:ry="12.460693"
       d="m -94.676632,369.28999 c 6.568857,-0.0513 11.933655,5.48582 11.98261,12.36748 0.04896,6.88166 -5.236468,12.50193 -11.805325,12.55321 -6.568853,0.0513 -11.933653,-5.48582 -11.982613,-12.36748 -0.0489,-6.86799 5.21626,-12.48242 11.77191,-12.5529"
       sodipodi:start="4.7049364"
       sodipodi:end="10.985312"
       sodipodi:open="true"
       transform="translate(39.577222,-4.5311612)" />
    <path
       transform="translate(82.36583,-4.5311612)"
       sodipodi:open="true"
       sodipodi:end="10.985312"
       sodipodi:start="4.7049364"
       d="m -94.676632,369.28999 c 6.568857,-0.0513 11.933655,5.48582 11.98261,12.36748 0.04896,6.88166 -5.236468,12.50193 -11.805325,12.55321 -6.568853,0.0513 -11.933653,-5.48582 -11.982613,-12.36748 -0.0489,-6.86799 5.21626,-12.48242 11.77191,-12.5529"
       sodipodi:ry="12.460693"
       sodipodi:rx="11.894299"
       sodipodi:cy="381.75034"
       sodipodi:cx="-94.58799"
       id="path2991"
       style="fill:#000000;fill-opacity:1;stroke:#000000;stroke-width:3;stroke-linecap:round;stroke-linejoin:round;stroke-miterlimit:4;stroke-opacity:1;stroke-dasharray:none;stroke-dashoffset:0"
       sodipodi:type="arc" />
    <path
       sodipodi:type="arc"
       style="fill:#000000;fill-opacity:1;stroke:#000000;stroke-width:3;stroke-linecap:round;stroke-linejoin:round;stroke-miterlimit:4;stroke-opacity:1;stroke-dasharray:none;stroke-dashoffset:0"
       id="path2993"
       sodipodi:cx="-94.58799"
       sodipodi:cy="381.75034"
       sodipodi:rx="11.894299"
       sodipodi:ry="12.460693"
       d="m -94.676632,369.28999 c 6.568857,-0.0513 11.933655,5.48582 11.98261,12.36748 0.04896,6.88166 -5.236468,12.50193 -11.805325,12.55321 -6.568853,0.0513 -11.933653,-5.48582 -11.982613,-12.36748 -0.0489,-6.86799 5.21626,-12.48242 11.77191,-12.5529"
       sodipodi:start="4.7049364"
       sodipodi:end="10.985312"
       sodipodi:open="true"
       transform="translate(125.15444,-4.5311612)" />
    <path
       transform="translate(167.94306,-4.5311612)"
       sodipodi:open="true"
       sodipodi:end="10.985312"
       sodipodi:start="4.7049364"
       d="m -94.676632,369.28999 c 6.568857,-0.0513 11.933655,5.48582 11.98261,12.36748 0.04896,6.88166 -5.236468,12.50193 -11.805325,12.55321 -6.568853,0.0513 -11.933653,-5.48582 -11.982613,-12.36748 -0.0489,-6.86799 5.21626,-12.48242 11.77191,-12.5529"
       sodipodi:ry="12.460693"
       sodipodi:rx="11.894299"
       sodipodi:cy="381.75034"
       sodipodi:cx="-94.58799"
       id="path2995"
       style="fill:#000000;fill-opacity:1;stroke:#000000;stroke-width:3;stroke-linecap:round;stroke-linejoin:round;stroke-miterlimit:4;stroke-opacity:1;stroke-dasharray:none;stroke-dashoffset:0"
       sodipodi:type="arc" />
    <path
       sodipodi:type="arc"
       style="fill:#000000;fill-opacity:1;stroke:#000000;stroke-width:3;stroke-linecap:round;stroke-linejoin:round;stroke-miterlimit:4;stroke-opacity:1;stroke-dasharray:none;stroke-dashoffset:0"
       id="path2997"
       sodipodi:cx="-94.58799"
       sodipodi:cy="381.75034"
       sodipodi:rx="11.894299"
       sodipodi:ry="12.460693"
       d="m -94.676632,369.28999 c 6.568857,-0.0513 11.933655,5.48582 11.98261,12.36748 0.04896,6.88166 -5.236468,12.50193 -11.805325,12.55321 -6.568853,0.0513 -11.933653,-5.48582 -11.982613,-12.36748 -0.0489,-6.86799 5.21626,-12.48242 11.77191,-12.5529"
       sodipodi:start="4.7049364"
       sodipodi:end="10.985312"
       sodipodi:open="true"
       transform="translate(210.73167,-4.5311612)" />
    <path
       transform="translate(253.52028,-46.531161)"
       sodipodi:open="true"
       sodipodi:end="10.985312"
       sodipodi:start="4.7049364"
       d="m -94.676632,369.28999 c 6.568857,-0.0513 11.933655,5.48582 11.98261,12.36748 0.04896,6.88166 -5.236468,12.50193 -11.805325,12.55321 -6.568853,0.0513 -11.933653,-5.48582 -11.982613,-12.36748 -0.0489,-6.86799 5.21626,-12.48242 11.77191,-12.5529"
       sodipodi:ry="12.460693"
       sodipodi:rx="11.894299"
       sodipodi:cy="381.75034"
       sodipodi:cx="-94.58799"
       id="path2999"
       style="fill:#ff0000;fill-opacity:1;stroke:#ff0000;stroke-width:3;stroke-linecap:round;stroke-linejoin:round;stroke-miterlimit:4;stroke-opacity:1;stroke-dasharray:none;stroke-dashoffset:0"
       sodipodi:type="arc" />
    <path
       sodipodi:type="arc"
       style="fill:#ff0000;fill-opacity:1;stroke:#ff0000;stroke-width:3;stroke-linecap:round;stroke-linejoin:round;stroke-miterlimit:4;stroke-opacity:1;stroke-dasharray:none;stroke-dashoffset:0"
       id="path3001"
       sodipodi:cx="-94.58799"
       sodipodi:cy="381.75034"
       sodipodi:rx="11.894299"
       sodipodi:ry="12.460693"
       d="m -94.676632,369.28999 c 6.568857,-0.0513 11.933655,5.48582 11.98261,12.36748 0.04896,6.88166 -5.236468,12.50193 -11.805325,12.55321 -6.568853,0.0513 -11.933653,-5.48582 -11.982613,-12.36748 -0.0489,-6.86799 5.21626,-12.48242 11.77191,-12.5529"
       sodipodi:start="4.7049364"
       sodipodi:end="10.985312"
       sodipodi:open="true"
       transform="translate(296.30889,-72.531161)" />
    <path
       transform="translate(339.0975,-46.531161)"
       sodipodi:open="true"
       sodipodi:end="10.985312"
       sodipodi:start="4.7049364"
       d="m -94.676632,369.28999 c 6.568857,-0.0513 11.933655,5.48582 11.98261,12.36748 0.04896,6.88166 -5.236468,12.50193 -11.805325,12.55321 -6.568853,0.0513 -11.933653,-5.48582 -11.982613,-12.36748 -0.0489,-6.86799 5.21626,-12.48242 11.77191,-12.5529"
       sodipodi:ry="12.460693"
       sodipodi:rx="11.894299"
       sodipodi:cy="381.75034"
       sodipodi:cx="-94.58799"
       id="path3003"
       style="fill:#ff0000;fill-opacity:1;stroke:#ff0000;stroke-width:3;stroke-linecap:round;stroke-linejoin:round;stroke-miterlimit:4;stroke-opacity:1;stroke-dasharray:none;stroke-dashoffset:0"
       sodipodi:type="arc" />
    <path
       sodipodi:type="arc"
       style="fill:#000000;fill-opacity:1;stroke:#000000;stroke-width:3;stroke-linecap:round;stroke-linejoin:round;stroke-miterlimit:4;stroke-opacity:1;stroke-dasharray:none;stroke-dashoffset:0"
       id="path3005"
       sodipodi:cx="-94.58799"
       sodipodi:cy="381.75034"
       sodipodi:rx="11.894299"
       sodipodi:ry="12.460693"
       d="m -94.676632,369.28999 c 6.568857,-0.0513 11.933655,5.48582 11.98261,12.36748 0.04896,6.88166 -5.236468,12.50193 -11.805325,12.55321 -6.568853,0.0513 -11.933653,-5.48582 -11.982613,-12.36748 -0.0489,-6.86799 5.21626,-12.48242 11.77191,-12.5529"
       sodipodi:start="4.7049364"
       sodipodi:end="10.985312"
       sodipodi:open="true"
       transform="translate(381.88611,-4.531161)" />
    <path
       transform="translate(424.67472,-4.5311612)"
       sodipodi:open="true"
       sodipodi:end="10.985312"
       sodipodi:start="4.7049364"
       d="m -94.676632,369.28999 c 6.568857,-0.0513 11.933655,5.48582 11.98261,12.36748 0.04896,6.88166 -5.236468,12.50193 -11.805325,12.55321 -6.568853,0.0513 -11.933653,-5.48582 -11.982613,-12.36748 -0.0489,-6.86799 5.21626,-12.48242 11.77191,-12.5529"
       sodipodi:ry="12.460693"
       sodipodi:rx="11.894299"
       sodipodi:cy="381.75034"
       sodipodi:cx="-94.58799"
       id="path3007"
       style="fill:#000000;fill-opacity:1;stroke:#000000;stroke-width:3;stroke-linecap:round;stroke-linejoin:round;stroke-miterlimit:4;stroke-opacity:1;stroke-dasharray:none;stroke-dashoffset:0"
       sodipodi:type="arc" />
    <path
       sodipodi:type="arc"
       style="fill:#000000;fill-opacity:1;stroke:#000000;stroke-width:3;stroke-linecap:round;stroke-linejoin:round;stroke-miterlimit:4;stroke-opacity:1;stroke-dasharray:none;stroke-dashoffset:0"
       id="path3009"
       sodipodi:cx="-94.58799"
       sodipodi:cy="381.75034"
       sodipodi:rx="11.894299"
       sodipodi:ry="12.460693"
       d="m -94.676632,369.28999 c 6.568857,-0.0513 11.933655,5.48582 11.98261,12.36748 0.04896,6.88166 -5.236468,12.50193 -11.805325,12.55321 -6.568853,0.0513 -11.933653,-5.48582 -11.982613,-12.36748 -0.0489,-6.86799 5.21626,-12.48242 11.77191,-12.5529"
       sodipodi:start="4.7049364"
       sodipodi:end="10.985312"
       sodipodi:open="true"
       transform="translate(467.46333,-4.5311612)" />
    <path
       transform="translate(510.25195,-4.5311612)"
       sodipodi:open="true"
       sodipodi:end="10.985312"
       sodipodi:start="4.7049364"
       d="m -94.676632,369.28999 c 6.568857,-0.0513 11.933655,5.48582 11.98261,12.36748 0.04896,6.88166 -5.236468,12.50193 -11.805325,12.55321 -6.568853,0.0513 -11.933653,-5.48582 -11.982613,-12.36748 -0.0489,-6.86799 5.21626,-12.48242 11.77191,-12.5529"
       sodipodi:ry="12.460693"
       sodipodi:rx="11.894299"
       sodipodi:cy="381.75034"
       sodipodi:cx="-94.58799"
       id="path3011"
       style="fill:#000000;fill-opacity:1;stroke:#000000;stroke-width:3;stroke-linecap:round;stroke-linejoin:round;stroke-miterlimit:4;stroke-opacity:1;stroke-dasharray:none;stroke-dashoffset:0"
       sodipodi:type="arc" />
    <path
       sodipodi:type="arc"
       style="fill:#000000;fill-opacity:1;stroke:#000000;stroke-width:3;stroke-linecap:round;stroke-linejoin:round;stroke-miterlimit:4;stroke-opacity:1;stroke-dasharray:none;stroke-dashoffset:0"
       id="path3013"
       sodipodi:cx="-94.58799"
       sodipodi:cy="381.75034"
       sodipodi:rx="11.894299"
       sodipodi:ry="12.460693"
       d="m -94.676632,369.28999 c 6.568857,-0.0513 11.933655,5.48582 11.98261,12.36748 0.04896,6.88166 -5.236468,12.50193 -11.805325,12.55321 -6.568853,0.0513 -11.933653,-5.48582 -11.982613,-12.36748 -0.0489,-6.86799 5.21626,-12.48242 11.77191,-12.5529"
       sodipodi:start="4.7049364"
       sodipodi:end="10.985312"
       sodipodi:open="true"
       transform="translate(553.04056,-4.5311612)" />
    <path
       transform="translate(595.82917,-4.5311612)"
       sodipodi:open="true"
       sodipodi:end="10.985312"
       sodipodi:start="4.7049364"
       d="m -94.676632,369.28999 c 6.568857,-0.0513 11.933655,5.48582 11.98261,12.36748 0.04896,6.88166 -5.236468,12.50193 -11.805325,12.55321 -6.568853,0.0513 -11.933653,-5.48582 -11.982613,-12.36748 -0.0489,-6.86799 5.21626,-12.48242 11.77191,-12.5529"
       sodipodi:ry="12.460693"
       sodipodi:rx="11.894299"
       sodipodi:cy="381.75034"
       sodipodi:cx="-94.58799"
       id="path3015"
       style="fill:#000000;fill-opacity:1;stroke:#000000;stroke-width:3;stroke-linecap:round;stroke-linejoin:round;stroke-miterlimit:4;stroke-opacity:1;stroke-dasharray:none;stroke-dashoffset:0"
       sodipodi:type="arc" />
    <path
       sodipodi:type="arc"
       style="fill:#000000;fill-opacity:1;stroke:#000000;stroke-width:3;stroke-linecap:round;stroke-linejoin:round;stroke-miterlimit:4;stroke-opacity:1;stroke-dasharray:none;stroke-dashoffset:0"
       id="path3017"
       sodipodi:cx="-94.58799"
       sodipodi:cy="381.75034"
       sodipodi:rx="11.894299"
       sodipodi:ry="12.460693"
       d="m -94.676632,369.28999 c 6.568857,-0.0513 11.933655,5.48582 11.98261,12.36748 0.04896,6.88166 -5.236468,12.50193 -11.805325,12.55321 -6.568853,0.0513 -11.933653,-5.48582 -11.982613,-12.36748 -0.0489,-6.86799 5.21626,-12.48242 11.77191,-12.5529"
       sodipodi:start="4.7049364"
       sodipodi:end="10.985312"
       sodipodi:open="true"
       transform="translate(636.61778,-4.5311612)" />
    <path
       transform="translate(675.40639,-4.5311612)"
       sodipodi:open="true"
       sodipodi:end="10.985312"
       sodipodi:start="4.7049364"
       d="m -94.676632,369.28999 c 6.568857,-0.0513 11.933655,5.48582 11.98261,12.36748 0.04896,6.88166 -5.236468,12.50193 -11.805325,12.55321 -6.568853,0.0513 -11.933653,-5.48582 -11.982613,-12.36748 -0.0489,-6.86799 5.21626,-12.48242 11.77191,-12.5529"
       sodipodi:ry="12.460693"
       sodipodi:rx="11.894299"
       sodipodi:cy="381.75034"
       sodipodi:cx="-94.58799"
       id="path3019"
       style="fill:#000000;fill-opacity:1;stroke:#000000;stroke-width:3;stroke-linecap:round;stroke-linejoin:round;stroke-miterlimit:4;stroke-opacity:1;stroke-dasharray:none;stroke-dashoffset:0"
       sodipodi:type="arc" />
    <path
       sodipodi:type="arc"
       style="fill:#0000ff;fill-opacity:1;stroke:#0000ff;stroke-width:3;stroke-linecap:round;stroke-linejoin:round;stroke-miterlimit:4;stroke-opacity:1;stroke-dasharray:none;stroke-dashoffset:0"
       id="path3021"
       sodipodi:cx="-94.58799"
       sodipodi:cy="381.75034"
       sodipodi:rx="11.894299"
       sodipodi:ry="12.460693"
       d="m -94.676632,369.28999 c 6.568857,-0.0513 11.933655,5.48582 11.98261,12.36748 0.04896,6.88166 -5.236468,12.50193 -11.805325,12.55321 -6.568853,0.0513 -11.933653,-5.48582 -11.982613,-12.36748 -0.0489,-6.86799 5.21626,-12.48242 11.77191,-12.5529"
       sodipodi:start="4.7049364"
       sodipodi:end="10.985312"
       sodipodi:open="true"
       transform="translate(710.195,-4.5311612)" />
    <path
       transform="translate(738.98361,-4.5311612)"
       sodipodi:open="true"
       sodipodi:end="10.985312"
       sodipodi:start="4.7049364"
       d="m -94.676632,369.28999 c 6.568857,-0.0513 11.933655,5.48582 11.98261,12.36748 0.04896,6.88166 -5.236468,12.50193 -11.805325,12.55321 -6.568853,0.0513 -11.933653,-5.48582 -11.982613,-12.36748 -0.0489,-6.86799 5.21626,-12.48242 11.77191,-12.5529"
       sodipodi:ry="12.460693"
       sodipodi:rx="11.894299"
       sodipodi:cy="381.75034"
       sodipodi:cx="-94.58799"
       id="path3023"
       style="fill:#0000ff;fill-opacity:1;stroke:#0000ff;stroke-width:3;stroke-linecap:round;stroke-linejoin:round;stroke-miterlimit:4;stroke-opacity:1;stroke-dasharray:none;stroke-dashoffset:0"
       sodipodi:type="arc" />
    <path
       sodipodi:type="arc"
       style="fill:#0000ff;fill-opacity:1;stroke:#0000ff;stroke-width:3;stroke-linecap:round;stroke-linejoin:round;stroke-miterlimit:4;stroke-opacity:1;stroke-dasharray:none;stroke-dashoffset:0"
       id="path3025"
       sodipodi:cx="-94.58799"
       sodipodi:cy="381.75034"
       sodipodi:rx="11.894299"
       sodipodi:ry="12.460693"
       d="m -94.676632,369.28999 c 6.568857,-0.0513 11.933655,5.48582 11.98261,12.36748 0.04896,6.88166 -5.236468,12.50193 -11.805325,12.55321 -6.568853,0.0513 -11.933653,-5.48582 -11.982613,-12.36748 -0.0489,-6.86799 5.21626,-12.48242 11.77191,-12.5529"
       sodipodi:start="4.7049364"
       sodipodi:end="10.985312"
       sodipodi:open="true"
       transform="translate(760.86978,-3.9647661)" />
    <path
       transform="translate(813.34945,-4.5311612)"
       sodipodi:open="true"
       sodipodi:end="10.985312"
       sodipodi:start="4.7049364"
       d="m -94.676632,369.28999 c 6.568857,-0.0513 11.933655,5.48582 11.98261,12.36748 0.04896,6.88166 -5.236468,12.50193 -11.805325,12.55321 -6.568853,0.0513 -11.933653,-5.48582 -11.982613,-12.36748 -0.0489,-6.86799 5.21626,-12.48242 11.77191,-12.5529"
       sodipodi:ry="12.460693"
       sodipodi:rx="11.894299"
       sodipodi:cy="381.75034"
       sodipodi:cx="-94.58799"
       id="path3027"
       style="fill:#0000ff;fill-opacity:1;stroke:#0000ff;stroke-width:3;stroke-linecap:round;stroke-linejoin:round;stroke-miterlimit:4;stroke-opacity:1;stroke-dasharray:none;stroke-dashoffset:0"
       sodipodi:type="arc" />
    <path
       sodipodi:type="arc"
       style="fill:#0000ff;fill-opacity:1;stroke:#0000ff;stroke-width:3;stroke-linecap:round;stroke-linejoin:round;stroke-miterlimit:4;stroke-opacity:1;stroke-dasharray:none;stroke-dashoffset:0"
       id="path3029"
       sodipodi:cx="-94.58799"
       sodipodi:cy="381.75034"
       sodipodi:rx="11.894299"
       sodipodi:ry="12.460693"
       d="m -94.676632,369.28999 c 6.568857,-0.0513 11.933655,5.48582 11.98261,12.36748 0.04896,6.88166 -5.236468,12.50193 -11.805325,12.55321 -6.568853,0.0513 -11.933653,-5.48582 -11.982613,-12.36748 -0.0489,-6.86799 5.21626,-12.48242 11.77191,-12.5529"
       sodipodi:start="4.7049364"
       sodipodi:end="10.985312"
       sodipodi:open="true"
       transform="translate(783.65839,-3.9647661)" />
    <path
       transform="translate(887.31173,-4.5311612)"
       sodipodi:open="true"
       sodipodi:end="10.985312"
       sodipodi:start="4.7049364"
       d="m -94.676632,369.28999 c 6.568857,-0.0513 11.933655,5.48582 11.98261,12.36748 0.04896,6.88166 -5.236468,12.50193 -11.805325,12.55321 -6.568853,0.0513 -11.933653,-5.48582 -11.982613,-12.36748 -0.0489,-6.86799 5.21626,-12.48242 11.77191,-12.5529"
       sodipodi:ry="12.460693"
       sodipodi:rx="11.894299"
       sodipodi:cy="381.75034"
       sodipodi:cx="-94.58799"
       id="path3044"
       style="fill:#000000;fill-opacity:1;stroke:#000000;stroke-width:3;stroke-linecap:round;stroke-linejoin:round;stroke-miterlimit:4;stroke-opacity:1;stroke-dasharray:none;stroke-dashoffset:0"
       sodipodi:type="arc" />
    <path
       transform="translate(846.04613,-4.5311612)"
       sodipodi:type="arc"
       style="fill:#000000;fill-opacity:1;stroke:#000000;stroke-width:3;stroke-linecap:round;stroke-linejoin:round;stroke-miterlimit:4;stroke-opacity:1;stroke-dasharray:none;stroke-dashoffset:0"
       id="path3046"
       sodipodi:cx="-94.58799"
       sodipodi:cy="381.75034"
       sodipodi:rx="11.894299"
       sodipodi:ry="12.460693"
       d="m -94.676632,369.28999 c 6.568857,-0.0513 11.933655,5.48582 11.98261,12.36748 0.04896,6.88166 -5.236468,12.50193 -11.805325,12.55321 -6.568853,0.0513 -11.933653,-5.48582 -11.982613,-12.36748 -0.0489,-6.86799 5.21626,-12.48242 11.77191,-12.5529"
       sodipodi:start="4.7049364"
       sodipodi:end="10.985312"
       sodipodi:open="true" />
    <path
       transform="translate(930.10033,-4.5311612)"
       sodipodi:open="true"
       sodipodi:end="10.985312"
       sodipodi:start="4.7049364"
       d="m -94.676632,369.28999 c 6.568857,-0.0513 11.933655,5.48582 11.98261,12.36748 0.04896,6.88166 -5.236468,12.50193 -11.805325,12.55321 -6.568853,0.0513 -11.933653,-5.48582 -11.982613,-12.36748 -0.0489,-6.86799 5.21626,-12.48242 11.77191,-12.5529"
       sodipodi:ry="12.460693"
       sodipodi:rx="11.894299"
       sodipodi:cy="381.75034"
       sodipodi:cx="-94.58799"
       id="path3048"
       style="fill:#000000;fill-opacity:1;stroke:#000000;stroke-width:3;stroke-linecap:round;stroke-linejoin:round;stroke-miterlimit:4;stroke-opacity:1;stroke-dasharray:none;stroke-dashoffset:0"
       sodipodi:type="arc" />
    <path
       style="fill:#000000;fill-opacity:1;stroke:#000000;stroke-width:3;stroke-linecap:round;stroke-linejoin:round;stroke-miterlimit:4;stroke-opacity:1;stroke-dasharray:none"
       d="m -72.365194,151.99452 1073.610194,-1.13279 -46.7214,-12.03118 0,24.49187 46.5558,-12.47458"
       id="path3820"
       inkscape:connector-curvature="0"
       transform="translate(-107.9823,295.25847)"
       sodipodi:nodetypes="ccccc" />
    <path
       sodipodi:nodetypes="ccccc"
       inkscape:connector-curvature="0"
       id="path3822"
       d="m -179.5309,446.46762 1.13279,-187.70015 12.03118,46.7215 -24.49187,0 12.47458,-46.5559"
       style="fill:#000000;fill-opacity:1;stroke:#000000;stroke-width:3;stroke-linecap:round;stroke-linejoin:round;stroke-miterlimit:4;stroke-opacity:1;stroke-dasharray:none" />
    <text
       xml:space="preserve"
       style="font-size:56px;font-style:normal;font-variant:normal;font-weight:normal;font-stretch:normal;text-align:start;line-height:125%;letter-spacing:0px;word-spacing:0px;writing-mode:lr-tb;text-anchor:start;fill:#000000;fill-opacity:1;stroke:none;font-family:Serif;-inkscape-font-specification:Serif"
       x="913.02631"
       y="460.0809"
       id="text3824"
       sodipodi:linespacing="125%"><tspan
         sodipodi:role="line"
         id="tspan3826"
         x="913.02631"
         y="460.0809">x</tspan></text>
    <text
       xml:space="preserve"
       style="font-size:56px;font-style:normal;font-variant:normal;font-weight:normal;font-stretch:normal;text-align:start;line-height:125%;letter-spacing:0px;word-spacing:0px;writing-mode:lr-tb;text-anchor:start;fill:#000000;fill-opacity:1;stroke:none;font-family:Serif;-inkscape-font-specification:Serif"
       x="-193.9608"
       y="226.18781"
       id="text3828"
       sodipodi:linespacing="125%"><tspan
         sodipodi:role="line"
         id="tspan3830"
         x="-193.9608"
         y="226.18781">y</tspan></text>
    <path
       style="fill:none;stroke:#000000;stroke-width:2;stroke-linecap:round;stroke-linejoin:round;stroke-miterlimit:4;stroke-opacity:1;stroke-dasharray:none"
       d="m 678.95834,240.88187 196.82871,0.92068 -14.73269,-19.79465 75.58567,28.66932 -72.43145,24.97812 9.18912,-17.30562 -194.43936,0 z"
       id="path3832"
       inkscape:connector-curvature="0"
       sodipodi:nodetypes="cccccccc" />
    <text
       xml:space="preserve"
       style="font-size:36px;font-style:normal;font-variant:normal;font-weight:normal;font-stretch:normal;text-align:start;line-height:125%;letter-spacing:0px;word-spacing:0px;writing-mode:lr-tb;text-anchor:start;fill:#000000;fill-opacity:1;stroke:none;font-family:Serif;-inkscape-font-specification:Serif"
       x="654.93903"
       y="339.93036"
       id="text3834"
       sodipodi:linespacing="125%"><tspan
         sodipodi:role="line"
         id="tspan3836"
         x="654.93903"
         y="339.93036">P</tspan></text>
    <text
       xml:space="preserve"
       style="font-size:36px;font-style:normal;font-variant:normal;font-weight:normal;font-stretch:normal;text-align:start;line-height:125%;letter-spacing:0px;word-spacing:0px;writing-mode:lr-tb;text-anchor:start;fill:#000000;fill-opacity:1;stroke:none;font-family:Serif;-inkscape-font-specification:Serif"
       x="190.35693"
       y="259.82999"
       id="text3838"
       sodipodi:linespacing="125%"><tspan
         sodipodi:role="line"
         id="tspan3840"
         x="190.35693"
         y="259.82999">S</tspan></text>
  </g>
</svg>
