<?xml version="1.0" encoding="UTF-8" standalone="no"?>
<!-- Created with Inkscape (http://www.inkscape.org/) -->

<svg
   xmlns:dc="http://purl.org/dc/elements/1.1/"
   xmlns:cc="http://creativecommons.org/ns#"
   xmlns:rdf="http://www.w3.org/1999/02/22-rdf-syntax-ns#"
   xmlns:svg="http://www.w3.org/2000/svg"
   xmlns="http://www.w3.org/2000/svg"
   xmlns:sodipodi="http://sodipodi.sourceforge.net/DTD/sodipodi-0.dtd"
   xmlns:inkscape="http://www.inkscape.org/namespaces/inkscape"
   id="svg2"
   version="1.1"
   inkscape:version="0.91 r13725"
   xml:space="preserve"
   width="231.23476"
   height="311.34146"
   viewBox="0 0 231.23476 311.34146"
   sodipodi:docname="PSAngle.pdf"><metadata
     id="metadata8"><rdf:RDF><cc:Work
         rdf:about=""><dc:format>image/svg+xml</dc:format><dc:type
           rdf:resource="http://purl.org/dc/dcmitype/StillImage" /><dc:title></dc:title></cc:Work></rdf:RDF></metadata><defs
     id="defs6"><clipPath
       clipPathUnits="userSpaceOnUse"
       id="clipPath16"><path
         d="m 0,0.1 595.2,0 0,841.8 L 0,841.9 0,0.1 Z"
         id="path18"
         inkscape:connector-curvature="0"
         style="clip-rule:evenodd" /></clipPath><clipPath
       clipPathUnits="userSpaceOnUse"
       id="clipPath134"><path
         d="m -33,420 662,0 0,0.1 -662,0 0,-0.1 z"
         id="path136"
         inkscape:connector-curvature="0" /></clipPath></defs><sodipodi:namedview
     pagecolor="#ffffff"
     bordercolor="#666666"
     borderopacity="1"
     objecttolerance="10"
     gridtolerance="10"
     guidetolerance="10"
     inkscape:pageopacity="0"
     inkscape:pageshadow="2"
     inkscape:window-width="1920"
     inkscape:window-height="1032"
     id="namedview4"
     showgrid="false"
     fit-margin-top="0"
     fit-margin-left="0"
     fit-margin-right="0"
     fit-margin-bottom="0"
     inkscape:zoom="2.7333333"
     inkscape:cx="117.8125"
     inkscape:cy="196.28049"
     inkscape:window-x="0"
     inkscape:window-y="0"
     inkscape:window-maximized="1"
     inkscape:current-layer="g10" /><g
     id="g10"
     inkscape:groupmode="layer"
     inkscape:label="PSAngle"
     transform="matrix(1.25,0,0,-1.25,-181.125,957.96341)"><g
       id="g4413"
       transform="translate(-3.5121951,0)"><path
         inkscape:connector-curvature="0"
         id="path28"
         style="fill:none;stroke:#000000;stroke-width:0.80000001;stroke-linecap:butt;stroke-linejoin:miter;stroke-miterlimit:10;stroke-dasharray:none;stroke-opacity:1"
         d="m 305.6,639.6 -15.9,0" /><path
         inkscape:connector-curvature="0"
         id="path30"
         style="fill:#000000;fill-opacity:1;fill-rule:evenodd;stroke:none"
         d="m 277.5,639.6 12.7,-4.2 0,8.5 -12.7,-4.3 z" /></g><path
       d="m 236.41463,538.49756 0,37.1"
       style="fill:none;stroke:#000000;stroke-width:0.80000001;stroke-linecap:butt;stroke-linejoin:miter;stroke-miterlimit:10;stroke-dasharray:none;stroke-opacity:1"
       id="path32"
       inkscape:connector-curvature="0" /><path
       d="m 236.41463,587.79756 -4.2,-12.8 8.5,0 -4.3,12.8 z"
       style="fill:#000000;fill-opacity:1;fill-rule:evenodd;stroke:none"
       id="path34"
       inkscape:connector-curvature="0" /><path
       d="m 236.12195,746.37073 0,-37.1"
       style="fill:none;stroke:#000000;stroke-width:0.80000001;stroke-linecap:butt;stroke-linejoin:miter;stroke-miterlimit:10;stroke-dasharray:none;stroke-opacity:1"
       id="path36"
       inkscape:connector-curvature="0" /><path
       d="m 236.12195,697.17073 4.3,12.7 -8.5,0 4.2,-12.7 z"
       style="fill:#000000;fill-opacity:1;fill-rule:evenodd;stroke:none"
       id="path38"
       inkscape:connector-curvature="0" /><path
       d="m 169.8,639.6 15.9,0"
       style="fill:none;stroke:#000000;stroke-width:0.80000001;stroke-linecap:butt;stroke-linejoin:miter;stroke-miterlimit:10;stroke-dasharray:none;stroke-opacity:1"
       id="path40"
       inkscape:connector-curvature="0" /><path
       d="m 197.9,639.5 -12.7,4.3 0,-8.5 12.7,4.2 z"
       style="fill:#000000;fill-opacity:1;fill-rule:evenodd;stroke:none"
       id="path42"
       inkscape:connector-curvature="0" /><path
       d="m 238.11463,529.79756 c 0.3,0 1.2,0 1.2,0.9 0,0.5 -0.5,0.5 -1,0.5 l -5.4,0 c -3.7,0 -6.3,-3.9 -6.3,-6.8 0,-2.2 1.4,-3.8 3.6,-3.8 2.8,0 6,2.9 6,6.6 0,0.4 0,1.6 -0.7,2.6 l 2.6,0 z m -7.9,-8.7 c -1.2,0 -2.1,0.9 -2.1,2.6 0,0.7 0.2,2.7 1.1,4.1 1,1.7 2.5,2 3.3,2 1.9,0 2.2,-1.6 2.2,-2.3 0,-1.1 -0.5,-3.1 -1.3,-4.3 -1,-1.4 -2.3,-2.1 -3.2,-2.1 z"
       style="fill:#000000;fill-opacity:1;fill-rule:evenodd;stroke:none"
       id="path44"
       inkscape:connector-curvature="0" /><path
       d="m 245.01463,527.99756 c 0,0.4 0,0.4 -0.5,0.4 -1.1,-1 -2.6,-1 -3.3,-1 l 0,-0.7 c 0.4,0 1.5,0 2.4,0.5 l 0,-8.6 c 0,-0.5 0,-0.7 -1.7,-0.7 l -0.6,0 0,-0.6 c 0.3,0 2.4,0.1 3,0.1 0.6,0 2.7,-0.1 3.1,-0.1 l 0,0.6 -0.7,0 c -1.7,0 -1.7,0.2 -1.7,0.7 l 0,9.4 z"
       style="fill:#000000;fill-opacity:1;fill-rule:evenodd;stroke:none"
       id="path46"
       inkscape:connector-curvature="0" /><path
       d="m 320.1878,645.7 c 0.2,0 1.1,0 1.1,0.9 0,0.5 -0.5,0.5 -0.9,0.5 l -5.5,0 c -3.6,0 -6.3,-3.9 -6.3,-6.8 0,-2.1 1.4,-3.8 3.6,-3.8 2.9,0 6.1,2.9 6.1,6.6 0,0.4 0,1.6 -0.8,2.6 l 2.7,0 z m -8,-8.7 c -1.2,0 -2.1,0.9 -2.1,2.7 0,0.6 0.3,2.6 1.2,4 0.9,1.7 2.4,2 3.2,2 2,0 2.2,-1.6 2.2,-2.3 0,-1.1 -0.5,-3.1 -1.3,-4.3 -1,-1.4 -2.2,-2.1 -3.2,-2.1 z"
       style="fill:#000000;fill-opacity:1;fill-rule:evenodd;stroke:none"
       id="path48"
       inkscape:connector-curvature="0" /><path
       d="m 329.8878,636.3 -0.6,0 c 0,-0.4 -0.2,-1.4 -0.4,-1.6 -0.2,-0.1 -1.4,-0.1 -1.7,-0.1 l -3.1,0 c 1.8,1.6 2.4,2.1 3.4,2.8 1.2,1 2.4,2.1 2.4,3.7 0,2 -1.8,3.3 -3.9,3.3 -2.2,0 -3.6,-1.5 -3.6,-3 0,-0.9 0.8,-1 0.9,-1 0.4,0 0.9,0.3 0.9,0.9 0,0.3 -0.1,0.9 -1,0.9 0.5,1.2 1.7,1.5 2.5,1.5 1.7,0 2.6,-1.2 2.6,-2.6 0,-1.5 -1.1,-2.7 -1.6,-3.3 l -4.1,-4 c -0.2,-0.1 -0.2,-0.1 -0.2,-0.6 l 7,0 0.5,3.1 z"
       style="fill:#000000;fill-opacity:1;fill-rule:evenodd;stroke:none"
       id="path50"
       inkscape:connector-curvature="0" /><g
       id="g52"
       transform="matrix(-1,0,0,1,486.66585,-19.2)"><path
         d="M 162.66829,547.45366 323.99756,748.14634"
         style="fill:none;stroke:#000000;stroke-width:2.29229999;stroke-linecap:butt;stroke-linejoin:round;stroke-miterlimit:10;stroke-dasharray:none;stroke-opacity:1"
         id="path54"
         inkscape:connector-curvature="0"
         sodipodi:nodetypes="cc" /></g><g
       id="g56"><path
         d="m 236.5,693.7 0,-4.5"
         style="fill:none;stroke:#000000;stroke-width:2.29229999;stroke-linecap:butt;stroke-linejoin:round;stroke-miterlimit:10;stroke-dasharray:none;stroke-opacity:1"
         id="path58"
         inkscape:connector-curvature="0" /></g><g
       id="g60"><path
         d="m 236.5,686.3 0,-4.5"
         style="fill:none;stroke:#000000;stroke-width:2.29229999;stroke-linecap:butt;stroke-linejoin:round;stroke-miterlimit:10;stroke-dasharray:none;stroke-opacity:1"
         id="path62"
         inkscape:connector-curvature="0" /></g><g
       id="g64"><path
         d="m 236.5,678.9 0,-4.5"
         style="fill:none;stroke:#000000;stroke-width:2.29229999;stroke-linecap:butt;stroke-linejoin:round;stroke-miterlimit:10;stroke-dasharray:none;stroke-opacity:1"
         id="path66"
         inkscape:connector-curvature="0" /></g><g
       id="g68"><path
         d="m 236.5,671.4 0,-4.5"
         style="fill:none;stroke:#000000;stroke-width:2.29229999;stroke-linecap:butt;stroke-linejoin:round;stroke-miterlimit:10;stroke-dasharray:none;stroke-opacity:1"
         id="path70"
         inkscape:connector-curvature="0" /></g><g
       id="g72"><path
         d="m 236.5,664 0,-4.5"
         style="fill:none;stroke:#000000;stroke-width:2.29229999;stroke-linecap:butt;stroke-linejoin:round;stroke-miterlimit:10;stroke-dasharray:none;stroke-opacity:1"
         id="path74"
         inkscape:connector-curvature="0" /></g><g
       id="g76"><path
         d="m 236.5,656.6 0,-4.6"
         style="fill:none;stroke:#000000;stroke-width:2.29229999;stroke-linecap:butt;stroke-linejoin:round;stroke-miterlimit:10;stroke-dasharray:none;stroke-opacity:1"
         id="path78"
         inkscape:connector-curvature="0" /></g><g
       id="g80"><path
         d="m 236.5,649.1 0,-4.5"
         style="fill:none;stroke:#000000;stroke-width:2.29229999;stroke-linecap:butt;stroke-linejoin:round;stroke-miterlimit:10;stroke-dasharray:none;stroke-opacity:1"
         id="path82"
         inkscape:connector-curvature="0" /></g><g
       id="g84"><path
         d="m 236.5,641.7 0,-4.6"
         style="fill:none;stroke:#000000;stroke-width:2.29229999;stroke-linecap:butt;stroke-linejoin:round;stroke-miterlimit:10;stroke-dasharray:none;stroke-opacity:1"
         id="path86"
         inkscape:connector-curvature="0" /></g><g
       id="g88"><path
         d="m 236.5,634.2 0,-4.5"
         style="fill:none;stroke:#000000;stroke-width:2.29229999;stroke-linecap:butt;stroke-linejoin:round;stroke-miterlimit:10;stroke-dasharray:none;stroke-opacity:1"
         id="path90"
         inkscape:connector-curvature="0" /></g><g
       id="g92"><path
         d="m 236.5,626.8 0,-4.5"
         style="fill:none;stroke:#000000;stroke-width:2.29229999;stroke-linecap:butt;stroke-linejoin:round;stroke-miterlimit:10;stroke-dasharray:none;stroke-opacity:1"
         id="path94"
         inkscape:connector-curvature="0" /></g><g
       id="g96"><path
         d="m 236.5,619.4 0,-4.6"
         style="fill:none;stroke:#000000;stroke-width:2.29229999;stroke-linecap:butt;stroke-linejoin:round;stroke-miterlimit:10;stroke-dasharray:none;stroke-opacity:1"
         id="path98"
         inkscape:connector-curvature="0" /></g><g
       id="g100"><path
         d="m 236.5,611.9 0,-4.5"
         style="fill:none;stroke:#000000;stroke-width:2.29229999;stroke-linecap:butt;stroke-linejoin:round;stroke-miterlimit:10;stroke-dasharray:none;stroke-opacity:1"
         id="path102"
         inkscape:connector-curvature="0" /></g><g
       id="g104"><path
         d="m 236.5,604.5 0,-4.6"
         style="fill:none;stroke:#000000;stroke-width:2.29229999;stroke-linecap:butt;stroke-linejoin:round;stroke-miterlimit:10;stroke-dasharray:none;stroke-opacity:1"
         id="path106"
         inkscape:connector-curvature="0" /></g><g
       id="g108"><path
         d="m 236.5,597 0,-4.5"
         style="fill:none;stroke:#000000;stroke-width:2.29229999;stroke-linecap:butt;stroke-linejoin:round;stroke-miterlimit:10;stroke-dasharray:none;stroke-opacity:1"
         id="path110"
         inkscape:connector-curvature="0" /></g><g
       id="g112" /><g
       id="g116"
       transform="matrix(-1,0,0,1,470.69572,0)"><path
         d="m 235.4,670.7 c 12.3,-0.5 18.8,-8.6 18.8,-8.6"
         style="fill:none;stroke:#000000;stroke-width:0.80000001;stroke-linecap:butt;stroke-linejoin:round;stroke-miterlimit:10;stroke-dasharray:none;stroke-opacity:1"
         id="path118"
         inkscape:connector-curvature="0" /></g><path
       d="m 225.26829,683.68537 c 0,1.5 -0.4,4.9 -2.9,4.9 -3.4,0 -7,-6.8 -7,-12.3 0,-2.2 0.7,-4.9 2.8,-4.9 3.4,0 7.1,6.9 7.1,12.3 z m -7.3,-3.3 c 0.4,1.5 0.8,3.4 1.8,5.1 0.6,1.2 1.5,2.6 2.6,2.6 1.2,0 1.3,-1.5 1.3,-2.9 0,-1.2 -0.2,-2.4 -0.8,-4.8 l -4.9,0 z m 4.7,-0.8 c -0.3,-1.1 -0.7,-3.1 -1.6,-4.9 -0.9,-1.6 -1.8,-2.8 -2.9,-2.8 -0.7,0 -1.3,0.7 -1.3,2.9 0,1.1 0.2,2.4 0.9,4.8 l 4.9,0 z"
       style="fill:#000000;fill-opacity:1;fill-rule:evenodd;stroke:none"
       id="path120"
       inkscape:connector-curvature="0" /><path
       d="m 156.4,645.7 c 0.3,0 1.2,0 1.2,0.9 0,0.5 -0.5,0.5 -1,0.5 l -5.4,0 c -3.7,0 -6.3,-3.9 -6.3,-6.8 0,-2.1 1.4,-3.8 3.6,-3.8 2.8,0 6,2.9 6,6.6 0,0.4 0,1.6 -0.7,2.6 l 2.6,0 z m -7.9,-8.7 c -1.2,0 -2.1,0.9 -2.1,2.7 0,0.6 0.2,2.6 1.1,4 1,1.7 2.5,2 3.3,2 1.9,0 2.2,-1.6 2.2,-2.3 0,-1.1 -0.5,-3.1 -1.3,-4.3 -1,-1.4 -2.3,-2.1 -3.2,-2.1 z"
       style="fill:#000000;fill-opacity:1;fill-rule:evenodd;stroke:none"
       id="path122"
       inkscape:connector-curvature="0" /><path
       d="m 166.2,636.3 -0.7,0 c 0,-0.4 -0.2,-1.4 -0.4,-1.6 -0.1,-0.1 -1.4,-0.1 -1.7,-0.1 l -3,0 c 1.7,1.6 2.3,2.1 3.3,2.8 1.3,1 2.5,2.1 2.5,3.7 0,2 -1.9,3.3 -4,3.3 -2.1,0 -3.5,-1.5 -3.5,-3 0,-0.9 0.7,-1 0.9,-1 0.4,0 0.8,0.3 0.8,0.9 0,0.3 0,0.9 -0.9,0.9 0.5,1.2 1.6,1.5 2.4,1.5 1.7,0 2.6,-1.2 2.6,-2.6 0,-1.5 -1.1,-2.7 -1.6,-3.3 l -4.1,-4 c -0.1,-0.1 -0.1,-0.1 -0.1,-0.6 l 6.9,0 0.6,3.1 z"
       style="fill:#000000;fill-opacity:1;fill-rule:evenodd;stroke:none"
       id="path124"
       inkscape:connector-curvature="0" /><path
       d="m 237.92195,764.97073 c 0.2,0 1.1,0 1.1,0.9 0,0.5 -0.5,0.5 -0.9,0.5 l -5.5,0 c -3.6,0 -6.3,-3.9 -6.3,-6.8 0,-2.1 1.4,-3.8 3.6,-3.8 2.9,0 6.1,2.9 6.1,6.6 0,0.4 0,1.6 -0.8,2.6 l 2.7,0 z m -8,-8.7 c -1.2,0 -2.1,0.9 -2.1,2.7 0,0.6 0.3,2.6 1.2,4 0.9,1.7 2.4,2 3.2,2 2,0 2.2,-1.6 2.2,-2.3 0,-1.1 -0.5,-3.1 -1.3,-4.3 -1,-1.4 -2.2,-2.1 -3.2,-2.1 z"
       style="fill:#000000;fill-opacity:1;fill-rule:evenodd;stroke:none"
       id="path126"
       inkscape:connector-curvature="0" /><path
       d="m 244.72195,763.17073 c 0,0.5 0,0.5 -0.4,0.5 -1.1,-1.1 -2.7,-1.1 -3.4,-1.1 l 0,-0.6 c 0.4,0 1.5,0 2.5,0.4 l 0,-8.5 c 0,-0.6 0,-0.8 -1.7,-0.8 l -0.6,0 0,-0.6 c 0.2,0 2.3,0.1 2.9,0.1 0.6,0 2.7,-0.1 3.1,-0.1 l 0,0.6 -0.7,0 c -1.7,0 -1.7,0.2 -1.7,0.8 l 0,9.3 z"
       style="fill:#000000;fill-opacity:1;fill-rule:evenodd;stroke:none"
       id="path128"
       inkscape:connector-curvature="0" /><g
       id="g130"><g
         id="g132" /><g
         id="g138"><g
           clip-path="url(#clipPath134)"
           id="g140"
           style="opacity:0.5" /></g></g><path
       inkscape:connector-curvature="0"
       id="path4381"
       style="fill:#000000;fill-opacity:1;fill-rule:evenodd;stroke:none"
       d="m 328.65366,600.19025 c 0.2,0 1.1,0 1.1,0.9 0,0.5 -0.5,0.5 -0.9,0.5 l -5.5,0 c -3.6,0 -6.3,-3.9 -6.3,-6.8 0,-2.1 1.4,-3.8 3.6,-3.8 2.9,0 6.1,2.9 6.1,6.6 0,0.4 0,1.6 -0.8,2.6 l 2.7,0 z m -8,-8.7 c -1.2,0 -2.1,0.9 -2.1,2.7 0,0.6 0.3,2.6 1.2,4 0.9,1.7 2.4,2 3.2,2 2,0 2.2,-1.6 2.2,-2.3 0,-1.1 -0.5,-3.1 -1.3,-4.3 -1,-1.4 -2.2,-2.1 -3.2,-2.1 z" /><path
       style="fill:#000000;fill-opacity:1;fill-rule:evenodd;stroke:#000000;stroke-width:1.60000002;stroke-linecap:round;stroke-linejoin:round;stroke-miterlimit:4;stroke-dasharray:none;stroke-opacity:1"
       d="m 316.43023,547.63227 -39.2469,48.21983 14.02448,-6.87626 -5.49101,-2.92721 z"
       id="path4383"
       inkscape:connector-curvature="0"
       sodipodi:nodetypes="ccccc" /><text
       xml:space="preserve"
       style="font-style:italic;font-variant:normal;font-weight:normal;font-stretch:normal;font-size:24px;line-height:125%;font-family:sans-serif;-inkscape-font-specification:'sans-serif, Italic';text-align:start;letter-spacing:0px;word-spacing:0px;writing-mode:lr-tb;text-anchor:start;fill:#000000;fill-opacity:1;stroke:none;stroke-width:1px;stroke-linecap:butt;stroke-linejoin:miter;stroke-opacity:1"
       x="286.55853"
       y="-595.44391"
       id="text4407"
       sodipodi:linespacing="125%"
       transform="scale(1,-1)"><tspan
         sodipodi:role="line"
         id="tspan4409"
         x="286.55853"
         y="-595.44391"><tspan
           style="font-style:italic;font-variant:normal;font-weight:normal;font-stretch:normal;font-family:serif;-inkscape-font-specification:'serif Italic'"
           id="tspan4411">τ</tspan></tspan></text>
<g
       id="g4417"
       transform="matrix(0.77730426,0.62912485,-0.62912485,0.77730426,485.13309,-100.35104)"><path
         d="m 305.6,639.6 -15.9,0"
         style="fill:none;stroke:#000000;stroke-width:0.80000001;stroke-linecap:butt;stroke-linejoin:miter;stroke-miterlimit:10;stroke-dasharray:none;stroke-opacity:1"
         id="path4419"
         inkscape:connector-curvature="0" /><path
         d="m 277.5,639.6 12.7,-4.2 0,8.5 -12.7,-4.3 z"
         style="fill:#000000;fill-opacity:1;fill-rule:evenodd;stroke:none"
         id="path4421"
         inkscape:connector-curvature="0" /></g></g></svg>