<?xml version="1.0" encoding="UTF-8" standalone="no"?>
<svg
   xmlns:dc="http://purl.org/dc/elements/1.1/"
   xmlns:cc="http://creativecommons.org/ns#"
   xmlns:rdf="http://www.w3.org/1999/02/22-rdf-syntax-ns#"
   xmlns:svg="http://www.w3.org/2000/svg"
   xmlns="http://www.w3.org/2000/svg"
   viewBox="0 0 458.03491 340.79941"
   height="340.79941"
   width="458.03491"
   xml:space="preserve"
   version="1.1"
   id="svg2"><metadata
     id="metadata8"><rdf:RDF><cc:Work
         rdf:about=""><dc:format>image/svg+xml</dc:format><dc:type
           rdf:resource="http://purl.org/dc/dcmitype/StillImage" /><dc:title></dc:title></cc:Work></rdf:RDF></metadata><defs
     id="defs6"><clipPath
       id="clipPath30"
       clipPathUnits="userSpaceOnUse"><path
         id="path32"
         d="m 22.43,98.526 344,0 0,-45 -344,0 0,45 z" /></clipPath><clipPath
       id="clipPath40"
       clipPathUnits="userSpaceOnUse"><path
         id="path42"
         d="m 0,54 367,0 0,45 L 0,99 0,54 Z" /></clipPath><clipPath
       id="clipPath52"
       clipPathUnits="userSpaceOnUse"><path
         id="path54"
         d="m 22.43,150.526 344,0 0,-45 -344,0 0,45 z" /></clipPath><clipPath
       id="clipPath62"
       clipPathUnits="userSpaceOnUse"><path
         id="path64"
         d="m 0,106 367,0 0,44 -367,0 0,-44 z" /></clipPath><clipPath
       id="clipPath74"
       clipPathUnits="userSpaceOnUse"><path
         id="path76"
         d="m 22.43,195.526 344,0 0,-44 -344,0 0,44 z" /></clipPath><clipPath
       id="clipPath84"
       clipPathUnits="userSpaceOnUse"><path
         id="path86"
         d="m 0,151 367,0 0,45 -367,0 0,-45 z" /></clipPath><clipPath
       id="clipPath96"
       clipPathUnits="userSpaceOnUse"><path
         id="path98"
         d="m 22.43,240.526 344,0 0,-44 -344,0 0,44 z" /></clipPath><clipPath
       id="clipPath106"
       clipPathUnits="userSpaceOnUse"><path
         id="path108"
         d="m 0,197 367,0 0,44 -367,0 0,-44 z" /></clipPath><clipPath
       id="clipPath132"
       clipPathUnits="userSpaceOnUse"><path
         id="path134"
         d="m 100.594,169.276 266.406,0 0,-34.387 -266.406,0 0,34.387 z" /></clipPath><clipPath
       id="clipPath142"
       clipPathUnits="userSpaceOnUse"><path
         id="path144"
         d="m 285,135 36,0 0,3 -36,0 0,-3 z" /></clipPath><clipPath
       id="clipPath156"
       clipPathUnits="userSpaceOnUse"><path
         id="path158"
         d="m 168,120.319 199,0 0,-34.387 -199,0 0,34.387 z" /></clipPath><clipPath
       id="clipPath166"
       clipPathUnits="userSpaceOnUse"><path
         id="path168"
         d="m 285,118 36,0 0,3 -36,0 0,-3 z" /></clipPath><clipPath
       id="clipPath180"
       clipPathUnits="userSpaceOnUse"><path
         id="path182"
         d="m 227.012,104.093 139.988,0 0,-35.168 -139.988,0 0,35.168 z" /></clipPath><clipPath
       id="clipPath190"
       clipPathUnits="userSpaceOnUse"><path
         id="path192"
         d="m 285,102 36,0 0,2 -36,0 0,-2 z" /></clipPath><clipPath
       id="clipPath204"
       clipPathUnits="userSpaceOnUse"><path
         id="path206"
         d="m 269.109,86.218 97.891,0 0,-35.168 -97.891,0 0,35.168 z" /></clipPath><clipPath
       id="clipPath214"
       clipPathUnits="userSpaceOnUse"><path
         id="path216"
         d="m 285,84 36,0 0,3 -36,0 0,-3 z" /></clipPath><clipPath
       clipPathUnits="userSpaceOnUse"
       id="clipPath4479"><path
         d="m 22.43,98.526 344,0 0,-45 -344,0 0,45 z"
         id="path4481" /></clipPath><clipPath
       clipPathUnits="userSpaceOnUse"
       id="clipPath4489"><path
         d="m 0,54 367,0 0,45 L 0,99 0,54 Z"
         id="path4491" /></clipPath><clipPath
       clipPathUnits="userSpaceOnUse"
       id="clipPath4499"><path
         d="M 0,99 367,99 367,54 0,54 0,99 Z"
         id="path4501" /></clipPath><clipPath
       clipPathUnits="userSpaceOnUse"
       id="clipPath4509"><path
         d="m 0,54 367,0 0,45 L 0,99 0,54 Z"
         id="path4511" /></clipPath><clipPath
       clipPathUnits="userSpaceOnUse"
       id="clipPath4521"><path
         d="m 22.43,150.526 344,0 0,-45 -344,0 0,45 z"
         id="path4523" /></clipPath><clipPath
       clipPathUnits="userSpaceOnUse"
       id="clipPath4531"><path
         d="m 0,106 367,0 0,44 -367,0 0,-44 z"
         id="path4533" /></clipPath><clipPath
       clipPathUnits="userSpaceOnUse"
       id="clipPath4541"><path
         d="m 0,150 367,0 0,-44 -367,0 0,44 z"
         id="path4543" /></clipPath><clipPath
       clipPathUnits="userSpaceOnUse"
       id="clipPath4551"><path
         d="m 0,106 367,0 0,44 -367,0 0,-44 z"
         id="path4553" /></clipPath><clipPath
       clipPathUnits="userSpaceOnUse"
       id="clipPath4563"><path
         d="m 22.43,195.526 344,0 0,-44 -344,0 0,44 z"
         id="path4565" /></clipPath><clipPath
       clipPathUnits="userSpaceOnUse"
       id="clipPath4573"><path
         d="m 0,151 367,0 0,45 -367,0 0,-45 z"
         id="path4575" /></clipPath><clipPath
       clipPathUnits="userSpaceOnUse"
       id="clipPath4583"><path
         d="m 0,196 367,0 0,-45 -367,0 0,45 z"
         id="path4585" /></clipPath><clipPath
       clipPathUnits="userSpaceOnUse"
       id="clipPath4593"><path
         d="m 0,151 367,0 0,45 -367,0 0,-45 z"
         id="path4595" /></clipPath><clipPath
       clipPathUnits="userSpaceOnUse"
       id="clipPath4605"><path
         d="m 22.43,240.526 344,0 0,-44 -344,0 0,44 z"
         id="path4607" /></clipPath><clipPath
       clipPathUnits="userSpaceOnUse"
       id="clipPath4615"><path
         d="m 0,197 367,0 0,44 -367,0 0,-44 z"
         id="path4617" /></clipPath><clipPath
       clipPathUnits="userSpaceOnUse"
       id="clipPath4625"><path
         d="m 0,241 367,0 0,-44 -367,0 0,44 z"
         id="path4627" /></clipPath><clipPath
       clipPathUnits="userSpaceOnUse"
       id="clipPath4635"><path
         d="m 0,197 367,0 0,44 -367,0 0,-44 z"
         id="path4637" /></clipPath><clipPath
       clipPathUnits="userSpaceOnUse"
       id="clipPath4661"><path
         d="m 100.594,169.276 266.406,0 0,-34.387 -266.406,0 0,34.387 z"
         id="path4663" /></clipPath><clipPath
       clipPathUnits="userSpaceOnUse"
       id="clipPath4671"><path
         d="m 285,135 36,0 0,3 -36,0 0,-3 z"
         id="path4673" /></clipPath><clipPath
       clipPathUnits="userSpaceOnUse"
       id="clipPath4681"><path
         d="m 285,138 36,0 0,-3 -36,0 0,3 z"
         id="path4683" /></clipPath><clipPath
       clipPathUnits="userSpaceOnUse"
       id="clipPath4691"><path
         d="m 285,135 36,0 0,3 -36,0 0,-3 z"
         id="path4693" /></clipPath><clipPath
       clipPathUnits="userSpaceOnUse"
       id="clipPath4705"><path
         d="m 168,120.319 199,0 0,-34.387 -199,0 0,34.387 z"
         id="path4707" /></clipPath><clipPath
       clipPathUnits="userSpaceOnUse"
       id="clipPath4715"><path
         d="m 285,118 36,0 0,3 -36,0 0,-3 z"
         id="path4717" /></clipPath><clipPath
       clipPathUnits="userSpaceOnUse"
       id="clipPath4725"><path
         d="m 285,121 36,0 0,-3 -36,0 0,3 z"
         id="path4727" /></clipPath><clipPath
       clipPathUnits="userSpaceOnUse"
       id="clipPath4735"><path
         d="m 285,118 36,0 0,3 -36,0 0,-3 z"
         id="path4737" /></clipPath><clipPath
       clipPathUnits="userSpaceOnUse"
       id="clipPath4749"><path
         d="m 227.012,104.093 139.988,0 0,-35.168 -139.988,0 0,35.168 z"
         id="path4751" /></clipPath><clipPath
       clipPathUnits="userSpaceOnUse"
       id="clipPath4759"><path
         d="m 285,102 36,0 0,2 -36,0 0,-2 z"
         id="path4761" /></clipPath><clipPath
       clipPathUnits="userSpaceOnUse"
       id="clipPath4769"><path
         d="m 285,104 36,0 0,-2 -36,0 0,2 z"
         id="path4771" /></clipPath><clipPath
       clipPathUnits="userSpaceOnUse"
       id="clipPath4779"><path
         d="m 285,102 36,0 0,2 -36,0 0,-2 z"
         id="path4781" /></clipPath><clipPath
       clipPathUnits="userSpaceOnUse"
       id="clipPath4793"><path
         d="m 269.109,86.218 97.891,0 0,-35.168 -97.891,0 0,35.168 z"
         id="path4795" /></clipPath><clipPath
       clipPathUnits="userSpaceOnUse"
       id="clipPath4803"><path
         d="m 285,84 36,0 0,3 -36,0 0,-3 z"
         id="path4805" /></clipPath><clipPath
       clipPathUnits="userSpaceOnUse"
       id="clipPath4813"><path
         d="m 285,87 36,0 0,-3 -36,0 0,3 z"
         id="path4815" /></clipPath><clipPath
       clipPathUnits="userSpaceOnUse"
       id="clipPath4823"><path
         d="m 285,84 36,0 0,3 -36,0 0,-3 z"
         id="path4825" /></clipPath><clipPath
       clipPathUnits="userSpaceOnUse"
       id="clipPath5226"><path
         d="m 16,54 344,0 0,-26 -344,0 0,26 z"
         id="path5228" /></clipPath><clipPath
       clipPathUnits="userSpaceOnUse"
       id="clipPath5236"><path
         d="m 16,97 344,0 0,-27 -344,0 0,27 z"
         id="path5238" /></clipPath><clipPath
       clipPathUnits="userSpaceOnUse"
       id="clipPath5246"><path
         d="m 16,134 344,0 0,-26 -344,0 0,26 z"
         id="path5248" /></clipPath><clipPath
       clipPathUnits="userSpaceOnUse"
       id="clipPath5256"><path
         d="m 16,182 344,0 0,-27 -344,0 0,27 z"
         id="path5258" /></clipPath><clipPath
       clipPathUnits="userSpaceOnUse"
       id="clipPath5266"><path
         d="m 16,219 344,0 0,-26 -344,0 0,26 z"
         id="path5268" /></clipPath></defs><g
     transform="matrix(1.25,0,0,-1.25,0,340.79941)"
     id="g10"><g
       transform="translate(5.89798,22.023286)"
       id="g5210"><path
         id="path5212"
         style="fill:#5e81b5;fill-opacity:0.2;fill-rule:nonzero;stroke:none"
         d="m 37.484,29.316 32.454,0 -0.196,23.602 -32.062,0 -0.196,-23.602 z" /><path
         id="path5214"
         style="fill:#e19c24;fill-opacity:0.2;fill-rule:nonzero;stroke:none"
         d="m 37.484,71.797 128.969,0 -0.195,23.601 -128.578,0 -0.196,-23.601 z" /><path
         id="path5216"
         style="fill:#8fb032;fill-opacity:0.2;fill-rule:nonzero;stroke:none"
         d="m 37.484,109.562 214.883,0 -0.195,23.602 -214.492,0 -0.196,-23.602 z" /><path
         id="path5218"
         style="fill:#eb6235;fill-opacity:0.2;fill-rule:nonzero;stroke:none"
         d="m 144.84,156.766 107.527,0 -0.195,23.601 -107.152,0 -0.18,-23.601 z" /><path
         id="path5220"
         style="fill:#8778b3;fill-opacity:0.2;fill-rule:nonzero;stroke:none"
         d="m 230.855,194.527 21.512,0 -0.195,23.602 -21.125,0 -0.192,-23.602 z" /></g><g
       transform="translate(5.89798,22.023286)"
       id="g5222"><g
         clip-path="url(#clipPath5226)"
         id="g5224"><path
           id="path5230"
           style="fill:none;stroke:#781c86;stroke-width:1.60000002;stroke-linecap:square;stroke-linejoin:miter;stroke-miterlimit:3.25;stroke-dasharray:none;stroke-opacity:1"
           d="m -16.168,29.316 53.652,0 0.196,23.602 32.062,0 0.196,-23.602 504.621,0" /></g></g><g
       transform="translate(5.89798,22.023286)"
       id="g5232"><g
         clip-path="url(#clipPath5236)"
         id="g5234"><path
           id="path5240"
           style="fill:none;stroke:#447ccd;stroke-width:1.60000002;stroke-linecap:square;stroke-linejoin:miter;stroke-miterlimit:3.25;stroke-dasharray:none;stroke-opacity:1"
           d="m -16.168,71.797 53.652,0 0.196,23.601 128.578,0 0.195,-23.601 408.106,0" /></g></g><g
       transform="translate(5.89798,22.023286)"
       id="g5242"><g
         clip-path="url(#clipPath5246)"
         id="g5244"><path
           id="path5250"
           style="fill:none;stroke:#83ba70;stroke-width:1.60000002;stroke-linecap:square;stroke-linejoin:miter;stroke-miterlimit:3.25;stroke-dasharray:none;stroke-opacity:1"
           d="m -16.168,109.562 53.652,0 0.196,23.602 214.492,0 0.195,-23.602 322.192,0" /></g></g><g
       transform="translate(5.89798,22.023286)"
       id="g5252"><g
         clip-path="url(#clipPath5256)"
         id="g5254"><path
           id="path5260"
           style="fill:none;stroke:#dcab3c;stroke-width:1.60000002;stroke-linecap:square;stroke-linejoin:miter;stroke-miterlimit:3.25;stroke-dasharray:none;stroke-opacity:1"
           d="m -16.168,156.766 161.008,0 0.18,23.601 107.152,0 0.195,-23.601 322.192,0" /></g></g><g
       transform="translate(5.89798,22.023286)"
       id="g5262"><g
         clip-path="url(#clipPath5266)"
         id="g5264"><path
           id="path5270"
           style="fill:none;stroke:#db2122;stroke-width:1.60000002;stroke-linecap:square;stroke-linejoin:miter;stroke-miterlimit:3.25;stroke-dasharray:none;stroke-opacity:1"
           d="m -16.168,194.527 247.023,0 0.192,23.602 21.125,0 0.195,-23.602 322.192,0" /></g></g><path
       d="m 366.18,37.862 -343.696,0"
       style="fill:none;stroke:#000000;stroke-width:0.2;stroke-linecap:square;stroke-linejoin:miter;stroke-miterlimit:3.25;stroke-dasharray:none;stroke-opacity:1"
       id="path116" /><path
       d="m 22.484,37.862 0,212.414"
       style="fill:none;stroke:#000000;stroke-width:0.2;stroke-linecap:square;stroke-linejoin:miter;stroke-miterlimit:3.25;stroke-dasharray:none;stroke-opacity:1"
       id="path118" /><path
       d="m 22.484,250.276 343.696,0"
       style="fill:none;stroke:#000000;stroke-width:0.2;stroke-linecap:square;stroke-linejoin:miter;stroke-miterlimit:3.25;stroke-dasharray:none;stroke-opacity:1"
       id="path120" /><path
       d="m 366.18,250.276 0,-212.414"
       style="fill:none;stroke:#000000;stroke-width:0.2;stroke-linecap:square;stroke-linejoin:miter;stroke-miterlimit:3.25;stroke-dasharray:none;stroke-opacity:1"
       id="path122" /><text
       y="-17.981892"
       x="22.59428"
       transform="scale(1,-1)"
       style="font-variant:normal;font-weight:normal;font-size:12px;font-family:'Bitstream Vera Sans';-inkscape-font-specification:BitstreamVeraSans-Roman;writing-mode:lr-tb;fill:#000000;fill-opacity:1;fill-rule:nonzero;stroke:none"
       id="text238"><tspan
         x="22.59428 27.526281 35.12228 42.730282 47.43428 55.06628 59.770279 67.150284"
         y="-17.981892"
         id="tspan240">rupture </tspan><tspan
         x="29.90678 37.286781 44.894783 52.502781"
         y="-2.9818909"
         id="tspan242">edge</tspan><tspan
         x="237.80304 242.73505 250.33104 257.93903 262.64304 270.27502 274.97903 282.35904"
         y="-17.496096"
         id="tspan244">rupture </tspan><tspan
         x="245.11554 252.49554 260.10355 267.71152"
         y="-2.4960949"
         id="tspan246">edge</tspan><tspan
         x="83.184067 90.792068 98.124069 104.36407 107.68807 112.39207 115.71607 123.04807 130.64407 134.44807 141.82806 145.15207 152.48407 160.08008 167.68806 171.49207 175.71606 183.10808 190.70407 194.02808 198.73207 202.53607 205.86008 209.18407 216.78008"
         y="-18.409702"
         id="tspan248">position along fault line</tspan></text>
<text
       y="9.1171885"
       x="112.65517"
       transform="matrix(0,1,1,0,0,0)"
       style="font-variant:normal;font-weight:normal;font-size:12px;font-family:'Bitstream Vera Sans';-inkscape-font-specification:BitstreamVeraSans-Roman;writing-mode:lr-tb;fill:#000000;fill-opacity:1;fill-rule:nonzero;stroke:none"
       id="text250"><tspan
         x="112.65517 118.89517 122.21917 125.54317 133.15117 136.95517 141.88718 149.26717 153.97118"
         y="9.1171885"
         id="tspan252">slip rate</tspan></text>
<g
       transform="translate(30.916527,-21.922628)"
       id="g5424"><g
         transform="matrix(0.723457,0,0,1,0,272.63953)"
         id="g254"><path
           id="path256"
           style="fill:none;stroke:#b75c4d;stroke-width:1.88110805;stroke-linecap:round;stroke-linejoin:round;stroke-miterlimit:4;stroke-dasharray:none;stroke-opacity:1"
           d="m 202.014,-144.223 47.294,0" /></g><g
         transform="matrix(0.723457,0,0,1,0,272.63953)"
         id="g258"><path
           id="path260"
           style="fill:none;stroke:#b75c4d;stroke-width:1.88110805;stroke-linecap:round;stroke-linejoin:round;stroke-miterlimit:4;stroke-dasharray:none;stroke-opacity:1"
           d="m 233.757,-138.82 15.659,-5.426 -15.767,-5.488" /></g></g><g
       id="g262"
       transform="matrix(0.723457,0,0,1,-108.48891,290.06521)"><path
         d="m 305.019,-99.656 47.293,0"
         style="fill:none;stroke:#b75c4d;stroke-width:1.88110805;stroke-linecap:round;stroke-linejoin:round;stroke-miterlimit:4;stroke-dasharray:none;stroke-opacity:1"
         id="path264" /></g><g
       id="g266"
       transform="matrix(0.723457,0,0,1,-108.48891,290.06521)"><path
         d="m 336.767,-94.25 15.659,-5.426 -15.767,-5.492"
         style="fill:none;stroke:#b75c4d;stroke-width:1.88110805;stroke-linecap:round;stroke-linejoin:round;stroke-miterlimit:4;stroke-dasharray:none;stroke-opacity:1"
         id="path268" /></g><g
       id="g270"
       transform="matrix(0.723457,0,0,1,23.437881,260.7047)"><path
         d="m 82.843,-196.828 47.294,0"
         style="fill:none;stroke:#b75c4d;stroke-width:1.88110805;stroke-linecap:round;stroke-linejoin:round;stroke-miterlimit:4;stroke-dasharray:none;stroke-opacity:1"
         id="path272" /></g><g
       id="g274"
       transform="matrix(0.723457,0,0,1,23.437881,260.7047)"><path
         d="m 114.592,-191.426 15.658,-5.422 -15.771,-5.492"
         style="fill:none;stroke:#b75c4d;stroke-width:1.88110805;stroke-linecap:round;stroke-linejoin:round;stroke-miterlimit:4;stroke-dasharray:none;stroke-opacity:1"
         id="path276" /></g><text
       y="-263.89148"
       x="148.68056"
       transform="scale(1,-1)"
       style="font-style:oblique;font-variant:normal;font-size:12px;font-family:'Bitstream Vera Sans';-inkscape-font-specification:BitstreamVeraSans-Oblique;writing-mode:lr-tb;fill:#000000;fill-opacity:1;fill-rule:nonzero;stroke:none"
       id="text278"><tspan
         x="148.68056"
         y="-263.89148"
         id="tspan280">L</tspan></text>
<g
       id="g282"
       transform="matrix(-1,0,0,-0.991878,0,272.63953)"><path
         d="m -130.684,5.36 86.59,0"
         style="fill:none;stroke:#838383;stroke-width:1.30822599;stroke-linecap:round;stroke-linejoin:round;stroke-miterlimit:4;stroke-dasharray:none;stroke-opacity:1"
         id="path284" /></g><g
       id="g286"
       transform="matrix(-1,0,0,-0.991878,0,272.63953)"><path
         d="M -54.902,9.117 -44.016,5.344 -54.98,1.524"
         style="fill:none;stroke:#838383;stroke-width:1.30822599;stroke-linecap:round;stroke-linejoin:round;stroke-miterlimit:4;stroke-dasharray:none;stroke-opacity:1"
         id="path288" /></g><g
       id="g290"
       transform="matrix(1,0,0,0.991878,0,272.63953)"><path
         d="m 170.777,-5.281 86.59,0"
         style="fill:none;stroke:#838383;stroke-width:1.30822599;stroke-linecap:round;stroke-linejoin:round;stroke-miterlimit:4;stroke-dasharray:none;stroke-opacity:1"
         id="path292" /></g><g
       id="g294"
       transform="matrix(1,0,0,0.991878,0,272.63953)"><path
         d="m 246.555,-1.524 10.89,-3.773 -10.965,-3.82"
         style="fill:none;stroke:#838383;stroke-width:1.30822599;stroke-linecap:round;stroke-linejoin:round;stroke-miterlimit:4;stroke-dasharray:none;stroke-opacity:1"
         id="path296" /></g><text
       y="-60.929199"
       x="123.12545"
       transform="scale(1,-1)"
       style="font-style:oblique;font-variant:normal;font-size:12px;font-family:'Bitstream Vera Sans';-inkscape-font-specification:BitstreamVeraSans-Oblique;writing-mode:lr-tb;fill:#000000;fill-opacity:1;fill-rule:nonzero;stroke:none"
       id="text298"><tspan
         x="123.12545"
         y="-60.929199"
         id="tspan300">V</tspan></text>
<text
       y="-58.529198"
       x="131.32861"
       transform="scale(1,-1)"
       style="font-style:oblique;font-variant:normal;font-size:6.23999977px;font-family:'Bitstream Vera Sans';-inkscape-font-specification:BitstreamVeraSans-Oblique;writing-mode:lr-tb;fill:#000000;fill-opacity:1;fill-rule:nonzero;stroke:none"
       id="text302"><tspan
         x="131.32861"
         y="-58.529198"
         id="tspan304">R</tspan></text>
<path
       id="path5430"
       d="m 43.283139,30.91653 c 0,219.78841 0,220.35053 0,220.35053"
       style="fill:none;fill-rule:evenodd;stroke:#696969;stroke-width:1.6;stroke-linecap:butt;stroke-linejoin:miter;stroke-opacity:1;stroke-miterlimit:4;stroke-dasharray:4.8, 4.79999999999999982;stroke-dashoffset:0" /><path
       id="path5432"
       d="m 258.57459,32.60289 c 0,219.22628 0,219.22628 0,219.22628"
       style="fill:none;fill-rule:evenodd;stroke:#696969;stroke-width:1.6;stroke-linecap:butt;stroke-linejoin:miter;stroke-opacity:1;stroke-miterlimit:4;stroke-dasharray:4.8, 4.79999999999999982;stroke-dashoffset:0" /><g
       transform="matrix(0.723457,0,0,1,-23.608989,329.41352)"
       id="g6234"><path
         id="path6236"
         style="fill:none;stroke:#b75c4d;stroke-width:1.88110805;stroke-linecap:round;stroke-linejoin:round;stroke-miterlimit:4;stroke-dasharray:none;stroke-opacity:1"
         d="m 305.019,-99.656 47.293,0" /></g><g
       transform="matrix(0.723457,0,0,1,-23.608989,329.41352)"
       id="g6238"><path
         id="path6240"
         style="fill:none;stroke:#b75c4d;stroke-width:1.88110805;stroke-linecap:round;stroke-linejoin:round;stroke-miterlimit:4;stroke-dasharray:none;stroke-opacity:1"
         d="m 336.767,-94.25 15.659,-5.426 -15.767,-5.492" /></g><g
       transform="translate(-177.50473,-28.812362)"
       id="g6799"><path
         id="path124"
         style="fill:#b2b2b2;fill-opacity:1;fill-rule:nonzero;stroke:#b2b2b2;stroke-width:1.01089644;stroke-linecap:round;stroke-linejoin:round;stroke-miterlimit:4;stroke-dasharray:none;stroke-opacity:1"
         d="m 462.81557,195.18769 75.88176,0 0,-103.871174 -75.88176,0 0,103.871174 z" /><path
         id="path126"
         style="fill:#ffffff;fill-opacity:1;fill-rule:nonzero;stroke:#b2b2b2;stroke-width:1.01089644;stroke-linecap:round;stroke-linejoin:round;stroke-miterlimit:4;stroke-dasharray:none;stroke-opacity:1"
         d="m 458.23363,199.8219 75.88176,0 0,-103.875809 -75.88176,0 0,103.875809 z" /><g
         clip-path="url(#clipPath132)"
         id="g130"
         transform="translate(179.69475,35.846866)"><g
           transform="translate(0,-0.360474)"
           id="g136"><g
             id="g138"><g
               clip-path="url(#clipPath142)"
               id="g140"><g
                 id="g146"><g
                   transform="matrix(1,0,0,0.996306,0,273)"
                   id="g148"><path
                     style="fill:none;stroke:#db2122;stroke-width:1.60296404;stroke-linecap:square;stroke-linejoin:miter;stroke-miterlimit:4;stroke-dasharray:none;stroke-opacity:1"
                     d="m 286.086,-137.281 33.555,0"
                     id="path150" /></g></g></g></g></g></g><g
         clip-path="url(#clipPath156)"
         id="g154"
         transform="translate(179.69475,36.416431)"><g
           transform="translate(0,-0.360474)"
           id="g160"><g
             id="g162"><g
               clip-path="url(#clipPath166)"
               id="g164"><g
                 id="g170"><g
                   transform="matrix(1,0,0,0.996306,0,273)"
                   id="g172"><path
                     style="fill:none;stroke:#c3ba46;stroke-width:1.60296404;stroke-linecap:square;stroke-linejoin:miter;stroke-miterlimit:4;stroke-dasharray:none;stroke-opacity:1"
                     d="m 286.086,-153.912 33.598,0"
                     id="path174" /></g></g></g></g></g></g><g
         clip-path="url(#clipPath180)"
         id="g178"
         transform="translate(179.69475,20.983007)"><g
           transform="translate(0,-0.360474)"
           id="g184"><g
             id="g186"><g
               clip-path="url(#clipPath190)"
               id="g188"><g
                 id="g194"><g
                   transform="matrix(1,0,0,0.996306,0,273)"
                   id="g196"><path
                     style="fill:none;stroke:#539bb5;stroke-width:1.60296404;stroke-linecap:square;stroke-linejoin:miter;stroke-miterlimit:4;stroke-dasharray:none;stroke-opacity:1"
                     d="m 286.086,-170.54 33.637,0"
                     id="path198" /></g></g></g></g></g></g><g
         clip-path="url(#clipPath204)"
         id="g202"
         transform="translate(179.69475,22.803933)"><g
           transform="translate(0,-0.360474)"
           id="g208"><g
             id="g210"><g
               clip-path="url(#clipPath214)"
               id="g212"><g
                 id="g218"><g
                   transform="matrix(1,0,0,0.996306,0,273)"
                   id="g220"><path
                     style="fill:none;stroke:#781c86;stroke-width:1.60296404;stroke-linecap:square;stroke-linejoin:miter;stroke-miterlimit:4;stroke-dasharray:none;stroke-opacity:1"
                     d="m 286.086,-188.427 33.641,0"
                     id="path222" /></g></g></g></g></g></g><g
         transform="translate(244.93497,6.548508)"
         id="g6769"><g
           clip-path="url(#clipPath5246)"
           id="g6771"><path
             id="path6773"
             style="fill:none;stroke:#83ba70;stroke-width:1.60000002;stroke-linecap:square;stroke-linejoin:miter;stroke-miterlimit:3.25;stroke-dasharray:none;stroke-opacity:1"
             d="m 220.8443,133.164 33.90023,0" /></g></g><text
         xml:space="preserve"
         style="font-style:normal;font-variant:normal;font-weight:normal;font-stretch:normal;font-size:12px;line-height:125%;font-family:sans-serif;-inkscape-font-specification:'sans-serif, Normal';text-align:start;letter-spacing:0px;word-spacing:0px;writing-mode:lr-tb;text-anchor:start;fill:#000000;fill-opacity:1;stroke:none;stroke-width:1px;stroke-linecap:butt;stroke-linejoin:miter;stroke-opacity:1"
         x="465.11386"
         y="-186.08189"
         id="text6775"
         transform="scale(1,-1)"><tspan
           id="tspan6777"
           x="465.11386"
           y="-186.08189">time:</tspan></text>
<text
         xml:space="preserve"
         style="font-style:normal;font-variant:normal;font-weight:normal;font-stretch:normal;font-size:12px;line-height:125%;font-family:sans-serif;-inkscape-font-specification:'sans-serif, Normal';text-align:start;letter-spacing:0px;word-spacing:0px;writing-mode:lr-tb;text-anchor:start;fill:#000000;fill-opacity:1;stroke:none;stroke-width:1px;stroke-linecap:butt;stroke-linejoin:miter;stroke-opacity:1"
         x="505.24536"
         y="-136.09282"
         id="text6779"
         transform="scale(1,-1)"><tspan
           id="tspan6781"
           x="505.24536"
           y="-136.09282">0.5</tspan></text>
<text
         xml:space="preserve"
         style="font-style:normal;font-variant:normal;font-weight:normal;font-stretch:normal;font-size:12px;line-height:125%;font-family:sans-serif;-inkscape-font-specification:'sans-serif, Normal';text-align:start;letter-spacing:0px;word-spacing:0px;writing-mode:lr-tb;text-anchor:start;fill:#000000;fill-opacity:1;stroke:none;stroke-width:1px;stroke-linecap:butt;stroke-linejoin:miter;stroke-opacity:1"
         x="505.24536"
         y="-168.64516"
         id="text6783"
         transform="scale(1,-1)"><tspan
           id="tspan6785"
           x="505.24536"
           y="-168.64516">0.9</tspan></text>
<text
         xml:space="preserve"
         style="font-style:normal;font-variant:normal;font-weight:normal;font-stretch:normal;font-size:12px;line-height:125%;font-family:sans-serif;-inkscape-font-specification:'sans-serif, Normal';text-align:start;letter-spacing:0px;word-spacing:0px;writing-mode:lr-tb;text-anchor:start;fill:#000000;fill-opacity:1;stroke:none;stroke-width:1px;stroke-linecap:butt;stroke-linejoin:miter;stroke-opacity:1"
         x="505.24536"
         y="-103.54048"
         id="text6787"
         transform="scale(1,-1)"><tspan
           id="tspan6789"
           x="505.24536"
           y="-103.54048">0.1</tspan></text>
<text
         xml:space="preserve"
         style="font-style:normal;font-variant:normal;font-weight:normal;font-stretch:normal;font-size:12px;line-height:125%;font-family:sans-serif;-inkscape-font-specification:'sans-serif, Normal';text-align:start;letter-spacing:0px;word-spacing:0px;writing-mode:lr-tb;text-anchor:start;fill:#000000;fill-opacity:1;stroke:none;stroke-width:1px;stroke-linecap:butt;stroke-linejoin:miter;stroke-opacity:1"
         x="505.24536"
         y="-119.81665"
         id="text6791"
         transform="scale(1,-1)"><tspan
           id="tspan6793"
           x="505.24536"
           y="-119.81665">0.3</tspan></text>
<text
         xml:space="preserve"
         style="font-style:normal;font-variant:normal;font-weight:normal;font-stretch:normal;font-size:12px;line-height:125%;font-family:sans-serif;-inkscape-font-specification:'sans-serif, Normal';text-align:start;letter-spacing:0px;word-spacing:0px;writing-mode:lr-tb;text-anchor:start;fill:#000000;fill-opacity:1;stroke:none;stroke-width:1px;stroke-linecap:butt;stroke-linejoin:miter;stroke-opacity:1"
         x="505.24536"
         y="-152.36899"
         id="text6795"
         transform="scale(1,-1)"><tspan
           id="tspan6797"
           x="505.24536"
           y="-152.36899">0.7</tspan></text>
</g></g></svg>