<?xml version="1.0" encoding="UTF-8" standalone="no"?>
<svg
   xmlns:dc="http://purl.org/dc/elements/1.1/"
   xmlns:cc="http://creativecommons.org/ns#"
   xmlns:rdf="http://www.w3.org/1999/02/22-rdf-syntax-ns#"
   xmlns:svg="http://www.w3.org/2000/svg"
   xmlns="http://www.w3.org/2000/svg"
   viewBox="0 0 458.03491 340.79941"
   height="340.79941"
   width="458.03491"
   xml:space="preserve"
   version="1.1"
   id="svg2"><metadata
     id="metadata8"><rdf:RDF><cc:Work
         rdf:about=""><dc:format>image/svg+xml</dc:format><dc:type
           rdf:resource="http://purl.org/dc/dcmitype/StillImage" /><dc:title></dc:title></cc:Work></rdf:RDF></metadata><defs
     id="defs6"><clipPath
       id="clipPath30"
       clipPathUnits="userSpaceOnUse"><path
         id="path32"
         d="m 22.43,98.526 344,0 0,-45 -344,0 0,45 z" /></clipPath><clipPath
       id="clipPath40"
       clipPathUnits="userSpaceOnUse"><path
         id="path42"
         d="m 0,54 367,0 0,45 L 0,99 0,54 Z" /></clipPath><clipPath
       id="clipPath52"
       clipPathUnits="userSpaceOnUse"><path
         id="path54"
         d="m 22.43,150.526 344,0 0,-45 -344,0 0,45 z" /></clipPath><clipPath
       id="clipPath62"
       clipPathUnits="userSpaceOnUse"><path
         id="path64"
         d="m 0,106 367,0 0,44 -367,0 0,-44 z" /></clipPath><clipPath
       id="clipPath74"
       clipPathUnits="userSpaceOnUse"><path
         id="path76"
         d="m 22.43,195.526 344,0 0,-44 -344,0 0,44 z" /></clipPath><clipPath
       id="clipPath84"
       clipPathUnits="userSpaceOnUse"><path
         id="path86"
         d="m 0,151 367,0 0,45 -367,0 0,-45 z" /></clipPath><clipPath
       id="clipPath96"
       clipPathUnits="userSpaceOnUse"><path
         id="path98"
         d="m 22.43,240.526 344,0 0,-44 -344,0 0,44 z" /></clipPath><clipPath
       id="clipPath106"
       clipPathUnits="userSpaceOnUse"><path
         id="path108"
         d="m 0,197 367,0 0,44 -367,0 0,-44 z" /></clipPath><clipPath
       id="clipPath132"
       clipPathUnits="userSpaceOnUse"><path
         id="path134"
         d="m 100.594,169.276 266.406,0 0,-34.387 -266.406,0 0,34.387 z" /></clipPath><clipPath
       id="clipPath142"
       clipPathUnits="userSpaceOnUse"><path
         id="path144"
         d="m 285,135 36,0 0,3 -36,0 0,-3 z" /></clipPath><clipPath
       id="clipPath156"
       clipPathUnits="userSpaceOnUse"><path
         id="path158"
         d="m 168,120.319 199,0 0,-34.387 -199,0 0,34.387 z" /></clipPath><clipPath
       id="clipPath166"
       clipPathUnits="userSpaceOnUse"><path
         id="path168"
         d="m 285,118 36,0 0,3 -36,0 0,-3 z" /></clipPath><clipPath
       id="clipPath180"
       clipPathUnits="userSpaceOnUse"><path
         id="path182"
         d="m 227.012,104.093 139.988,0 0,-35.168 -139.988,0 0,35.168 z" /></clipPath><clipPath
       id="clipPath190"
       clipPathUnits="userSpaceOnUse"><path
         id="path192"
         d="m 285,102 36,0 0,2 -36,0 0,-2 z" /></clipPath><clipPath
       id="clipPath204"
       clipPathUnits="userSpaceOnUse"><path
         id="path206"
         d="m 269.109,86.218 97.891,0 0,-35.168 -97.891,0 0,35.168 z" /></clipPath><clipPath
       id="clipPath214"
       clipPathUnits="userSpaceOnUse"><path
         id="path216"
         d="m 285,84 36,0 0,3 -36,0 0,-3 z" /></clipPath><clipPath
       id="clipPath30-9"
       clipPathUnits="userSpaceOnUse"><path
         id="path32-4"
         d="m 22.43,98.526 344,0 0,-45 -344,0 0,45 z" /></clipPath><clipPath
       id="clipPath40-4"
       clipPathUnits="userSpaceOnUse"><path
         id="path42-1"
         d="m 0,54 367,0 0,45 L 0,99 0,54 Z" /></clipPath><clipPath
       id="clipPath52-3"
       clipPathUnits="userSpaceOnUse"><path
         id="path54-7"
         d="m 22.43,150.526 344,0 0,-45 -344,0 0,45 z" /></clipPath><clipPath
       id="clipPath62-7"
       clipPathUnits="userSpaceOnUse"><path
         id="path64-0"
         d="m 0,106 367,0 0,44 -367,0 0,-44 z" /></clipPath><clipPath
       id="clipPath74-0"
       clipPathUnits="userSpaceOnUse"><path
         id="path76-5"
         d="m 22.43,195.526 344,0 0,-44 -344,0 0,44 z" /></clipPath><clipPath
       id="clipPath84-0"
       clipPathUnits="userSpaceOnUse"><path
         id="path86-4"
         d="m 0,151 367,0 0,45 -367,0 0,-45 z" /></clipPath><clipPath
       id="clipPath96-7"
       clipPathUnits="userSpaceOnUse"><path
         id="path98-0"
         d="m 22.43,240.526 344,0 0,-44 -344,0 0,44 z" /></clipPath><clipPath
       id="clipPath106-3"
       clipPathUnits="userSpaceOnUse"><path
         id="path108-2"
         d="m 0,197 367,0 0,44 -367,0 0,-44 z" /></clipPath><clipPath
       id="clipPath132-7"
       clipPathUnits="userSpaceOnUse"><path
         id="path134-9"
         d="m 100.594,169.276 266.406,0 0,-34.387 -266.406,0 0,34.387 z" /></clipPath><clipPath
       id="clipPath142-6"
       clipPathUnits="userSpaceOnUse"><path
         id="path144-9"
         d="m 285,135 36,0 0,3 -36,0 0,-3 z" /></clipPath><clipPath
       id="clipPath156-6"
       clipPathUnits="userSpaceOnUse"><path
         id="path158-7"
         d="m 168,120.319 199,0 0,-34.387 -199,0 0,34.387 z" /></clipPath><clipPath
       id="clipPath166-8"
       clipPathUnits="userSpaceOnUse"><path
         id="path168-9"
         d="m 285,118 36,0 0,3 -36,0 0,-3 z" /></clipPath><clipPath
       id="clipPath180-6"
       clipPathUnits="userSpaceOnUse"><path
         id="path182-1"
         d="m 227.012,104.093 139.988,0 0,-35.168 -139.988,0 0,35.168 z" /></clipPath><clipPath
       id="clipPath190-5"
       clipPathUnits="userSpaceOnUse"><path
         id="path192-7"
         d="m 285,102 36,0 0,2 -36,0 0,-2 z" /></clipPath><clipPath
       id="clipPath204-4"
       clipPathUnits="userSpaceOnUse"><path
         id="path206-6"
         d="m 269.109,86.218 97.891,0 0,-35.168 -97.891,0 0,35.168 z" /></clipPath><clipPath
       id="clipPath214-2"
       clipPathUnits="userSpaceOnUse"><path
         id="path216-2"
         d="m 285,84 36,0 0,3 -36,0 0,-3 z" /></clipPath><clipPath
       clipPathUnits="userSpaceOnUse"
       id="clipPath4479"><path
         d="m 22.43,98.526 344,0 0,-45 -344,0 0,45 z"
         id="path4481" /></clipPath><clipPath
       clipPathUnits="userSpaceOnUse"
       id="clipPath4489"><path
         d="m 0,54 367,0 0,45 L 0,99 0,54 Z"
         id="path4491" /></clipPath><clipPath
       clipPathUnits="userSpaceOnUse"
       id="clipPath4499"><path
         d="M 0,99 367,99 367,54 0,54 0,99 Z"
         id="path4501" /></clipPath><clipPath
       clipPathUnits="userSpaceOnUse"
       id="clipPath4509"><path
         d="m 0,54 367,0 0,45 L 0,99 0,54 Z"
         id="path4511" /></clipPath><clipPath
       clipPathUnits="userSpaceOnUse"
       id="clipPath4521"><path
         d="m 22.43,150.526 344,0 0,-45 -344,0 0,45 z"
         id="path4523" /></clipPath><clipPath
       clipPathUnits="userSpaceOnUse"
       id="clipPath4531"><path
         d="m 0,106 367,0 0,44 -367,0 0,-44 z"
         id="path4533" /></clipPath><clipPath
       clipPathUnits="userSpaceOnUse"
       id="clipPath4541"><path
         d="m 0,150 367,0 0,-44 -367,0 0,44 z"
         id="path4543" /></clipPath><clipPath
       clipPathUnits="userSpaceOnUse"
       id="clipPath4551"><path
         d="m 0,106 367,0 0,44 -367,0 0,-44 z"
         id="path4553" /></clipPath><clipPath
       clipPathUnits="userSpaceOnUse"
       id="clipPath4563"><path
         d="m 22.43,195.526 344,0 0,-44 -344,0 0,44 z"
         id="path4565" /></clipPath><clipPath
       clipPathUnits="userSpaceOnUse"
       id="clipPath4573"><path
         d="m 0,151 367,0 0,45 -367,0 0,-45 z"
         id="path4575" /></clipPath><clipPath
       clipPathUnits="userSpaceOnUse"
       id="clipPath4583"><path
         d="m 0,196 367,0 0,-45 -367,0 0,45 z"
         id="path4585" /></clipPath><clipPath
       clipPathUnits="userSpaceOnUse"
       id="clipPath4593"><path
         d="m 0,151 367,0 0,45 -367,0 0,-45 z"
         id="path4595" /></clipPath><clipPath
       clipPathUnits="userSpaceOnUse"
       id="clipPath4605"><path
         d="m 22.43,240.526 344,0 0,-44 -344,0 0,44 z"
         id="path4607" /></clipPath><clipPath
       clipPathUnits="userSpaceOnUse"
       id="clipPath4615"><path
         d="m 0,197 367,0 0,44 -367,0 0,-44 z"
         id="path4617" /></clipPath><clipPath
       clipPathUnits="userSpaceOnUse"
       id="clipPath4625"><path
         d="m 0,241 367,0 0,-44 -367,0 0,44 z"
         id="path4627" /></clipPath><clipPath
       clipPathUnits="userSpaceOnUse"
       id="clipPath4635"><path
         d="m 0,197 367,0 0,44 -367,0 0,-44 z"
         id="path4637" /></clipPath><clipPath
       clipPathUnits="userSpaceOnUse"
       id="clipPath4661"><path
         d="m 100.594,169.276 266.406,0 0,-34.387 -266.406,0 0,34.387 z"
         id="path4663" /></clipPath><clipPath
       clipPathUnits="userSpaceOnUse"
       id="clipPath4671"><path
         d="m 285,135 36,0 0,3 -36,0 0,-3 z"
         id="path4673" /></clipPath><clipPath
       clipPathUnits="userSpaceOnUse"
       id="clipPath4681"><path
         d="m 285,138 36,0 0,-3 -36,0 0,3 z"
         id="path4683" /></clipPath><clipPath
       clipPathUnits="userSpaceOnUse"
       id="clipPath4691"><path
         d="m 285,135 36,0 0,3 -36,0 0,-3 z"
         id="path4693" /></clipPath><clipPath
       clipPathUnits="userSpaceOnUse"
       id="clipPath4705"><path
         d="m 168,120.319 199,0 0,-34.387 -199,0 0,34.387 z"
         id="path4707" /></clipPath><clipPath
       clipPathUnits="userSpaceOnUse"
       id="clipPath4715"><path
         d="m 285,118 36,0 0,3 -36,0 0,-3 z"
         id="path4717" /></clipPath><clipPath
       clipPathUnits="userSpaceOnUse"
       id="clipPath4725"><path
         d="m 285,121 36,0 0,-3 -36,0 0,3 z"
         id="path4727" /></clipPath><clipPath
       clipPathUnits="userSpaceOnUse"
       id="clipPath4735"><path
         d="m 285,118 36,0 0,3 -36,0 0,-3 z"
         id="path4737" /></clipPath><clipPath
       clipPathUnits="userSpaceOnUse"
       id="clipPath4749"><path
         d="m 227.012,104.093 139.988,0 0,-35.168 -139.988,0 0,35.168 z"
         id="path4751" /></clipPath><clipPath
       clipPathUnits="userSpaceOnUse"
       id="clipPath4759"><path
         d="m 285,102 36,0 0,2 -36,0 0,-2 z"
         id="path4761" /></clipPath><clipPath
       clipPathUnits="userSpaceOnUse"
       id="clipPath4769"><path
         d="m 285,104 36,0 0,-2 -36,0 0,2 z"
         id="path4771" /></clipPath><clipPath
       clipPathUnits="userSpaceOnUse"
       id="clipPath4779"><path
         d="m 285,102 36,0 0,2 -36,0 0,-2 z"
         id="path4781" /></clipPath><clipPath
       clipPathUnits="userSpaceOnUse"
       id="clipPath4793"><path
         d="m 269.109,86.218 97.891,0 0,-35.168 -97.891,0 0,35.168 z"
         id="path4795" /></clipPath><clipPath
       clipPathUnits="userSpaceOnUse"
       id="clipPath4803"><path
         d="m 285,84 36,0 0,3 -36,0 0,-3 z"
         id="path4805" /></clipPath><clipPath
       clipPathUnits="userSpaceOnUse"
       id="clipPath4813"><path
         d="m 285,87 36,0 0,-3 -36,0 0,3 z"
         id="path4815" /></clipPath><clipPath
       clipPathUnits="userSpaceOnUse"
       id="clipPath4823"><path
         d="m 285,84 36,0 0,3 -36,0 0,-3 z"
         id="path4825" /></clipPath><clipPath
       clipPathUnits="userSpaceOnUse"
       id="clipPath5226"><path
         d="m 16,54 344,0 0,-26 -344,0 0,26 z"
         id="path5228" /></clipPath><clipPath
       clipPathUnits="userSpaceOnUse"
       id="clipPath5236"><path
         d="m 16,97 344,0 0,-27 -344,0 0,27 z"
         id="path5238" /></clipPath><clipPath
       clipPathUnits="userSpaceOnUse"
       id="clipPath5246"><path
         d="m 16,134 344,0 0,-26 -344,0 0,26 z"
         id="path5248" /></clipPath><clipPath
       clipPathUnits="userSpaceOnUse"
       id="clipPath5256"><path
         d="m 16,182 344,0 0,-27 -344,0 0,27 z"
         id="path5258" /></clipPath><clipPath
       clipPathUnits="userSpaceOnUse"
       id="clipPath5266"><path
         d="m 16,219 344,0 0,-26 -344,0 0,26 z"
         id="path5268" /></clipPath></defs><g
     transform="matrix(1.25,0,0,-1.25,0,340.79941)"
     id="g10"><g
       id="g12"><path
         id="path14"
         style="fill:none;stroke:#969696;stroke-width:1.20000005;stroke-linecap:butt;stroke-linejoin:miter;stroke-miterlimit:4;stroke-dasharray:3.6, 3.6;stroke-dashoffset:0;stroke-opacity:1"
         d="M 44.352,250.081 C 44.352,32.6 44.016,32.6 44.016,32.6" /><path
         id="path16"
         style="fill:none;stroke:#969696;stroke-width:1.20000005;stroke-linecap:butt;stroke-linejoin:miter;stroke-miterlimit:4;stroke-dasharray:3.6, 3.6;stroke-dashoffset:0;stroke-opacity:1"
         d="M 259.148,250.081 C 259.148,32.6 258.812,32.6 258.812,32.6" /><path
         id="path18"
         style="fill:#5e81b5;fill-opacity:0.2;fill-rule:nonzero;stroke:none"
         d="m 43.945,54.972 10.871,0 -0.117,41.878 -10.629,0 -0.125,-41.878 z" /><path
         id="path20"
         style="fill:#e19c24;fill-opacity:0.2;fill-rule:nonzero;stroke:none"
         d="m 97.609,106.901 43.129,0 -0.125,41.879 -42.879,0 -0.125,-41.879 z" /><path
         id="path22"
         style="fill:#8fb032;fill-opacity:0.2;fill-rule:nonzero;stroke:none"
         d="m 172.848,152.339 43.058,0 -0.117,41.879 -42.824,0 -0.117,-41.879 z" /><path
         id="path24"
         style="fill:#eb6235;fill-opacity:0.2;fill-rule:nonzero;stroke:none"
         d="m 247.91,197.776 10.981,0 -0.125,41.879 -10.735,0 -0.121,-41.879 z" /></g><g
       id="g26"><g
         clip-path="url(#clipPath30)"
         id="g28"><g
           transform="translate(0,-0.360474)"
           id="g34"><g
             id="g36"><g
               clip-path="url(#clipPath40)"
               id="g38"><g
                 id="g44"><path
                   id="path46"
                   style="fill:none;stroke:#781c86;stroke-width:1.60000002;stroke-linecap:square;stroke-linejoin:miter;stroke-miterlimit:3.25;stroke-dasharray:none;stroke-opacity:1"
                   d="m -9.738,55.332 53.683,0 0.125,41.879 10.629,0 0.117,-41.879 311.364,0" /></g></g></g></g></g></g><g
       id="g48"><g
         clip-path="url(#clipPath52)"
         id="g50"><g
           transform="translate(0,-0.360474)"
           id="g56"><g
             id="g58"><g
               clip-path="url(#clipPath62)"
               id="g60"><g
                 id="g66"><path
                   id="path68"
                   style="fill:none;stroke:#539bb5;stroke-width:1.60000002;stroke-linecap:square;stroke-linejoin:miter;stroke-miterlimit:3.25;stroke-dasharray:none;stroke-opacity:1"
                   d="m -9.738,107.262 107.347,0 0.125,41.879 42.879,0 0.125,-41.879 225.442,0" /></g></g></g></g></g></g><g
       id="g70"><g
         clip-path="url(#clipPath74)"
         id="g72"><g
           transform="translate(0,-0.360474)"
           id="g78"><g
             id="g80"><g
               clip-path="url(#clipPath84)"
               id="g82"><g
                 id="g88"><path
                   id="path90"
                   style="fill:none;stroke:#c3ba46;stroke-width:1.60000002;stroke-linecap:square;stroke-linejoin:miter;stroke-miterlimit:3.25;stroke-dasharray:none;stroke-opacity:1"
                   d="m -9.738,152.699 182.586,0 0.117,41.879 42.824,0 0.117,-41.879 150.274,0" /></g></g></g></g></g></g><g
       id="g92"><g
         clip-path="url(#clipPath96)"
         id="g94"><g
           transform="translate(0,-0.360474)"
           id="g100"><g
             id="g102"><g
               clip-path="url(#clipPath106)"
               id="g104"><g
                 id="g110"><path
                   id="path112"
                   style="fill:none;stroke:#db2122;stroke-width:1.60000002;stroke-linecap:square;stroke-linejoin:miter;stroke-miterlimit:3.25;stroke-dasharray:none;stroke-opacity:1"
                   d="m -9.738,198.137 257.648,0 0.121,41.879 10.735,0 0.125,-41.879 107.289,0" /></g></g></g></g></g></g><path
       d="m 366.18,37.862 -343.696,0"
       style="fill:none;stroke:#000000;stroke-width:0.2;stroke-linecap:square;stroke-linejoin:miter;stroke-miterlimit:3.25;stroke-dasharray:none;stroke-opacity:1"
       id="path116" /><path
       d="m 22.484,37.862 0,212.414"
       style="fill:none;stroke:#000000;stroke-width:0.2;stroke-linecap:square;stroke-linejoin:miter;stroke-miterlimit:3.25;stroke-dasharray:none;stroke-opacity:1"
       id="path118" /><path
       d="m 22.484,250.276 343.696,0"
       style="fill:none;stroke:#000000;stroke-width:0.2;stroke-linecap:square;stroke-linejoin:miter;stroke-miterlimit:3.25;stroke-dasharray:none;stroke-opacity:1"
       id="path120" /><path
       d="m 366.18,250.276 0,-212.414"
       style="fill:none;stroke:#000000;stroke-width:0.2;stroke-linecap:square;stroke-linejoin:miter;stroke-miterlimit:3.25;stroke-dasharray:none;stroke-opacity:1"
       id="path122" /><path
       d="m 282.906,157.89 75.949,0 0,-89.656 -75.949,0 0,89.656 z"
       style="fill:#b2b2b2;fill-opacity:1;fill-rule:nonzero;stroke:#b2b2b2;stroke-width:0.939596;stroke-linecap:round;stroke-linejoin:round;stroke-miterlimit:4;stroke-dasharray:none;stroke-opacity:1"
       id="path124" /><path
       d="m 278.32,161.89 75.949,0 0,-89.66 -75.949,0 0,89.66 z"
       style="fill:#ffffff;fill-opacity:1;fill-rule:nonzero;stroke:#b2b2b2;stroke-width:0.939596;stroke-linecap:round;stroke-linejoin:round;stroke-miterlimit:4;stroke-dasharray:none;stroke-opacity:1"
       id="path126" /><g
       id="g128"><g
         clip-path="url(#clipPath132)"
         id="g130"><g
           transform="translate(0,-0.360474)"
           id="g136"><g
             id="g138"><g
               clip-path="url(#clipPath142)"
               id="g140"><g
                 id="g146"><g
                   transform="matrix(1,0,0,0.996306,0,273)"
                   id="g148"><path
                     id="path150"
                     style="fill:none;stroke:#db2122;stroke-width:1.60296404;stroke-linecap:square;stroke-linejoin:miter;stroke-miterlimit:4;stroke-dasharray:none;stroke-opacity:1"
                     d="m 286.086,-137.281 33.555,0" /></g></g></g></g></g></g></g><g
       id="g152"><g
         clip-path="url(#clipPath156)"
         id="g154"><g
           transform="translate(0,-0.360474)"
           id="g160"><g
             id="g162"><g
               clip-path="url(#clipPath166)"
               id="g164"><g
                 id="g170"><g
                   transform="matrix(1,0,0,0.996306,0,273)"
                   id="g172"><path
                     id="path174"
                     style="fill:none;stroke:#c3ba46;stroke-width:1.60296404;stroke-linecap:square;stroke-linejoin:miter;stroke-miterlimit:4;stroke-dasharray:none;stroke-opacity:1"
                     d="m 286.086,-153.912 33.598,0" /></g></g></g></g></g></g></g><g
       id="g176"><g
         clip-path="url(#clipPath180)"
         id="g178"><g
           transform="translate(0,-0.360474)"
           id="g184"><g
             id="g186"><g
               clip-path="url(#clipPath190)"
               id="g188"><g
                 id="g194"><g
                   transform="matrix(1,0,0,0.996306,0,273)"
                   id="g196"><path
                     id="path198"
                     style="fill:none;stroke:#539bb5;stroke-width:1.60296404;stroke-linecap:square;stroke-linejoin:miter;stroke-miterlimit:4;stroke-dasharray:none;stroke-opacity:1"
                     d="m 286.086,-170.54 33.637,0" /></g></g></g></g></g></g></g><g
       id="g200"><g
         clip-path="url(#clipPath204)"
         id="g202"><g
           transform="translate(0,-0.360474)"
           id="g208"><g
             id="g210"><g
               clip-path="url(#clipPath214)"
               id="g212"><g
                 id="g218"><g
                   transform="matrix(1,0,0,0.996306,0,273)"
                   id="g220"><path
                     id="path222"
                     style="fill:none;stroke:#781c86;stroke-width:1.60296404;stroke-linecap:square;stroke-linejoin:miter;stroke-miterlimit:4;stroke-dasharray:none;stroke-opacity:1"
                     d="m 286.086,-188.427 33.641,0" /></g></g></g></g></g></g></g><text
       y="-17.981892"
       x="22.59428"
       transform="scale(1,-1)"
       style="font-variant:normal;font-weight:normal;font-size:12px;font-family:'Bitstream Vera Sans';-inkscape-font-specification:BitstreamVeraSans-Roman;writing-mode:lr-tb;fill:#000000;fill-opacity:1;fill-rule:nonzero;stroke:none"
       id="text238"><tspan
         x="22.59428 27.526281 35.12228 42.730282 47.43428 55.06628 59.770279 67.150284"
         y="-17.981892"
         id="tspan240">rupture </tspan><tspan
         x="29.90678 37.286781 44.894783 52.502781"
         y="-2.9818909"
         id="tspan242">edge</tspan><tspan
         x="237.80304 242.73505 250.33104 257.93903 262.64304 270.27502 274.97903 282.35904"
         y="-17.496096"
         id="tspan244">rupture </tspan><tspan
         x="245.11554 252.49554 260.10355 267.71152"
         y="-2.4960949"
         id="tspan246">edge</tspan><tspan
         x="83.184067 90.792068 98.124069 104.36407 107.68807 112.39207 115.71607 123.04807 130.64407 134.44807 141.82806 145.15207 152.48407 160.08008 167.68806 171.49207 175.71606 183.10808 190.70407 194.02808 198.73207 202.53607 205.86008 209.18407 216.78008"
         y="-18.409702"
         id="tspan248">position along fault line</tspan></text>
<text
       y="9.1171885"
       x="112.65517"
       transform="matrix(0,1,1,0,0,0)"
       style="font-variant:normal;font-weight:normal;font-size:12px;font-family:'Bitstream Vera Sans';-inkscape-font-specification:BitstreamVeraSans-Roman;writing-mode:lr-tb;fill:#000000;fill-opacity:1;fill-rule:nonzero;stroke:none"
       id="text250"><tspan
         x="112.65517 118.89517 122.21917 125.54317 133.15117 136.95517 141.88718 149.26717 153.97118"
         y="9.1171885"
         id="tspan252">slip rate</tspan></text>
<g
       id="g254"
       transform="matrix(0.723457,0,0,1,0,272.63953)"><path
         d="m 202.014,-144.223 47.294,0"
         style="fill:none;stroke:#b75c4d;stroke-width:1.88110805;stroke-linecap:round;stroke-linejoin:round;stroke-miterlimit:4;stroke-dasharray:none;stroke-opacity:1"
         id="path256" /></g><g
       id="g258"
       transform="matrix(0.723457,0,0,1,0,272.63953)"><path
         d="m 233.757,-138.82 15.659,-5.426 -15.767,-5.488"
         style="fill:none;stroke:#b75c4d;stroke-width:1.88110805;stroke-linecap:round;stroke-linejoin:round;stroke-miterlimit:4;stroke-dasharray:none;stroke-opacity:1"
         id="path260" /></g><g
       id="g262"
       transform="matrix(0.723457,0,0,1,0,272.63953)"><path
         d="m 305.019,-99.656 47.293,0"
         style="fill:none;stroke:#b75c4d;stroke-width:1.88110805;stroke-linecap:round;stroke-linejoin:round;stroke-miterlimit:4;stroke-dasharray:none;stroke-opacity:1"
         id="path264" /></g><g
       id="g266"
       transform="matrix(0.723457,0,0,1,0,272.63953)"><path
         d="m 336.767,-94.25 15.659,-5.426 -15.767,-5.492"
         style="fill:none;stroke:#b75c4d;stroke-width:1.88110805;stroke-linecap:round;stroke-linejoin:round;stroke-miterlimit:4;stroke-dasharray:none;stroke-opacity:1"
         id="path268" /></g><g
       id="g270"
       transform="matrix(0.723457,0,0,1,0,272.63953)"><path
         d="m 82.843,-196.828 47.294,0"
         style="fill:none;stroke:#b75c4d;stroke-width:1.88110805;stroke-linecap:round;stroke-linejoin:round;stroke-miterlimit:4;stroke-dasharray:none;stroke-opacity:1"
         id="path272" /></g><g
       id="g274"
       transform="matrix(0.723457,0,0,1,0,272.63953)"><path
         d="m 114.592,-191.426 15.658,-5.422 -15.771,-5.492"
         style="fill:none;stroke:#b75c4d;stroke-width:1.88110805;stroke-linecap:round;stroke-linejoin:round;stroke-miterlimit:4;stroke-dasharray:none;stroke-opacity:1"
         id="path276" /></g><text
       y="-263.89148"
       x="148.68056"
       transform="scale(1,-1)"
       style="font-style:oblique;font-variant:normal;font-size:12px;font-family:'Bitstream Vera Sans';-inkscape-font-specification:BitstreamVeraSans-Oblique;writing-mode:lr-tb;fill:#000000;fill-opacity:1;fill-rule:nonzero;stroke:none"
       id="text278"><tspan
         x="148.68056"
         y="-263.89148"
         id="tspan280">L</tspan></text>
<g
       id="g282"
       transform="matrix(-1,0,0,-0.991878,0,272.63953)"><path
         d="m -130.684,5.36 86.59,0"
         style="fill:none;stroke:#838383;stroke-width:1.30822599;stroke-linecap:round;stroke-linejoin:round;stroke-miterlimit:4;stroke-dasharray:none;stroke-opacity:1"
         id="path284" /></g><g
       id="g286"
       transform="matrix(-1,0,0,-0.991878,0,272.63953)"><path
         d="M -54.902,9.117 -44.016,5.344 -54.98,1.524"
         style="fill:none;stroke:#838383;stroke-width:1.30822599;stroke-linecap:round;stroke-linejoin:round;stroke-miterlimit:4;stroke-dasharray:none;stroke-opacity:1"
         id="path288" /></g><g
       id="g290"
       transform="matrix(1,0,0,0.991878,0,272.63953)"><path
         d="m 170.777,-5.281 86.59,0"
         style="fill:none;stroke:#838383;stroke-width:1.30822599;stroke-linecap:round;stroke-linejoin:round;stroke-miterlimit:4;stroke-dasharray:none;stroke-opacity:1"
         id="path292" /></g><g
       id="g294"
       transform="matrix(1,0,0,0.991878,0,272.63953)"><path
         d="m 246.555,-1.524 10.89,-3.773 -10.965,-3.82"
         style="fill:none;stroke:#838383;stroke-width:1.30822599;stroke-linecap:round;stroke-linejoin:round;stroke-miterlimit:4;stroke-dasharray:none;stroke-opacity:1"
         id="path296" /></g><text
       y="-72.864021"
       x="99.687584"
       transform="scale(1,-1)"
       style="font-style:oblique;font-variant:normal;font-size:12px;font-family:'Bitstream Vera Sans';-inkscape-font-specification:BitstreamVeraSans-Oblique;writing-mode:lr-tb;fill:#000000;fill-opacity:1;fill-rule:nonzero;stroke:none"
       id="text298"><tspan
         x="99.687584"
         y="-72.864021"
         id="tspan300">V</tspan></text>
<text
       y="-70.46402"
       x="107.89071"
       transform="scale(1,-1)"
       style="font-style:oblique;font-variant:normal;font-size:6.23999977px;font-family:'Bitstream Vera Sans';-inkscape-font-specification:BitstreamVeraSans-Oblique;writing-mode:lr-tb;fill:#000000;fill-opacity:1;fill-rule:nonzero;stroke:none"
       id="text302"><tspan
         x="107.89071"
         y="-70.46402"
         id="tspan304">R</tspan></text>
<text
       transform="scale(1,-1)"
       id="text5393"
       y="-145.03432"
       x="285.27884"
       style="font-style:normal;font-variant:normal;font-weight:normal;font-stretch:normal;font-size:12px;line-height:125%;font-family:sans-serif;-inkscape-font-specification:'sans-serif, Normal';text-align:start;letter-spacing:0px;word-spacing:0px;writing-mode:lr-tb;text-anchor:start;fill:#000000;fill-opacity:1;stroke:none;stroke-width:1px;stroke-linecap:butt;stroke-linejoin:miter;stroke-opacity:1"
       xml:space="preserve"><tspan
         y="-145.03432"
         x="285.27884"
         id="tspan5395">time:</tspan></text>
<text
       transform="scale(1,-1)"
       id="text5401"
       y="-131.39746"
       x="324.77704"
       style="font-style:normal;font-variant:normal;font-weight:normal;font-stretch:normal;font-size:12px;line-height:125%;font-family:sans-serif;-inkscape-font-specification:'sans-serif, Normal';text-align:start;letter-spacing:0px;word-spacing:0px;writing-mode:lr-tb;text-anchor:start;fill:#000000;fill-opacity:1;stroke:none;stroke-width:1px;stroke-linecap:butt;stroke-linejoin:miter;stroke-opacity:1"
       xml:space="preserve"><tspan
         y="-131.39746"
         x="324.77704"
         id="tspan5403">0.9</tspan></text>
<text
       transform="scale(1,-1)"
       id="text5405"
       y="-82.292809"
       x="324.77704"
       style="font-style:normal;font-variant:normal;font-weight:normal;font-stretch:normal;font-size:12px;line-height:125%;font-family:sans-serif;-inkscape-font-specification:'sans-serif, Normal';text-align:start;letter-spacing:0px;word-spacing:0px;writing-mode:lr-tb;text-anchor:start;fill:#000000;fill-opacity:1;stroke:none;stroke-width:1px;stroke-linecap:butt;stroke-linejoin:miter;stroke-opacity:1"
       xml:space="preserve"><tspan
         y="-82.292809"
         x="324.77704"
         id="tspan5407">0.1</tspan></text>
<text
       transform="scale(1,-1)"
       id="text5409"
       y="-98.568977"
       x="324.77704"
       style="font-style:normal;font-variant:normal;font-weight:normal;font-stretch:normal;font-size:12px;line-height:125%;font-family:sans-serif;-inkscape-font-specification:'sans-serif, Normal';text-align:start;letter-spacing:0px;word-spacing:0px;writing-mode:lr-tb;text-anchor:start;fill:#000000;fill-opacity:1;stroke:none;stroke-width:1px;stroke-linecap:butt;stroke-linejoin:miter;stroke-opacity:1"
       xml:space="preserve"><tspan
         y="-98.568977"
         x="324.77704"
         id="tspan5411">0.3</tspan></text>
<text
       transform="scale(1,-1)"
       id="text5413"
       y="-115.12131"
       x="324.77704"
       style="font-style:normal;font-variant:normal;font-weight:normal;font-stretch:normal;font-size:12px;line-height:125%;font-family:sans-serif;-inkscape-font-specification:'sans-serif, Normal';text-align:start;letter-spacing:0px;word-spacing:0px;writing-mode:lr-tb;text-anchor:start;fill:#000000;fill-opacity:1;stroke:none;stroke-width:1px;stroke-linecap:butt;stroke-linejoin:miter;stroke-opacity:1"
       xml:space="preserve"><tspan
         y="-115.12131"
         x="324.77704"
         id="tspan5415">0.7</tspan></text>
</g></svg>