<?xml version="1.0" encoding="UTF-8" standalone="no"?>
<!-- Created with Inkscape (http://www.inkscape.org/) -->

<svg
   xmlns:ns0="http://www.iki.fi/pav/software/textext/"
   xmlns:dc="http://purl.org/dc/elements/1.1/"
   xmlns:cc="http://creativecommons.org/ns#"
   xmlns:rdf="http://www.w3.org/1999/02/22-rdf-syntax-ns#"
   xmlns:svg="http://www.w3.org/2000/svg"
   xmlns="http://www.w3.org/2000/svg"
   xmlns:xlink="http://www.w3.org/1999/xlink"
   xmlns:sodipodi="http://sodipodi.sourceforge.net/DTD/sodipodi-0.dtd"
   xmlns:inkscape="http://www.inkscape.org/namespaces/inkscape"
   sodipodi:docname="SimpleCube2.svg"
   inkscape:version="0.92.3 (2405546, 2018-03-11)"
   version="1.1"
   id="svg2"
   height="421.88077"
   width="525.52124">
  <sodipodi:namedview
     id="base"
     pagecolor="#ffffff"
     bordercolor="#666666"
     borderopacity="1.0"
     inkscape:pageopacity="0.0"
     inkscape:pageshadow="2"
     inkscape:zoom="0.29439291"
     inkscape:cx="193.22698"
     inkscape:cy="264.16204"
     inkscape:document-units="px"
     inkscape:current-layer="layer1"
     showgrid="false"
     showguides="true"
     inkscape:guide-bbox="true"
     fit-margin-top="0"
     fit-margin-left="0"
     fit-margin-right="0"
     fit-margin-bottom="0"
     inkscape:window-width="1526"
     inkscape:window-height="862"
     inkscape:window-x="73"
     inkscape:window-y="34"
     inkscape:window-maximized="0" />
  <defs
     id="defs4">
    <inkscape:perspective
       sodipodi:type="inkscape:persp3d"
       inkscape:vp_x="2513.1284 : 635.77162 : 1"
       inkscape:vp_y="-999.99583 : 2.8867641 : 0"
       inkscape:vp_z="1656.367 : 2421.7246 : 1"
       inkscape:persp3d-origin="2708.5828 : -587.97539 : 1"
       id="perspective3001" />
  </defs>
  <metadata
     id="metadata7">
    <rdf:RDF>
      <cc:Work
         rdf:about="">
        <dc:format>image/svg+xml</dc:format>
        <dc:type
           rdf:resource="http://purl.org/dc/dcmitype/StillImage" />
        <dc:title></dc:title>
      </cc:Work>
    </rdf:RDF>
  </metadata>
  <g
     inkscape:label="Layer 1"
     inkscape:groupmode="layer"
     id="layer1"
     transform="translate(-1447.817,839.53302)">
    <path
       style="color:#000000;display:inline;overflow:visible;visibility:visible;fill:none;stroke:#bebebe;stroke-width:2.38963652;stroke-linecap:round;stroke-linejoin:round;stroke-miterlimit:4;stroke-dasharray:none;stroke-dashoffset:0;stroke-opacity:1;marker:none;enable-background:accumulate"
       d="m 1676.2172,-589.42229 -123.5871,112.48871"
       id="path3176"
       inkscape:connector-curvature="0"
       sodipodi:nodetypes="cc" />
    <path
       style="color:#000000;display:inline;overflow:visible;visibility:visible;fill:none;stroke:#000000;stroke-width:2.38963652;stroke-linecap:round;stroke-linejoin:round;stroke-miterlimit:4;stroke-dasharray:none;stroke-dashoffset:0;stroke-opacity:1;marker:none;enable-background:accumulate"
       d="m 1826.4229,-758.74511 h -274.4668 l 0.674,281.81153 h 274.4668 z"
       id="path3135"
       inkscape:connector-curvature="0"
       sodipodi:nodetypes="ccccc" />
    <path
       style="color:#000000;display:inline;overflow:visible;visibility:visible;fill:none;stroke:#bebebe;stroke-width:2.38963652;stroke-linecap:round;stroke-linejoin:round;stroke-miterlimit:4;stroke-dasharray:none;stroke-dashoffset:0;stroke-opacity:1;marker:none;enable-background:accumulate"
       d="M 1826.8544,-589.4554 H 1675.6778"
       id="path3954"
       inkscape:connector-curvature="0" />
    <path
       style="color:#000000;display:inline;overflow:visible;visibility:visible;fill:none;stroke:#000000;stroke-width:2.38963652;stroke-linecap:round;stroke-linejoin:round;stroke-miterlimit:4;stroke-dasharray:none;stroke-dashoffset:0;stroke-opacity:1;marker:none;enable-background:accumulate"
       d="m 1827.3485,-589.42229 h 70.0807 l 1.3655,-248.55406 -223.943,0.0318 v 77.55078"
       id="path3137"
       inkscape:connector-curvature="0"
       sodipodi:nodetypes="ccccc" />
    <path
       style="color:#000000;display:inline;overflow:visible;visibility:visible;fill:none;stroke:#000000;stroke-width:2.38963652;stroke-linecap:round;stroke-linejoin:round;stroke-miterlimit:4;stroke-dasharray:none;stroke-dashoffset:0;stroke-opacity:1;marker:none;enable-background:accumulate"
       d="m 1898.7948,-838.32569 -73.7374,79.58058"
       id="path3172"
       inkscape:connector-curvature="0"
       sodipodi:nodetypes="cc" />
    <path
       style="color:#000000;display:inline;overflow:visible;visibility:visible;fill:none;stroke:#000000;stroke-width:2.38963652;stroke-linecap:round;stroke-linejoin:round;stroke-miterlimit:4;stroke-dasharray:none;stroke-dashoffset:0;stroke-opacity:1;marker:none;enable-background:accumulate"
       d="m 1897.6152,-589.92782 -70.5183,111.62874"
       id="path3174"
       inkscape:connector-curvature="0"
       sodipodi:nodetypes="cc" />
    <path
       style="color:#000000;display:inline;overflow:visible;visibility:visible;fill:none;stroke:#000000;stroke-width:2.38963652;stroke-linecap:round;stroke-linejoin:round;stroke-miterlimit:4;stroke-dasharray:none;stroke-dashoffset:0;stroke-opacity:1;marker:none;enable-background:accumulate"
       d="m 1675.2548,-838.14228 -122.6259,78.69306"
       id="path3182"
       inkscape:connector-curvature="0" />
    <path
       style="color:#000000;display:inline;overflow:visible;visibility:visible;fill:none;stroke:#bebebe;stroke-width:2.38963652;stroke-linecap:round;stroke-linejoin:round;stroke-miterlimit:4;stroke-dasharray:none;stroke-dashoffset:0;stroke-opacity:1;marker:none;enable-background:accumulate"
       d="m 1674.6897,-757.92351 v 168.96215"
       id="path3956"
       inkscape:connector-curvature="0" />
    <path
       style="color:#000000;display:inline;overflow:visible;visibility:visible;fill:none;stroke:#000000;stroke-width:2.38963652;stroke-linecap:round;stroke-linejoin:round;stroke-miterlimit:4;stroke-dasharray:none;stroke-dashoffset:0;stroke-opacity:1;marker:none;enable-background:accumulate"
       d="m 1451.9561,-490.14659 v 65.21347 l 0.058,0.0119 53.462,-0.046"
       id="path3958"
       inkscape:connector-curvature="0"
       sodipodi:nodetypes="cccc" />
    <text
       xml:space="preserve"
       style="font-style:normal;font-variant:normal;font-weight:normal;font-stretch:normal;font-size:5.73512793px;line-height:0%;font-family:serif;-inkscape-font-specification:Serif;text-align:start;letter-spacing:0px;word-spacing:0px;writing-mode:lr-tb;text-anchor:start;fill:#000000;fill-opacity:1;stroke:none;stroke-width:0.47792733"
       x="1499.4602"
       y="-457.47372"
       id="text3960"><tspan
         sodipodi:role="line"
         id="tspan3962"
         x="1499.4602"
         y="-457.47372"
         style="font-style:italic;font-size:19.11709213px;line-height:1.25;font-family:serif;-inkscape-font-specification:'Serif Italic';stroke-width:0.47792733">y</tspan></text>
    <text
       id="text3964"
       y="-495.74945"
       x="1448.0037"
       style="font-style:normal;font-variant:normal;font-weight:normal;font-stretch:normal;font-size:5.73512793px;line-height:0%;font-family:serif;-inkscape-font-specification:Serif;text-align:start;letter-spacing:0px;word-spacing:0px;writing-mode:lr-tb;text-anchor:start;fill:#000000;fill-opacity:1;stroke:none;stroke-width:0.47792733"
       xml:space="preserve"><tspan
         style="font-style:italic;font-size:19.11709213px;line-height:1.25;font-family:serif;-inkscape-font-specification:'Serif Italic';stroke-width:0.47792733"
         y="-495.74945"
         x="1448.0037"
         id="tspan3966"
         sodipodi:role="line">z</tspan></text>
    <text
       xml:space="preserve"
       style="font-style:normal;font-variant:normal;font-weight:normal;font-stretch:normal;font-size:5.73512793px;line-height:0%;font-family:serif;-inkscape-font-specification:Serif;text-align:start;letter-spacing:0px;word-spacing:0px;writing-mode:lr-tb;text-anchor:start;fill:#000000;fill-opacity:1;stroke:none;stroke-width:0.47792733"
       x="1508.7184"
       y="-417.65225"
       id="text3968"><tspan
         sodipodi:role="line"
         id="tspan3970"
         x="1508.7184"
         y="-417.65225"
         style="font-style:italic;font-size:19.11709213px;line-height:1.25;font-family:serif;-inkscape-font-specification:'Serif Italic';stroke-width:0.47792733">x</tspan></text>
    <g
       transform="matrix(-0.47792732,0,0,0.47792732,2689.1996,-425.6699)"
       id="g4218">
      <path
         sodipodi:nodetypes="cc"
         transform="translate(1663.7143,-839.00684)"
         inkscape:connector-curvature="0"
         id="path3766"
         d="M -72.93439,336.21558 H 62.861526"
         style="color:#000000;display:inline;overflow:visible;visibility:visible;fill:none;stroke:#ff0000;stroke-width:5;stroke-linecap:round;stroke-linejoin:round;stroke-miterlimit:4;stroke-dasharray:none;stroke-dashoffset:0;stroke-opacity:1;marker:none;enable-background:accumulate" />
      <path
         sodipodi:nodetypes="cccc"
         inkscape:connector-curvature="0"
         id="path4214"
         d="m 1694.6482,-502.99934 -4.1668,-11.85759 44.2299,11.85136 z"
         style="color:#000000;display:inline;overflow:visible;visibility:visible;fill:#ff0000;fill-opacity:1;stroke:#ff0000;stroke-width:0.6340453;stroke-linecap:round;stroke-linejoin:round;stroke-miterlimit:4;stroke-dasharray:none;stroke-dashoffset:0;stroke-opacity:1;marker:none;enable-background:accumulate" />
      <path
         style="color:#000000;display:inline;overflow:visible;visibility:visible;fill:#ff0000;fill-opacity:1;stroke:#ff0000;stroke-width:0.6340453;stroke-linecap:round;stroke-linejoin:round;stroke-miterlimit:4;stroke-dasharray:none;stroke-dashoffset:0;stroke-opacity:1;marker:none;enable-background:accumulate"
         d="m 1694.6482,-502.56774 -4.1668,11.85758 44.2299,-11.85135 z"
         id="path4216"
         inkscape:connector-curvature="0"
         sodipodi:nodetypes="cccc" />
    </g>
    <g
       transform="matrix(0.47792732,0,0,-0.46119408,1029.1534,-897.3687)"
       id="g4710">
      <path
         style="color:#000000;display:inline;overflow:visible;visibility:visible;fill:none;stroke:#ff0000;stroke-width:5;stroke-linecap:round;stroke-linejoin:round;stroke-miterlimit:4;stroke-dasharray:none;stroke-dashoffset:0;stroke-opacity:1;marker:none;enable-background:accumulate"
         d="m 1735.1418,-499.24075 53.0988,51.75613"
         id="path4225"
         inkscape:connector-curvature="0"
         sodipodi:nodetypes="cc" />
      <g
         transform="rotate(-0.99421933,-1227.7498,2970.3526)"
         id="g4242">
        <path
           sodipodi:nodetypes="cccc"
           inkscape:connector-curvature="0"
           id="path4227"
           d="m 1837.7364,-405.97913 4.297,-11.81101 26.6854,37.21057 z"
           style="color:#000000;display:inline;overflow:visible;visibility:visible;fill:#ff0000;fill-opacity:1;stroke:#ff0000;stroke-width:0.6340453;stroke-linecap:round;stroke-linejoin:round;stroke-miterlimit:4;stroke-dasharray:none;stroke-dashoffset:0;stroke-opacity:1;marker:none;enable-background:accumulate" />
        <path
           style="color:#000000;display:inline;overflow:visible;visibility:visible;fill:#ff0000;fill-opacity:1;stroke:#ff0000;stroke-width:0.6340453;stroke-linecap:round;stroke-linejoin:round;stroke-miterlimit:4;stroke-dasharray:none;stroke-dashoffset:0;stroke-opacity:1;marker:none;enable-background:accumulate"
           d="m 1837.4627,-405.6454 -10.741,6.52659 41.7156,18.88261 z"
           id="path4229"
           inkscape:connector-curvature="0"
           sodipodi:nodetypes="cccc" />
      </g>
    </g>
    <g
       transform="matrix(0,-0.47792732,0.47792732,0,2098.8487,87.144122)"
       id="g4231">
      <path
         transform="translate(1663.7143,-839.00684)"
         inkscape:connector-curvature="0"
         id="path4233"
         d="M -85.442736,336.21558 H 62.861526"
         style="color:#000000;display:inline;overflow:visible;visibility:visible;fill:none;stroke:#ff0000;stroke-width:5;stroke-linecap:round;stroke-linejoin:round;stroke-miterlimit:4;stroke-dasharray:none;stroke-dashoffset:0;stroke-opacity:1;marker:none;enable-background:accumulate"
         sodipodi:nodetypes="cc" />
      <g
         id="g4954">
        <path
           style="color:#000000;display:inline;overflow:visible;visibility:visible;fill:#ff0000;fill-opacity:1;stroke:#ff0000;stroke-width:0.6340453;stroke-linecap:round;stroke-linejoin:round;stroke-miterlimit:4;stroke-dasharray:none;stroke-dashoffset:0;stroke-opacity:1;marker:none;enable-background:accumulate"
           d="m 1694.6482,-502.99934 -4.1668,-11.85759 44.2299,11.85136 z"
           id="path4235"
           inkscape:connector-curvature="0"
           sodipodi:nodetypes="cccc" />
        <path
           sodipodi:nodetypes="cccc"
           inkscape:connector-curvature="0"
           id="path4237"
           d="m 1694.6482,-502.56774 -4.1668,11.85758 44.2299,-11.85135 z"
           style="color:#000000;display:inline;overflow:visible;visibility:visible;fill:#ff0000;fill-opacity:1;stroke:#ff0000;stroke-width:0.6340453;stroke-linecap:round;stroke-linejoin:round;stroke-miterlimit:4;stroke-dasharray:none;stroke-dashoffset:0;stroke-opacity:1;marker:none;enable-background:accumulate" />
      </g>
    </g>
    <g
       id="g4410"
       ns0:preamble="/data/Classes/PhysicsForGeoscientists/Book/Figures/preamble.tex"
       ns0:text="$\n\\tau_{xx}\n$"
       transform="matrix(3.8234186,0,0,3.8234186,1077.1354,-1173.6395)">
      <defs
         id="defs4412">
        <g
           id="g4414">
          <symbol
             id="textext-30ce463b-0"
             overflow="visible"
             style="overflow:visible">
            <path
               id="path4417"
               d=""
               style="stroke:none"
               inkscape:connector-curvature="0" />
          </symbol>
          <symbol
             id="textext-30ce463b-1"
             overflow="visible"
             style="overflow:visible">
            <path
               id="path4420"
               d="M 0.359375,-3.078125 C 0.46875,-3.375 0.59375,-3.625 0.75,-3.8125 0.890625,-3.984375 1.015625,-4.03125 1.28125,-4.03125 h 0.734375 c -0.15625,1.09375 -0.21875,1.84375 -0.21875,2.453125 0,1.0625 0.375,1.703125 1,1.703125 C 3.1875,0.125 3.59375,-0.15625 3.75,-0.5625 3.875,-0.859375 3.90625,-1.140625 3.921875,-1.609375 h -0.25 C 3.59375,-1.03125 3.453125,-0.84375 3.15625,-0.84375 2.71875,-0.84375 2.375,-1.25 2.375,-1.796875 c 0,-0.15625 0.015625,-0.46875 0.046875,-0.8125 C 2.4375,-2.71875 2.453125,-3.015625 2.46875,-3.328125 2.5,-3.703125 2.5,-3.8125 2.53125,-4.03125 H 4.171875 V -4.984375 H 1.90625 c -0.515625,0 -0.828125,0.125 -1.15625,0.484375 -0.3125,0.34375 -0.484375,0.71875 -0.65625,1.421875 z m 0,0"
               style="stroke:none"
               inkscape:connector-curvature="0" />
          </symbol>
          <symbol
             id="textext-30ce463b-2"
             overflow="visible"
             style="overflow:visible">
            <path
               id="path4423"
               d=""
               style="stroke:none"
               inkscape:connector-curvature="0" />
          </symbol>
          <symbol
             id="textext-30ce463b-3"
             overflow="visible"
             style="overflow:visible">
            <path
               id="path4426"
               d="M 2.96875,-0.8125 C 2.90625,-0.75 2.875,-0.703125 2.796875,-0.625 c -0.15625,0.234375 -0.25,0.296875 -0.328125,0.296875 -0.109375,0 -0.1875,-0.09375 -0.234375,-0.296875 C 2.21875,-0.6875 2.21875,-0.734375 2.203125,-0.75 2.015625,-1.5 1.9375,-1.84375 1.9375,-1.953125 c 0.328125,-0.5625 0.59375,-0.890625 0.71875,-0.890625 0.046875,0 0.109375,0.03125 0.1875,0.0625 0.078125,0.046875 0.140625,0.0625 0.1875,0.0625 0.15625,0 0.265625,-0.109375 0.265625,-0.265625 C 3.296875,-3.140625 3.171875,-3.25 3,-3.25 c -0.328125,0 -0.609375,0.265625 -1.125,1.046875 L 1.796875,-2.609375 C 1.703125,-3.109375 1.609375,-3.25 1.421875,-3.25 1.25,-3.25 1,-3.1875 0.546875,-3.03125 L 0.46875,-3.015625 0.5,-2.890625 c 0.28125,-0.078125 0.34375,-0.09375 0.421875,-0.09375 0.171875,0 0.21875,0.078125 0.328125,0.515625 l 0.203125,0.90625 -0.59375,0.859375 c -0.15625,0.21875 -0.296875,0.359375 -0.375,0.359375 -0.046875,0 -0.125,-0.03125 -0.203125,-0.0625 -0.09375,-0.0625 -0.171875,-0.078125 -0.234375,-0.078125 -0.140625,0 -0.25,0.109375 -0.25,0.25 0,0.203125 0.15625,0.3125 0.375,0.3125 0.21875,0 0.3125,-0.0625 0.6875,-0.515625 0.1875,-0.234375 0.34375,-0.4375 0.65625,-0.859375 l 0.21875,0.890625 c 0.109375,0.375 0.203125,0.484375 0.4375,0.484375 0.28125,0 0.46875,-0.171875 0.890625,-0.84375 z m 0,0"
               style="stroke:none"
               inkscape:connector-curvature="0" />
          </symbol>
        </g>
      </defs>
      <g
         id="textext-30ce463b-4">
        <g
           id="g4429"
           style="fill:#000000;fill-opacity:1">
          <use
             id="use4431"
             y="134.765"
             x="223.43201"
             xlink:href="#textext-30ce463b-1"
             width="1012.8423"
             height="760.16541" />
        </g>
        <g
           id="g4433"
           style="fill:#000000;fill-opacity:1">
          <use
             id="use4435"
             y="136.259"
             x="227.806"
             xlink:href="#textext-30ce463b-3"
             width="1012.8423"
             height="760.16541" />
        </g>
        <g
           id="g4437"
           style="fill:#000000;fill-opacity:1">
          <use
             id="use4439"
             y="136.259"
             x="231.10143"
             xlink:href="#textext-30ce463b-3"
             width="1012.8423"
             height="760.16541" />
        </g>
      </g>
    </g>
    <g
       ns0:text="$\n\\tau_{xy}\n$"
       ns0:preamble="/data/Classes/PhysicsForGeoscientists/Book/Figures/preamble.tex"
       transform="matrix(3.8234186,0,0,3.8234186,1045.3661,-1219.4105)"
       id="g4607">
      <defs
         id="defs4609">
        <g
           id="g4611">
          <symbol
             style="overflow:visible"
             overflow="visible"
             id="textext-44053d3f-0">
            <path
               inkscape:connector-curvature="0"
               style="stroke:none"
               d=""
               id="path4614" />
          </symbol>
          <symbol
             style="overflow:visible"
             overflow="visible"
             id="textext-44053d3f-1">
            <path
               inkscape:connector-curvature="0"
               style="stroke:none"
               d="M 0.359375,-3.078125 C 0.46875,-3.375 0.59375,-3.625 0.75,-3.8125 0.890625,-3.984375 1.015625,-4.03125 1.28125,-4.03125 h 0.734375 c -0.15625,1.09375 -0.21875,1.84375 -0.21875,2.453125 0,1.0625 0.375,1.703125 1,1.703125 C 3.1875,0.125 3.59375,-0.15625 3.75,-0.5625 3.875,-0.859375 3.90625,-1.140625 3.921875,-1.609375 h -0.25 C 3.59375,-1.03125 3.453125,-0.84375 3.15625,-0.84375 2.71875,-0.84375 2.375,-1.25 2.375,-1.796875 c 0,-0.15625 0.015625,-0.46875 0.046875,-0.8125 C 2.4375,-2.71875 2.453125,-3.015625 2.46875,-3.328125 2.5,-3.703125 2.5,-3.8125 2.53125,-4.03125 H 4.171875 V -4.984375 H 1.90625 c -0.515625,0 -0.828125,0.125 -1.15625,0.484375 -0.3125,0.34375 -0.484375,0.71875 -0.65625,1.421875 z m 0,0"
               id="path4617" />
          </symbol>
          <symbol
             style="overflow:visible"
             overflow="visible"
             id="textext-44053d3f-2">
            <path
               inkscape:connector-curvature="0"
               style="stroke:none"
               d=""
               id="path4620" />
          </symbol>
          <symbol
             style="overflow:visible"
             overflow="visible"
             id="textext-44053d3f-3">
            <path
               inkscape:connector-curvature="0"
               style="stroke:none"
               d="M 2.96875,-0.8125 C 2.90625,-0.75 2.875,-0.703125 2.796875,-0.625 c -0.15625,0.234375 -0.25,0.296875 -0.328125,0.296875 -0.109375,0 -0.1875,-0.09375 -0.234375,-0.296875 C 2.21875,-0.6875 2.21875,-0.734375 2.203125,-0.75 2.015625,-1.5 1.9375,-1.84375 1.9375,-1.953125 c 0.328125,-0.5625 0.59375,-0.890625 0.71875,-0.890625 0.046875,0 0.109375,0.03125 0.1875,0.0625 0.078125,0.046875 0.140625,0.0625 0.1875,0.0625 0.15625,0 0.265625,-0.109375 0.265625,-0.265625 C 3.296875,-3.140625 3.171875,-3.25 3,-3.25 c -0.328125,0 -0.609375,0.265625 -1.125,1.046875 L 1.796875,-2.609375 C 1.703125,-3.109375 1.609375,-3.25 1.421875,-3.25 1.25,-3.25 1,-3.1875 0.546875,-3.03125 L 0.46875,-3.015625 0.5,-2.890625 c 0.28125,-0.078125 0.34375,-0.09375 0.421875,-0.09375 0.171875,0 0.21875,0.078125 0.328125,0.515625 l 0.203125,0.90625 -0.59375,0.859375 c -0.15625,0.21875 -0.296875,0.359375 -0.375,0.359375 -0.046875,0 -0.125,-0.03125 -0.203125,-0.0625 -0.09375,-0.0625 -0.171875,-0.078125 -0.234375,-0.078125 -0.140625,0 -0.25,0.109375 -0.25,0.25 0,0.203125 0.15625,0.3125 0.375,0.3125 0.21875,0 0.3125,-0.0625 0.6875,-0.515625 0.1875,-0.234375 0.34375,-0.4375 0.65625,-0.859375 l 0.21875,0.890625 c 0.109375,0.375 0.203125,0.484375 0.4375,0.484375 0.28125,0 0.46875,-0.171875 0.890625,-0.84375 z m 0,0"
               id="path4623" />
          </symbol>
          <symbol
             style="overflow:visible"
             overflow="visible"
             id="textext-44053d3f-4">
            <path
               inkscape:connector-curvature="0"
               style="stroke:none"
               d="m 0.109375,-2.953125 c 0.09375,-0.015625 0.15625,-0.03125 0.234375,-0.03125 0.421875,0 0.53125,0.1875 0.859375,1.453125 0.125,0.484375 0.3125,1.34375 0.3125,1.46875 0,0.125 -0.046875,0.234375 -0.15625,0.375 C 1.125,0.609375 0.984375,0.796875 0.90625,0.890625 0.75,1.046875 0.65625,1.109375 0.5625,1.109375 0.515625,1.109375 0.46875,1.09375 0.390625,1.03125 0.265625,0.9375 0.1875,0.90625 0.109375,0.90625 c -0.15625,0 -0.28125,0.125 -0.28125,0.28125 0,0.1875 0.15625,0.328125 0.375,0.328125 0.46875,0 1.4375,-1.109375 2.234375,-2.5625 0.5,-0.90625 0.703125,-1.4375 0.703125,-1.796875 0,-0.21875 -0.1875,-0.40625 -0.40625,-0.40625 -0.171875,0 -0.28125,0.109375 -0.28125,0.265625 0,0.109375 0.046875,0.203125 0.203125,0.296875 0.140625,0.078125 0.1875,0.140625 0.1875,0.25 0,0.296875 -0.265625,0.859375 -0.890625,1.90625 L 1.796875,-1.390625 C 1.6875,-2.03125 1.28125,-3.25 1.171875,-3.25 h -0.03125 c -0.015625,0 -0.046875,0 -0.078125,0 C 1,-3.234375 0.734375,-3.1875 0.34375,-3.125 0.3125,-3.109375 0.21875,-3.09375 0.109375,-3.078125 Z m 0,0"
               id="path4626" />
          </symbol>
        </g>
      </defs>
      <g
         id="textext-44053d3f-5">
        <g
           style="fill:#000000;fill-opacity:1"
           id="g4629">
          <use
             height="760.16541"
             width="1012.8423"
             xlink:href="#textext-44053d3f-1"
             x="223.43201"
             y="134.765"
             id="use4631" />
        </g>
        <g
           style="fill:#000000;fill-opacity:1"
           id="g4633">
          <use
             height="760.16541"
             width="1012.8423"
             xlink:href="#textext-44053d3f-3"
             x="227.806"
             y="136.259"
             id="use4635" />
        </g>
        <g
           style="fill:#000000;fill-opacity:1"
           id="g4637">
          <use
             height="760.16541"
             width="1012.8423"
             xlink:href="#textext-44053d3f-4"
             x="231.10143"
             y="136.259"
             id="use4639" />
        </g>
      </g>
    </g>
    <path
       sodipodi:nodetypes="cc"
       inkscape:connector-curvature="0"
       id="path4952"
       d="m 1452.1981,-425.38114 42.6068,-30.21982"
       style="color:#000000;display:inline;overflow:visible;visibility:visible;fill:none;stroke:#000000;stroke-width:2.38963652;stroke-linecap:round;stroke-linejoin:round;stroke-miterlimit:4;stroke-dasharray:none;stroke-dashoffset:0;stroke-opacity:1;marker:none;enable-background:accumulate" />
    <g
       id="g5072"
       transform="matrix(3.8234186,0,0,3.8234186,992.56081,-1268.198)"
       ns0:preamble="/data/Classes/PhysicsForGeoscientists/Book/Figures/preamble.tex"
       ns0:text="$\n\\tau_{xz}\n$">
      <defs
         id="defs5074">
        <g
           id="g5076">
          <symbol
             id="textext-4a5c43f5-0"
             overflow="visible"
             style="overflow:visible">
            <path
               id="path5079"
               d=""
               style="stroke:none"
               inkscape:connector-curvature="0" />
          </symbol>
          <symbol
             id="textext-4a5c43f5-1"
             overflow="visible"
             style="overflow:visible">
            <path
               id="path5082"
               d="M 0.359375,-3.078125 C 0.46875,-3.375 0.59375,-3.625 0.75,-3.8125 0.890625,-3.984375 1.015625,-4.03125 1.28125,-4.03125 h 0.734375 c -0.15625,1.09375 -0.21875,1.84375 -0.21875,2.453125 0,1.0625 0.375,1.703125 1,1.703125 C 3.1875,0.125 3.59375,-0.15625 3.75,-0.5625 3.875,-0.859375 3.90625,-1.140625 3.921875,-1.609375 h -0.25 C 3.59375,-1.03125 3.453125,-0.84375 3.15625,-0.84375 2.71875,-0.84375 2.375,-1.25 2.375,-1.796875 c 0,-0.15625 0.015625,-0.46875 0.046875,-0.8125 C 2.4375,-2.71875 2.453125,-3.015625 2.46875,-3.328125 2.5,-3.703125 2.5,-3.8125 2.53125,-4.03125 H 4.171875 V -4.984375 H 1.90625 c -0.515625,0 -0.828125,0.125 -1.15625,0.484375 -0.3125,0.34375 -0.484375,0.71875 -0.65625,1.421875 z m 0,0"
               style="stroke:none"
               inkscape:connector-curvature="0" />
          </symbol>
          <symbol
             id="textext-4a5c43f5-2"
             overflow="visible"
             style="overflow:visible">
            <path
               id="path5085"
               d=""
               style="stroke:none"
               inkscape:connector-curvature="0" />
          </symbol>
          <symbol
             id="textext-4a5c43f5-3"
             overflow="visible"
             style="overflow:visible">
            <path
               id="path5088"
               d="M 2.96875,-0.8125 C 2.90625,-0.75 2.875,-0.703125 2.796875,-0.625 c -0.15625,0.234375 -0.25,0.296875 -0.328125,0.296875 -0.109375,0 -0.1875,-0.09375 -0.234375,-0.296875 C 2.21875,-0.6875 2.21875,-0.734375 2.203125,-0.75 2.015625,-1.5 1.9375,-1.84375 1.9375,-1.953125 c 0.328125,-0.5625 0.59375,-0.890625 0.71875,-0.890625 0.046875,0 0.109375,0.03125 0.1875,0.0625 0.078125,0.046875 0.140625,0.0625 0.1875,0.0625 0.15625,0 0.265625,-0.109375 0.265625,-0.265625 C 3.296875,-3.140625 3.171875,-3.25 3,-3.25 c -0.328125,0 -0.609375,0.265625 -1.125,1.046875 L 1.796875,-2.609375 C 1.703125,-3.109375 1.609375,-3.25 1.421875,-3.25 1.25,-3.25 1,-3.1875 0.546875,-3.03125 L 0.46875,-3.015625 0.5,-2.890625 c 0.28125,-0.078125 0.34375,-0.09375 0.421875,-0.09375 0.171875,0 0.21875,0.078125 0.328125,0.515625 l 0.203125,0.90625 -0.59375,0.859375 c -0.15625,0.21875 -0.296875,0.359375 -0.375,0.359375 -0.046875,0 -0.125,-0.03125 -0.203125,-0.0625 -0.09375,-0.0625 -0.171875,-0.078125 -0.234375,-0.078125 -0.140625,0 -0.25,0.109375 -0.25,0.25 0,0.203125 0.15625,0.3125 0.375,0.3125 0.21875,0 0.3125,-0.0625 0.6875,-0.515625 0.1875,-0.234375 0.34375,-0.4375 0.65625,-0.859375 l 0.21875,0.890625 c 0.109375,0.375 0.203125,0.484375 0.4375,0.484375 0.28125,0 0.46875,-0.171875 0.890625,-0.84375 z m 0,0"
               style="stroke:none"
               inkscape:connector-curvature="0" />
          </symbol>
          <symbol
             id="textext-4a5c43f5-4"
             overflow="visible"
             style="overflow:visible">
            <path
               id="path5091"
               d="m 0.59375,-2.28125 c 0.15625,-0.359375 0.25,-0.4375 0.59375,-0.4375 h 1.078125 l -2.28125,2.75 0.0625,0.0625 c 0.125,-0.09375 0.21875,-0.125 0.34375,-0.125 0.171875,0 0.421875,0.09375 0.765625,0.296875 0.375,0.234375 0.625,0.328125 0.828125,0.328125 0.375,0 0.6875,-0.265625 0.6875,-0.5625 0,-0.15625 -0.09375,-0.265625 -0.25,-0.265625 -0.15625,0 -0.25,0.109375 -0.25,0.234375 0,0.0625 0.015625,0.140625 0.0625,0.21875 0.015625,0.046875 0.03125,0.09375 0.03125,0.109375 0,0.0625 -0.078125,0.109375 -0.1875,0.109375 -0.1875,0 -0.28125,-0.046875 -0.515625,-0.359375 C 1.234375,-0.34375 1.09375,-0.4375 0.65625,-0.53125 L 2.796875,-3.078125 V -3.15625 h -2.09375 l -0.21875,0.84375 z m 0,0"
               style="stroke:none"
               inkscape:connector-curvature="0" />
          </symbol>
        </g>
      </defs>
      <g
         id="textext-4a5c43f5-5">
        <g
           id="g5094"
           style="fill:#000000;fill-opacity:1">
          <use
             id="use5096"
             y="134.765"
             x="223.43201"
             xlink:href="#textext-4a5c43f5-1"
             width="1012.8423"
             height="760.16541" />
        </g>
        <g
           id="g5098"
           style="fill:#000000;fill-opacity:1">
          <use
             id="use5100"
             y="136.259"
             x="227.806"
             xlink:href="#textext-4a5c43f5-3"
             width="1012.8423"
             height="760.16541" />
        </g>
        <g
           id="g5102"
           style="fill:#000000;fill-opacity:1">
          <use
             id="use5104"
             y="136.259"
             x="231.10143"
             xlink:href="#textext-4a5c43f5-4"
             width="1012.8423"
             height="760.16541" />
        </g>
      </g>
    </g>
  </g>
</svg>
