<?xml version="1.0" encoding="UTF-8" standalone="no"?>
<!-- Created with Inkscape (http://www.inkscape.org/) -->

<svg
   xmlns:ns0="http://www.iki.fi/pav/software/textext/"
   xmlns:dc="http://purl.org/dc/elements/1.1/"
   xmlns:cc="http://creativecommons.org/ns#"
   xmlns:rdf="http://www.w3.org/1999/02/22-rdf-syntax-ns#"
   xmlns:svg="http://www.w3.org/2000/svg"
   xmlns="http://www.w3.org/2000/svg"
   xmlns:xlink="http://www.w3.org/1999/xlink"
   xmlns:sodipodi="http://sodipodi.sourceforge.net/DTD/sodipodi-0.dtd"
   xmlns:inkscape="http://www.inkscape.org/namespaces/inkscape"
   id="svg2"
   version="1.1"
   inkscape:version="0.92.3 (2405546, 2018-03-11)"
   width="373.43347"
   height="319.97922"
   xml:space="preserve"
   sodipodi:docname="square2b.svg"><sodipodi:namedview
     pagecolor="#ffffff"
     bordercolor="#666666"
     borderopacity="1"
     objecttolerance="10"
     gridtolerance="10"
     guidetolerance="10"
     inkscape:pageopacity="0"
     inkscape:pageshadow="2"
     inkscape:window-width="1920"
     inkscape:window-height="1026"
     id="namedview4"
     showgrid="false"
     showguides="true"
     inkscape:guide-bbox="true"
     inkscape:zoom="10.713196"
     inkscape:cx="167.99323"
     inkscape:cy="149.39317"
     inkscape:window-x="0"
     inkscape:window-y="0"
     inkscape:window-maximized="1"
     inkscape:current-layer="g10"
     fit-margin-top="0"
     fit-margin-left="0"
     fit-margin-right="0"
     fit-margin-bottom="0"><sodipodi:guide
       position="-17.361766,221.03581"
       orientation="-0.70710678,0.70710678"
       id="guide1059"
       inkscape:locked="false" /></sodipodi:namedview><metadata
     id="metadata8"><rdf:RDF><cc:Work
         rdf:about=""><dc:format>image/svg+xml</dc:format><dc:type
           rdf:resource="http://purl.org/dc/dcmitype/StillImage" /><dc:title></dc:title></cc:Work></rdf:RDF></metadata><defs
     id="defs6" /><g
     id="g10"
     inkscape:groupmode="layer"
     inkscape:label="square1"
     transform="matrix(1.25,0,0,-1.25,20.118279,540.03363)"><rect
   transform="matrix(0.8,0,0,-0.8,0,453.60001)"
   y="146.58415"
   x="137.85149"
   height="99.178215"
   width="101.67327"
   id="rect3010"
   style="fill:#878786;fill-opacity:0.61643832;stroke:#000000;stroke-width:1;stroke-linecap:round;stroke-linejoin:round;stroke-miterlimit:4;stroke-dasharray:none;stroke-dashoffset:0;stroke-opacity:1" /><path
   sodipodi:nodetypes="ccccc"
   inkscape:connector-curvature="0"
   id="path3780"
   d="m 52.993496,298.16999 h 51.201124 l -17.543584,4.69983 v -9.35353 l 16.911644,4.53054"
   style="fill:#ff0000;fill-opacity:1;stroke:#ff0000;stroke-width:2.4000001;stroke-linecap:round;stroke-linejoin:round;stroke-miterlimit:4;stroke-dasharray:none;stroke-opacity:1" /><path
   style="fill:#ff0000;fill-opacity:1;stroke:#ff0000;stroke-width:2.4000001;stroke-linecap:round;stroke-linejoin:round;stroke-miterlimit:4;stroke-dasharray:none;stroke-opacity:1"
   d="m 248.90749,298.16999 h -51.20112 l 17.54358,4.69983 v -9.35353 l -16.91164,4.53054"
   id="path3782"
   inkscape:connector-curvature="0"
   sodipodi:nodetypes="ccccc" /><path
   sodipodi:nodetypes="ccccc"
   inkscape:connector-curvature="0"
   id="path3784"
   d="m 150.47455,393.655 v -51.20112 l -4.69983,17.54358 h 9.35352 l -4.53053,-16.91164"
   style="fill:#000000;fill-opacity:1;stroke:#000000;stroke-width:2.4000001;stroke-linecap:round;stroke-linejoin:round;stroke-miterlimit:4;stroke-dasharray:none;stroke-opacity:1" /><path
   style="fill:#000000;fill-opacity:1;stroke:#000000;stroke-width:2.4000001;stroke-linecap:round;stroke-linejoin:round;stroke-miterlimit:4;stroke-dasharray:none;stroke-opacity:1"
   d="m 150.47455,200.73507 v 51.20112 l -4.69983,-17.54358 h 9.35352 l -4.53053,16.91164"
   id="path3786"
   inkscape:connector-curvature="0"
   sodipodi:nodetypes="ccccc" /><path
   sodipodi:nodetypes="ccccc"
   inkscape:connector-curvature="0"
   id="path3788"
   d="M 194.54756,321.45812 V 270.257 l 0.41502,17.66833 4.23867,-0.12475 -4.53053,-16.91164"
   style="fill:#000000;fill-opacity:1;stroke:#000000;stroke-width:2.4000001;stroke-linecap:round;stroke-linejoin:round;stroke-miterlimit:4;stroke-dasharray:none;stroke-opacity:1" /><path
   style="fill:#ff0000;fill-opacity:1;stroke:#ff0000;stroke-width:2.4000001;stroke-linecap:round;stroke-linejoin:round;stroke-miterlimit:4;stroke-dasharray:none;stroke-opacity:1"
   d="m 175.79211,339.23078 h -51.20112 l 17.66834,0.41502 -0.12475,4.23867 -16.91164,-4.53053"
   id="path3790"
   inkscape:connector-curvature="0"
   sodipodi:nodetypes="ccccc" /><path
   sodipodi:nodetypes="ccccc"
   inkscape:connector-curvature="0"
   id="path3792"
   d="m 124.59099,254.31824 h 51.20112 l -17.66834,-0.41502 0.12475,-4.23867 16.91164,4.53053"
   style="fill:#ff0000;fill-opacity:1;stroke:#ff0000;stroke-width:2.4000001;stroke-linecap:round;stroke-linejoin:round;stroke-miterlimit:4;stroke-dasharray:none;stroke-opacity:1" /><path
   style="fill:#000000;fill-opacity:1;stroke:#000000;stroke-width:2.4000001;stroke-linecap:round;stroke-linejoin:round;stroke-miterlimit:4;stroke-dasharray:none;stroke-opacity:1"
   d="m 106.81834,270.257 v 51.20112 l -0.41502,-17.66833 -4.23867,0.12475 4.53053,16.91164"
   id="path3794"
   inkscape:connector-curvature="0"
   sodipodi:nodetypes="ccccc" /><g
   id="g3802"
   transform="translate(187.0758,33.080477)"><path
     style="fill:#000000;fill-opacity:1;stroke:#000000;stroke-width:1px;stroke-linecap:round;stroke-linejoin:round;stroke-opacity:1"
     d="M 33.90241,159.38265 V 93.154691 l -2.506124,9.352979 h 5.071817 l -2.559114,-9.389804"
     id="path3798"
     inkscape:connector-curvature="0"
     transform="matrix(0.8,0,0,-0.8,0,453.60001)"
     sodipodi:nodetypes="ccccc" /><path
     sodipodi:nodetypes="ccccc"
     inkscape:connector-curvature="0"
     id="path3800"
     d="m 27.078466,325.97476 h 52.982367 l -7.482383,2.0049 v -4.05745 l 7.511843,2.04729"
     style="fill:#000000;fill-opacity:1;stroke:#000000;stroke-width:0.80000001px;stroke-linecap:round;stroke-linejoin:round;stroke-opacity:1" /></g><text
   xml:space="preserve"
   style="font-style:normal;font-variant:normal;font-weight:normal;font-stretch:normal;line-height:0%;font-family:serif;-inkscape-font-specification:Serif;text-align:start;letter-spacing:0px;word-spacing:0px;writing-mode:lr-tb;text-anchor:start;fill:#000000;fill-opacity:1;stroke:none"
   x="272.05841"
   y="-354.75961"
   id="text4073"
   transform="scale(1,-1)"><tspan
     sodipodi:role="line"
     id="tspan4075"
     x="272.05841"
     y="-354.75961"
     style="font-size:19.20000076px;line-height:1.25;font-family:serif">x</tspan></text>



<text
   xml:space="preserve"
   style="font-style:normal;font-variant:normal;font-weight:normal;font-stretch:normal;line-height:0%;font-family:serif;-inkscape-font-specification:Serif;text-align:start;letter-spacing:0px;word-spacing:0px;writing-mode:lr-tb;text-anchor:start;fill:#000000;fill-opacity:1;stroke:none"
   x="211.03064"
   y="-422.06128"
   id="text4077"
   transform="scale(1,-1)"><tspan
     sodipodi:role="line"
     id="tspan4079"
     x="211.03064"
     y="-422.06128"
     style="font-size:19.20000076px;line-height:1.25;font-family:serif">y</tspan></text>



<g
   ns0:text="$$\n\\sigma_{xx}^+\n$$"
   ns0:preamble="/data/Classes/PhysicsForGeoscientists/Book/Figures/preamble.tex"
   transform="matrix(2,0,0,-2,-523.5841,562.46421)"
   id="g4102"><defs
     id="defs4104"><g
       id="g4106"><symbol
         overflow="visible"
         id="textext-b67c5e5a-0"
         style="overflow:visible"><path
           style="stroke:none"
           d=""
           id="path4109"
           inkscape:connector-curvature="0" /></symbol><symbol
         overflow="visible"
         id="textext-b67c5e5a-1"
         style="overflow:visible"><path
           style="stroke:none"
           d="m 5.859375,-4.109375 v -0.875 H 3.59375 c -0.78125,0 -1.328125,0.09375 -1.78125,0.296875 -0.96875,0.4375 -1.515625,1.203125 -1.515625,2.140625 0,0.640625 0.25,1.296875 0.703125,1.8125 C 1.53125,-0.125 2.09375,0.125 2.875,0.125 3.5625,0.125 4.140625,-0.078125 4.59375,-0.484375 5.046875,-0.890625 5.3125,-1.46875 5.3125,-2 c 0,-0.765625 -0.578125,-1.515625 -1.640625,-2.109375 z m -2.65625,0 C 4.0625,-3.234375 4.25,-2.84375 4.25,-2.03125 4.25,-1 3.765625,-0.296875 3.015625,-0.296875 c -0.90625,0 -1.671875,-1.015625 -1.671875,-2.234375 0,-0.953125 0.625,-1.578125 1.5625,-1.578125 z m 0,0"
           id="path4112"
           inkscape:connector-curvature="0" /></symbol><symbol
         overflow="visible"
         id="textext-b67c5e5a-2"
         style="overflow:visible"><path
           style="stroke:none"
           d=""
           id="path4115"
           inkscape:connector-curvature="0" /></symbol><symbol
         overflow="visible"
         id="textext-b67c5e5a-3"
         style="overflow:visible"><path
           style="stroke:none"
           d="m 3.015625,-1.703125 h 2.0625 c 0.09375,0 0.234375,0 0.234375,-0.140625 0,-0.140625 -0.140625,-0.140625 -0.234375,-0.140625 h -2.0625 V -4.0625 c 0,-0.09375 0,-0.234375 -0.140625,-0.234375 -0.15625,0 -0.15625,0.140625 -0.15625,0.234375 v 2.078125 h -2.0625 c -0.109375,0 -0.25,0 -0.25,0.140625 0,0.140625 0.140625,0.140625 0.25,0.140625 h 2.0625 V 0.375 c 0,0.09375 0,0.234375 0.15625,0.234375 0.140625,0 0.140625,-0.140625 0.140625,-0.234375 z m 0,0"
           id="path4118"
           inkscape:connector-curvature="0" /></symbol><symbol
         overflow="visible"
         id="textext-b67c5e5a-4"
         style="overflow:visible"><path
           style="stroke:none"
           d=""
           id="path4121"
           inkscape:connector-curvature="0" /></symbol><symbol
         overflow="visible"
         id="textext-b67c5e5a-5"
         style="overflow:visible"><path
           style="stroke:none"
           d="M 2.96875,-0.8125 C 2.90625,-0.75 2.875,-0.703125 2.796875,-0.625 c -0.15625,0.234375 -0.25,0.296875 -0.328125,0.296875 -0.109375,0 -0.1875,-0.09375 -0.234375,-0.296875 C 2.21875,-0.6875 2.21875,-0.734375 2.203125,-0.75 2.015625,-1.5 1.9375,-1.84375 1.9375,-1.953125 c 0.328125,-0.5625 0.59375,-0.890625 0.71875,-0.890625 0.046875,0 0.109375,0.03125 0.1875,0.0625 0.078125,0.046875 0.140625,0.0625 0.1875,0.0625 0.15625,0 0.265625,-0.109375 0.265625,-0.265625 C 3.296875,-3.140625 3.171875,-3.25 3,-3.25 c -0.328125,0 -0.609375,0.265625 -1.125,1.046875 L 1.796875,-2.609375 C 1.703125,-3.109375 1.609375,-3.25 1.421875,-3.25 1.25,-3.25 1,-3.1875 0.546875,-3.03125 L 0.46875,-3.015625 0.5,-2.890625 c 0.28125,-0.078125 0.34375,-0.09375 0.421875,-0.09375 0.171875,0 0.21875,0.078125 0.328125,0.515625 l 0.203125,0.90625 -0.59375,0.859375 c -0.15625,0.21875 -0.296875,0.359375 -0.375,0.359375 -0.046875,0 -0.125,-0.03125 -0.203125,-0.0625 -0.09375,-0.0625 -0.171875,-0.078125 -0.234375,-0.078125 -0.140625,0 -0.25,0.109375 -0.25,0.25 0,0.203125 0.15625,0.3125 0.375,0.3125 0.21875,0 0.3125,-0.0625 0.6875,-0.515625 0.1875,-0.234375 0.34375,-0.4375 0.65625,-0.859375 l 0.21875,0.890625 c 0.109375,0.375 0.203125,0.484375 0.4375,0.484375 0.28125,0 0.46875,-0.171875 0.890625,-0.84375 z m 0,0"
           id="path4124"
           inkscape:connector-curvature="0" /></symbol></g></defs><g
     id="textext-b67c5e5a-6"><g
       style="fill:#000000;fill-opacity:1"
       id="g4127"><use
         xlink:href="#textext-b67c5e5a-1"
         x="388.73999"
         y="134.765"
         id="use4129"
         width="727.69305"
         height="567" /></g><g
       style="fill:#000000;fill-opacity:1"
       id="g4131"><use
         xlink:href="#textext-b67c5e5a-3"
         x="394.74701"
         y="130.64999"
         id="use4133"
         width="727.69305"
         height="567" /></g><g
       style="fill:#000000;fill-opacity:1"
       id="g4135"><use
         xlink:href="#textext-b67c5e5a-5"
         x="394.74701"
         y="137.226"
         id="use4137"
         width="727.69305"
         height="567" /></g><g
       style="fill:#000000;fill-opacity:1"
       id="g4139"><use
         xlink:href="#textext-b67c5e5a-5"
         x="398.04242"
         y="137.226"
         id="use4141"
         width="727.69305"
         height="567" /></g></g></g><g
   id="g4279"
   transform="matrix(2,0,0,-2,-751.15497,563.60492)"
   ns0:preamble="/data/Classes/PhysicsForGeoscientists/Book/Figures/preamble.tex"
   ns0:text="$$\n\\sigma_{xx}^-\n$$"><defs
     id="defs4281"><g
       id="g4283"><symbol
         id="textext-903f4a7e-0"
         overflow="visible"
         style="overflow:visible"><path
           id="path4286"
           d=""
           style="stroke:none"
           inkscape:connector-curvature="0" /></symbol><symbol
         id="textext-903f4a7e-1"
         overflow="visible"
         style="overflow:visible"><path
           id="path4289"
           d="m 5.859375,-4.109375 v -0.875 H 3.59375 c -0.78125,0 -1.328125,0.09375 -1.78125,0.296875 -0.96875,0.4375 -1.515625,1.203125 -1.515625,2.140625 0,0.640625 0.25,1.296875 0.703125,1.8125 C 1.53125,-0.125 2.09375,0.125 2.875,0.125 3.5625,0.125 4.140625,-0.078125 4.59375,-0.484375 5.046875,-0.890625 5.3125,-1.46875 5.3125,-2 c 0,-0.765625 -0.578125,-1.515625 -1.640625,-2.109375 z m -2.65625,0 C 4.0625,-3.234375 4.25,-2.84375 4.25,-2.03125 4.25,-1 3.765625,-0.296875 3.015625,-0.296875 c -0.90625,0 -1.671875,-1.015625 -1.671875,-2.234375 0,-0.953125 0.625,-1.578125 1.5625,-1.578125 z m 0,0"
           style="stroke:none"
           inkscape:connector-curvature="0" /></symbol><symbol
         id="textext-903f4a7e-2"
         overflow="visible"
         style="overflow:visible"><path
           id="path4292"
           d=""
           style="stroke:none"
           inkscape:connector-curvature="0" /></symbol><symbol
         id="textext-903f4a7e-3"
         overflow="visible"
         style="overflow:visible"><path
           id="path4295"
           d="m 4.859375,-1.703125 c 0.125,0 0.265625,0 0.265625,-0.140625 0,-0.140625 -0.140625,-0.140625 -0.265625,-0.140625 H 0.875 c -0.125,0 -0.265625,0 -0.265625,0.140625 0,0.140625 0.140625,0.140625 0.265625,0.140625 z m 0,0"
           style="stroke:none"
           inkscape:connector-curvature="0" /></symbol><symbol
         id="textext-903f4a7e-4"
         overflow="visible"
         style="overflow:visible"><path
           id="path4298"
           d=""
           style="stroke:none"
           inkscape:connector-curvature="0" /></symbol><symbol
         id="textext-903f4a7e-5"
         overflow="visible"
         style="overflow:visible"><path
           id="path4301"
           d="M 2.96875,-0.8125 C 2.90625,-0.75 2.875,-0.703125 2.796875,-0.625 c -0.15625,0.234375 -0.25,0.296875 -0.328125,0.296875 -0.109375,0 -0.1875,-0.09375 -0.234375,-0.296875 C 2.21875,-0.6875 2.21875,-0.734375 2.203125,-0.75 2.015625,-1.5 1.9375,-1.84375 1.9375,-1.953125 c 0.328125,-0.5625 0.59375,-0.890625 0.71875,-0.890625 0.046875,0 0.109375,0.03125 0.1875,0.0625 0.078125,0.046875 0.140625,0.0625 0.1875,0.0625 0.15625,0 0.265625,-0.109375 0.265625,-0.265625 C 3.296875,-3.140625 3.171875,-3.25 3,-3.25 c -0.328125,0 -0.609375,0.265625 -1.125,1.046875 L 1.796875,-2.609375 C 1.703125,-3.109375 1.609375,-3.25 1.421875,-3.25 1.25,-3.25 1,-3.1875 0.546875,-3.03125 L 0.46875,-3.015625 0.5,-2.890625 c 0.28125,-0.078125 0.34375,-0.09375 0.421875,-0.09375 0.171875,0 0.21875,0.078125 0.328125,0.515625 l 0.203125,0.90625 -0.59375,0.859375 c -0.15625,0.21875 -0.296875,0.359375 -0.375,0.359375 -0.046875,0 -0.125,-0.03125 -0.203125,-0.0625 -0.09375,-0.0625 -0.171875,-0.078125 -0.234375,-0.078125 -0.140625,0 -0.25,0.109375 -0.25,0.25 0,0.203125 0.15625,0.3125 0.375,0.3125 0.21875,0 0.3125,-0.0625 0.6875,-0.515625 0.1875,-0.234375 0.34375,-0.4375 0.65625,-0.859375 l 0.21875,0.890625 c 0.109375,0.375 0.203125,0.484375 0.4375,0.484375 0.28125,0 0.46875,-0.171875 0.890625,-0.84375 z m 0,0"
           style="stroke:none"
           inkscape:connector-curvature="0" /></symbol></g></defs><g
     id="textext-903f4a7e-6"><g
       id="g4304"
       style="fill:#000000;fill-opacity:1"><use
         id="use4306"
         y="134.765"
         x="388.73999"
         xlink:href="#textext-903f4a7e-1"
         width="727.69305"
         height="567" /></g><g
       id="g4308"
       style="fill:#000000;fill-opacity:1"><use
         id="use4310"
         y="130.64999"
         x="394.74701"
         xlink:href="#textext-903f4a7e-3"
         width="727.69305"
         height="567" /></g><g
       id="g4312"
       style="fill:#000000;fill-opacity:1"><use
         id="use4314"
         y="137.226"
         x="394.74701"
         xlink:href="#textext-903f4a7e-5"
         width="727.69305"
         height="567" /></g><g
       id="g4316"
       style="fill:#000000;fill-opacity:1"><use
         id="use4318"
         y="137.226"
         x="398.04242"
         xlink:href="#textext-903f4a7e-5"
         width="727.69305"
         height="567" /></g></g></g><g
   ns0:text="$$\n\\sigma_{yy}^+\n$$"
   ns0:preamble="/data/Classes/PhysicsForGeoscientists/Book/Figures/preamble.tex"
   transform="matrix(2,0,0,-2,-638.22506,673.11271)"
   id="g4504"><defs
     id="defs4506"><g
       id="g4508"><symbol
         overflow="visible"
         id="textext-1822269d-0"
         style="overflow:visible"><path
           style="stroke:none"
           d=""
           id="path4511"
           inkscape:connector-curvature="0" /></symbol><symbol
         overflow="visible"
         id="textext-1822269d-1"
         style="overflow:visible"><path
           style="stroke:none"
           d="m 5.859375,-4.109375 v -0.875 H 3.59375 c -0.78125,0 -1.328125,0.09375 -1.78125,0.296875 -0.96875,0.4375 -1.515625,1.203125 -1.515625,2.140625 0,0.640625 0.25,1.296875 0.703125,1.8125 C 1.53125,-0.125 2.09375,0.125 2.875,0.125 3.5625,0.125 4.140625,-0.078125 4.59375,-0.484375 5.046875,-0.890625 5.3125,-1.46875 5.3125,-2 c 0,-0.765625 -0.578125,-1.515625 -1.640625,-2.109375 z m -2.65625,0 C 4.0625,-3.234375 4.25,-2.84375 4.25,-2.03125 4.25,-1 3.765625,-0.296875 3.015625,-0.296875 c -0.90625,0 -1.671875,-1.015625 -1.671875,-2.234375 0,-0.953125 0.625,-1.578125 1.5625,-1.578125 z m 0,0"
           id="path4514"
           inkscape:connector-curvature="0" /></symbol><symbol
         overflow="visible"
         id="textext-1822269d-2"
         style="overflow:visible"><path
           style="stroke:none"
           d=""
           id="path4517"
           inkscape:connector-curvature="0" /></symbol><symbol
         overflow="visible"
         id="textext-1822269d-3"
         style="overflow:visible"><path
           style="stroke:none"
           d="m 3.015625,-1.703125 h 2.0625 c 0.09375,0 0.234375,0 0.234375,-0.140625 0,-0.140625 -0.140625,-0.140625 -0.234375,-0.140625 h -2.0625 V -4.0625 c 0,-0.09375 0,-0.234375 -0.140625,-0.234375 -0.15625,0 -0.15625,0.140625 -0.15625,0.234375 v 2.078125 h -2.0625 c -0.109375,0 -0.25,0 -0.25,0.140625 0,0.140625 0.140625,0.140625 0.25,0.140625 h 2.0625 V 0.375 c 0,0.09375 0,0.234375 0.15625,0.234375 0.140625,0 0.140625,-0.140625 0.140625,-0.234375 z m 0,0"
           id="path4520"
           inkscape:connector-curvature="0" /></symbol><symbol
         overflow="visible"
         id="textext-1822269d-4"
         style="overflow:visible"><path
           style="stroke:none"
           d=""
           id="path4523"
           inkscape:connector-curvature="0" /></symbol><symbol
         overflow="visible"
         id="textext-1822269d-5"
         style="overflow:visible"><path
           style="stroke:none"
           d="m 0.109375,-2.953125 c 0.09375,-0.015625 0.15625,-0.03125 0.234375,-0.03125 0.421875,0 0.53125,0.1875 0.859375,1.453125 0.125,0.484375 0.3125,1.34375 0.3125,1.46875 0,0.125 -0.046875,0.234375 -0.15625,0.375 C 1.125,0.609375 0.984375,0.796875 0.90625,0.890625 0.75,1.046875 0.65625,1.109375 0.5625,1.109375 0.515625,1.109375 0.46875,1.09375 0.390625,1.03125 0.265625,0.9375 0.1875,0.90625 0.109375,0.90625 c -0.15625,0 -0.28125,0.125 -0.28125,0.28125 0,0.1875 0.15625,0.328125 0.375,0.328125 0.46875,0 1.4375,-1.109375 2.234375,-2.5625 0.5,-0.90625 0.703125,-1.4375 0.703125,-1.796875 0,-0.21875 -0.1875,-0.40625 -0.40625,-0.40625 -0.171875,0 -0.28125,0.109375 -0.28125,0.265625 0,0.109375 0.046875,0.203125 0.203125,0.296875 0.140625,0.078125 0.1875,0.140625 0.1875,0.25 0,0.296875 -0.265625,0.859375 -0.890625,1.90625 L 1.796875,-1.390625 C 1.6875,-2.03125 1.28125,-3.25 1.171875,-3.25 h -0.03125 c -0.015625,0 -0.046875,0 -0.078125,0 C 1,-3.234375 0.734375,-3.1875 0.34375,-3.125 0.3125,-3.109375 0.21875,-3.09375 0.109375,-3.078125 Z m 0,0"
           id="path4526"
           inkscape:connector-curvature="0" /></symbol></g></defs><g
     id="textext-1822269d-6"><g
       style="fill:#000000;fill-opacity:1"
       id="g4529"><use
         xlink:href="#textext-1822269d-1"
         x="388.76199"
         y="134.765"
         id="use4531"
         width="727.69305"
         height="567" /></g><g
       style="fill:#000000;fill-opacity:1"
       id="g4533"><use
         xlink:href="#textext-1822269d-3"
         x="394.76901"
         y="130.64999"
         id="use4535"
         width="727.69305"
         height="567" /></g><g
       style="fill:#000000;fill-opacity:1"
       id="g4537"><use
         xlink:href="#textext-1822269d-5"
         x="394.76901"
         y="137.226"
         id="use4539"
         width="727.69305"
         height="567" /><use
         xlink:href="#textext-1822269d-5"
         x="398.0423"
         y="137.226"
         id="use4541"
         width="727.69305"
         height="567" /></g></g></g><g
   id="g4771"
   transform="matrix(2,0,0,-2,-638.79541,453.52678)"
   ns0:preamble="/data/Classes/PhysicsForGeoscientists/Book/Figures/preamble.tex"
   ns0:text="$$\n\\sigma_{yy}^-\n$$"><defs
     id="defs4773"><g
       id="g4775"><symbol
         id="textext-167525d9-0"
         overflow="visible"
         style="overflow:visible"><path
           id="path4778"
           d=""
           style="stroke:none"
           inkscape:connector-curvature="0" /></symbol><symbol
         id="textext-167525d9-1"
         overflow="visible"
         style="overflow:visible"><path
           id="path4781"
           d="m 5.859375,-4.109375 v -0.875 H 3.59375 c -0.78125,0 -1.328125,0.09375 -1.78125,0.296875 -0.96875,0.4375 -1.515625,1.203125 -1.515625,2.140625 0,0.640625 0.25,1.296875 0.703125,1.8125 C 1.53125,-0.125 2.09375,0.125 2.875,0.125 3.5625,0.125 4.140625,-0.078125 4.59375,-0.484375 5.046875,-0.890625 5.3125,-1.46875 5.3125,-2 c 0,-0.765625 -0.578125,-1.515625 -1.640625,-2.109375 z m -2.65625,0 C 4.0625,-3.234375 4.25,-2.84375 4.25,-2.03125 4.25,-1 3.765625,-0.296875 3.015625,-0.296875 c -0.90625,0 -1.671875,-1.015625 -1.671875,-2.234375 0,-0.953125 0.625,-1.578125 1.5625,-1.578125 z m 0,0"
           style="stroke:none"
           inkscape:connector-curvature="0" /></symbol><symbol
         id="textext-167525d9-2"
         overflow="visible"
         style="overflow:visible"><path
           id="path4784"
           d=""
           style="stroke:none"
           inkscape:connector-curvature="0" /></symbol><symbol
         id="textext-167525d9-3"
         overflow="visible"
         style="overflow:visible"><path
           id="path4787"
           d="m 4.859375,-1.703125 c 0.125,0 0.265625,0 0.265625,-0.140625 0,-0.140625 -0.140625,-0.140625 -0.265625,-0.140625 H 0.875 c -0.125,0 -0.265625,0 -0.265625,0.140625 0,0.140625 0.140625,0.140625 0.265625,0.140625 z m 0,0"
           style="stroke:none"
           inkscape:connector-curvature="0" /></symbol><symbol
         id="textext-167525d9-4"
         overflow="visible"
         style="overflow:visible"><path
           id="path4790"
           d=""
           style="stroke:none"
           inkscape:connector-curvature="0" /></symbol><symbol
         id="textext-167525d9-5"
         overflow="visible"
         style="overflow:visible"><path
           id="path4793"
           d="m 0.109375,-2.953125 c 0.09375,-0.015625 0.15625,-0.03125 0.234375,-0.03125 0.421875,0 0.53125,0.1875 0.859375,1.453125 0.125,0.484375 0.3125,1.34375 0.3125,1.46875 0,0.125 -0.046875,0.234375 -0.15625,0.375 C 1.125,0.609375 0.984375,0.796875 0.90625,0.890625 0.75,1.046875 0.65625,1.109375 0.5625,1.109375 0.515625,1.109375 0.46875,1.09375 0.390625,1.03125 0.265625,0.9375 0.1875,0.90625 0.109375,0.90625 c -0.15625,0 -0.28125,0.125 -0.28125,0.28125 0,0.1875 0.15625,0.328125 0.375,0.328125 0.46875,0 1.4375,-1.109375 2.234375,-2.5625 0.5,-0.90625 0.703125,-1.4375 0.703125,-1.796875 0,-0.21875 -0.1875,-0.40625 -0.40625,-0.40625 -0.171875,0 -0.28125,0.109375 -0.28125,0.265625 0,0.109375 0.046875,0.203125 0.203125,0.296875 0.140625,0.078125 0.1875,0.140625 0.1875,0.25 0,0.296875 -0.265625,0.859375 -0.890625,1.90625 L 1.796875,-1.390625 C 1.6875,-2.03125 1.28125,-3.25 1.171875,-3.25 h -0.03125 c -0.015625,0 -0.046875,0 -0.078125,0 C 1,-3.234375 0.734375,-3.1875 0.34375,-3.125 0.3125,-3.109375 0.21875,-3.09375 0.109375,-3.078125 Z m 0,0"
           style="stroke:none"
           inkscape:connector-curvature="0" /></symbol></g></defs><g
     id="textext-167525d9-6"><g
       id="g4796"
       style="fill:#000000;fill-opacity:1"><use
         id="use4798"
         y="134.765"
         x="388.76199"
         xlink:href="#textext-167525d9-1"
         width="727.69305"
         height="567" /></g><g
       id="g4800"
       style="fill:#000000;fill-opacity:1"><use
         id="use4802"
         y="130.64999"
         x="394.76901"
         xlink:href="#textext-167525d9-3"
         width="727.69305"
         height="567" /></g><g
       id="g4804"
       style="fill:#000000;fill-opacity:1"><use
         id="use4806"
         y="137.226"
         x="394.76901"
         xlink:href="#textext-167525d9-5"
         width="727.69305"
         height="567" /><use
         id="use4808"
         y="137.226"
         x="398.0423"
         xlink:href="#textext-167525d9-5"
         width="727.69305"
         height="567" /></g></g></g><g
   ns0:text="$$\n\\sigma_{xy}^+\n$$"
   ns0:preamble="/data/Classes/PhysicsForGeoscientists/Book/Figures/preamble.tex"
   transform="matrix(2,0,0,-2,-577.76764,535.65761)"
   id="g5086"><defs
     id="defs5088"><g
       id="g5090"><symbol
         overflow="visible"
         id="textext-8de8f572-0"
         style="overflow:visible"><path
           style="stroke:none"
           d=""
           id="path5093"
           inkscape:connector-curvature="0" /></symbol><symbol
         overflow="visible"
         id="textext-8de8f572-1"
         style="overflow:visible"><path
           style="stroke:none"
           d="m 5.859375,-4.109375 v -0.875 H 3.59375 c -0.78125,0 -1.328125,0.09375 -1.78125,0.296875 -0.96875,0.4375 -1.515625,1.203125 -1.515625,2.140625 0,0.640625 0.25,1.296875 0.703125,1.8125 C 1.53125,-0.125 2.09375,0.125 2.875,0.125 3.5625,0.125 4.140625,-0.078125 4.59375,-0.484375 5.046875,-0.890625 5.3125,-1.46875 5.3125,-2 c 0,-0.765625 -0.578125,-1.515625 -1.640625,-2.109375 z m -2.65625,0 C 4.0625,-3.234375 4.25,-2.84375 4.25,-2.03125 4.25,-1 3.765625,-0.296875 3.015625,-0.296875 c -0.90625,0 -1.671875,-1.015625 -1.671875,-2.234375 0,-0.953125 0.625,-1.578125 1.5625,-1.578125 z m 0,0"
           id="path5096"
           inkscape:connector-curvature="0" /></symbol><symbol
         overflow="visible"
         id="textext-8de8f572-2"
         style="overflow:visible"><path
           style="stroke:none"
           d=""
           id="path5099"
           inkscape:connector-curvature="0" /></symbol><symbol
         overflow="visible"
         id="textext-8de8f572-3"
         style="overflow:visible"><path
           style="stroke:none"
           d="m 3.015625,-1.703125 h 2.0625 c 0.09375,0 0.234375,0 0.234375,-0.140625 0,-0.140625 -0.140625,-0.140625 -0.234375,-0.140625 h -2.0625 V -4.0625 c 0,-0.09375 0,-0.234375 -0.140625,-0.234375 -0.15625,0 -0.15625,0.140625 -0.15625,0.234375 v 2.078125 h -2.0625 c -0.109375,0 -0.25,0 -0.25,0.140625 0,0.140625 0.140625,0.140625 0.25,0.140625 h 2.0625 V 0.375 c 0,0.09375 0,0.234375 0.15625,0.234375 0.140625,0 0.140625,-0.140625 0.140625,-0.234375 z m 0,0"
           id="path5102"
           inkscape:connector-curvature="0" /></symbol><symbol
         overflow="visible"
         id="textext-8de8f572-4"
         style="overflow:visible"><path
           style="stroke:none"
           d=""
           id="path5105"
           inkscape:connector-curvature="0" /></symbol><symbol
         overflow="visible"
         id="textext-8de8f572-5"
         style="overflow:visible"><path
           style="stroke:none"
           d="M 2.96875,-0.8125 C 2.90625,-0.75 2.875,-0.703125 2.796875,-0.625 c -0.15625,0.234375 -0.25,0.296875 -0.328125,0.296875 -0.109375,0 -0.1875,-0.09375 -0.234375,-0.296875 C 2.21875,-0.6875 2.21875,-0.734375 2.203125,-0.75 2.015625,-1.5 1.9375,-1.84375 1.9375,-1.953125 c 0.328125,-0.5625 0.59375,-0.890625 0.71875,-0.890625 0.046875,0 0.109375,0.03125 0.1875,0.0625 0.078125,0.046875 0.140625,0.0625 0.1875,0.0625 0.15625,0 0.265625,-0.109375 0.265625,-0.265625 C 3.296875,-3.140625 3.171875,-3.25 3,-3.25 c -0.328125,0 -0.609375,0.265625 -1.125,1.046875 L 1.796875,-2.609375 C 1.703125,-3.109375 1.609375,-3.25 1.421875,-3.25 1.25,-3.25 1,-3.1875 0.546875,-3.03125 L 0.46875,-3.015625 0.5,-2.890625 c 0.28125,-0.078125 0.34375,-0.09375 0.421875,-0.09375 0.171875,0 0.21875,0.078125 0.328125,0.515625 l 0.203125,0.90625 -0.59375,0.859375 c -0.15625,0.21875 -0.296875,0.359375 -0.375,0.359375 -0.046875,0 -0.125,-0.03125 -0.203125,-0.0625 -0.09375,-0.0625 -0.171875,-0.078125 -0.234375,-0.078125 -0.140625,0 -0.25,0.109375 -0.25,0.25 0,0.203125 0.15625,0.3125 0.375,0.3125 0.21875,0 0.3125,-0.0625 0.6875,-0.515625 0.1875,-0.234375 0.34375,-0.4375 0.65625,-0.859375 l 0.21875,0.890625 c 0.109375,0.375 0.203125,0.484375 0.4375,0.484375 0.28125,0 0.46875,-0.171875 0.890625,-0.84375 z m 0,0"
           id="path5108"
           inkscape:connector-curvature="0" /></symbol><symbol
         overflow="visible"
         id="textext-8de8f572-6"
         style="overflow:visible"><path
           style="stroke:none"
           d="m 0.109375,-2.953125 c 0.09375,-0.015625 0.15625,-0.03125 0.234375,-0.03125 0.421875,0 0.53125,0.1875 0.859375,1.453125 0.125,0.484375 0.3125,1.34375 0.3125,1.46875 0,0.125 -0.046875,0.234375 -0.15625,0.375 C 1.125,0.609375 0.984375,0.796875 0.90625,0.890625 0.75,1.046875 0.65625,1.109375 0.5625,1.109375 0.515625,1.109375 0.46875,1.09375 0.390625,1.03125 0.265625,0.9375 0.1875,0.90625 0.109375,0.90625 c -0.15625,0 -0.28125,0.125 -0.28125,0.28125 0,0.1875 0.15625,0.328125 0.375,0.328125 0.46875,0 1.4375,-1.109375 2.234375,-2.5625 0.5,-0.90625 0.703125,-1.4375 0.703125,-1.796875 0,-0.21875 -0.1875,-0.40625 -0.40625,-0.40625 -0.171875,0 -0.28125,0.109375 -0.28125,0.265625 0,0.109375 0.046875,0.203125 0.203125,0.296875 0.140625,0.078125 0.1875,0.140625 0.1875,0.25 0,0.296875 -0.265625,0.859375 -0.890625,1.90625 L 1.796875,-1.390625 C 1.6875,-2.03125 1.28125,-3.25 1.171875,-3.25 h -0.03125 c -0.015625,0 -0.046875,0 -0.078125,0 C 1,-3.234375 0.734375,-3.1875 0.34375,-3.125 0.3125,-3.109375 0.21875,-3.09375 0.109375,-3.078125 Z m 0,0"
           id="path5111"
           inkscape:connector-curvature="0" /></symbol></g></defs><g
     id="textext-8de8f572-7"><g
       style="fill:#000000;fill-opacity:1"
       id="g5114"><use
         xlink:href="#textext-8de8f572-1"
         x="388.75101"
         y="134.765"
         id="use5116"
         width="727.69305"
         height="567" /></g><g
       style="fill:#000000;fill-opacity:1"
       id="g5118"><use
         xlink:href="#textext-8de8f572-3"
         x="394.758"
         y="130.64999"
         id="use5120"
         width="727.69305"
         height="567" /></g><g
       style="fill:#000000;fill-opacity:1"
       id="g5122"><use
         xlink:href="#textext-8de8f572-5"
         x="394.758"
         y="137.226"
         id="use5124"
         width="727.69305"
         height="567" /></g><g
       style="fill:#000000;fill-opacity:1"
       id="g5126"><use
         xlink:href="#textext-8de8f572-6"
         x="398.05341"
         y="137.226"
         id="use5128"
         width="727.69305"
         height="567" /></g></g></g><g
   id="g5540"
   transform="matrix(2,0,0,-2,-702.1046,592.12256)"
   ns0:preamble="/data/Classes/PhysicsForGeoscientists/Book/Figures/preamble.tex"
   ns0:text="$$\n\\sigma_{xy}^-\n$$"><defs
     id="defs5542"><g
       id="g5544"><symbol
         id="textext-5589a184-0"
         overflow="visible"
         style="overflow:visible"><path
           id="path5547"
           d=""
           style="stroke:none"
           inkscape:connector-curvature="0" /></symbol><symbol
         id="textext-5589a184-1"
         overflow="visible"
         style="overflow:visible"><path
           id="path5550"
           d="m 5.859375,-4.109375 v -0.875 H 3.59375 c -0.78125,0 -1.328125,0.09375 -1.78125,0.296875 -0.96875,0.4375 -1.515625,1.203125 -1.515625,2.140625 0,0.640625 0.25,1.296875 0.703125,1.8125 C 1.53125,-0.125 2.09375,0.125 2.875,0.125 3.5625,0.125 4.140625,-0.078125 4.59375,-0.484375 5.046875,-0.890625 5.3125,-1.46875 5.3125,-2 c 0,-0.765625 -0.578125,-1.515625 -1.640625,-2.109375 z m -2.65625,0 C 4.0625,-3.234375 4.25,-2.84375 4.25,-2.03125 4.25,-1 3.765625,-0.296875 3.015625,-0.296875 c -0.90625,0 -1.671875,-1.015625 -1.671875,-2.234375 0,-0.953125 0.625,-1.578125 1.5625,-1.578125 z m 0,0"
           style="stroke:none"
           inkscape:connector-curvature="0" /></symbol><symbol
         id="textext-5589a184-2"
         overflow="visible"
         style="overflow:visible"><path
           id="path5553"
           d=""
           style="stroke:none"
           inkscape:connector-curvature="0" /></symbol><symbol
         id="textext-5589a184-3"
         overflow="visible"
         style="overflow:visible"><path
           id="path5556"
           d="m 4.859375,-1.703125 c 0.125,0 0.265625,0 0.265625,-0.140625 0,-0.140625 -0.140625,-0.140625 -0.265625,-0.140625 H 0.875 c -0.125,0 -0.265625,0 -0.265625,0.140625 0,0.140625 0.140625,0.140625 0.265625,0.140625 z m 0,0"
           style="stroke:none"
           inkscape:connector-curvature="0" /></symbol><symbol
         id="textext-5589a184-4"
         overflow="visible"
         style="overflow:visible"><path
           id="path5559"
           d=""
           style="stroke:none"
           inkscape:connector-curvature="0" /></symbol><symbol
         id="textext-5589a184-5"
         overflow="visible"
         style="overflow:visible"><path
           id="path5562"
           d="M 2.96875,-0.8125 C 2.90625,-0.75 2.875,-0.703125 2.796875,-0.625 c -0.15625,0.234375 -0.25,0.296875 -0.328125,0.296875 -0.109375,0 -0.1875,-0.09375 -0.234375,-0.296875 C 2.21875,-0.6875 2.21875,-0.734375 2.203125,-0.75 2.015625,-1.5 1.9375,-1.84375 1.9375,-1.953125 c 0.328125,-0.5625 0.59375,-0.890625 0.71875,-0.890625 0.046875,0 0.109375,0.03125 0.1875,0.0625 0.078125,0.046875 0.140625,0.0625 0.1875,0.0625 0.15625,0 0.265625,-0.109375 0.265625,-0.265625 C 3.296875,-3.140625 3.171875,-3.25 3,-3.25 c -0.328125,0 -0.609375,0.265625 -1.125,1.046875 L 1.796875,-2.609375 C 1.703125,-3.109375 1.609375,-3.25 1.421875,-3.25 1.25,-3.25 1,-3.1875 0.546875,-3.03125 L 0.46875,-3.015625 0.5,-2.890625 c 0.28125,-0.078125 0.34375,-0.09375 0.421875,-0.09375 0.171875,0 0.21875,0.078125 0.328125,0.515625 l 0.203125,0.90625 -0.59375,0.859375 c -0.15625,0.21875 -0.296875,0.359375 -0.375,0.359375 -0.046875,0 -0.125,-0.03125 -0.203125,-0.0625 -0.09375,-0.0625 -0.171875,-0.078125 -0.234375,-0.078125 -0.140625,0 -0.25,0.109375 -0.25,0.25 0,0.203125 0.15625,0.3125 0.375,0.3125 0.21875,0 0.3125,-0.0625 0.6875,-0.515625 0.1875,-0.234375 0.34375,-0.4375 0.65625,-0.859375 l 0.21875,0.890625 c 0.109375,0.375 0.203125,0.484375 0.4375,0.484375 0.28125,0 0.46875,-0.171875 0.890625,-0.84375 z m 0,0"
           style="stroke:none"
           inkscape:connector-curvature="0" /></symbol><symbol
         id="textext-5589a184-6"
         overflow="visible"
         style="overflow:visible"><path
           id="path5565"
           d="m 0.109375,-2.953125 c 0.09375,-0.015625 0.15625,-0.03125 0.234375,-0.03125 0.421875,0 0.53125,0.1875 0.859375,1.453125 0.125,0.484375 0.3125,1.34375 0.3125,1.46875 0,0.125 -0.046875,0.234375 -0.15625,0.375 C 1.125,0.609375 0.984375,0.796875 0.90625,0.890625 0.75,1.046875 0.65625,1.109375 0.5625,1.109375 0.515625,1.109375 0.46875,1.09375 0.390625,1.03125 0.265625,0.9375 0.1875,0.90625 0.109375,0.90625 c -0.15625,0 -0.28125,0.125 -0.28125,0.28125 0,0.1875 0.15625,0.328125 0.375,0.328125 0.46875,0 1.4375,-1.109375 2.234375,-2.5625 0.5,-0.90625 0.703125,-1.4375 0.703125,-1.796875 0,-0.21875 -0.1875,-0.40625 -0.40625,-0.40625 -0.171875,0 -0.28125,0.109375 -0.28125,0.265625 0,0.109375 0.046875,0.203125 0.203125,0.296875 0.140625,0.078125 0.1875,0.140625 0.1875,0.25 0,0.296875 -0.265625,0.859375 -0.890625,1.90625 L 1.796875,-1.390625 C 1.6875,-2.03125 1.28125,-3.25 1.171875,-3.25 h -0.03125 c -0.015625,0 -0.046875,0 -0.078125,0 C 1,-3.234375 0.734375,-3.1875 0.34375,-3.125 0.3125,-3.109375 0.21875,-3.09375 0.109375,-3.078125 Z m 0,0"
           style="stroke:none"
           inkscape:connector-curvature="0" /></symbol></g></defs><g
     id="textext-5589a184-7"><g
       id="g5568"
       style="fill:#000000;fill-opacity:1"><use
         id="use5570"
         y="134.765"
         x="388.75101"
         xlink:href="#textext-5589a184-1"
         width="727.69305"
         height="567" /></g><g
       id="g5572"
       style="fill:#000000;fill-opacity:1"><use
         id="use5574"
         y="130.64999"
         x="394.758"
         xlink:href="#textext-5589a184-3"
         width="727.69305"
         height="567" /></g><g
       id="g5576"
       style="fill:#000000;fill-opacity:1"><use
         id="use5578"
         y="137.226"
         x="394.758"
         xlink:href="#textext-5589a184-5"
         width="727.69305"
         height="567" /></g><g
       id="g5580"
       style="fill:#000000;fill-opacity:1"><use
         id="use5582"
         y="137.226"
         x="398.05341"
         xlink:href="#textext-5589a184-6"
         width="727.69305"
         height="567" /></g></g></g><g
   ns0:text="$$\n\\sigma_{yx}^-\n$$"
   ns0:preamble="/data/Classes/PhysicsForGeoscientists/Book/Figures/preamble.tex"
   transform="matrix(2,0,0,-2,-611.41846,505.99925)"
   id="g6020"><defs
     id="defs6022"><g
       id="g6024"><symbol
         overflow="visible"
         id="textext-668addec-0"
         style="overflow:visible"><path
           style="stroke:none"
           d=""
           id="path6027"
           inkscape:connector-curvature="0" /></symbol><symbol
         overflow="visible"
         id="textext-668addec-1"
         style="overflow:visible"><path
           style="stroke:none"
           d="m 5.859375,-4.109375 v -0.875 H 3.59375 c -0.78125,0 -1.328125,0.09375 -1.78125,0.296875 -0.96875,0.4375 -1.515625,1.203125 -1.515625,2.140625 0,0.640625 0.25,1.296875 0.703125,1.8125 C 1.53125,-0.125 2.09375,0.125 2.875,0.125 3.5625,0.125 4.140625,-0.078125 4.59375,-0.484375 5.046875,-0.890625 5.3125,-1.46875 5.3125,-2 c 0,-0.765625 -0.578125,-1.515625 -1.640625,-2.109375 z m -2.65625,0 C 4.0625,-3.234375 4.25,-2.84375 4.25,-2.03125 4.25,-1 3.765625,-0.296875 3.015625,-0.296875 c -0.90625,0 -1.671875,-1.015625 -1.671875,-2.234375 0,-0.953125 0.625,-1.578125 1.5625,-1.578125 z m 0,0"
           id="path6030"
           inkscape:connector-curvature="0" /></symbol><symbol
         overflow="visible"
         id="textext-668addec-2"
         style="overflow:visible"><path
           style="stroke:none"
           d=""
           id="path6033"
           inkscape:connector-curvature="0" /></symbol><symbol
         overflow="visible"
         id="textext-668addec-3"
         style="overflow:visible"><path
           style="stroke:none"
           d="m 4.859375,-1.703125 c 0.125,0 0.265625,0 0.265625,-0.140625 0,-0.140625 -0.140625,-0.140625 -0.265625,-0.140625 H 0.875 c -0.125,0 -0.265625,0 -0.265625,0.140625 0,0.140625 0.140625,0.140625 0.265625,0.140625 z m 0,0"
           id="path6036"
           inkscape:connector-curvature="0" /></symbol><symbol
         overflow="visible"
         id="textext-668addec-4"
         style="overflow:visible"><path
           style="stroke:none"
           d=""
           id="path6039"
           inkscape:connector-curvature="0" /></symbol><symbol
         overflow="visible"
         id="textext-668addec-5"
         style="overflow:visible"><path
           style="stroke:none"
           d="m 0.109375,-2.953125 c 0.09375,-0.015625 0.15625,-0.03125 0.234375,-0.03125 0.421875,0 0.53125,0.1875 0.859375,1.453125 0.125,0.484375 0.3125,1.34375 0.3125,1.46875 0,0.125 -0.046875,0.234375 -0.15625,0.375 C 1.125,0.609375 0.984375,0.796875 0.90625,0.890625 0.75,1.046875 0.65625,1.109375 0.5625,1.109375 0.515625,1.109375 0.46875,1.09375 0.390625,1.03125 0.265625,0.9375 0.1875,0.90625 0.109375,0.90625 c -0.15625,0 -0.28125,0.125 -0.28125,0.28125 0,0.1875 0.15625,0.328125 0.375,0.328125 0.46875,0 1.4375,-1.109375 2.234375,-2.5625 0.5,-0.90625 0.703125,-1.4375 0.703125,-1.796875 0,-0.21875 -0.1875,-0.40625 -0.40625,-0.40625 -0.171875,0 -0.28125,0.109375 -0.28125,0.265625 0,0.109375 0.046875,0.203125 0.203125,0.296875 0.140625,0.078125 0.1875,0.140625 0.1875,0.25 0,0.296875 -0.265625,0.859375 -0.890625,1.90625 L 1.796875,-1.390625 C 1.6875,-2.03125 1.28125,-3.25 1.171875,-3.25 h -0.03125 c -0.015625,0 -0.046875,0 -0.078125,0 C 1,-3.234375 0.734375,-3.1875 0.34375,-3.125 0.3125,-3.109375 0.21875,-3.09375 0.109375,-3.078125 Z m 0,0"
           id="path6042"
           inkscape:connector-curvature="0" /></symbol><symbol
         overflow="visible"
         id="textext-668addec-6"
         style="overflow:visible"><path
           style="stroke:none"
           d="M 2.96875,-0.8125 C 2.90625,-0.75 2.875,-0.703125 2.796875,-0.625 c -0.15625,0.234375 -0.25,0.296875 -0.328125,0.296875 -0.109375,0 -0.1875,-0.09375 -0.234375,-0.296875 C 2.21875,-0.6875 2.21875,-0.734375 2.203125,-0.75 2.015625,-1.5 1.9375,-1.84375 1.9375,-1.953125 c 0.328125,-0.5625 0.59375,-0.890625 0.71875,-0.890625 0.046875,0 0.109375,0.03125 0.1875,0.0625 0.078125,0.046875 0.140625,0.0625 0.1875,0.0625 0.15625,0 0.265625,-0.109375 0.265625,-0.265625 C 3.296875,-3.140625 3.171875,-3.25 3,-3.25 c -0.328125,0 -0.609375,0.265625 -1.125,1.046875 L 1.796875,-2.609375 C 1.703125,-3.109375 1.609375,-3.25 1.421875,-3.25 1.25,-3.25 1,-3.1875 0.546875,-3.03125 L 0.46875,-3.015625 0.5,-2.890625 c 0.28125,-0.078125 0.34375,-0.09375 0.421875,-0.09375 0.171875,0 0.21875,0.078125 0.328125,0.515625 l 0.203125,0.90625 -0.59375,0.859375 c -0.15625,0.21875 -0.296875,0.359375 -0.375,0.359375 -0.046875,0 -0.125,-0.03125 -0.203125,-0.0625 -0.09375,-0.0625 -0.171875,-0.078125 -0.234375,-0.078125 -0.140625,0 -0.25,0.109375 -0.25,0.25 0,0.203125 0.15625,0.3125 0.375,0.3125 0.21875,0 0.3125,-0.0625 0.6875,-0.515625 0.1875,-0.234375 0.34375,-0.4375 0.65625,-0.859375 l 0.21875,0.890625 c 0.109375,0.375 0.203125,0.484375 0.4375,0.484375 0.28125,0 0.46875,-0.171875 0.890625,-0.84375 z m 0,0"
           id="path6045"
           inkscape:connector-curvature="0" /></symbol></g></defs><g
     id="textext-668addec-7"><g
       style="fill:#000000;fill-opacity:1"
       id="g6048"><use
         xlink:href="#textext-668addec-1"
         x="388.75101"
         y="134.765"
         id="use6050"
         width="727.69305"
         height="567" /></g><g
       style="fill:#000000;fill-opacity:1"
       id="g6052"><use
         xlink:href="#textext-668addec-3"
         x="394.758"
         y="130.64999"
         id="use6054"
         width="727.69305"
         height="567" /></g><g
       style="fill:#000000;fill-opacity:1"
       id="g6056"><use
         xlink:href="#textext-668addec-5"
         x="394.758"
         y="137.226"
         id="use6058"
         width="727.69305"
         height="567" /><use
         xlink:href="#textext-668addec-6"
         x="398.03131"
         y="137.226"
         id="use6060"
         width="727.69305"
         height="567" /></g></g></g><g
   id="g6470"
   transform="matrix(2,0,0,-2,-667.31306,623.49198)"
   ns0:preamble="/data/Classes/PhysicsForGeoscientists/Book/Figures/preamble.tex"
   ns0:text="$$\n\\sigma_{yx}^+\n$$"><defs
     id="defs6472"><g
       id="g6474"><symbol
         id="textext-4f303edd-0"
         overflow="visible"
         style="overflow:visible"><path
           id="path6477"
           d=""
           style="stroke:none"
           inkscape:connector-curvature="0" /></symbol><symbol
         id="textext-4f303edd-1"
         overflow="visible"
         style="overflow:visible"><path
           id="path6480"
           d="m 5.859375,-4.109375 v -0.875 H 3.59375 c -0.78125,0 -1.328125,0.09375 -1.78125,0.296875 -0.96875,0.4375 -1.515625,1.203125 -1.515625,2.140625 0,0.640625 0.25,1.296875 0.703125,1.8125 C 1.53125,-0.125 2.09375,0.125 2.875,0.125 3.5625,0.125 4.140625,-0.078125 4.59375,-0.484375 5.046875,-0.890625 5.3125,-1.46875 5.3125,-2 c 0,-0.765625 -0.578125,-1.515625 -1.640625,-2.109375 z m -2.65625,0 C 4.0625,-3.234375 4.25,-2.84375 4.25,-2.03125 4.25,-1 3.765625,-0.296875 3.015625,-0.296875 c -0.90625,0 -1.671875,-1.015625 -1.671875,-2.234375 0,-0.953125 0.625,-1.578125 1.5625,-1.578125 z m 0,0"
           style="stroke:none"
           inkscape:connector-curvature="0" /></symbol><symbol
         id="textext-4f303edd-2"
         overflow="visible"
         style="overflow:visible"><path
           id="path6483"
           d=""
           style="stroke:none"
           inkscape:connector-curvature="0" /></symbol><symbol
         id="textext-4f303edd-3"
         overflow="visible"
         style="overflow:visible"><path
           id="path6486"
           d="m 3.015625,-1.703125 h 2.0625 c 0.09375,0 0.234375,0 0.234375,-0.140625 0,-0.140625 -0.140625,-0.140625 -0.234375,-0.140625 h -2.0625 V -4.0625 c 0,-0.09375 0,-0.234375 -0.140625,-0.234375 -0.15625,0 -0.15625,0.140625 -0.15625,0.234375 v 2.078125 h -2.0625 c -0.109375,0 -0.25,0 -0.25,0.140625 0,0.140625 0.140625,0.140625 0.25,0.140625 h 2.0625 V 0.375 c 0,0.09375 0,0.234375 0.15625,0.234375 0.140625,0 0.140625,-0.140625 0.140625,-0.234375 z m 0,0"
           style="stroke:none"
           inkscape:connector-curvature="0" /></symbol><symbol
         id="textext-4f303edd-4"
         overflow="visible"
         style="overflow:visible"><path
           id="path6489"
           d=""
           style="stroke:none"
           inkscape:connector-curvature="0" /></symbol><symbol
         id="textext-4f303edd-5"
         overflow="visible"
         style="overflow:visible"><path
           id="path6492"
           d="m 0.109375,-2.953125 c 0.09375,-0.015625 0.15625,-0.03125 0.234375,-0.03125 0.421875,0 0.53125,0.1875 0.859375,1.453125 0.125,0.484375 0.3125,1.34375 0.3125,1.46875 0,0.125 -0.046875,0.234375 -0.15625,0.375 C 1.125,0.609375 0.984375,0.796875 0.90625,0.890625 0.75,1.046875 0.65625,1.109375 0.5625,1.109375 0.515625,1.109375 0.46875,1.09375 0.390625,1.03125 0.265625,0.9375 0.1875,0.90625 0.109375,0.90625 c -0.15625,0 -0.28125,0.125 -0.28125,0.28125 0,0.1875 0.15625,0.328125 0.375,0.328125 0.46875,0 1.4375,-1.109375 2.234375,-2.5625 0.5,-0.90625 0.703125,-1.4375 0.703125,-1.796875 0,-0.21875 -0.1875,-0.40625 -0.40625,-0.40625 -0.171875,0 -0.28125,0.109375 -0.28125,0.265625 0,0.109375 0.046875,0.203125 0.203125,0.296875 0.140625,0.078125 0.1875,0.140625 0.1875,0.25 0,0.296875 -0.265625,0.859375 -0.890625,1.90625 L 1.796875,-1.390625 C 1.6875,-2.03125 1.28125,-3.25 1.171875,-3.25 h -0.03125 c -0.015625,0 -0.046875,0 -0.078125,0 C 1,-3.234375 0.734375,-3.1875 0.34375,-3.125 0.3125,-3.109375 0.21875,-3.09375 0.109375,-3.078125 Z m 0,0"
           style="stroke:none"
           inkscape:connector-curvature="0" /></symbol><symbol
         id="textext-4f303edd-6"
         overflow="visible"
         style="overflow:visible"><path
           id="path6495"
           d="M 2.96875,-0.8125 C 2.90625,-0.75 2.875,-0.703125 2.796875,-0.625 c -0.15625,0.234375 -0.25,0.296875 -0.328125,0.296875 -0.109375,0 -0.1875,-0.09375 -0.234375,-0.296875 C 2.21875,-0.6875 2.21875,-0.734375 2.203125,-0.75 2.015625,-1.5 1.9375,-1.84375 1.9375,-1.953125 c 0.328125,-0.5625 0.59375,-0.890625 0.71875,-0.890625 0.046875,0 0.109375,0.03125 0.1875,0.0625 0.078125,0.046875 0.140625,0.0625 0.1875,0.0625 0.15625,0 0.265625,-0.109375 0.265625,-0.265625 C 3.296875,-3.140625 3.171875,-3.25 3,-3.25 c -0.328125,0 -0.609375,0.265625 -1.125,1.046875 L 1.796875,-2.609375 C 1.703125,-3.109375 1.609375,-3.25 1.421875,-3.25 1.25,-3.25 1,-3.1875 0.546875,-3.03125 L 0.46875,-3.015625 0.5,-2.890625 c 0.28125,-0.078125 0.34375,-0.09375 0.421875,-0.09375 0.171875,0 0.21875,0.078125 0.328125,0.515625 l 0.203125,0.90625 -0.59375,0.859375 c -0.15625,0.21875 -0.296875,0.359375 -0.375,0.359375 -0.046875,0 -0.125,-0.03125 -0.203125,-0.0625 -0.09375,-0.0625 -0.171875,-0.078125 -0.234375,-0.078125 -0.140625,0 -0.25,0.109375 -0.25,0.25 0,0.203125 0.15625,0.3125 0.375,0.3125 0.21875,0 0.3125,-0.0625 0.6875,-0.515625 0.1875,-0.234375 0.34375,-0.4375 0.65625,-0.859375 l 0.21875,0.890625 c 0.109375,0.375 0.203125,0.484375 0.4375,0.484375 0.28125,0 0.46875,-0.171875 0.890625,-0.84375 z m 0,0"
           style="stroke:none"
           inkscape:connector-curvature="0" /></symbol></g></defs><g
     id="textext-4f303edd-7"><g
       id="g6498"
       style="fill:#000000;fill-opacity:1"><use
         id="use6500"
         y="134.765"
         x="388.75101"
         xlink:href="#textext-4f303edd-1"
         width="727.69305"
         height="567" /></g><g
       id="g6502"
       style="fill:#000000;fill-opacity:1"><use
         id="use6504"
         y="130.64999"
         x="394.758"
         xlink:href="#textext-4f303edd-3"
         width="727.69305"
         height="567" /></g><g
       id="g6506"
       style="fill:#000000;fill-opacity:1"><use
         id="use6508"
         y="137.226"
         x="394.758"
         xlink:href="#textext-4f303edd-5"
         width="727.69305"
         height="567" /><use
         id="use6510"
         y="137.226"
         x="398.03131"
         xlink:href="#textext-4f303edd-6"
         width="727.69305"
         height="567" /></g></g></g><g
   id="g1032"
   transform="rotate(-90,176.07058,384.04632)"
   style="stroke:#727272;stroke-opacity:1"><path
     sodipodi:nodetypes="cccc"
     inkscape:connector-curvature="0"
     id="path1026"
     d="m 236.63503,223.88744 -12.60315,-6.20314 h 78.45994 l -11.54447,-6.13952"
     style="fill:none;stroke:#727272;stroke-width:1.60000002;stroke-linecap:round;stroke-linejoin:bevel;stroke-miterlimit:4;stroke-dasharray:none;stroke-opacity:1" /><path
     style="fill:none;stroke:#727272;stroke-width:1.60000002;stroke-linecap:round;stroke-linejoin:bevel;stroke-miterlimit:4;stroke-dasharray:none;stroke-opacity:1;paint-order:markers fill stroke"
     d="m 236.63503,211.55829 -12.60315,6.20314 h 78.45994 l -11.54447,6.13952"
     id="path1028"
     inkscape:connector-curvature="0"
     sodipodi:nodetypes="cccc" /></g><path
   style="fill:none;stroke:#727272;stroke-width:0.80000001;stroke-linecap:butt;stroke-linejoin:miter;stroke-miterlimit:4;stroke-dasharray:4.8, 4.79999999999999982;stroke-dashoffset:0;stroke-opacity:1"
   d="M 9.7856914,257.62507 H 64.627358"
   id="path1034"
   inkscape:connector-curvature="0"
   sodipodi:nodetypes="cc" /><path
   inkscape:connector-curvature="0"
   id="path1036"
   d="M 9.7856914,337.07526 H 65.635609"
   style="fill:none;stroke:#727272;stroke-width:0.80000001;stroke-linecap:butt;stroke-linejoin:miter;stroke-miterlimit:4;stroke-dasharray:4.8, 4.79999999999999982;stroke-dashoffset:0;stroke-opacity:1"
   sodipodi:nodetypes="cc" /><text
   xml:space="preserve"
   style="font-style:italic;font-variant:normal;font-weight:normal;font-stretch:normal;font-size:17.06666756px;line-height:1.25;font-family:'times new roman';-inkscape-font-specification:'times new roman, Italic';letter-spacing:0px;word-spacing:0px;fill:#000000;fill-opacity:1;stroke:none;stroke-width:0.80000001"
   x="-16.61129"
   y="-312.81888"
   id="text1040"
   transform="scale(1,-1)"><tspan
     sodipodi:role="line"
     id="tspan1038"
     x="-16.61129"
     y="-312.81888"
     style="font-style:italic;font-variant:normal;font-weight:normal;font-stretch:normal;font-size:17.06666756px;font-family:'times new roman';-inkscape-font-specification:'times new roman, Italic';stroke-width:0.80000001">dy</tspan><tspan
     sodipodi:role="line"
     x="-16.61129"
     y="-291.48553"
     style="font-style:italic;font-variant:normal;font-weight:normal;font-stretch:normal;font-size:17.06666756px;font-family:'times new roman';-inkscape-font-specification:'times new roman, Italic';stroke-width:0.80000001"
     id="tspan1042">=</tspan><tspan
     sodipodi:role="line"
     x="-16.61129"
     y="-270.15222"
     style="font-style:italic;font-variant:normal;font-weight:normal;font-stretch:normal;font-size:17.06666756px;font-family:'times new roman';-inkscape-font-specification:'times new roman, Italic';stroke-width:0.80000001"
     id="tspan1044">dx</tspan></text>


<path
   style="fill:#000000;fill-opacity:1;stroke:#000000;stroke-width:2.4000001;stroke-linecap:round;stroke-linejoin:round;stroke-miterlimit:4;stroke-dasharray:none;stroke-opacity:1"
   d="m 151.04652,298.06151 21.58352,-32.6769 -13.54279,12.102 7.82503,5.12418 5.47459,-16.63003"
   id="path1033"
   inkscape:connector-curvature="0"
   sodipodi:nodetypes="ccccc" /><text
   transform="scale(1,-1)"
   id="text1041"
   y="-267.64389"
   x="148.6458"
   style="font-style:italic;font-variant:normal;font-weight:normal;font-stretch:normal;font-size:17.06666756px;line-height:1.25;font-family:'times new roman';-inkscape-font-specification:'times new roman, Italic';letter-spacing:0px;word-spacing:0px;fill:#000000;fill-opacity:1;stroke:none;stroke-width:0.80000001"
   xml:space="preserve"><tspan
     id="tspan1039"
     style="font-style:normal;font-variant:normal;font-weight:bold;font-stretch:normal;font-size:17.06666756px;font-family:'times new roman';-inkscape-font-specification:'times new roman,  Bold';stroke-width:0.80000001"
     y="-267.64389"
     x="148.6458"
     sodipodi:role="line">f</tspan></text>

<path
   style="fill:#000000;fill-opacity:1;stroke:none;stroke-width:0.80000001;stroke-linecap:round;stroke-linejoin:bevel;stroke-miterlimit:4;stroke-dasharray:4.8, 4.8;stroke-dashoffset:0;stroke-opacity:1;paint-order:markers fill stroke"
   id="path1050"
   transform="scale(1,-1)"
   sodipodi:type="arc"
   sodipodi:cx="151.57457"
   sodipodi:cy="-297.62839"
   sodipodi:rx="3.0625553"
   sodipodi:ry="3.0625553"
   sodipodi:start="0"
   sodipodi:end="6.2796946"
   sodipodi:open="true"
   d="m 154.63713,-297.62839 a 3.0625553,3.0625553 0 0 1 -3.05989,3.06256 3.0625553,3.0625553 0 0 1 -3.06522,-3.05721 3.0625553,3.0625553 0 0 1 3.05453,-3.06789 3.0625553,3.0625553 0 0 1 3.07056,3.05185" /><path
   style="fill:#ff0000;fill-opacity:1;stroke:#ff0000;stroke-width:2.4000001;stroke-linecap:round;stroke-linejoin:round;stroke-miterlimit:4;stroke-dasharray:none;stroke-opacity:1"
   d="m 151.76724,297.74757 21.49497,-0.12316 -8.91164,4.82299 v -9.35353 l 8.91164,4.53054"
   id="path1037"
   inkscape:connector-curvature="0"
   sodipodi:nodetypes="ccccc" /><text
   id="text1041-3"
   y="-306.94659"
   x="168.53304"
   style="font-style:italic;font-variant:normal;font-weight:normal;font-stretch:normal;font-size:17.06666756px;line-height:1.25;font-family:'times new roman';-inkscape-font-specification:'times new roman, Italic';letter-spacing:0px;word-spacing:0px;fill:#000000;fill-opacity:1;stroke:none;stroke-width:0.80000001"
   xml:space="preserve"
   transform="scale(1,-1)"><tspan
     id="tspan1039-6"
     style="font-style:italic;font-variant:normal;font-weight:normal;font-stretch:normal;font-size:17.06666756px;font-family:'times new roman';-inkscape-font-specification:'times new roman, Bold';stroke-width:0.80000001"
     y="-306.94659"
     x="168.53304"
     sodipodi:role="line">f<tspan
   style="font-style:italic;font-size:64.99999762%;baseline-shift:sub"
   id="tspan1057">x</tspan></tspan></text>
</g></svg>