<?xml version="1.0" encoding="UTF-8" standalone="no"?>
<!-- Created with Inkscape (http://www.inkscape.org/) -->

<svg
   xmlns:dc="http://purl.org/dc/elements/1.1/"
   xmlns:cc="http://creativecommons.org/ns#"
   xmlns:rdf="http://www.w3.org/1999/02/22-rdf-syntax-ns#"
   xmlns:svg="http://www.w3.org/2000/svg"
   xmlns="http://www.w3.org/2000/svg"
   xmlns:sodipodi="http://sodipodi.sourceforge.net/DTD/sodipodi-0.dtd"
   xmlns:inkscape="http://www.inkscape.org/namespaces/inkscape"
   version="1.1"
   id="svg2"
   xml:space="preserve"
   width="331.00031"
   height="283.11774"
   viewBox="0 0 331.0003 283.11772"
   sodipodi:docname="Ass07.pdf"
   inkscape:version="0.92.3 (2405546, 2018-03-11)"><sodipodi:namedview
     pagecolor="#ffffff"
     bordercolor="#666666"
     borderopacity="1"
     objecttolerance="10"
     gridtolerance="10"
     guidetolerance="10"
     inkscape:pageopacity="0"
     inkscape:pageshadow="2"
     inkscape:window-width="1920"
     inkscape:window-height="1028"
     id="namedview4"
     showgrid="false"
     inkscape:snap-global="false"
     inkscape:zoom="2.1529065"
     inkscape:cx="104.20347"
     inkscape:cy="128.26967"
     inkscape:window-x="0"
     inkscape:window-y="0"
     inkscape:window-maximized="1"
     inkscape:current-layer="g10"
     fit-margin-top="0"
     fit-margin-left="0"
     fit-margin-right="0"
     fit-margin-bottom="0" /><metadata
     id="metadata8"><rdf:RDF><cc:Work
         rdf:about=""><dc:format>image/svg+xml</dc:format><dc:type
           rdf:resource="http://purl.org/dc/dcmitype/StillImage" /><dc:title></dc:title></cc:Work></rdf:RDF></metadata><defs
     id="defs6"><marker
       inkscape:isstock="true"
       style="overflow:visible"
       id="Arrow1Mend"
       refX="0"
       refY="0"
       orient="auto"
       inkscape:stockid="Arrow1Mend"><path
         transform="matrix(-0.4,0,0,-0.4,-4,0)"
         style="fill:#000000;fill-opacity:1;fill-rule:evenodd;stroke:#000000;stroke-width:1.00000003pt;stroke-opacity:1"
         d="M 0,0 5,-5 -12.5,0 5,5 Z"
         id="path1741"
         inkscape:connector-curvature="0" /></marker><marker
       inkscape:isstock="true"
       style="overflow:visible"
       id="Arrow1Lend"
       refX="0"
       refY="0"
       orient="auto"
       inkscape:stockid="Arrow1Lend"><path
         transform="matrix(-0.8,0,0,-0.8,-10,0)"
         style="fill:#000000;fill-opacity:1;fill-rule:evenodd;stroke:#000000;stroke-width:1.00000003pt;stroke-opacity:1"
         d="M 0,0 5,-5 -12.5,0 5,5 Z"
         id="path1735"
         inkscape:connector-curvature="0" /></marker><clipPath
       id="clipPath122"
       clipPathUnits="userSpaceOnUse"><path
         inkscape:connector-curvature="0"
         id="path120"
         d="M 1620,4280 V 2002.79 H 4500 V 4280 Z" /></clipPath><clipPath
       id="clipPath182"
       clipPathUnits="userSpaceOnUse"><path
         style="clip-rule:evenodd"
         inkscape:connector-curvature="0"
         id="path180"
         d="M 1620,4280 V 2002.79 H 4500 V 4280 Z m 1584.39,-408.32 -16.87,-38.33 86.49,-38.32 -49.22,44.65 66.09,-5.98 z" /></clipPath><clipPath
       id="clipPath194"
       clipPathUnits="userSpaceOnUse"><path
         inkscape:connector-curvature="0"
         id="path192"
         d="M 1620,4280 V 2002.79 H 4500 V 4280 Z" /></clipPath><clipPath
       id="clipPath208"
       clipPathUnits="userSpaceOnUse"><path
         style="clip-rule:evenodd"
         inkscape:connector-curvature="0"
         id="path206"
         d="M 1620,4280 V 2002.79 H 4500 V 4280 Z m 581.36,-1472.89 24.61,27.78 -61.88,55.2 27.07,-49.23 -51.68,21.45 z" /></clipPath><clipPath
       id="clipPath220"
       clipPathUnits="userSpaceOnUse"><path
         inkscape:connector-curvature="0"
         id="path218"
         d="M 1620,4280 V 2002.79 H 4500 V 4280 Z" /></clipPath></defs><g
     transform="matrix(1.3333333,0,0,-1.3333333,-195.603,568.31052)"
     inkscape:label="Ass07"
     inkscape:groupmode="layer"
     id="g10"><g
   style="stroke:#646464;stroke-width:15;stroke-miterlimit:4;stroke-dasharray:15.00000038, 15.00000038;stroke-dashoffset:0;stroke-opacity:1"
   id="g124"
   transform="scale(0.1,-0.1)"><path
     d="m 1730.54,-2805.19 c 348.36,156.55 725.95,237.5 1107.87,237.5 381.98,0 759.63,-80.97 1108.04,-237.58"
     style="fill:none;stroke:#646464;stroke-width:15;stroke-linecap:butt;stroke-linejoin:miter;stroke-miterlimit:4;stroke-dasharray:15.00000038, 15.00000038;stroke-dashoffset:0;stroke-opacity:1"
     id="path126"
     inkscape:connector-curvature="0" /></g><g
   style="stroke:#646464;stroke-width:15;stroke-miterlimit:4;stroke-dasharray:15.00000038, 15.00000038;stroke-dashoffset:0;stroke-opacity:1"
   id="g128"
   transform="scale(0.1,-0.1)"><path
     d="m 2047.54,-4149.61 c 210.1,202.89 490.78,316.29 782.85,316.29 300.27,0 588.14,-119.83 799.71,-332.91"
     style="fill:none;stroke:#646464;stroke-width:15;stroke-linecap:butt;stroke-linejoin:miter;stroke-miterlimit:4;stroke-dasharray:15.00000038, 15.00000038;stroke-dashoffset:0;stroke-opacity:1"
     id="path130"
     inkscape:connector-curvature="0" /></g><path
   d="M 321.811,426.051 369.273,236.202"
   style="fill:#000000;fill-opacity:1;fill-rule:evenodd;stroke:none;stroke-width:0.1"
   id="path132"
   inkscape:connector-curvature="0" /><g
   style="stroke:#646464;stroke-width:15;stroke-miterlimit:4;stroke-dasharray:15.00000038, 15.00000038;stroke-dashoffset:0;stroke-opacity:1"
   id="g134"
   transform="scale(0.1,-0.1)"><path
     d="m 3218.11,-4260.51 474.62,1898.49"
     style="fill:none;stroke:#646464;stroke-width:15;stroke-linecap:butt;stroke-linejoin:miter;stroke-miterlimit:4;stroke-dasharray:15.00000038, 15.00000038;stroke-dashoffset:0;stroke-opacity:1"
     id="path136"
     inkscape:connector-curvature="0" /></g><path
   d="M 242.707,426.051 195.245,236.202"
   style="fill:#000000;fill-opacity:1;fill-rule:evenodd;stroke:none;stroke-width:0.1"
   id="path138"
   inkscape:connector-curvature="0" /><g
   style="stroke:#646464;stroke-width:15;stroke-miterlimit:4;stroke-dasharray:15.00000038, 15.00000038;stroke-dashoffset:0;stroke-opacity:1"
   id="g140"
   transform="scale(0.1,-0.1)"><path
     d="m 2427.07,-4260.51 -474.62,1898.49"
     style="fill:none;stroke:#646464;stroke-width:15;stroke-linecap:butt;stroke-linejoin:miter;stroke-miterlimit:4;stroke-dasharray:15.00000038, 15.00000038;stroke-dashoffset:0;stroke-opacity:1"
     id="path142"
     inkscape:connector-curvature="0" /></g><text
   y="-406.4071"
   x="285.62982"
   id="text150"
   style="font-style:italic;font-variant:normal;font-weight:normal;font-stretch:normal;font-size:11px;font-family:sans-serif;-inkscape-font-specification:'sans-serif, Italic';font-variant-ligatures:normal;font-variant-caps:normal;font-variant-numeric:normal;font-feature-settings:normal;text-align:start;writing-mode:lr-tb;text-anchor:start;fill:#000000;fill-opacity:1;fill-rule:nonzero;stroke:none"
   transform="scale(1,-1)"><tspan
     id="tspan146"
     sodipodi:role="line"
     y="-396.67468"
     x="285.62982" /><tspan
     id="tspan148"
     sodipodi:role="line"
     y="-260.85614"
     x="146.40685 153.44183 159.88617 162.8183 168.68254 174.54678 180.99112 184.50334 190.36758">Epicenter</tspan></text>

<text
   y="-214.0528"
   x="195.47681"
   id="text160"
   style="font-variant:normal;font-weight:normal;font-size:10.5472002px;font-family:Helvetica;-inkscape-font-specification:Helvetica;writing-mode:lr-tb;fill:#000000;fill-opacity:1;fill-rule:nonzero;stroke:none"
   transform="scale(1,-1)"><tspan
     id="tspan152"
     y="-214.0528"
     x="195.47681">e</tspan><tspan
     id="tspan154"
     y="-280.50009"
     x="166.9994">e</tspan><tspan
     id="tspan156"
     y="-410.2301"
     x="195.7717">s</tspan><tspan
     id="tspan158"
     y="-214.0531"
     x="374.54669">s</tspan></text>

<text
   y="-286.82849"
   x="162.0217"
   id="text170"
   style="font-variant:normal;font-weight:normal;font-size:10.5472002px;font-family:Symbol;-inkscape-font-specification:Symbol;writing-mode:lr-tb;fill:#000000;fill-opacity:1;fill-rule:nonzero;stroke:none"
   transform="scale(1,-1)"><tspan
     id="tspan162"
     y="-286.82849"
     x="162.0217">φ</tspan><tspan
     id="tspan164"
     y="-416.5585"
     x="190.4991">φ</tspan><tspan
     id="tspan166"
     y="-220.3815"
     x="190.76823">λ</tspan><tspan
     id="tspan168"
     y="-223.54556"
     x="367.96124">λ</tspan></text>

<g
   id="g172"
   transform="scale(0.1,-0.1)"><path
     d="m 2035.46,-2681.41 c 473.2,-361.82 893.48,-788.04 1248.62,-1266.27"
     style="fill:none;stroke:#000000;stroke-width:15.82069969;stroke-linecap:butt;stroke-linejoin:miter;stroke-miterlimit:10;stroke-dasharray:60.4704;stroke-dashoffset:0;stroke-opacity:1"
     id="path174"
     inkscape:connector-curvature="0" /></g><rect
   transform="scale(1,-1)"
   y="-392.6102"
   x="303.18161"
   height="10.86902"
   width="14.580394"
   id="rect1730"
   style="opacity:1;fill:#ffffff;fill-opacity:1;stroke:none;stroke-width:1.5;stroke-linecap:round;stroke-linejoin:bevel;stroke-miterlimit:4;stroke-dasharray:none;stroke-dashoffset:0;stroke-opacity:1;paint-order:stroke fill markers" /><g
   transform="matrix(-0.0965202,0.02615055,-0.02615055,-0.0965202,727.75228,668.89392)"
   id="g188"><g
     id="g190"
     clip-path="url(#clipPath194)"><path
       d="m 3290.88,3833.7 -66.09,5.98 49.22,-44.65 16.87,38.67"
       style="fill:#000000;fill-opacity:1;fill-rule:evenodd;stroke:none"
       id="path196"
       inkscape:connector-curvature="0" /><g
       id="g198"
       transform="scale(1,-1)"><path
         d="m 3290.88,-3833.7 -66.09,-5.98 49.22,44.65 z"
         style="fill:none;stroke:#000000;stroke-width:15.82069969;stroke-linecap:butt;stroke-linejoin:miter;stroke-miterlimit:10;stroke-dasharray:none;stroke-opacity:1"
         id="path200"
         inkscape:connector-curvature="0" /></g></g></g><g
   transform="scale(0.1)"
   id="g202"><g
     id="g204"
     clip-path="url(#clipPath208)"><g
       id="g210"
       transform="scale(1,-1)"><path
         d="m 2094.78,-2899.95 c 45.44,12.17 85.75,38.65 114.97,75.52"
         style="fill:none;stroke:#000000;stroke-width:15.82069969;stroke-linecap:butt;stroke-linejoin:miter;stroke-miterlimit:10;stroke-dasharray:none;stroke-opacity:1"
         id="path212"
         inkscape:connector-curvature="0" /></g></g></g><path
   d="m 213.948,286.231 5.168,-2.145 -2.707,4.923 -2.461,-2.778"
   style="fill:#000000;fill-opacity:1;fill-rule:evenodd;stroke:none;stroke-width:0.1"
   id="path222"
   inkscape:connector-curvature="0" /><path
   inkscape:connector-curvature="0"
   id="path226"
   style="fill:none;stroke:#000000;stroke-width:1.58206999;stroke-linecap:butt;stroke-linejoin:miter;stroke-miterlimit:10;stroke-dasharray:none;stroke-opacity:1"
   d="m 213.948,286.231 5.168,-2.145 -2.707,4.923 z" /><path
   sodipodi:nodetypes="cc"
   inkscape:connector-curvature="0"
   id="path230"
   style="fill:none;stroke:#000000;stroke-width:1.58175004;stroke-linecap:butt;stroke-linejoin:miter;stroke-miterlimit:10;stroke-dasharray:none;stroke-opacity:1;marker-end:url(#Arrow1Mend)"
   d="m 379.49345,303.82004 v 35.97031" /><text
   y="-347.93967"
   x="374.63632"
   id="text246"
   style="font-style:normal;font-variant:normal;font-weight:normal;font-stretch:normal;font-size:12px;font-family:serif;-inkscape-font-specification:'serif, Normal';font-variant-ligatures:normal;font-variant-caps:normal;font-variant-numeric:normal;font-feature-settings:normal;text-align:start;writing-mode:lr-tb;text-anchor:start;fill:#000000;fill-opacity:1;fill-rule:nonzero;stroke:none"
   transform="scale(1,-1)"><tspan
     style="font-style:normal;font-variant:normal;font-weight:normal;font-stretch:normal;font-size:12px;font-family:serif;-inkscape-font-specification:'serif, Normal';font-variant-ligatures:normal;font-variant-caps:normal;font-variant-numeric:normal;font-feature-settings:normal;text-align:start;writing-mode:lr-tb;text-anchor:start"
     id="tspan244"
     y="-347.93967"
     x="374.63632">N</tspan></text>

<path
   d="m 206.706,267.843 c 0,-1.961 -1.59,-3.55 -3.551,-3.55 -1.961,0 -3.551,1.589 -3.551,3.55 0,1.961 1.59,3.551 3.551,3.551 1.961,0 3.551,-1.59 3.551,-3.551"
   style="fill:#000000;fill-opacity:1;fill-rule:evenodd;stroke:none;stroke-width:0.1"
   id="path248"
   inkscape:connector-curvature="0" /><path
   inkscape:connector-curvature="0"
   id="path252"
   style="fill:none;stroke:#000000;stroke-width:0.263679;stroke-linecap:butt;stroke-linejoin:miter;stroke-miterlimit:10;stroke-dasharray:none;stroke-opacity:1"
   d="m 206.706,267.843 c 0,-1.961 -1.59,-3.55 -3.551,-3.55 -1.961,0 -3.551,1.589 -3.551,3.55 0,1.961 1.59,3.551 3.551,3.551 1.961,0 3.551,-1.59 3.551,-3.551 z" /><path
   d="m 238.347,394.409 c 0,-1.961 -1.59,-3.55 -3.551,-3.55 -1.96,0 -3.55,1.589 -3.55,3.55 0,1.961 1.59,3.551 3.55,3.551 1.961,0 3.551,-1.59 3.551,-3.551"
   style="fill:#000000;fill-opacity:1;fill-rule:evenodd;stroke:none;stroke-width:0.1"
   id="path254"
   inkscape:connector-curvature="0" /><path
   inkscape:connector-curvature="0"
   id="path258"
   style="fill:none;stroke:#000000;stroke-width:0.263679;stroke-linecap:butt;stroke-linejoin:miter;stroke-miterlimit:10;stroke-dasharray:none;stroke-opacity:1"
   d="m 238.347,394.409 c 0,-1.961 -1.59,-3.55 -3.55,-3.55 -1.961,0 -3.551,1.589 -3.551,3.55 0,1.961 1.59,3.551 3.551,3.551 1.96,0 3.55,-1.59 3.55,-3.551 z" /><path
   d="m 333.272,394.409 c 0,-1.961 -1.59,-3.55 -3.551,-3.55 -1.961,0 -3.551,1.589 -3.551,3.55 0,1.961 1.59,3.551 3.551,3.551 1.961,0 3.551,-1.59 3.551,-3.551"
   style="fill:#000000;fill-opacity:1;fill-rule:evenodd;stroke:none;stroke-width:0.1"
   id="path260"
   inkscape:connector-curvature="0" /><path
   inkscape:connector-curvature="0"
   id="path264"
   style="fill:none;stroke:#000000;stroke-width:0.263679;stroke-linecap:butt;stroke-linejoin:miter;stroke-miterlimit:10;stroke-dasharray:none;stroke-opacity:1"
   d="m 333.272,394.409 c 0,-1.961 -1.59,-3.55 -3.551,-3.55 -1.961,0 -3.551,1.589 -3.551,3.55 0,1.961 1.59,3.551 3.551,3.551 1.961,0 3.551,-1.59 3.551,-3.551 z" /><path
   d="m 364.913,267.843 c 0,-1.961 -1.59,-3.55 -3.551,-3.55 -1.96,0 -3.55,1.589 -3.55,3.55 0,1.961 1.59,3.551 3.55,3.551 1.961,0 3.551,-1.59 3.551,-3.551"
   style="fill:#000000;fill-opacity:1;fill-rule:evenodd;stroke:none;stroke-width:0.1"
   id="path266"
   inkscape:connector-curvature="0" /><path
   inkscape:connector-curvature="0"
   id="path270"
   style="fill:none;stroke:#000000;stroke-width:0.263679;stroke-linecap:butt;stroke-linejoin:miter;stroke-miterlimit:10;stroke-dasharray:none;stroke-opacity:1"
   d="m 364.913,267.843 c 0,-1.961 -1.59,-3.55 -3.55,-3.55 -1.961,0 -3.551,1.589 -3.551,3.55 0,1.961 1.59,3.551 3.551,3.551 1.96,0 3.55,-1.59 3.55,-3.551 z" /><text
   transform="scale(1,-1)"
   id="text1712"
   y="-406.36606"
   x="278.69943"
   style="font-style:normal;font-variant:normal;font-weight:normal;font-stretch:normal;font-size:18px;line-height:1.25;font-family:serif;-inkscape-font-specification:'serif, Normal';font-variant-ligatures:normal;font-variant-caps:normal;font-variant-numeric:normal;font-feature-settings:normal;text-align:start;letter-spacing:0px;word-spacing:0px;writing-mode:lr-tb;text-anchor:start;fill:#000000;fill-opacity:1;stroke:none;stroke-width:0.75"
   xml:space="preserve"><tspan
     style="stroke-width:0.75"
     y="-406.36606"
     x="278.69943"
     id="tspan1710"
     sodipodi:role="line">b<tspan
   id="tspan1714"
   style="font-style:italic;font-variant:normal;font-weight:normal;font-stretch:normal;font-size:64.99999762%;font-family:serif;-inkscape-font-specification:'serif, Italic';font-variant-ligatures:normal;font-variant-caps:normal;font-variant-numeric:normal;font-feature-settings:normal;text-align:start;writing-mode:lr-tb;baseline-shift:sub;text-anchor:start">az</tspan></tspan></text>

<text
   transform="scale(1,-1)"
   id="text1718"
   y="-298.42456"
   x="215.19565"
   style="font-style:normal;font-variant:normal;font-weight:normal;font-stretch:normal;font-size:18px;line-height:1.25;font-family:serif;-inkscape-font-specification:'serif, Normal';font-variant-ligatures:normal;font-variant-caps:normal;font-variant-numeric:normal;font-feature-settings:normal;text-align:start;letter-spacing:0px;word-spacing:0px;writing-mode:lr-tb;text-anchor:start;fill:#000000;fill-opacity:1;stroke:none;stroke-width:0.75"
   xml:space="preserve"><tspan
     style="stroke-width:0.75"
     y="-298.42456"
     x="215.19565"
     id="tspan1716"
     sodipodi:role="line">az</tspan></text>

<path
   sodipodi:nodetypes="csc"
   inkscape:connector-curvature="0"
   id="path1720"
   d="m 310.64637,386.62344 c -6.14046,6.85534 -5.64026,14.20787 -1.88647,20.034 4.40492,6.83672 15.65134,6.83519 13.92111,6.84938"
   style="fill:none;stroke:#000000;stroke-width:1.5;stroke-linecap:butt;stroke-linejoin:miter;stroke-miterlimit:4;stroke-dasharray:none;stroke-opacity:1" /><text
   transform="scale(1,-1)"
   style="font-style:italic;font-variant:normal;font-weight:normal;font-stretch:normal;font-size:11px;font-family:sans-serif;-inkscape-font-specification:'sans-serif, Italic';font-variant-ligatures:normal;font-variant-caps:normal;font-variant-numeric:normal;font-feature-settings:normal;text-align:start;writing-mode:lr-tb;text-anchor:start;fill:#000000;fill-opacity:1;fill-rule:nonzero;stroke:none"
   id="text1726"
   x="338.64941"
   y="-383.87375"><tspan
     x="338.64941"
     y="-383.87375"
     sodipodi:role="line"
     id="tspan1724">Station</tspan></text>

<text
   transform="matrix(0.72924178,0.68425611,0.68425611,-0.72924178,0,0)"
   id="text2258"
   y="-40.514301"
   x="360.28195"
   style="font-style:italic;font-variant:normal;font-weight:normal;font-stretch:normal;font-size:11px;line-height:1.25;font-family:sans-serif;-inkscape-font-specification:'sans-serif, Italic';font-variant-ligatures:normal;font-variant-caps:normal;font-variant-numeric:normal;font-feature-settings:normal;text-align:start;letter-spacing:0px;word-spacing:0px;writing-mode:lr-tb;text-anchor:start;fill:#000000;fill-opacity:1;stroke:none;stroke-width:0.75"
   xml:space="preserve"
   inkscape:transform-center-x="-5.6551417"
   inkscape:transform-center-y="12.464653"><tspan
     style="font-style:italic;font-variant:normal;font-weight:normal;font-stretch:normal;font-size:11px;font-family:sans-serif;-inkscape-font-specification:'sans-serif, Italic';font-variant-ligatures:normal;font-variant-caps:normal;font-variant-numeric:normal;font-feature-settings:normal;text-align:start;writing-mode:lr-tb;text-anchor:start;stroke-width:0.75"
     y="-40.514301"
     x="360.28195"
     id="tspan2256"
     sodipodi:role="line">Epicentral</tspan></text>

<g
   id="g2338"
   transform="matrix(0.1883969,0.23041154,0.23041154,-0.1883969,164.97561,352.68551)"><g
     word-spacing="normal"
     letter-spacing="normal"
     font-size-adjust="none"
     font-stretch="normal"
     font-weight="normal"
     font-variant="normal"
     font-style="normal"
     stroke-miterlimit="10.433"
     xml:space="preserve"
     transform="matrix(1.1333333,0,0,-1.1333333,-198.33333,842.00003)"
     id="content"
     style="font-style:normal;font-variant:normal;font-weight:normal;font-stretch:normal;letter-spacing:normal;word-spacing:normal;text-anchor:start;fill:none;fill-opacity:1;fill-rule:evenodd;stroke:#000000;stroke-linecap:butt;stroke-linejoin:miter;stroke-miterlimit:10.43299961;stroke-dasharray:none;stroke-dashoffset:0;stroke-opacity:1"><polygon
       id="polygon2335"
       points="459.36,408.75 455.82,406.2 485.82,406.2 471.82,440.48 455.82,406.2 459.36,408.75 469.97,431.56 479.38,408.75 "
       style="fill:#000000;stroke-width:0" /></g></g><text
   xml:space="preserve"
   style="font-style:italic;font-variant:normal;font-weight:normal;font-stretch:normal;font-size:11px;line-height:1.25;font-family:sans-serif;-inkscape-font-specification:'sans-serif, Italic';font-variant-ligatures:normal;font-variant-caps:normal;font-variant-numeric:normal;font-feature-settings:normal;text-align:start;letter-spacing:0px;word-spacing:0px;writing-mode:lr-tb;text-anchor:start;fill:#000000;fill-opacity:1;stroke:none;stroke-width:0.75"
   x="421.76868"
   y="-1.7698791"
   id="text2422"
   transform="matrix(0.66378489,0.74792353,0.74792353,-0.66378489,0,0)"
   inkscape:transform-center-x="-12.363289"
   inkscape:transform-center-y="17.541423"><tspan
     sodipodi:role="line"
     id="tspan2420"
     x="421.76868"
     y="-1.7698791"
     style="font-style:italic;font-variant:normal;font-weight:normal;font-stretch:normal;font-size:11px;font-family:sans-serif;-inkscape-font-specification:'sans-serif, Italic';font-variant-ligatures:normal;font-variant-caps:normal;font-variant-numeric:normal;font-feature-settings:normal;text-align:start;writing-mode:lr-tb;text-anchor:start;stroke-width:0.75">distance </tspan></text>
</g></svg>