<?xml version="1.0" encoding="UTF-8" standalone="no"?>
<!-- Created with Inkscape (http://www.inkscape.org/) -->

<svg
   xmlns:ns0="http://www.iki.fi/pav/software/textext/"
   xmlns:dc="http://purl.org/dc/elements/1.1/"
   xmlns:cc="http://creativecommons.org/ns#"
   xmlns:rdf="http://www.w3.org/1999/02/22-rdf-syntax-ns#"
   xmlns:svg="http://www.w3.org/2000/svg"
   xmlns="http://www.w3.org/2000/svg"
   xmlns:xlink="http://www.w3.org/1999/xlink"
   xmlns:sodipodi="http://sodipodi.sourceforge.net/DTD/sodipodi-0.dtd"
   xmlns:inkscape="http://www.inkscape.org/namespaces/inkscape"
   width="163.9693"
   height="53.762634"
   id="svg2"
   version="1.1"
   inkscape:version="0.48.4 r9939"
   sodipodi:docname="New document 1">
  <sodipodi:namedview
     id="base"
     pagecolor="#ffffff"
     bordercolor="#666666"
     borderopacity="1.0"
     inkscape:pageopacity="0.0"
     inkscape:pageshadow="2"
     inkscape:zoom="5.1414267"
     inkscape:cx="102.60069"
     inkscape:cy="-1.3726983"
     inkscape:document-units="px"
     inkscape:current-layer="layer1"
     showgrid="false"
     inkscape:window-width="1857"
     inkscape:window-height="1032"
     inkscape:window-x="63"
     inkscape:window-y="24"
     inkscape:window-maximized="1"
     fit-margin-top="0"
     fit-margin-left="0"
     fit-margin-right="0"
     fit-margin-bottom="0" />
  <defs
     id="defs4" />
  <metadata
     id="metadata7">
    <rdf:RDF>
      <cc:Work
         rdf:about="">
        <dc:format>image/svg+xml</dc:format>
        <dc:type
           rdf:resource="http://purl.org/dc/dcmitype/StillImage" />
        <dc:title></dc:title>
      </cc:Work>
    </rdf:RDF>
  </metadata>
  <g
     id="layer1"
     inkscape:groupmode="layer"
     inkscape:label="Layer 1"
     transform="translate(-307.78079,-259.56125)">
    <g
       id="g2990"
       ns0:preamble="/data/Classes/PhysicsForGeoscientists/Book/Figures/preamble.tex"
       ns0:text="$\\sigma_{xy}$"
       transform="scale(2,2)">
      <defs
         id="defs2992">
        <g
           id="g2994">
          <symbol
             id="textext-54da2665-0"
             overflow="visible"
             style="overflow:visible">
            <path
               id="path2997"
               d=""
               style="stroke:none"
               inkscape:connector-curvature="0" />
          </symbol>
          <symbol
             id="textext-54da2665-1"
             overflow="visible"
             style="overflow:visible">
            <path
               id="path3000"
               d="m 5.859375,-4.109375 0,-0.875 -2.265625,0 c -0.78125,0 -1.328125,0.09375 -1.78125,0.296875 -0.96875,0.4375 -1.515625,1.203125 -1.515625,2.140625 0,0.640625 0.25,1.296875 0.703125,1.8125 C 1.53125,-0.125 2.09375,0.125 2.875,0.125 3.5625,0.125 4.140625,-0.078125 4.59375,-0.484375 5.046875,-0.890625 5.3125,-1.46875 5.3125,-2 c 0,-0.765625 -0.578125,-1.515625 -1.640625,-2.109375 z m -2.65625,0 C 4.0625,-3.234375 4.25,-2.84375 4.25,-2.03125 4.25,-1 3.765625,-0.296875 3.015625,-0.296875 c -0.90625,0 -1.671875,-1.015625 -1.671875,-2.234375 0,-0.953125 0.625,-1.578125 1.5625,-1.578125 z m 0,0"
               style="stroke:none"
               inkscape:connector-curvature="0" />
          </symbol>
          <symbol
             id="textext-54da2665-2"
             overflow="visible"
             style="overflow:visible">
            <path
               id="path3003"
               d=""
               style="stroke:none"
               inkscape:connector-curvature="0" />
          </symbol>
          <symbol
             id="textext-54da2665-3"
             overflow="visible"
             style="overflow:visible">
            <path
               id="path3006"
               d="M 2.96875,-0.8125 C 2.90625,-0.75 2.875,-0.703125 2.796875,-0.625 c -0.15625,0.234375 -0.25,0.296875 -0.328125,0.296875 -0.109375,0 -0.1875,-0.09375 -0.234375,-0.296875 C 2.21875,-0.6875 2.21875,-0.734375 2.203125,-0.75 2.015625,-1.5 1.9375,-1.84375 1.9375,-1.953125 c 0.328125,-0.5625 0.59375,-0.890625 0.71875,-0.890625 0.046875,0 0.109375,0.03125 0.1875,0.0625 0.078125,0.046875 0.140625,0.0625 0.1875,0.0625 0.15625,0 0.265625,-0.109375 0.265625,-0.265625 C 3.296875,-3.140625 3.171875,-3.25 3,-3.25 c -0.328125,0 -0.609375,0.265625 -1.125,1.046875 L 1.796875,-2.609375 C 1.703125,-3.109375 1.609375,-3.25 1.421875,-3.25 1.25,-3.25 1,-3.1875 0.546875,-3.03125 L 0.46875,-3.015625 0.5,-2.890625 c 0.28125,-0.078125 0.34375,-0.09375 0.421875,-0.09375 0.171875,0 0.21875,0.078125 0.328125,0.515625 l 0.203125,0.90625 -0.59375,0.859375 c -0.15625,0.21875 -0.296875,0.359375 -0.375,0.359375 -0.046875,0 -0.125,-0.03125 -0.203125,-0.0625 -0.09375,-0.0625 -0.171875,-0.078125 -0.234375,-0.078125 -0.140625,0 -0.25,0.109375 -0.25,0.25 0,0.203125 0.15625,0.3125 0.375,0.3125 0.21875,0 0.3125,-0.0625 0.6875,-0.515625 0.1875,-0.234375 0.34375,-0.4375 0.65625,-0.859375 l 0.21875,0.890625 c 0.109375,0.375 0.203125,0.484375 0.4375,0.484375 0.28125,0 0.46875,-0.171875 0.890625,-0.84375 z m 0,0"
               style="stroke:none"
               inkscape:connector-curvature="0" />
          </symbol>
          <symbol
             id="textext-54da2665-4"
             overflow="visible"
             style="overflow:visible">
            <path
               id="path3009"
               d="m 0.109375,-2.953125 c 0.09375,-0.015625 0.15625,-0.03125 0.234375,-0.03125 0.421875,0 0.53125,0.1875 0.859375,1.453125 0.125,0.484375 0.3125,1.34375 0.3125,1.46875 0,0.125 -0.046875,0.234375 -0.15625,0.375 C 1.125,0.609375 0.984375,0.796875 0.90625,0.890625 0.75,1.046875 0.65625,1.109375 0.5625,1.109375 0.515625,1.109375 0.46875,1.09375 0.390625,1.03125 0.265625,0.9375 0.1875,0.90625 0.109375,0.90625 c -0.15625,0 -0.28125,0.125 -0.28125,0.28125 0,0.1875 0.15625,0.328125 0.375,0.328125 0.46875,0 1.4375,-1.109375 2.234375,-2.5625 0.5,-0.90625 0.703125,-1.4375 0.703125,-1.796875 0,-0.21875 -0.1875,-0.40625 -0.40625,-0.40625 -0.171875,0 -0.28125,0.109375 -0.28125,0.265625 0,0.109375 0.046875,0.203125 0.203125,0.296875 0.140625,0.078125 0.1875,0.140625 0.1875,0.25 0,0.296875 -0.265625,0.859375 -0.890625,1.90625 L 1.796875,-1.390625 C 1.6875,-2.03125 1.28125,-3.25 1.171875,-3.25 l -0.03125,0 c -0.015625,0 -0.046875,0 -0.078125,0 C 1,-3.234375 0.734375,-3.1875 0.34375,-3.125 0.3125,-3.109375 0.21875,-3.09375 0.109375,-3.078125 z m 0,0"
               style="stroke:none"
               inkscape:connector-curvature="0" />
          </symbol>
        </g>
      </defs>
      <g
         id="textext-54da2665-5">
        <g
           id="g3012"
           style="fill:#000000;fill-opacity:1">
          <use
             id="use3014"
             y="134.765"
             x="223.43201"
             xlink:href="#textext-54da2665-1"
             width="744.09448"
             height="1052.3622" />
        </g>
        <g
           id="g3016"
           style="fill:#000000;fill-opacity:1">
          <use
             id="use3018"
             y="136.259"
             x="229.439"
             xlink:href="#textext-54da2665-3"
             width="744.09448"
             height="1052.3622" />
        </g>
        <g
           id="g3020"
           style="fill:#000000;fill-opacity:1">
          <use
             id="use3022"
             y="136.259"
             x="232.73442"
             xlink:href="#textext-54da2665-4"
             width="744.09448"
             height="1052.3622" />
        </g>
      </g>
    </g>
    <path
       style="color:#000000;fill:none;stroke:#000000;stroke-width:1;stroke-linecap:round;stroke-linejoin:round;stroke-miterlimit:4;stroke-opacity:1;stroke-dasharray:none;stroke-dashoffset:0;marker:none;visibility:visible;display:inline;overflow:visible;enable-background:accumulate"
       d="m 460.90056,275.24973 -18.85286,9.51904"
       id="path3047"
       inkscape:connector-curvature="0"
       sodipodi:nodetypes="cc" />
    <path
       sodipodi:nodetypes="cc"
       inkscape:connector-curvature="0"
       id="path3817"
       d="m 467.60622,277.55035 -29.25398,32.93404"
       style="color:#000000;fill:none;stroke:#000000;stroke-width:1;stroke-linecap:round;stroke-linejoin:round;stroke-miterlimit:4;stroke-opacity:1;stroke-dasharray:none;stroke-dashoffset:0;marker:none;visibility:visible;display:inline;overflow:visible;enable-background:accumulate" />
    <text
       xml:space="preserve"
       style="font-size:4px;font-style:normal;font-variant:normal;font-weight:normal;font-stretch:normal;text-align:start;line-height:125%;letter-spacing:0px;word-spacing:0px;writing-mode:lr-tb;text-anchor:start;fill:#000000;fill-opacity:1;stroke:none;font-family:Serif;-inkscape-font-specification:Serif"
       x="307.68628"
       y="286.75882"
       id="text3819"
       sodipodi:linespacing="125%"><tspan
         sodipodi:role="line"
         x="307.68628"
         y="286.75882"
         style="font-size:8px"
         id="tspan3825">indicates the surface acted upon</tspan><tspan
         sodipodi:role="line"
         x="307.68628"
         y="296.75882"
         style="font-size:8px"
         id="tspan3835">(identified by normal direction) </tspan></text>
    <text
       sodipodi:linespacing="125%"
       id="text3831"
       y="313.2106"
       x="307.49173"
       style="font-size:4px;font-style:normal;font-variant:normal;font-weight:normal;font-stretch:normal;text-align:start;line-height:125%;letter-spacing:0px;word-spacing:0px;writing-mode:lr-tb;text-anchor:start;fill:#000000;fill-opacity:1;stroke:none;font-family:Serif;-inkscape-font-specification:Serif"
       xml:space="preserve"><tspan
         id="tspan3833"
         style="font-size:8px"
         y="313.2106"
         x="307.49173"
         sodipodi:role="line">indicates the direction of action</tspan></text>
  </g>
</svg>
