<?xml version="1.0" encoding="UTF-8" standalone="no"?>
<svg
   xmlns:dc="http://purl.org/dc/elements/1.1/"
   xmlns:cc="http://creativecommons.org/ns#"
   xmlns:rdf="http://www.w3.org/1999/02/22-rdf-syntax-ns#"
   xmlns:svg="http://www.w3.org/2000/svg"
   xmlns="http://www.w3.org/2000/svg"
   xmlns:sodipodi="http://sodipodi.sourceforge.net/DTD/sodipodi-0.dtd"
   xmlns:inkscape="http://www.inkscape.org/namespaces/inkscape"
   viewBox="0 0 953.95093 614.67816"
   height="614.67816"
   width="953.95093"
   xml:space="preserve"
   version="1.1"
   id="svg2"
   inkscape:version="0.91 r13725"
   sodipodi:docname="MohrEnvelope2.svg"><sodipodi:namedview
     pagecolor="#ffffff"
     bordercolor="#666666"
     borderopacity="1"
     objecttolerance="10"
     gridtolerance="10"
     guidetolerance="10"
     inkscape:pageopacity="0"
     inkscape:pageshadow="2"
     inkscape:window-width="1440"
     inkscape:window-height="855"
     id="namedview179"
     showgrid="false"
     fit-margin-top="0"
     fit-margin-left="0"
     fit-margin-right="0"
     fit-margin-bottom="0"
     inkscape:zoom="0.80985987"
     inkscape:cx="418.46845"
     inkscape:cy="403.48353"
     inkscape:window-x="0"
     inkscape:window-y="1"
     inkscape:window-maximized="1"
     inkscape:current-layer="svg2" /><metadata
     id="metadata8"><rdf:RDF><cc:Work
         rdf:about=""><dc:format>image/svg+xml</dc:format><dc:type
           rdf:resource="http://purl.org/dc/dcmitype/StillImage" /><dc:title></dc:title></cc:Work></rdf:RDF></metadata><defs
     id="defs6"><clipPath
       clipPathUnits="userSpaceOnUse"
       id="clipPath18"><path
         inkscape:connector-curvature="0"
         d="m 20,437 668,0 0,-402 -668,0 0,402 z"
         id="path20" /></clipPath><clipPath
       clipPathUnits="userSpaceOnUse"
       id="clipPath34"><path
         inkscape:connector-curvature="0"
         d="m 50,83 131,0 0,-66 -131,0 0,66 z"
         id="path36" /></clipPath><clipPath
       clipPathUnits="userSpaceOnUse"
       id="clipPath44"><path
         inkscape:connector-curvature="0"
         d="m 103,144 252,0 0,-127 -252,0 0,127 z"
         id="path46" /></clipPath><clipPath
       clipPathUnits="userSpaceOnUse"
       id="clipPath54"><path
         inkscape:connector-curvature="0"
         d="m 186,228 422,0 0,-211 -422,0 0,211 z"
         id="path56" /></clipPath></defs><g
     transform="matrix(1.25,0,0,-1.25,71.323603,556.05286)"
     id="g12" /><path
     id="path22"
     style="fill:none;stroke:#5e81b5;stroke-width:2;stroke-linecap:square;stroke-linejoin:round;stroke-miterlimit:3.23930693;stroke-dasharray:none;stroke-opacity:1"
     d="m 96.323603,510.15911 0.3225,-0.19 0.3225,-0.195 0.63875,-0.38625 1.285,-0.77125 2.572497,-1.54375 5.1425,-3.08 10.2825,-6.1725 22.29,-13.37375 20.82,-12.49 20.40625,-12.24625 22.13875,-13.28125 20.65875,-12.3975 22.3925,-13.4325 21.9825,-13.18875 20.5025,-12.305 22.23125,-13.34 20.7575,-12.45625 20.35125,-12.20625 22.075,-13.2475 20.60625,-12.3625 22.32875,-13.39875 21.92375,-13.15 20.44375,-12.27 22.17375,-13.30125 20.6975,-12.42125 22.4275,-13.4575 22.01625,-13.2075 20.5425,-12.325 22.27,-13.36375 20.79625,-12.47625 20.385,-12.23125 22.115,-13.27125 20.63875,-12.3825 22.36375,-13.41875 21.9625,-13.17375 20.47875,-12.29 22.2125,-13.33 20.7325,-12.43625 20.32625,-12.1975 22.05625,-13.2325 20.58125,-12.34875 22.305,-13.38375 20.83,-12.5 20.42375,-12.25 22.07625,-13.2475"
     inkscape:connector-curvature="0" /><path
     id="path28"
     style="fill:#ff0000;fill-opacity:1;fill-rule:evenodd;stroke:none"
     d="m 436.69985,311.05286 c 0,-1.42625 -0.56625,-2.7925 -1.5725,-3.80375 -1.01125,-1.00625 -2.3775,-1.5725 -3.80375,-1.5725 -1.42625,0 -2.7925,0.56625 -3.80375,1.5725 -1.00625,1.01125 -1.5725,2.3775 -1.5725,3.80375 0,1.42625 0.56625,2.7925 1.5725,3.80375 1.01125,1.00625 2.3775,1.5725 3.80375,1.5725 1.42625,0 2.7925,-0.56625 3.80375,-1.5725 1.00625,-1.01125 1.5725,-2.3775 1.5725,-3.80375 z"
     inkscape:connector-curvature="0" /><g
     transform="matrix(1.25,0,0,-1.25,71.323603,556.05286)"
     id="g50"><g
       clip-path="url(#clipPath54)"
       id="g52"><path
         id="path58"
         style="fill:none;stroke:#5e81b5;stroke-width:1.60000002;stroke-linecap:square;stroke-linejoin:miter;stroke-miterlimit:3.25;stroke-opacity:1;stroke-dasharray:none"
         d="m 187.625,17.438 0,0.808 0.004,0.203 0,0.403 0.004,0.203 0,0.402 0.008,0.406 0,0.199 0.004,0.204 0.003,0.402 0.008,0.406 0.008,0.403 0.008,0.406 0.008,0.402 0.008,0.203 0.003,0.2 0.012,0.406 0.024,0.808 0.003,0.2 0.008,0.203 0.012,0.402 0.031,0.809 0.008,0.203 0.008,0.199 0.015,0.406 0.036,0.805 0.011,0.203 0.008,0.203 0.02,0.403 0.043,0.804 0.093,1.613 0.012,0.219 0.016,0.219 0.027,0.437 0.063,0.875 0.129,1.747 0.015,0.218 0.02,0.219 0.035,0.438 0.074,0.871 0.156,1.746 0.024,0.218 0.019,0.215 0.043,0.438 0.09,0.871 0.188,1.742 0.421,3.481 0.024,0.199 0.191,1.422 0.227,1.617 0.496,3.234 0.035,0.203 0.031,0.204 0.2,1.207 0.281,1.613 0.594,3.219 0.078,0.39 0.078,0.395 0.156,0.785 0.32,1.574 0.684,3.133 0.086,0.391 0.269,1.171 0.372,1.563 0.777,3.109 0.219,0.844 0.222,0.84 0.453,1.68 0.954,3.347 2.07,6.645 0.125,0.383 0.129,0.386 0.258,0.77 0.527,1.535 1.09,3.059 2.316,6.066 0.082,0.203 0.082,0.207 0.164,0.406 0.332,0.817 0.676,1.625 1.387,3.23 2.941,6.395 6.387,12.254 6.672,11.027 7.988,11.465 8.129,10.207 8.574,9.492 9.938,9.688 9.828,8.429 11.223,8.43 11.539,7.527 11.187,6.325 12.547,6.07 0.187,0.082 0.184,0.082 0.375,0.164 0.746,0.328 1.492,0.641 3.004,1.25 6.063,2.355 0.207,0.078 0.207,0.075 0.414,0.152 0.828,0.301 1.66,0.593 3.336,1.141 0.207,0.07 0.211,0.071 1.254,0.41 1.68,0.539 3.371,1.027 0.207,0.063 0.207,0.058 0.414,0.125 0.832,0.239 1.664,0.472 3.344,0.899 0.207,0.054 0.211,0.055 0.418,0.109 0.839,0.211 1.68,0.418 3.367,0.789 0.2,0.043 0.195,0.047 1.184,0.258 1.578,0.34 3.164,0.637 0.398,0.078 0.395,0.074 0.793,0.148 1.589,0.289 3.184,0.54 0.43,0.07 0.433,0.066 0.864,0.137 1.73,0.258 0.219,0.031 0.215,0.031 0.433,0.063 0.867,0.117 1.735,0.23 0.219,0.028 0.214,0.027 0.434,0.055 0.871,0.105 1.738,0.199 3.481,0.356 0.406,0.039 0.41,0.035 0.813,0.074 1.629,0.133 0.812,0.063 0.817,0.058 1.629,0.11 0.207,0.011 0.609,0.036 0.816,0.046 0.407,0.024 0.41,0.019 0.816,0.039 0.203,0.012 0.203,0.008 0.411,0.02 0.816,0.031 0.406,0.015 0.41,0.016 0.817,0.027 0.199,0.008 0.199,0.004 0.403,0.012 0.199,0.004 0.199,0.008 0.402,0.007 0.2,0.004 0.199,0.008 0.402,0.008 0.399,0.008 0.402,0.004 0.398,0.007 0.203,0.004 0.2,0 0.199,0.004 0.199,0 0.203,0.004 0.199,0 0.2,0.004 0.402,0 0.199,0.004 2.004,0 0.199,-0.004 0.399,0 0.203,-0.004 0.199,0 0.199,-0.004 0.2,0 0.203,-0.004 0.398,-0.004 0.199,-0.004 0.203,-0.003 0.598,-0.012 0.203,-0.004 0.598,-0.012 0.203,-0.004 0.398,-0.011 0.801,-0.024 0.219,-0.004 0.215,-0.008 0.433,-0.015 0.872,-0.031 0.214,-0.008 0.219,-0.008 1.301,-0.059 0.219,-0.007 0.215,-0.012 0.433,-0.02 0.871,-0.047 1.735,-0.101 0.214,-0.016 0.219,-0.011 0.434,-0.032 0.867,-0.058 1.73,-0.133 0.219,-0.016 0.215,-0.019 0.434,-0.035 0.867,-0.075 1.73,-0.16 0.199,-0.019 0.204,-0.02 0.402,-0.039 0.809,-0.082 1.609,-0.176 0.406,-0.047 0.403,-0.043 0.804,-0.097 1.61,-0.199 0.199,-0.024 0.203,-0.027 0.402,-0.051 0.805,-0.109 1.605,-0.223 3.207,-0.488 0.215,-0.035 0.219,-0.036 1.301,-0.211 1.73,-0.3 3.457,-0.641 0.215,-0.043 0.219,-0.039 1.289,-0.258 1.723,-0.359 3.433,-0.754 0.211,-0.047 0.211,-0.051 0.418,-0.097 0.84,-0.196 1.68,-0.406 3.343,-0.855 6.641,-1.872 0.195,-0.058 0.192,-0.055 0.386,-0.117 0.77,-0.238 1.535,-0.477 3.063,-0.996 6.074,-2.129 0.207,-0.074 0.203,-0.078 0.41,-0.149 0.817,-0.308 1.628,-0.621 3.247,-1.289 6.425,-2.731 11.735,-5.672 11.14,-6.254 11.633,-7.543 10.379,-7.714 10.695,-9.071 9.418,-9.097 8.664,-9.473 8.723,-10.852 7.473,-10.629 7.34,-12.019 6.406,-12.254 0.086,-0.18 0.086,-0.183 0.175,-0.364 0.344,-0.73 0.684,-1.457 1.332,-2.938 2.527,-5.933 0.328,-0.813 0.324,-0.812 0.641,-1.625 1.238,-3.27 2.313,-6.601 0.062,-0.192 0.067,-0.195 0.125,-0.387 0.254,-0.777 0.496,-1.555 0.953,-3.121 0.234,-0.781 0.227,-0.785 0.449,-1.571 0.856,-3.148 0.05,-0.195 0.051,-0.192 0.102,-0.386 0.199,-0.778 0.391,-1.551 0.746,-3.113 0.046,-0.195 0.043,-0.192 0.09,-0.39 0.176,-0.781 0.344,-1.563 0.652,-3.133 0.039,-0.215 0.043,-0.211 0.086,-0.425 0.164,-0.856 0.317,-1.703 0.597,-3.422 0.071,-0.429 0.07,-0.426 0.133,-0.86 0.265,-1.714 0.481,-3.442 0.027,-0.199 0.024,-0.199 0.152,-1.207 0.195,-1.61 0.024,-0.199 0.019,-0.203 0.047,-0.402 0.09,-0.805 0.168,-1.609 0.039,-0.407 0.117,-1.207 0.141,-1.613 0.015,-0.203 0.02,-0.203 0.031,-0.403 0.067,-0.808 0.117,-1.613 0.031,-0.454 0.027,-0.449 0.059,-0.902 0.012,-0.227 0.015,-0.226 0.024,-0.449 0.051,-0.907 0.011,-0.222 0.008,-0.227 0.024,-0.453 0.042,-0.902 0.016,-0.454 0.02,-0.449 0.035,-0.906 0.004,-0.223 0.031,-0.906 0.004,-0.227 0.012,-0.449 0.007,-0.226 0.004,-0.227 0.012,-0.453 0.004,-0.227 0.004,-0.222 0.023,-1.36 0.004,-0.222 0,-0.227 0.004,-0.226 0,-0.227 0.004,-0.226 0,-0.227 0.004,-0.227 0,-1.128"
         inkscape:connector-curvature="0" /></g></g><path
     inkscape:connector-curvature="0"
     d="m 934.4486,534.25536 -838.124997,0"
     style="fill:none;stroke:#666666;stroke-width:0.625;stroke-linecap:square;stroke-linejoin:miter;stroke-miterlimit:3.25;stroke-opacity:1;stroke-dasharray:none"
     id="path62" /><path
     inkscape:connector-curvature="0"
     d="m 96.323603,534.25536 0,-523.827504"
     style="fill:none;stroke:#666666;stroke-width:0.625;stroke-linecap:square;stroke-linejoin:miter;stroke-miterlimit:3.25;stroke-opacity:1;stroke-dasharray:none"
     id="path64" /><path
     inkscape:connector-curvature="0"
     d="m 96.323603,10.427856 838.124997,0"
     style="fill:none;stroke:#666666;stroke-width:0.625;stroke-linecap:square;stroke-linejoin:miter;stroke-miterlimit:3.25;stroke-opacity:1;stroke-dasharray:none"
     id="path66" /><path
     inkscape:connector-curvature="0"
     d="m 934.4486,10.427856 0,523.827504"
     style="fill:none;stroke:#666666;stroke-width:0.625;stroke-linecap:square;stroke-linejoin:miter;stroke-miterlimit:3.25;stroke-opacity:1;stroke-dasharray:none"
     id="path68" /><path
     inkscape:connector-curvature="0"
     d="m 96.323603,534.25536 0,-5"
     style="fill:none;stroke:#666666;stroke-width:0.625;stroke-linecap:butt;stroke-linejoin:miter;stroke-miterlimit:3.25;stroke-opacity:1;stroke-dasharray:none"
     id="path70" /><text
     y="563.67188"
     x="89.137321"
     style="font-size:25px;font-variant:normal;font-weight:normal;writing-mode:lr-tb;fill:#666666;fill-opacity:1;fill-rule:nonzero;stroke:none;font-family:Arial;-inkscape-font-specification:ArialMT"
     id="text72"><tspan
       x="89.137321"
       y="563.67188"
       id="tspan74">0</tspan></text>
<path
     inkscape:connector-curvature="0"
     d="m 148.7061,534.25536 0,-2.9975"
     style="fill:none;stroke:#666666;stroke-width:0.625;stroke-linecap:butt;stroke-linejoin:miter;stroke-miterlimit:3.25;stroke-opacity:1;stroke-dasharray:none"
     id="path76" /><path
     inkscape:connector-curvature="0"
     d="m 201.0886,534.25536 0,-2.9975"
     style="fill:none;stroke:#666666;stroke-width:0.625;stroke-linecap:butt;stroke-linejoin:miter;stroke-miterlimit:3.25;stroke-opacity:1;stroke-dasharray:none"
     id="path78" /><path
     inkscape:connector-curvature="0"
     d="m 253.47235,534.25536 0,-2.9975"
     style="fill:none;stroke:#666666;stroke-width:0.625;stroke-linecap:butt;stroke-linejoin:miter;stroke-miterlimit:3.25;stroke-opacity:1;stroke-dasharray:none"
     id="path80" /><path
     inkscape:connector-curvature="0"
     d="m 305.85485,534.25536 0,-5"
     style="fill:none;stroke:#666666;stroke-width:0.625;stroke-linecap:butt;stroke-linejoin:miter;stroke-miterlimit:3.25;stroke-opacity:1;stroke-dasharray:none"
     id="path82" /><path
     inkscape:connector-curvature="0"
     d="m 358.23735,534.25536 0,-2.9975"
     style="fill:none;stroke:#666666;stroke-width:0.625;stroke-linecap:butt;stroke-linejoin:miter;stroke-miterlimit:3.25;stroke-opacity:1;stroke-dasharray:none"
     id="path88" /><path
     inkscape:connector-curvature="0"
     d="m 410.6211,534.25536 0,-2.9975"
     style="fill:none;stroke:#666666;stroke-width:0.625;stroke-linecap:butt;stroke-linejoin:miter;stroke-miterlimit:3.25;stroke-opacity:1;stroke-dasharray:none"
     id="path90" /><path
     inkscape:connector-curvature="0"
     d="m 463.0036,534.25536 0,-2.9975"
     style="fill:none;stroke:#666666;stroke-width:0.625;stroke-linecap:butt;stroke-linejoin:miter;stroke-miterlimit:3.25;stroke-opacity:1;stroke-dasharray:none"
     id="path92" /><path
     inkscape:connector-curvature="0"
     d="m 515.3861,534.25536 0,-5"
     style="fill:none;stroke:#666666;stroke-width:0.625;stroke-linecap:butt;stroke-linejoin:miter;stroke-miterlimit:3.25;stroke-opacity:1;stroke-dasharray:none"
     id="path94" /><text
     y="563.67188"
     x="494.55487"
     style="font-size:25px;font-variant:normal;font-weight:normal;writing-mode:lr-tb;fill:#666666;fill-opacity:1;fill-rule:nonzero;stroke:none;font-family:Arial;-inkscape-font-specification:ArialMT"
     id="text96"><tspan
       x="494.55487 508.45483 522.35486"
       y="563.67188"
       id="tspan98">400</tspan></text>
<path
     inkscape:connector-curvature="0"
     d="m 567.7686,534.25536 0,-2.9975"
     style="fill:none;stroke:#666666;stroke-width:0.625;stroke-linecap:butt;stroke-linejoin:miter;stroke-miterlimit:3.25;stroke-opacity:1;stroke-dasharray:none"
     id="path100" /><path
     inkscape:connector-curvature="0"
     d="m 620.1511,534.25536 0,-2.9975"
     style="fill:none;stroke:#666666;stroke-width:0.625;stroke-linecap:butt;stroke-linejoin:miter;stroke-miterlimit:3.25;stroke-opacity:1;stroke-dasharray:none"
     id="path102" /><path
     inkscape:connector-curvature="0"
     d="m 672.53485,534.25536 0,-2.9975"
     style="fill:none;stroke:#666666;stroke-width:0.625;stroke-linecap:butt;stroke-linejoin:miter;stroke-miterlimit:3.25;stroke-opacity:1;stroke-dasharray:none"
     id="path104" /><path
     inkscape:connector-curvature="0"
     d="m 724.91735,534.25536 0,-5"
     style="fill:none;stroke:#666666;stroke-width:0.625;stroke-linecap:butt;stroke-linejoin:miter;stroke-miterlimit:3.25;stroke-opacity:1;stroke-dasharray:none"
     id="path106" /><text
     y="563.67188"
     x="703.93054"
     style="font-size:25px;font-variant:normal;font-weight:normal;writing-mode:lr-tb;fill:#666666;fill-opacity:1;fill-rule:nonzero;stroke:none;font-family:Arial;-inkscape-font-specification:ArialMT"
     id="text108"><tspan
       x="703.93054 717.83057 731.73047"
       y="563.67188"
       id="tspan110">600</tspan></text>
<path
     inkscape:connector-curvature="0"
     d="m 777.29985,534.25536 0,-2.9975"
     style="fill:none;stroke:#666666;stroke-width:0.625;stroke-linecap:butt;stroke-linejoin:miter;stroke-miterlimit:3.25;stroke-opacity:1;stroke-dasharray:none"
     id="path112" /><path
     inkscape:connector-curvature="0"
     d="m 829.6836,534.25536 0,-2.9975"
     style="fill:none;stroke:#666666;stroke-width:0.625;stroke-linecap:butt;stroke-linejoin:miter;stroke-miterlimit:3.25;stroke-opacity:1;stroke-dasharray:none"
     id="path114" /><path
     inkscape:connector-curvature="0"
     d="m 882.0661,534.25536 0,-2.9975"
     style="fill:none;stroke:#666666;stroke-width:0.625;stroke-linecap:butt;stroke-linejoin:miter;stroke-miterlimit:3.25;stroke-opacity:1;stroke-dasharray:none"
     id="path116" /><path
     inkscape:connector-curvature="0"
     d="m 934.4486,534.25536 0,-5"
     style="fill:none;stroke:#666666;stroke-width:0.625;stroke-linecap:butt;stroke-linejoin:miter;stroke-miterlimit:3.25;stroke-opacity:1;stroke-dasharray:none"
     id="path118" /><text
     y="563.67188"
     x="913.44348"
     style="font-size:25px;font-variant:normal;font-weight:normal;writing-mode:lr-tb;fill:#666666;fill-opacity:1;fill-rule:nonzero;stroke:none;font-family:Arial;-inkscape-font-specification:ArialMT"
     id="text120"><tspan
       x="913.44348 927.34351 941.24341"
       y="563.67188"
       id="tspan122">800</tspan></text>
<path
     inkscape:connector-curvature="0"
     d="m 96.323603,534.25536 4.999997,0"
     style="fill:none;stroke:#666666;stroke-width:0.625;stroke-linecap:butt;stroke-linejoin:miter;stroke-miterlimit:3.25;stroke-opacity:1;stroke-dasharray:none"
     id="path124" /><text
     y="541.79688"
     x="65.637321"
     style="font-size:25px;font-variant:normal;font-weight:normal;writing-mode:lr-tb;fill:#666666;fill-opacity:1;fill-rule:nonzero;stroke:none;font-family:Arial;-inkscape-font-specification:ArialMT"
     id="text126"><tspan
       x="65.637321"
       y="541.79688"
       id="tspan128">0</tspan></text>
<path
     inkscape:connector-curvature="0"
     d="m 96.323603,513.30411 2.9975,0"
     style="fill:none;stroke:#666666;stroke-width:0.625;stroke-linecap:butt;stroke-linejoin:miter;stroke-miterlimit:3.25;stroke-opacity:1;stroke-dasharray:none"
     id="path130" /><path
     inkscape:connector-curvature="0"
     d="m 96.323603,492.35161 2.9975,0"
     style="fill:none;stroke:#666666;stroke-width:0.625;stroke-linecap:butt;stroke-linejoin:miter;stroke-miterlimit:3.25;stroke-opacity:1;stroke-dasharray:none"
     id="path132" /><path
     inkscape:connector-curvature="0"
     d="m 96.323603,471.39411 2.9975,0"
     style="fill:none;stroke:#666666;stroke-width:0.625;stroke-linecap:butt;stroke-linejoin:miter;stroke-miterlimit:3.25;stroke-opacity:1;stroke-dasharray:none"
     id="path134" /><path
     inkscape:connector-curvature="0"
     d="m 96.323603,450.44286 2.9975,0"
     style="fill:none;stroke:#666666;stroke-width:0.625;stroke-linecap:butt;stroke-linejoin:miter;stroke-miterlimit:3.25;stroke-opacity:1;stroke-dasharray:none"
     id="path136" /><path
     inkscape:connector-curvature="0"
     d="m 96.323603,429.49036 4.999997,0"
     style="fill:none;stroke:#666666;stroke-width:0.625;stroke-linecap:butt;stroke-linejoin:miter;stroke-miterlimit:3.25;stroke-opacity:1;stroke-dasharray:none"
     id="path138" /><text
     y="437.03125"
     x="44.516182"
     style="font-size:25px;font-variant:normal;font-weight:normal;writing-mode:lr-tb;fill:#666666;fill-opacity:1;fill-rule:nonzero;stroke:none;font-family:Arial;-inkscape-font-specification:ArialMT"
     id="text140"><tspan
       x="44.516182 58.416183 72.316177"
       y="437.03125"
       id="tspan142">100</tspan></text>
<path
     inkscape:connector-curvature="0"
     d="m 96.323603,408.53786 2.9975,0"
     style="fill:none;stroke:#666666;stroke-width:0.625;stroke-linecap:butt;stroke-linejoin:miter;stroke-miterlimit:3.25;stroke-opacity:1;stroke-dasharray:none"
     id="path144" /><path
     inkscape:connector-curvature="0"
     d="m 96.323603,387.58661 2.9975,0"
     style="fill:none;stroke:#666666;stroke-width:0.625;stroke-linecap:butt;stroke-linejoin:miter;stroke-miterlimit:3.25;stroke-opacity:1;stroke-dasharray:none"
     id="path146" /><path
     inkscape:connector-curvature="0"
     d="m 96.323603,366.62911 2.9975,0"
     style="fill:none;stroke:#666666;stroke-width:0.625;stroke-linecap:butt;stroke-linejoin:miter;stroke-miterlimit:3.25;stroke-opacity:1;stroke-dasharray:none"
     id="path148" /><path
     inkscape:connector-curvature="0"
     d="m 96.323603,345.67661 2.9975,0"
     style="fill:none;stroke:#666666;stroke-width:0.625;stroke-linecap:butt;stroke-linejoin:miter;stroke-miterlimit:3.25;stroke-opacity:1;stroke-dasharray:none"
     id="path150" /><path
     inkscape:connector-curvature="0"
     d="m 96.323603,324.72536 4.999997,0"
     style="fill:none;stroke:#666666;stroke-width:0.625;stroke-linecap:butt;stroke-linejoin:miter;stroke-miterlimit:3.25;stroke-opacity:1;stroke-dasharray:none"
     id="path152" /><text
     y="332.26562"
     x="45.013618"
     style="font-size:25px;font-variant:normal;font-weight:normal;writing-mode:lr-tb;fill:#666666;fill-opacity:1;fill-rule:nonzero;stroke:none;font-family:Arial;-inkscape-font-specification:ArialMT"
     id="text154"><tspan
       x="45.013618 58.91362 72.813614"
       y="332.26562"
       id="tspan156">200</tspan></text>
<path
     inkscape:connector-curvature="0"
     d="m 96.323603,303.77286 2.9975,0"
     style="fill:none;stroke:#666666;stroke-width:0.625;stroke-linecap:butt;stroke-linejoin:miter;stroke-miterlimit:3.25;stroke-opacity:1;stroke-dasharray:none"
     id="path158" /><path
     inkscape:connector-curvature="0"
     d="m 96.323603,282.82036 2.9975,0"
     style="fill:none;stroke:#666666;stroke-width:0.625;stroke-linecap:butt;stroke-linejoin:miter;stroke-miterlimit:3.25;stroke-opacity:1;stroke-dasharray:none"
     id="path160" /><path
     inkscape:connector-curvature="0"
     d="m 96.323603,261.86286 2.9975,0"
     style="fill:none;stroke:#666666;stroke-width:0.625;stroke-linecap:butt;stroke-linejoin:miter;stroke-miterlimit:3.25;stroke-opacity:1;stroke-dasharray:none"
     id="path162" /><path
     inkscape:connector-curvature="0"
     d="m 96.323603,240.91161 2.9975,0"
     style="fill:none;stroke:#666666;stroke-width:0.625;stroke-linecap:butt;stroke-linejoin:miter;stroke-miterlimit:3.25;stroke-opacity:1;stroke-dasharray:none"
     id="path164" /><path
     inkscape:connector-curvature="0"
     d="m 96.323603,219.95911 4.999997,0"
     style="fill:none;stroke:#666666;stroke-width:0.625;stroke-linecap:butt;stroke-linejoin:miter;stroke-miterlimit:3.25;stroke-opacity:1;stroke-dasharray:none"
     id="path166" /><text
     y="227.49695"
     x="44.934273"
     style="font-size:25px;font-variant:normal;font-weight:normal;writing-mode:lr-tb;fill:#666666;fill-opacity:1;fill-rule:nonzero;stroke:none;font-family:Arial;-inkscape-font-specification:ArialMT"
     id="text168"><tspan
       x="44.934273 58.834274 72.734268"
       y="227.49695"
       id="tspan170">300</tspan></text>
<path
     inkscape:connector-curvature="0"
     d="m 96.323603,199.00661 2.9975,0"
     style="fill:none;stroke:#666666;stroke-width:0.625;stroke-linecap:butt;stroke-linejoin:miter;stroke-miterlimit:3.25;stroke-opacity:1;stroke-dasharray:none"
     id="path172" /><path
     inkscape:connector-curvature="0"
     d="m 96.323603,178.05536 2.9975,0"
     style="fill:none;stroke:#666666;stroke-width:0.625;stroke-linecap:butt;stroke-linejoin:miter;stroke-miterlimit:3.25;stroke-opacity:1;stroke-dasharray:none"
     id="path174" /><path
     inkscape:connector-curvature="0"
     d="m 96.323603,157.09786 2.9975,0"
     style="fill:none;stroke:#666666;stroke-width:0.625;stroke-linecap:butt;stroke-linejoin:miter;stroke-miterlimit:3.25;stroke-opacity:1;stroke-dasharray:none"
     id="path176" /><path
     inkscape:connector-curvature="0"
     d="m 96.323603,136.14536 2.9975,0"
     style="fill:none;stroke:#666666;stroke-width:0.625;stroke-linecap:butt;stroke-linejoin:miter;stroke-miterlimit:3.25;stroke-opacity:1;stroke-dasharray:none"
     id="path178" /><path
     inkscape:connector-curvature="0"
     d="m 96.323603,115.19286 4.999997,0"
     style="fill:none;stroke:#666666;stroke-width:0.625;stroke-linecap:butt;stroke-linejoin:miter;stroke-miterlimit:3.25;stroke-opacity:1;stroke-dasharray:none"
     id="path180" /><text
     y="122.73438"
     x="45.117378"
     style="font-size:25px;font-variant:normal;font-weight:normal;writing-mode:lr-tb;fill:#666666;fill-opacity:1;fill-rule:nonzero;stroke:none;font-family:Arial;-inkscape-font-specification:ArialMT"
     id="text182"><tspan
       x="45.117378 59.01738 72.917374"
       y="122.73438"
       id="tspan184">400</tspan></text>
<path
     inkscape:connector-curvature="0"
     d="m 96.323603,94.241606 2.9975,0"
     style="fill:none;stroke:#666666;stroke-width:0.625;stroke-linecap:butt;stroke-linejoin:miter;stroke-miterlimit:3.25;stroke-opacity:1;stroke-dasharray:none"
     id="path186" /><path
     inkscape:connector-curvature="0"
     d="m 96.323603,73.289106 2.9975,0"
     style="fill:none;stroke:#666666;stroke-width:0.625;stroke-linecap:butt;stroke-linejoin:miter;stroke-miterlimit:3.25;stroke-opacity:1;stroke-dasharray:none"
     id="path188" /><path
     inkscape:connector-curvature="0"
     d="m 96.323603,52.331606 2.9975,0"
     style="fill:none;stroke:#666666;stroke-width:0.625;stroke-linecap:butt;stroke-linejoin:miter;stroke-miterlimit:3.25;stroke-opacity:1;stroke-dasharray:none"
     id="path190" /><path
     inkscape:connector-curvature="0"
     d="m 96.323603,31.380356 2.9975,0"
     style="fill:none;stroke:#666666;stroke-width:0.625;stroke-linecap:butt;stroke-linejoin:miter;stroke-miterlimit:3.25;stroke-opacity:1;stroke-dasharray:none"
     id="path192" /><path
     inkscape:connector-curvature="0"
     d="m 96.323603,10.427856 4.999997,0"
     style="fill:none;stroke:#666666;stroke-width:0.625;stroke-linecap:butt;stroke-linejoin:miter;stroke-miterlimit:3.25;stroke-opacity:1;stroke-dasharray:none"
     id="path194" /><text
     y="17.96875"
     x="44.937325"
     style="font-size:25px;font-variant:normal;font-weight:normal;writing-mode:lr-tb;fill:#666666;fill-opacity:1;fill-rule:nonzero;stroke:none;font-family:Arial;-inkscape-font-specification:ArialMT"
     id="text196"><tspan
       x="44.937325 58.837326 72.73732"
       y="17.96875"
       id="tspan198">500</tspan></text>
<path
     inkscape:connector-curvature="0"
     d="m 96.323603,10.427856 0,5"
     style="fill:none;stroke:#666666;stroke-width:0.625;stroke-linecap:butt;stroke-linejoin:miter;stroke-miterlimit:3.25;stroke-opacity:1;stroke-dasharray:none"
     id="path200" /><path
     inkscape:connector-curvature="0"
     d="m 148.7061,10.427856 0,2.9975"
     style="fill:none;stroke:#666666;stroke-width:0.625;stroke-linecap:butt;stroke-linejoin:miter;stroke-miterlimit:3.25;stroke-opacity:1;stroke-dasharray:none"
     id="path202" /><path
     inkscape:connector-curvature="0"
     d="m 201.0886,10.427856 0,2.9975"
     style="fill:none;stroke:#666666;stroke-width:0.625;stroke-linecap:butt;stroke-linejoin:miter;stroke-miterlimit:3.25;stroke-opacity:1;stroke-dasharray:none"
     id="path204" /><path
     inkscape:connector-curvature="0"
     d="m 253.47235,10.427856 0,2.9975"
     style="fill:none;stroke:#666666;stroke-width:0.625;stroke-linecap:butt;stroke-linejoin:miter;stroke-miterlimit:3.25;stroke-opacity:1;stroke-dasharray:none"
     id="path206" /><path
     inkscape:connector-curvature="0"
     d="m 305.85485,10.427856 0,5"
     style="fill:none;stroke:#666666;stroke-width:0.625;stroke-linecap:butt;stroke-linejoin:miter;stroke-miterlimit:3.25;stroke-opacity:1;stroke-dasharray:none"
     id="path208" /><path
     inkscape:connector-curvature="0"
     d="m 358.23735,10.427856 0,2.9975"
     style="fill:none;stroke:#666666;stroke-width:0.625;stroke-linecap:butt;stroke-linejoin:miter;stroke-miterlimit:3.25;stroke-opacity:1;stroke-dasharray:none"
     id="path210" /><path
     inkscape:connector-curvature="0"
     d="m 410.6211,10.427856 0,2.9975"
     style="fill:none;stroke:#666666;stroke-width:0.625;stroke-linecap:butt;stroke-linejoin:miter;stroke-miterlimit:3.25;stroke-opacity:1;stroke-dasharray:none"
     id="path212" /><path
     inkscape:connector-curvature="0"
     d="m 463.0036,10.427856 0,2.9975"
     style="fill:none;stroke:#666666;stroke-width:0.625;stroke-linecap:butt;stroke-linejoin:miter;stroke-miterlimit:3.25;stroke-opacity:1;stroke-dasharray:none"
     id="path214" /><path
     inkscape:connector-curvature="0"
     d="m 515.3861,10.427856 0,5"
     style="fill:none;stroke:#666666;stroke-width:0.625;stroke-linecap:butt;stroke-linejoin:miter;stroke-miterlimit:3.25;stroke-opacity:1;stroke-dasharray:none"
     id="path216" /><path
     inkscape:connector-curvature="0"
     d="m 567.7686,10.427856 0,2.9975"
     style="fill:none;stroke:#666666;stroke-width:0.625;stroke-linecap:butt;stroke-linejoin:miter;stroke-miterlimit:3.25;stroke-opacity:1;stroke-dasharray:none"
     id="path218" /><path
     inkscape:connector-curvature="0"
     d="m 620.1511,10.427856 0,2.9975"
     style="fill:none;stroke:#666666;stroke-width:0.625;stroke-linecap:butt;stroke-linejoin:miter;stroke-miterlimit:3.25;stroke-opacity:1;stroke-dasharray:none"
     id="path220" /><path
     inkscape:connector-curvature="0"
     d="m 672.53485,10.427856 0,2.9975"
     style="fill:none;stroke:#666666;stroke-width:0.625;stroke-linecap:butt;stroke-linejoin:miter;stroke-miterlimit:3.25;stroke-opacity:1;stroke-dasharray:none"
     id="path222" /><path
     inkscape:connector-curvature="0"
     d="m 724.91735,10.427856 0,5"
     style="fill:none;stroke:#666666;stroke-width:0.625;stroke-linecap:butt;stroke-linejoin:miter;stroke-miterlimit:3.25;stroke-opacity:1;stroke-dasharray:none"
     id="path224" /><path
     inkscape:connector-curvature="0"
     d="m 777.29985,10.427856 0,2.9975"
     style="fill:none;stroke:#666666;stroke-width:0.625;stroke-linecap:butt;stroke-linejoin:miter;stroke-miterlimit:3.25;stroke-opacity:1;stroke-dasharray:none"
     id="path226" /><path
     inkscape:connector-curvature="0"
     d="m 829.6836,10.427856 0,2.9975"
     style="fill:none;stroke:#666666;stroke-width:0.625;stroke-linecap:butt;stroke-linejoin:miter;stroke-miterlimit:3.25;stroke-opacity:1;stroke-dasharray:none"
     id="path228" /><path
     inkscape:connector-curvature="0"
     d="m 882.0661,10.427856 0,2.9975"
     style="fill:none;stroke:#666666;stroke-width:0.625;stroke-linecap:butt;stroke-linejoin:miter;stroke-miterlimit:3.25;stroke-opacity:1;stroke-dasharray:none"
     id="path230" /><path
     inkscape:connector-curvature="0"
     d="m 934.4486,10.427856 0,5"
     style="fill:none;stroke:#666666;stroke-width:0.625;stroke-linecap:butt;stroke-linejoin:miter;stroke-miterlimit:3.25;stroke-opacity:1;stroke-dasharray:none"
     id="path232" /><path
     inkscape:connector-curvature="0"
     d="m 934.4486,534.25536 -5,0"
     style="fill:none;stroke:#666666;stroke-width:0.625;stroke-linecap:butt;stroke-linejoin:miter;stroke-miterlimit:3.25;stroke-opacity:1;stroke-dasharray:none"
     id="path234" /><path
     inkscape:connector-curvature="0"
     d="m 934.4486,513.30411 -2.9975,0"
     style="fill:none;stroke:#666666;stroke-width:0.625;stroke-linecap:butt;stroke-linejoin:miter;stroke-miterlimit:3.25;stroke-opacity:1;stroke-dasharray:none"
     id="path236" /><path
     inkscape:connector-curvature="0"
     d="m 934.4486,492.35161 -2.9975,0"
     style="fill:none;stroke:#666666;stroke-width:0.625;stroke-linecap:butt;stroke-linejoin:miter;stroke-miterlimit:3.25;stroke-opacity:1;stroke-dasharray:none"
     id="path238" /><path
     inkscape:connector-curvature="0"
     d="m 934.4486,471.39411 -2.9975,0"
     style="fill:none;stroke:#666666;stroke-width:0.625;stroke-linecap:butt;stroke-linejoin:miter;stroke-miterlimit:3.25;stroke-opacity:1;stroke-dasharray:none"
     id="path240" /><path
     inkscape:connector-curvature="0"
     d="m 934.4486,450.44286 -2.9975,0"
     style="fill:none;stroke:#666666;stroke-width:0.625;stroke-linecap:butt;stroke-linejoin:miter;stroke-miterlimit:3.25;stroke-opacity:1;stroke-dasharray:none"
     id="path242" /><path
     inkscape:connector-curvature="0"
     d="m 934.4486,429.49036 -5,0"
     style="fill:none;stroke:#666666;stroke-width:0.625;stroke-linecap:butt;stroke-linejoin:miter;stroke-miterlimit:3.25;stroke-opacity:1;stroke-dasharray:none"
     id="path244" /><path
     inkscape:connector-curvature="0"
     d="m 934.4486,408.53786 -2.9975,0"
     style="fill:none;stroke:#666666;stroke-width:0.625;stroke-linecap:butt;stroke-linejoin:miter;stroke-miterlimit:3.25;stroke-opacity:1;stroke-dasharray:none"
     id="path246" /><path
     inkscape:connector-curvature="0"
     d="m 934.4486,387.58661 -2.9975,0"
     style="fill:none;stroke:#666666;stroke-width:0.625;stroke-linecap:butt;stroke-linejoin:miter;stroke-miterlimit:3.25;stroke-opacity:1;stroke-dasharray:none"
     id="path248" /><path
     inkscape:connector-curvature="0"
     d="m 934.4486,366.62911 -2.9975,0"
     style="fill:none;stroke:#666666;stroke-width:0.625;stroke-linecap:butt;stroke-linejoin:miter;stroke-miterlimit:3.25;stroke-opacity:1;stroke-dasharray:none"
     id="path250" /><path
     inkscape:connector-curvature="0"
     d="m 934.4486,345.67661 -2.9975,0"
     style="fill:none;stroke:#666666;stroke-width:0.625;stroke-linecap:butt;stroke-linejoin:miter;stroke-miterlimit:3.25;stroke-opacity:1;stroke-dasharray:none"
     id="path252" /><path
     inkscape:connector-curvature="0"
     d="m 934.4486,324.72536 -5,0"
     style="fill:none;stroke:#666666;stroke-width:0.625;stroke-linecap:butt;stroke-linejoin:miter;stroke-miterlimit:3.25;stroke-opacity:1;stroke-dasharray:none"
     id="path254" /><path
     inkscape:connector-curvature="0"
     d="m 934.4486,303.77286 -2.9975,0"
     style="fill:none;stroke:#666666;stroke-width:0.625;stroke-linecap:butt;stroke-linejoin:miter;stroke-miterlimit:3.25;stroke-opacity:1;stroke-dasharray:none"
     id="path256" /><path
     inkscape:connector-curvature="0"
     d="m 934.4486,282.82036 -2.9975,0"
     style="fill:none;stroke:#666666;stroke-width:0.625;stroke-linecap:butt;stroke-linejoin:miter;stroke-miterlimit:3.25;stroke-opacity:1;stroke-dasharray:none"
     id="path258" /><path
     inkscape:connector-curvature="0"
     d="m 934.4486,261.86286 -2.9975,0"
     style="fill:none;stroke:#666666;stroke-width:0.625;stroke-linecap:butt;stroke-linejoin:miter;stroke-miterlimit:3.25;stroke-opacity:1;stroke-dasharray:none"
     id="path260" /><path
     inkscape:connector-curvature="0"
     d="m 934.4486,240.91161 -2.9975,0"
     style="fill:none;stroke:#666666;stroke-width:0.625;stroke-linecap:butt;stroke-linejoin:miter;stroke-miterlimit:3.25;stroke-opacity:1;stroke-dasharray:none"
     id="path262" /><path
     inkscape:connector-curvature="0"
     d="m 934.4486,219.95911 -5,0"
     style="fill:none;stroke:#666666;stroke-width:0.625;stroke-linecap:butt;stroke-linejoin:miter;stroke-miterlimit:3.25;stroke-opacity:1;stroke-dasharray:none"
     id="path264" /><path
     inkscape:connector-curvature="0"
     d="m 934.4486,199.00661 -2.9975,0"
     style="fill:none;stroke:#666666;stroke-width:0.625;stroke-linecap:butt;stroke-linejoin:miter;stroke-miterlimit:3.25;stroke-opacity:1;stroke-dasharray:none"
     id="path266" /><path
     inkscape:connector-curvature="0"
     d="m 934.4486,178.05536 -2.9975,0"
     style="fill:none;stroke:#666666;stroke-width:0.625;stroke-linecap:butt;stroke-linejoin:miter;stroke-miterlimit:3.25;stroke-opacity:1;stroke-dasharray:none"
     id="path268" /><path
     inkscape:connector-curvature="0"
     d="m 934.4486,157.09786 -2.9975,0"
     style="fill:none;stroke:#666666;stroke-width:0.625;stroke-linecap:butt;stroke-linejoin:miter;stroke-miterlimit:3.25;stroke-opacity:1;stroke-dasharray:none"
     id="path270" /><path
     inkscape:connector-curvature="0"
     d="m 934.4486,136.14536 -2.9975,0"
     style="fill:none;stroke:#666666;stroke-width:0.625;stroke-linecap:butt;stroke-linejoin:miter;stroke-miterlimit:3.25;stroke-opacity:1;stroke-dasharray:none"
     id="path272" /><path
     inkscape:connector-curvature="0"
     d="m 934.4486,115.19286 -5,0"
     style="fill:none;stroke:#666666;stroke-width:0.625;stroke-linecap:butt;stroke-linejoin:miter;stroke-miterlimit:3.25;stroke-opacity:1;stroke-dasharray:none"
     id="path274" /><path
     inkscape:connector-curvature="0"
     d="m 934.4486,94.241606 -2.9975,0"
     style="fill:none;stroke:#666666;stroke-width:0.625;stroke-linecap:butt;stroke-linejoin:miter;stroke-miterlimit:3.25;stroke-opacity:1;stroke-dasharray:none"
     id="path276" /><path
     inkscape:connector-curvature="0"
     d="m 934.4486,73.289106 -2.9975,0"
     style="fill:none;stroke:#666666;stroke-width:0.625;stroke-linecap:butt;stroke-linejoin:miter;stroke-miterlimit:3.25;stroke-opacity:1;stroke-dasharray:none"
     id="path278" /><path
     inkscape:connector-curvature="0"
     d="m 934.4486,52.331606 -2.9975,0"
     style="fill:none;stroke:#666666;stroke-width:0.625;stroke-linecap:butt;stroke-linejoin:miter;stroke-miterlimit:3.25;stroke-opacity:1;stroke-dasharray:none"
     id="path280" /><path
     inkscape:connector-curvature="0"
     d="m 934.4486,31.380356 -2.9975,0"
     style="fill:none;stroke:#666666;stroke-width:0.625;stroke-linecap:butt;stroke-linejoin:miter;stroke-miterlimit:3.25;stroke-opacity:1;stroke-dasharray:none"
     id="path282" /><path
     inkscape:connector-curvature="0"
     d="m 934.4486,10.427856 -5,0"
     style="fill:none;stroke:#666666;stroke-width:0.625;stroke-linecap:butt;stroke-linejoin:miter;stroke-miterlimit:3.25;stroke-opacity:1;stroke-dasharray:none"
     id="path284" /><text
     id="text4416"
     y="605.05414"
     x="455.73172"
     style="font-size:45px;font-style:normal;font-variant:normal;font-weight:normal;font-stretch:normal;text-align:start;line-height:125%;letter-spacing:0px;word-spacing:0px;writing-mode:lr-tb;text-anchor:start;fill:#000000;fill-opacity:1;stroke:none;font-family:sans-serif;-inkscape-font-specification:'sans-serif, Normal'"
     xml:space="preserve"
     sodipodi:linespacing="125%"><tspan
       style="font-style:italic;font-variant:normal;font-weight:normal;font-stretch:normal;font-family:Times New Roman;-inkscape-font-specification:'Times New Roman,  Italic'"
       id="tspan4436"
       y="605.05414"
       x="455.73172"> σ <tspan
   id="tspan4551"
   style="font-style:normal;font-variant:normal;font-weight:normal;font-stretch:normal;font-family:Times New Roman;-inkscape-font-specification:'Times New Roman, '">(MPa)</tspan></tspan></text>
<text
     xml:space="preserve"
     style="font-size:45px;font-style:normal;font-variant:normal;font-weight:normal;font-stretch:normal;text-align:start;line-height:125%;letter-spacing:0px;word-spacing:0px;writing-mode:lr-tb;text-anchor:start;fill:#000000;fill-opacity:1;stroke:none;font-family:sans-serif;-inkscape-font-specification:'sans-serif, Normal'"
     x="-364.72485"
     y="-79.991943"
     id="text4442"
     transform="matrix(0,-1,1,0,0,0)"
     sodipodi:linespacing="125%"><tspan
       x="-364.72485"
       y="-79.991943"
       id="tspan4458" /><tspan
       x="-364.72485"
       y="-23.741934"
       id="tspan4460" /><tspan
       id="tspan4541"
       style="font-style:italic;font-variant:normal;font-weight:normal;font-stretch:normal;font-family:Times New Roman;-inkscape-font-specification:'Times New Roman, Italic'"
       x="-364.72485"
       y="31.245115"> τ <tspan
   id="tspan4547"
   style="font-style:normal;font-variant:normal;font-weight:normal;font-stretch:normal;font-family:Times New Roman;-inkscape-font-specification:'Times New Roman, '">(MPa)</tspan></tspan></text>
<flowRoot
     transform="translate(71.323603,2.3028562)"
     style="font-size:45px;font-style:normal;font-variant:normal;font-weight:normal;font-stretch:normal;text-align:start;line-height:125%;letter-spacing:0px;word-spacing:0px;writing-mode:lr-tb;text-anchor:start;fill:#000000;fill-opacity:1;stroke:none;font-family:sans-serif;-inkscape-font-specification:'sans-serif, Normal'"
     id="flowRoot4464"
     xml:space="preserve"><flowRegion
       id="flowRegion4466"><rect
         y="-204.13666"
         x="-91.509537"
         height="358.99893"
         width="72.73835"
         id="rect4468" /></flowRegion><flowPara
       id="flowPara4470" /></flowRoot><path
     id="path4553"
     d="m 843.38022,73.975718 -279.03104,167.558842 363.161,-1e-5 -84.83104,-168.259919"
     style="fill:none;stroke:#000000;stroke-width:1px;stroke-linecap:butt;stroke-linejoin:miter;stroke-opacity:1"
     inkscape:connector-curvature="0" /><path
     id="path4555"
     d="m 809.02715,95.709293 18.92924,32.950907 31.54874,-19.63033"
     style="fill:none;stroke:#000000;stroke-width:1px;stroke-linecap:butt;stroke-linejoin:miter;stroke-opacity:1"
     inkscape:connector-curvature="0" /><path
     id="path4557"
     d="M 430.44233,311.64286 569.25677,533.88618"
     style="fill:none;stroke:#000000;stroke-width:1px;stroke-linecap:butt;stroke-linejoin:miter;stroke-opacity:1"
     inkscape:connector-curvature="0" /><text
     xml:space="preserve"
     style="font-size:45px;font-style:normal;font-variant:normal;font-weight:normal;font-stretch:normal;text-align:start;line-height:125%;letter-spacing:0px;word-spacing:0px;writing-mode:lr-tb;text-anchor:start;fill:#000000;fill-opacity:1;stroke:none;font-family:sans-serif;-inkscape-font-specification:'sans-serif, Normal'"
     x="534.25305"
     y="480.77759"
     id="text4563"
     sodipodi:linespacing="125%"><tspan
       x="534.25305"
       y="480.77759"
       id="tspan4565"
       style="font-style:italic;font-variant:normal;font-weight:normal;font-stretch:normal;font-family:Times New Roman;-inkscape-font-specification:'Times New Roman,  Italic'"><tspan
   id="tspan4569"
   style="font-style:normal;font-variant:normal;font-weight:normal;font-stretch:normal;font-family:Times New Roman;-inkscape-font-specification:'Times New Roman, '"> 2</tspan>θ</tspan></text>
<path
     id="path4571"
     d="m 483.72464,533.1851 c 0.70108,-46.97257 44.16823,-66.60288 44.16823,-66.60288"
     style="fill:none;stroke:#000000;stroke-width:1px;stroke-linecap:butt;stroke-linejoin:miter;stroke-opacity:1"
     inkscape:connector-curvature="0" /><text
     id="text4573"
     y="234.69742"
     x="849.03931"
     style="font-size:45px;font-style:normal;font-variant:normal;font-weight:normal;font-stretch:normal;text-align:start;line-height:125%;letter-spacing:0px;word-spacing:0px;writing-mode:lr-tb;text-anchor:start;fill:#000000;fill-opacity:1;stroke:none;font-family:sans-serif;-inkscape-font-specification:'sans-serif, Normal'"
     xml:space="preserve"
     sodipodi:linespacing="125%"><tspan
       style="font-style:italic;font-variant:normal;font-weight:normal;font-stretch:normal;font-family:Times New Roman;-inkscape-font-specification:'Times New Roman,  Italic'"
       id="tspan4575"
       y="234.69742"
       x="849.03931"><tspan
   style="font-style:normal;font-variant:normal;font-weight:normal;font-stretch:normal;font-family:Times New Roman;-inkscape-font-specification:'Times New Roman, '"
   id="tspan4577"> 2</tspan>θ</tspan></text>
<path
     style="fill:none;stroke:#000000;stroke-width:1px;stroke-linecap:butt;stroke-linejoin:miter;stroke-opacity:1"
     d="m 846.88564,240.13241 c 0.70108,-46.97256 44.16823,-66.60289 44.16823,-66.60289"
     id="path4579"
     inkscape:connector-curvature="0" /><path
     id="path4581"
     d="m 651.98457,188.95335 c 18.22815,28.04331 8.413,51.17905 8.413,51.17905"
     style="fill:none;stroke:#000000;stroke-width:1px;stroke-linecap:butt;stroke-linejoin:miter;stroke-opacity:1"
     inkscape:connector-curvature="0" /><text
     xml:space="preserve"
     style="font-size:45px;font-style:normal;font-variant:normal;font-weight:normal;font-stretch:normal;text-align:start;line-height:125%;letter-spacing:0px;word-spacing:0px;writing-mode:lr-tb;text-anchor:start;fill:#000000;fill-opacity:1;stroke:none;font-family:sans-serif;-inkscape-font-specification:'sans-serif, Normal'"
     x="620.48621"
     y="224.88228"
     id="text4583"
     sodipodi:linespacing="125%"><tspan
       x="620.48621"
       y="224.88228"
       id="tspan4585"
       style="font-style:italic;font-variant:normal;font-weight:normal;font-stretch:normal;font-family:Times New Roman;-inkscape-font-specification:'Times New Roman,  Italic'"> γ</tspan></text>
<text
     id="text4591"
     y="146.87096"
     x="430.73141"
     style="font-size:45px;font-style:normal;font-variant:normal;font-weight:normal;font-stretch:normal;text-align:start;line-height:125%;letter-spacing:0px;word-spacing:0px;writing-mode:lr-tb;text-anchor:start;fill:#000000;fill-opacity:1;stroke:none;font-family:sans-serif;-inkscape-font-specification:'sans-serif, Normal'"
     xml:space="preserve"
     sodipodi:linespacing="125%"><tspan
       y="146.87096"
       x="430.73141"
       id="tspan4593" /></text>
<text
     transform="matrix(0.99999952,9.7692e-4,-9.7692e-4,0.99999952,0,0)"
     id="text4595"
     y="275.94879"
     x="176.05309"
     style="font-size:45px;font-style:normal;font-variant:normal;font-weight:normal;font-stretch:normal;text-align:start;line-height:125%;letter-spacing:0px;word-spacing:0px;writing-mode:lr-tb;text-anchor:start;fill:#000000;fill-opacity:1;stroke:none;font-family:sans-serif;-inkscape-font-specification:'sans-serif, Normal'"
     xml:space="preserve"
     sodipodi:linespacing="125%"><tspan
       style="font-style:italic;font-variant:normal;font-weight:normal;font-stretch:normal;font-family:Times New Roman;-inkscape-font-specification:'Times New Roman,  Italic'"
       id="tspan4599"
       y="275.94879"
       x="176.05309">μ=<tspan
   id="tspan4607"
   style="font-style:normal;font-variant:normal;font-weight:normal;font-stretch:normal;font-family:Times New Roman;-inkscape-font-specification:'Times New Roman, '">tan</tspan> γ </tspan></text>
<path
     id="path4611"
     d="m 326.27003,234.50634 0.29492,-109.3351 -177.66891,109.3351 176.67289,0"
     style="fill:none;stroke:#000000;stroke-width:1px;stroke-linecap:butt;stroke-linejoin:miter;stroke-opacity:1"
     inkscape:connector-curvature="0" /><path
     style="fill:none;stroke:#000000;stroke-width:1px;stroke-linecap:butt;stroke-linejoin:miter;stroke-opacity:1"
     d="m 230.63368,184.04577 c 18.22815,28.04332 8.413,51.17905 8.413,51.17905"
     id="path4613"
     inkscape:connector-curvature="0" /><text
     id="text4615"
     y="219.9747"
     x="199.13531"
     style="font-size:45px;font-style:normal;font-variant:normal;font-weight:normal;font-stretch:normal;text-align:start;line-height:125%;letter-spacing:0px;word-spacing:0px;writing-mode:lr-tb;text-anchor:start;fill:#000000;fill-opacity:1;stroke:none;font-family:sans-serif;-inkscape-font-specification:'sans-serif, Normal'"
     xml:space="preserve"
     sodipodi:linespacing="125%"><tspan
       style="font-style:italic;font-variant:normal;font-weight:normal;font-stretch:normal;font-family:Times New Roman;-inkscape-font-specification:'Times New Roman,  Italic'"
       id="tspan4617"
       y="219.9747"
       x="199.13531"> γ</tspan></text>
<path
     style="fill:none;stroke:#000000;stroke-width:1px;stroke-linecap:butt;stroke-linejoin:miter;stroke-opacity:1"
     d="m 326.44808,197.43957 -37.29636,0.18033 0.0962,36.44776"
     id="path4619"
     inkscape:connector-curvature="0" /><text
     sodipodi:linespacing="125%"
     xml:space="preserve"
     style="font-style:normal;font-variant:normal;font-weight:normal;font-stretch:normal;font-size:45px;line-height:125%;font-family:sans-serif;-inkscape-font-specification:'sans-serif, Normal';text-align:start;letter-spacing:0px;word-spacing:0px;writing-mode:lr-tb;text-anchor:start;fill:#000000;fill-opacity:1;stroke:none"
     x="281.98035"
     y="571.87549"
     id="text3879"><tspan
       x="281.98035"
       y="571.87549"
       id="tspan3881"
       style="font-style:italic;font-variant:normal;font-weight:normal;font-stretch:normal;font-family:'Times New Roman';-inkscape-font-specification:'Times New Roman,  Italic'"> σ<tspan
   style="font-size:64.99999762%;baseline-shift:sub"
   id="tspan3893">2</tspan></tspan></text>
<text
     id="text3887"
     y="569.2561"
     x="804.10754"
     style="font-style:normal;font-variant:normal;font-weight:normal;font-stretch:normal;font-size:45px;line-height:125%;font-family:sans-serif;-inkscape-font-specification:'sans-serif, Normal';text-align:start;letter-spacing:0px;word-spacing:0px;writing-mode:lr-tb;text-anchor:start;fill:#000000;fill-opacity:1;stroke:none"
     xml:space="preserve"
     sodipodi:linespacing="125%"><tspan
       style="font-style:italic;font-variant:normal;font-weight:normal;font-stretch:normal;font-family:'Times New Roman';-inkscape-font-specification:'Times New Roman,  Italic'"
       id="tspan3889"
       y="569.2561"
       x="804.10754"> σ<tspan
   id="tspan3891"
   style="font-size:64.99999762%;baseline-shift:sub">1</tspan></tspan></text>
<text
     xml:space="preserve"
     style="font-style:normal;font-variant:normal;font-weight:normal;font-stretch:normal;font-size:15px;line-height:125%;font-family:sans-serif;-inkscape-font-specification:'sans-serif, Normal';text-align:start;letter-spacing:0px;word-spacing:0px;writing-mode:lr-tb;text-anchor:start;fill:#000000;fill-opacity:1;stroke:none;stroke-width:1px;stroke-linecap:butt;stroke-linejoin:miter;stroke-opacity:1"
     x="59.372326"
     y="513.39594"
     id="text3895"
     sodipodi:linespacing="125%"><tspan
       sodipodi:role="line"
       id="tspan3897"
       x="59.372326"
       y="513.39594"
       style="font-style:italic;font-variant:normal;font-weight:normal;font-stretch:normal;font-size:35px;font-family:serif;-inkscape-font-specification:'serif Italic'">C</tspan></text>
</svg>