<?xml version="1.0" encoding="UTF-8" standalone="no"?>
<!-- Created with Inkscape (http://www.inkscape.org/) -->

<svg
   xmlns:dc="http://purl.org/dc/elements/1.1/"
   xmlns:cc="http://creativecommons.org/ns#"
   xmlns:rdf="http://www.w3.org/1999/02/22-rdf-syntax-ns#"
   xmlns:svg="http://www.w3.org/2000/svg"
   xmlns="http://www.w3.org/2000/svg"
   xmlns:sodipodi="http://sodipodi.sourceforge.net/DTD/sodipodi-0.dtd"
   xmlns:inkscape="http://www.inkscape.org/namespaces/inkscape"
   id="svg8"
   version="1.1"
   viewBox="0 0 150.93611 213.45113"
   height="213.45113mm"
   width="150.93611mm"
   inkscape:version="0.92.3 (2405546, 2018-03-11)"
   sodipodi:docname="SlipWeakCurve.svg">
  <sodipodi:namedview
     inkscape:window-maximized="1"
     inkscape:window-y="0"
     inkscape:window-x="0"
     inkscape:window-height="1028"
     inkscape:window-width="1920"
     inkscape:snap-global="false"
     inkscape:snap-nodes="false"
     showgrid="false"
     inkscape:current-layer="layer1"
     inkscape:document-units="mm"
     inkscape:cy="305.49907"
     inkscape:cx="-150.13217"
     inkscape:zoom="0.7"
     inkscape:pageshadow="2"
     inkscape:pageopacity="0.0"
     borderopacity="1.0"
     bordercolor="#666666"
     pagecolor="#ffffff"
     id="base"
     fit-margin-top="0"
     fit-margin-left="0"
     fit-margin-right="0"
     fit-margin-bottom="0" />
  <defs
     id="defs2">
    <marker
       inkscape:stockid="Arrow1Send"
       orient="auto"
       refY="0"
       refX="0"
       id="Arrow1Send"
       style="overflow:visible"
       inkscape:isstock="true">
      <path
         id="path832"
         d="M 0,0 5,-5 -12.5,0 5,5 Z"
         style="fill:#000000;fill-opacity:1;fill-rule:evenodd;stroke:#000000;stroke-width:1.00000003pt;stroke-opacity:1"
         transform="matrix(-0.2,0,0,-0.2,-1.2,0)"
         inkscape:connector-curvature="0" />
    </marker>
    <marker
       inkscape:stockid="Arrow2Mend"
       orient="auto"
       refY="0"
       refX="0"
       id="Arrow2Mend"
       style="overflow:visible"
       inkscape:isstock="true">
      <path
         id="path844"
         style="fill:#000000;fill-opacity:1;fill-rule:evenodd;stroke:#000000;stroke-width:0.625;stroke-linejoin:round;stroke-opacity:1"
         d="M 8.7185878,4.0337352 -2.2072895,0.01601326 8.7185884,-4.0017078 c -1.7454984,2.3720609 -1.7354408,5.6174519 -6e-7,8.035443 z"
         transform="scale(-0.6)"
         inkscape:connector-curvature="0" />
    </marker>
    <marker
       inkscape:isstock="true"
       style="overflow:visible"
       id="Arrow1Lend"
       refX="0"
       refY="0"
       orient="auto"
       inkscape:stockid="Arrow1Lend">
      <path
         transform="matrix(-0.8,0,0,-0.8,-10,0)"
         style="fill:#000000;fill-opacity:1;fill-rule:evenodd;stroke:#000000;stroke-width:1.00000003pt;stroke-opacity:1"
         d="M 0,0 5,-5 -12.5,0 5,5 Z"
         id="path820"
         inkscape:connector-curvature="0" />
    </marker>
    <marker
       inkscape:isstock="true"
       style="overflow:visible"
       id="Arrow1Lstart"
       refX="0"
       refY="0"
       orient="auto"
       inkscape:stockid="Arrow1Lstart">
      <path
         transform="matrix(0.8,0,0,0.8,10,0)"
         style="fill:#000000;fill-opacity:1;fill-rule:evenodd;stroke:#000000;stroke-width:1.00000003pt;stroke-opacity:1"
         d="M 0,0 5,-5 -12.5,0 5,5 Z"
         id="path817"
         inkscape:connector-curvature="0" />
    </marker>
    <marker
       inkscape:isstock="true"
       style="overflow:visible"
       id="Arrow1Lstart-6"
       refX="0"
       refY="0"
       orient="auto"
       inkscape:stockid="Arrow1Lstart">
      <path
         inkscape:connector-curvature="0"
         transform="matrix(0.8,0,0,0.8,10,0)"
         style="fill:#000000;fill-opacity:1;fill-rule:evenodd;stroke:#000000;stroke-width:1.00000003pt;stroke-opacity:1"
         d="M 0,0 5,-5 -12.5,0 5,5 Z"
         id="path817-2" />
    </marker>
    <marker
       inkscape:isstock="true"
       style="overflow:visible"
       id="Arrow1Lend-9"
       refX="0"
       refY="0"
       orient="auto"
       inkscape:stockid="Arrow1Lend">
      <path
         inkscape:connector-curvature="0"
         transform="matrix(-0.8,0,0,-0.8,-10,0)"
         style="fill:#000000;fill-opacity:1;fill-rule:evenodd;stroke:#000000;stroke-width:1.00000003pt;stroke-opacity:1"
         d="M 0,0 5,-5 -12.5,0 5,5 Z"
         id="path820-1" />
    </marker>
  </defs>
  <metadata
     id="metadata5">
    <rdf:RDF>
      <cc:Work
         rdf:about="">
        <dc:format>image/svg+xml</dc:format>
        <dc:type
           rdf:resource="http://purl.org/dc/dcmitype/StillImage" />
        <dc:title></dc:title>
      </cc:Work>
    </rdf:RDF>
  </metadata>
  <g
     id="layer1"
     inkscape:groupmode="layer"
     inkscape:label="Layer 1"
     transform="translate(-28.2402,22.686885)">
    <path
       sodipodi:nodetypes="cccc"
       inkscape:connector-curvature="0"
       id="path1157"
       d="m 33.828869,125.96577 37.230654,59.15327 -37.041666,0.18898 z"
       style="fill:#ffcd00;fill-opacity:1;stroke:#ff6000;stroke-width:0.26458332px;stroke-linecap:butt;stroke-linejoin:miter;stroke-opacity:1" />
    <path
       inkscape:connector-curvature="0"
       id="path815"
       d="M 33.639881,96.483632 V 185.686 H 165.17559"
       style="fill:none;stroke:#000000;stroke-width:1;stroke-linecap:butt;stroke-linejoin:miter;stroke-miterlimit:4;stroke-dasharray:none;stroke-opacity:1;marker-start:url(#Arrow1Lstart);marker-end:url(#Arrow1Lend)" />
    <path
       inkscape:connector-curvature="0"
       id="path1143"
       d="m 34.017857,124.45387 37.797618,60.47618 h 58.208335"
       style="fill:none;stroke:#ff0000;stroke-width:2;stroke-linecap:butt;stroke-linejoin:miter;stroke-miterlimit:4;stroke-dasharray:none;stroke-opacity:1" />
    <path
       style="font-style:normal;font-variant:normal;font-weight:normal;font-stretch:normal;letter-spacing:normal;word-spacing:normal;text-anchor:start;fill:none;fill-opacity:1;fill-rule:evenodd;stroke:#000000;stroke-width:2;stroke-linecap:butt;stroke-linejoin:miter;stroke-miterlimit:10.43299961;stroke-dasharray:none;stroke-dashoffset:0;stroke-opacity:1;marker-end:url(#Arrow1Send)"
       d="m 78.844511,151.60536 c -6.681739,11.22533 -35.546849,10.15625 -35.546849,10.15625"
       id="path1635"
       inkscape:connector-curvature="0"
       sodipodi:nodetypes="cc" />
    <path
       sodipodi:nodetypes="cccc"
       inkscape:connector-curvature="0"
       id="path1157-2"
       d="M 33.507432,8.736618 70.738086,67.889892 33.69642,68.078871 Z"
       style="font-style:normal;font-variant:normal;font-weight:normal;font-stretch:normal;letter-spacing:normal;word-spacing:normal;text-anchor:start;fill:#ffcd00;fill-opacity:1;fill-rule:evenodd;stroke:#ff6000;stroke-width:0.26458332px;stroke-linecap:butt;stroke-linejoin:miter;stroke-miterlimit:10.43299961;stroke-dasharray:none;stroke-dashoffset:0;stroke-opacity:1" />
    <path
       inkscape:connector-curvature="0"
       id="path815-7"
       d="M 33.318444,-20.745522 V 68.45685 H 164.85415"
       style="font-style:normal;font-variant:normal;font-weight:normal;font-stretch:normal;letter-spacing:normal;word-spacing:normal;text-anchor:start;fill:none;fill-opacity:1;fill-rule:evenodd;stroke:#000000;stroke-width:1;stroke-linecap:butt;stroke-linejoin:miter;stroke-miterlimit:4;stroke-dasharray:none;stroke-dashoffset:0;stroke-opacity:1;marker-start:url(#Arrow1Lstart-6);marker-end:url(#Arrow1Lend-9)" />
    <path
       inkscape:connector-curvature="0"
       id="path1143-0"
       d="M 33.69642,7.224714 71.494038,67.700901 H 129.70237"
       style="font-style:normal;font-variant:normal;font-weight:normal;font-stretch:normal;letter-spacing:normal;word-spacing:normal;text-anchor:start;fill:none;fill-opacity:1;fill-rule:evenodd;stroke:#ff0000;stroke-width:2;stroke-linecap:butt;stroke-linejoin:miter;stroke-miterlimit:4;stroke-dasharray:none;stroke-dashoffset:0;stroke-opacity:1" />
    <g
       transform="matrix(1.0893804,0,0,1.1404397,-51.258519,-124.67571)"
       id="g1456"
       style="font-style:normal;font-variant:normal;font-weight:normal;font-stretch:normal;letter-spacing:normal;word-spacing:normal;text-anchor:start;fill:none;fill-opacity:1;fill-rule:evenodd;stroke:#000000;stroke-linecap:butt;stroke-linejoin:miter;stroke-miterlimit:10.43299961;stroke-dasharray:none;stroke-dashoffset:0;stroke-opacity:1">
      <g
         style="font-style:normal;font-variant:normal;font-weight:normal;font-stretch:normal;letter-spacing:normal;word-spacing:normal;text-anchor:start;fill:none;fill-opacity:1;fill-rule:evenodd;stroke:#000000;stroke-linecap:butt;stroke-linejoin:miter;stroke-miterlimit:10.43299961;stroke-dasharray:none;stroke-dashoffset:0;stroke-opacity:1"
         id="g1454"
         transform="matrix(0.3,0,0,-0.3,-52.5,222.75)"
         xml:space="preserve"
         stroke-miterlimit="10.433"
         font-style="normal"
         font-variant="normal"
         font-weight="normal"
         font-stretch="normal"
         font-size-adjust="none"
         letter-spacing="normal"
         word-spacing="normal"><path
           style="fill:#000000;stroke-width:0"
           inkscape:connector-curvature="0"
           d="m 467.04,423.68 0.02,0.1 0.02,0.11 0.03,0.11 0.03,0.11 0.03,0.12 0.03,0.12 0.06,0.24 0.06,0.25 0.06,0.25 0.06,0.24 0.06,0.25 0.02,0.11 0.03,0.12 0.03,0.11 0.02,0.11 0.03,0.1 0.02,0.1 0.02,0.1 0.02,0.08 0.02,0.09 0.01,0.07 0.02,0.07 0.01,0.07 0.01,0.05 v 0.05 l 0.01,0.03 v 0.02 0.01 c 0,0.84 -0.59,1.34 -1.44,1.34 -0.15,0 -1.54,-0.04 -2,-1.78 l -7.17,-28.86 c -0.14,-0.59 -0.14,-0.68 -0.14,-0.79 0,-0.74 0.55,-1.35 1.39,-1.35 1.05,0 1.64,0.91 1.75,1.05 0.19,0.45 0.84,3.05 2.73,10.72 1.6,-1.34 3.83,-1.55 4.83,-1.55 3.49,0 5.44,2.24 6.63,3.64 0.45,-2.25 2.29,-3.64 4.48,-3.64 1.75,0 2.89,1.14 3.69,2.74 0.84,1.79 1.5,4.84 1.5,4.93 0,0.5 -0.45,0.5 -0.59,0.5 -0.5,0 -0.55,-0.2 -0.71,-0.9 -0.84,-3.24 -1.75,-6.17 -3.78,-6.17 -1.34,0 -1.5,1.29 -1.5,2.29 0,1.1 0.6,3.44 1,5.17 l 1.39,5.4 c 0.16,0.75 0.64,2.64 0.85,3.39 0.25,1.14 0.75,3.03 0.75,3.32 0,0.91 -0.71,1.35 -1.44,1.35 -0.25,0 -1.55,-0.05 -1.95,-1.74 l -2.35,-9.32 c -0.59,-2.49 -1.14,-4.58 -1.3,-5.08 -0.04,-0.25 -2.43,-4.78 -6.46,-4.78 -2.49,0 -3.69,1.64 -3.69,4.32 0,1.46 0.34,2.85 0.7,4.25 z"
           id="path1450" /><path
           style="fill:#000000;stroke-width:0"
           inkscape:connector-curvature="0"
           d="m 505.41,421.9 v 0.01 0 h 0.01 v 0.01 0 0.01 l 0.01,0.01 v 0 0.01 0.01 l 0.01,0.01 0.01,0.02 v 0.02 l 0.01,0.02 v 0.02 l 0.01,0.02 0.01,0.02 v 0.03 l 0.01,0.02 0.01,0.05 v 0.02 l 0.01,0.02 v 0.03 l 0.01,0.02 v 0.02 l 0.01,0.02 v 0.02 l 0.01,0.02 v 0.02 0.01 0.01 0.01 h 0.01 v 0.01 0 0.01 0 0.01 0 0 0.01 0 c 0,0.19 -0.14,0.5 -0.55,0.5 -0.7,0 -3.59,-0.28 -4.46,-0.36 -0.29,-0.03 -0.77,-0.06 -0.77,-0.8 0,-0.48 0.48,-0.48 0.91,-0.48 1.67,0 1.67,-0.25 1.67,-0.53 0,-0.24 -0.06,-0.46 -0.14,-0.77 l -1.99,-7.94 c -0.73,1.14 -1.92,2.05 -3.59,2.05 v -0.97 c 2.44,0 3.11,-2.64 3.11,-3.03 0,-0.14 -0.08,-0.39 -0.11,-0.48 l -1.64,-6.52 c -0.24,-0.98 -1,-1.67 -1.77,-2.34 -0.31,-0.27 -1.72,-1.39 -3.22,-1.39 -1.28,0 -2.53,0.9 -2.53,3.37 0,1.86 1,5.69 1.82,7.08 1.59,2.8 3.37,3.31 4.34,3.31 v 0.97 c -4.45,0 -8.99,-4.91 -8.99,-9.92 0,-3.38 2.27,-5.78 5.27,-5.78 1.88,0 3.55,1.08 4.94,2.44 0.67,-2.1 2.69,-2.44 3.59,-2.44 1.25,0 2.13,0.76 2.75,1.84 0.77,1.36 1.22,3.35 1.22,3.49 0,0.45 -0.45,0.45 -0.55,0.45 -0.5,0 -0.53,-0.14 -0.76,-1.08 -0.42,-1.67 -1.1,-3.73 -2.55,-3.73 -0.91,0 -1.16,0.76 -1.16,1.7 0,0.67 0.08,0.98 0.18,1.44 z"
           id="path1452" /></g>    </g>
    <g
       id="g2507"
       transform="translate(-20.78869,46.491072)">
      <g
         word-spacing="normal"
         letter-spacing="normal"
         font-size-adjust="none"
         font-stretch="normal"
         font-weight="normal"
         font-variant="normal"
         font-style="normal"
         stroke-miterlimit="10.433"
         xml:space="preserve"
         transform="matrix(0.3,0,0,-0.3,-52.5,222.75)"
         id="content"
         style="font-style:normal;font-variant:normal;font-weight:normal;font-stretch:normal;letter-spacing:normal;word-spacing:normal;text-anchor:start;fill:none;fill-opacity:1;fill-rule:evenodd;stroke:#000000;stroke-linecap:butt;stroke-linejoin:miter;stroke-miterlimit:10.43299961;stroke-dasharray:none;stroke-dashoffset:0;stroke-opacity:1"><path
           id="path2484"
           d="m 465.58,420.7 v 1.98 12.96 c 0,1.36 0.35,1.7 1.71,1.7 6.71,0 9.81,-2.34 9.81,-7.47 0,-4.84 -2.94,-7.33 -8.67,-7.33 -1,0 -1.71,0.05 -2.85,0.14 v -1.98 c 1.3,-0.11 2.14,-0.16 3.44,-0.16 3.89,0 6.58,0.5 8.72,1.71 2.98,1.59 4.78,4.62 4.78,7.92 0,2.09 -0.69,3.98 -2.05,5.42 -1.98,2.2 -6.31,3.59 -11,3.59 h -13.15 v -0.95 c 3.68,-0.39 4.18,-0.89 4.18,-4.48 v -21.57 c 0,-4.18 -0.4,-4.68 -4.18,-5.03 v -0.95 h 13.95 v 0.95 c -3.94,0.14 -4.69,0.85 -4.69,4.49 z"
           inkscape:connector-curvature="0"
           style="fill:#000000;stroke-width:0" /><path
           id="path2486"
           d="m 504.54,409.48 -0.08,-0.06 -0.08,-0.06 -0.08,-0.06 -0.07,-0.06 -0.07,-0.05 -0.08,-0.05 -0.07,-0.05 -0.07,-0.05 -0.07,-0.04 -0.07,-0.04 -0.06,-0.04 -0.07,-0.04 -0.07,-0.03 -0.06,-0.04 -0.07,-0.03 -0.06,-0.03 -0.07,-0.02 -0.06,-0.03 -0.07,-0.02 -0.06,-0.02 -0.07,-0.02 -0.06,-0.02 -0.07,-0.01 -0.06,-0.02 -0.13,-0.02 -0.14,-0.01 -0.13,-0.01 -0.14,-0.01 c -1.14,0 -1.5,0.71 -1.5,2.89 v 9.72 c 0,2.58 -0.25,4.03 -0.99,5.22 -1.11,1.8 -3.25,2.75 -6.18,2.75 -4.68,0 -8.36,-2.44 -8.36,-5.58 0,-1.15 0.98,-2.14 2.14,-2.14 1.18,0 2.23,0.99 2.23,2.08 0,0.2 -0.05,0.45 -0.09,0.8 -0.11,0.45 -0.16,0.86 -0.16,1.2 0,1.34 1.6,2.44 3.6,2.44 2.43,0 3.78,-1.44 3.78,-4.13 v -3.04 -1.19 -7.24 c 0,-1.54 -0.25,-1.98 -1.3,-2.59 -1.19,-0.69 -2.59,-1.14 -3.64,-1.14 -1.74,0 -3.13,1.69 -3.13,3.84 v 0.19 c 0,2.94 2.04,4.74 8.07,6.94 v 1.19 c -7.68,-3.1 -8.52,-3.49 -10.66,-5.38 -1.09,-1 -1.8,-2.69 -1.8,-4.34 0,-3.14 2.19,-5.33 5.24,-5.33 2.19,0 4.23,1.05 7.26,3.64 0.25,-2.59 1.16,-3.64 3.19,-3.64 1.7,0 2.75,0.59 4.49,2.5 z"
           inkscape:connector-curvature="0"
           style="fill:#000000;stroke-width:0" /><path
           id="path2488"
           d="m 536.45,420.04 -9.95,9.92 c -0.61,0.6 -0.7,0.71 -1.11,0.71 -0.48,0 -0.98,-0.46 -0.98,-1 0,-0.36 0.09,-0.46 0.64,-1 l 9.97,-10.02 -9.97,-10.01 c -0.55,-0.55 -0.64,-0.64 -0.64,-1 0,-0.55 0.5,-0.99 0.98,-0.99 0.41,0 0.5,0.1 1.11,0.69 l 9.91,9.92 10.31,-10.31 c 0.11,-0.05 0.45,-0.3 0.75,-0.3 0.59,0 1,0.44 1,0.99 0,0.11 0,0.31 -0.16,0.56 -0.04,0.09 -7.97,7.92 -10.45,10.45 l 9.11,9.13 c 0.25,0.29 1,0.93 1.25,1.23 0.05,0.11 0.25,0.3 0.25,0.66 0,0.54 -0.41,1 -1,1 -0.39,0 -0.59,-0.21 -1.14,-0.75 z"
           inkscape:connector-curvature="0"
           style="fill:#000000;stroke-width:0" /><path
           id="path2490"
           d="m 569.15,426.03 0.06,0.01 0.06,0.02 0.05,0.01 0.06,0.01 0.05,0.01 0.06,0.01 0.1,0.02 0.1,0.02 0.1,0.02 0.1,0.01 0.09,0.02 0.09,0.01 0.1,0.01 h 0.09 l 0.09,0.01 h 0.1 l 0.09,0.01 h 0.1 0.1 c 1.3,0 1.74,-0.8 1.74,-3.19 v -12.61 c 0,-2.68 -0.69,-3.43 -3.49,-3.48 v -0.75 h 11.06 v 0.75 c -2.64,0.09 -3.39,0.64 -3.39,2.59 v 14.05 c 0,0.09 0.41,0.59 0.75,0.94 1.25,1.15 3.39,2 5.13,2 2.2,0 3.3,-1.75 3.3,-5.24 v -10.81 c 0,-2.78 -0.55,-3.33 -3.39,-3.53 v -0.75 h 11.15 v 0.75 c -2.84,0.05 -3.58,0.89 -3.58,3.98 v 12.55 c 1.49,2.16 3.13,3.05 5.43,3.05 2.84,0 3.73,-1.35 3.73,-5.49 v -10.51 c 0,-2.83 -0.39,-3.24 -3.28,-3.58 v -0.75 h 10.9 v 0.75 l -1.29,0.09 c -1.49,0.11 -2.14,1 -2.14,2.94 v 10.27 c 0,5.87 -1.94,8.87 -5.78,8.87 -2.89,0 -5.43,-1.3 -8.11,-4.19 -0.91,2.85 -2.6,4.19 -5.28,4.19 -2.21,0 -3.6,-0.7 -7.74,-3.84 v 3.73 l -0.34,0.11 c -2.55,-0.95 -4.24,-1.5 -6.97,-2.25 z"
           inkscape:connector-curvature="0"
           style="fill:#000000;stroke-width:0" /><polygon
           id="polygon2492"
           points="646.04,425.43 620.93,425.43 620.93,422.14 646.04,422.14 "
           style="fill:#000000;stroke-width:0" /><polygon
           id="polygon2494"
           points="646.04,415.46 620.93,415.46 620.93,412.18 646.04,412.18 "
           style="fill:#000000;stroke-width:0" /><path
           id="path2496"
           d="m 690.48,405.65 v 26.21 c 0,2.98 0.5,4.82 1.45,5.48 0.7,0.5 1.39,0.69 3.28,0.89 v 0.95 h -11.7 v -0.95 c 1.89,-0.14 2.59,-0.34 3.34,-0.8 0.99,-0.68 1.44,-2.48 1.44,-5.57 v -16.79 l -19.17,24.11 h -8.53 v -0.95 c 2.14,0 2.84,-0.39 4.84,-2.73 v -21.97 c 0,-5.14 -0.7,-6.08 -4.84,-6.38 v -0.95 h 11.71 v 0.95 c -3.84,0.19 -4.68,1.35 -4.68,6.38 v 19.53 l 22.01,-27.41 z"
           inkscape:connector-curvature="0"
           style="fill:#000000;stroke-width:0" /><path
           id="path2498"
           d="m 727.73,420.04 -9.96,9.92 c -0.61,0.6 -0.7,0.71 -1.11,0.71 -0.48,0 -0.98,-0.46 -0.98,-1 0,-0.36 0.09,-0.46 0.64,-1 l 9.97,-10.02 -9.97,-10.01 c -0.55,-0.55 -0.64,-0.64 -0.64,-1 0,-0.55 0.5,-0.99 0.98,-0.99 0.41,0 0.5,0.1 1.11,0.69 l 9.91,9.92 10.31,-10.31 c 0.11,-0.05 0.46,-0.3 0.75,-0.3 0.6,0 1,0.44 1,0.99 0,0.11 0,0.31 -0.15,0.56 -0.05,0.09 -7.97,7.92 -10.46,10.45 l 9.11,9.13 c 0.25,0.29 1,0.93 1.25,1.23 0.05,0.11 0.25,0.3 0.25,0.66 0,0.54 -0.4,1 -1,1 -0.39,0 -0.59,-0.21 -1.14,-0.75 z"
           inkscape:connector-curvature="0"
           style="fill:#000000;stroke-width:0" /><path
           id="path2500"
           d="m 760.54,426.03 0.06,0.01 0.06,0.02 0.06,0.01 0.05,0.01 0.06,0.01 0.05,0.01 0.11,0.02 0.1,0.02 0.09,0.02 0.1,0.01 0.1,0.02 0.09,0.01 0.09,0.01 h 0.09 l 0.1,0.01 h 0.09 l 0.1,0.01 h 0.1 0.1 c 1.29,0 1.73,-0.8 1.73,-3.19 v -12.61 c 0,-2.68 -0.69,-3.43 -3.48,-3.48 v -0.75 h 11.06 v 0.75 c -2.64,0.09 -3.39,0.64 -3.39,2.59 v 14.05 c 0,0.09 0.41,0.59 0.75,0.94 1.25,1.15 3.39,2 5.12,2 2.21,0 3.3,-1.75 3.3,-5.24 v -10.81 c 0,-2.78 -0.55,-3.33 -3.39,-3.53 V 406.2 H 785 v 0.75 c -2.85,0.05 -3.58,0.89 -3.58,3.98 v 12.55 c 1.48,2.16 3.12,3.05 5.42,3.05 2.84,0 3.73,-1.35 3.73,-5.49 v -10.51 c 0,-2.83 -0.39,-3.24 -3.28,-3.58 v -0.75 h 10.91 v 0.75 l -1.3,0.09 c -1.48,0.11 -2.14,1 -2.14,2.94 v 10.27 c 0,5.87 -1.94,8.87 -5.78,8.87 -2.89,0 -5.42,-1.3 -8.11,-4.19 -0.9,2.85 -2.59,4.19 -5.28,4.19 -2.2,0 -3.59,-0.7 -7.74,-3.84 v 3.73 l -0.34,0.11 c -2.54,-0.95 -4.23,-1.5 -6.97,-2.25 z"
           inkscape:connector-curvature="0"
           style="fill:#000000;stroke-width:0" /><path
           id="path2502"
           d="m 822.62,432.67 h 0.12 0.12 0.12 l 0.05,0.01 h 0.06 0.06 l 0.05,0.01 0.06,0.01 0.05,0.01 0.05,0.01 0.05,0.01 0.05,0.01 0.05,0.02 0.04,0.02 0.05,0.02 0.04,0.02 0.04,0.03 0.03,0.03 0.04,0.03 0.03,0.03 0.03,0.04 0.01,0.02 0.01,0.02 0.01,0.02 0.02,0.02 0.01,0.02 0.01,0.03 v 0.02 l 0.01,0.03 0.01,0.03 v 0.02 l 0.01,0.03 v 0.03 l 0.01,0.03 v 0.04 0.03 0.03 c 0,0.74 -0.67,0.74 -1.3,0.74 H 802.7 c -0.62,0 -1.28,0 -1.28,-0.74 0,-0.73 0.66,-0.73 1.28,-0.73 z"
           inkscape:connector-curvature="0"
           style="fill:#000000;stroke-width:0" /><path
           id="path2504"
           d="m 837.76,449.09 -6.63,-3.34 v -0.52 c 0.44,0.19 0.85,0.33 0.99,0.41 0.67,0.25 1.29,0.4 1.65,0.4 0.78,0 1.11,-0.56 1.11,-1.73 v -16.69 c 0,-1.22 -0.29,-2.06 -0.87,-2.39 -0.56,-0.33 -1.08,-0.44 -2.63,-0.48 v -0.55 h 10.17 v 0.55 c -2.9,0.04 -3.5,0.4 -3.5,2.17 v 22.11 z"
           inkscape:connector-curvature="0"
           style="fill:#000000;stroke-width:0" /></g>    </g>
  </g>
  <g
     transform="translate(15.983014,-20.780377)"
     id="g1960">
    <g
       style="font-style:normal;font-variant:normal;font-weight:normal;font-stretch:normal;letter-spacing:normal;word-spacing:normal;text-anchor:start;fill:none;fill-opacity:1;fill-rule:evenodd;stroke:#000000;stroke-linecap:butt;stroke-linejoin:miter;stroke-miterlimit:10.43299961;stroke-dasharray:none;stroke-dashoffset:0;stroke-opacity:1"
       id="g1958"
       transform="matrix(0.3,0,0,-0.3,-52.5,222.75)"
       xml:space="preserve"
       stroke-miterlimit="10.433"
       font-style="normal"
       font-variant="normal"
       font-weight="normal"
       font-stretch="normal"
       font-size-adjust="none"
       letter-spacing="normal"
       word-spacing="normal"><path
         style="fill:#000000;stroke-width:0"
         inkscape:connector-curvature="0"
         d="m 491.11,438.73 h -9.91 v -0.8 c 1.6,-0.14 2.1,-0.25 2.69,-0.64 0.5,-0.29 0.84,-1 0.84,-1.65 0,-0.8 -1.29,-5.88 -3.68,-14.3 -0.21,-0.64 -0.39,-1.48 -0.64,-2.44 -0.91,-3.23 -1.66,-5.23 -2.75,-6.92 -1.94,-3.09 -4.63,-4.64 -8.11,-4.64 -4.14,0 -6.99,2.39 -6.99,5.89 0,1.69 1.55,7.72 4.89,19.22 0.1,0.36 0.19,0.7 0.25,0.95 1.05,3.49 1.85,4.19 5.22,4.53 v 0.8 h -13.59 v -0.8 c 3.34,-0.29 3.89,-0.59 3.89,-2.04 0,-0.6 -0.16,-1.39 -0.36,-2.24 l -2.64,-9.56 c -1.49,-5.39 -2.14,-8.58 -2.14,-10.56 0,-4.78 4.59,-8.22 10.86,-8.22 6.53,0 10.67,3.53 12.86,11 l 4.14,14.2 c 1.89,6.49 2.09,6.72 5.17,7.42 z"
         id="path1950" /><path
         style="fill:#000000;stroke-width:0"
         inkscape:connector-curvature="0"
         d="m 520.86,439.87 -0.34,-0.22 -0.32,-0.21 -0.32,-0.21 -0.3,-0.21 -0.29,-0.2 -0.29,-0.19 -0.27,-0.19 -0.26,-0.19 -0.26,-0.18 -0.24,-0.18 -0.24,-0.18 -0.23,-0.17 -0.22,-0.18 -0.21,-0.17 -0.41,-0.34 -0.39,-0.34 -0.38,-0.34 -0.35,-0.35 -0.35,-0.35 -0.34,-0.37 -0.34,-0.38 -0.34,-0.4 -0.34,-0.42 c -3.53,-4.34 -5.28,-9.31 -5.28,-15.14 0,-6.33 1.84,-11.22 6.23,-16.3 2.04,-2.39 3.33,-3.48 5.93,-5.07 l 0.59,0.79 c -3.98,3.14 -5.37,4.88 -6.72,8.61 -1.2,3.35 -1.75,7.13 -1.75,12.11 0,5.24 0.66,9.31 2,12.41 1.39,3.09 2.89,4.89 6.47,7.76 z"
         id="path1952" /><path
         style="fill:#000000;stroke-width:0"
         inkscape:connector-curvature="0"
         d="m 523.67,426.03 0.06,0.01 0.06,0.02 0.06,0.01 0.05,0.01 0.06,0.01 0.05,0.01 0.1,0.02 0.11,0.02 0.09,0.02 0.1,0.01 0.09,0.02 0.1,0.01 0.09,0.01 h 0.09 l 0.1,0.01 h 0.09 l 0.1,0.01 h 0.09 0.11 c 1.29,0 1.73,-0.8 1.73,-3.19 v -12.61 c 0,-2.68 -0.69,-3.43 -3.48,-3.48 v -0.75 h 11.06 v 0.75 c -2.64,0.09 -3.39,0.64 -3.39,2.59 v 14.05 c 0,0.09 0.4,0.59 0.75,0.94 1.25,1.15 3.39,2 5.12,2 2.21,0 3.3,-1.75 3.3,-5.24 v -10.81 c 0,-2.78 -0.55,-3.33 -3.39,-3.53 v -0.75 h 11.15 v 0.75 c -2.84,0.05 -3.57,0.89 -3.57,3.98 v 12.55 c 1.48,2.16 3.12,3.05 5.42,3.05 2.84,0 3.73,-1.35 3.73,-5.49 v -10.51 c 0,-2.83 -0.39,-3.24 -3.28,-3.58 v -0.75 h 10.91 v 0.75 l -1.3,0.09 c -1.48,0.11 -2.14,1 -2.14,2.94 v 10.27 c 0,5.87 -1.94,8.87 -5.78,8.87 -2.89,0 -5.42,-1.3 -8.11,-4.19 -0.91,2.85 -2.59,4.19 -5.28,4.19 -2.2,0 -3.6,-0.7 -7.74,-3.84 v 3.73 l -0.34,0.11 c -2.55,-0.95 -4.23,-1.5 -6.97,-2.25 z"
         id="path1954" /><path
         style="fill:#000000;stroke-width:0"
         inkscape:connector-curvature="0"
         d="m 563.37,397.39 0.34,0.22 0.32,0.21 0.32,0.21 0.3,0.21 0.3,0.2 0.28,0.19 0.27,0.19 0.26,0.19 0.26,0.18 0.24,0.18 0.24,0.18 0.23,0.17 0.22,0.18 0.21,0.17 0.41,0.34 0.39,0.34 0.38,0.34 0.35,0.35 0.35,0.36 0.34,0.36 0.34,0.38 0.34,0.4 0.34,0.42 c 3.53,4.34 5.28,9.32 5.28,15.15 0,6.38 -1.84,11.2 -6.23,16.28 -2.05,2.39 -3.33,3.49 -5.93,5.08 l -0.61,-0.8 c 4,-3.12 5.35,-4.87 6.74,-8.61 1.19,-3.34 1.75,-7.12 1.75,-12.1 0,-5.19 -0.66,-9.32 -2,-12.36 -1.39,-3.14 -2.89,-4.93 -6.49,-7.82 z"
         id="path1956" /></g>  </g>
  <g
     id="g2131"
     transform="translate(15.983014,97.148194)">
    <g
       word-spacing="normal"
       letter-spacing="normal"
       font-size-adjust="none"
       font-stretch="normal"
       font-weight="normal"
       font-variant="normal"
       font-style="normal"
       stroke-miterlimit="10.433"
       xml:space="preserve"
       transform="matrix(0.3,0,0,-0.3,-52.5,222.75)"
       id="g2129"
       style="font-style:normal;font-variant:normal;font-weight:normal;font-stretch:normal;letter-spacing:normal;word-spacing:normal;text-anchor:start;fill:none;fill-opacity:1;fill-rule:evenodd;stroke:#000000;stroke-linecap:butt;stroke-linejoin:miter;stroke-miterlimit:10.43299961;stroke-dasharray:none;stroke-dashoffset:0;stroke-opacity:1"><path
         id="path2121"
         d="m 491.11,438.73 h -9.91 v -0.8 c 1.6,-0.14 2.1,-0.25 2.69,-0.64 0.5,-0.29 0.84,-1 0.84,-1.65 0,-0.8 -1.29,-5.88 -3.68,-14.3 -0.21,-0.64 -0.39,-1.48 -0.64,-2.44 -0.91,-3.23 -1.66,-5.23 -2.75,-6.92 -1.94,-3.09 -4.63,-4.64 -8.11,-4.64 -4.14,0 -6.99,2.39 -6.99,5.89 0,1.69 1.55,7.72 4.89,19.22 0.1,0.36 0.19,0.7 0.25,0.95 1.05,3.49 1.85,4.19 5.22,4.53 v 0.8 h -13.59 v -0.8 c 3.34,-0.29 3.89,-0.59 3.89,-2.04 0,-0.6 -0.16,-1.39 -0.36,-2.24 l -2.64,-9.56 c -1.49,-5.39 -2.14,-8.58 -2.14,-10.56 0,-4.78 4.59,-8.22 10.86,-8.22 6.53,0 10.67,3.53 12.86,11 l 4.14,14.2 c 1.89,6.49 2.09,6.72 5.17,7.42 z"
         inkscape:connector-curvature="0"
         style="fill:#000000;stroke-width:0" /><path
         id="path2123"
         d="m 520.86,439.87 -0.34,-0.22 -0.32,-0.21 -0.32,-0.21 -0.3,-0.21 -0.29,-0.2 -0.29,-0.19 -0.27,-0.19 -0.26,-0.19 -0.26,-0.18 -0.24,-0.18 -0.24,-0.18 -0.23,-0.17 -0.22,-0.18 -0.21,-0.17 -0.41,-0.34 -0.39,-0.34 -0.38,-0.34 -0.35,-0.35 -0.35,-0.35 -0.34,-0.37 -0.34,-0.38 -0.34,-0.4 -0.34,-0.42 c -3.53,-4.34 -5.28,-9.31 -5.28,-15.14 0,-6.33 1.84,-11.22 6.23,-16.3 2.04,-2.39 3.33,-3.48 5.93,-5.07 l 0.59,0.79 c -3.98,3.14 -5.37,4.88 -6.72,8.61 -1.2,3.35 -1.75,7.13 -1.75,12.11 0,5.24 0.66,9.31 2,12.41 1.39,3.09 2.89,4.89 6.47,7.76 z"
         inkscape:connector-curvature="0"
         style="fill:#000000;stroke-width:0" /><path
         id="path2125"
         d="m 523.67,426.03 0.06,0.01 0.06,0.02 0.06,0.01 0.05,0.01 0.06,0.01 0.05,0.01 0.1,0.02 0.11,0.02 0.09,0.02 0.1,0.01 0.09,0.02 0.1,0.01 0.09,0.01 h 0.09 l 0.1,0.01 h 0.09 l 0.1,0.01 h 0.09 0.11 c 1.29,0 1.73,-0.8 1.73,-3.19 v -12.61 c 0,-2.68 -0.69,-3.43 -3.48,-3.48 v -0.75 h 11.06 v 0.75 c -2.64,0.09 -3.39,0.64 -3.39,2.59 v 14.05 c 0,0.09 0.4,0.59 0.75,0.94 1.25,1.15 3.39,2 5.12,2 2.21,0 3.3,-1.75 3.3,-5.24 v -10.81 c 0,-2.78 -0.55,-3.33 -3.39,-3.53 v -0.75 h 11.15 v 0.75 c -2.84,0.05 -3.57,0.89 -3.57,3.98 v 12.55 c 1.48,2.16 3.12,3.05 5.42,3.05 2.84,0 3.73,-1.35 3.73,-5.49 v -10.51 c 0,-2.83 -0.39,-3.24 -3.28,-3.58 v -0.75 h 10.91 v 0.75 l -1.3,0.09 c -1.48,0.11 -2.14,1 -2.14,2.94 v 10.27 c 0,5.87 -1.94,8.87 -5.78,8.87 -2.89,0 -5.42,-1.3 -8.11,-4.19 -0.91,2.85 -2.59,4.19 -5.28,4.19 -2.2,0 -3.6,-0.7 -7.74,-3.84 v 3.73 l -0.34,0.11 c -2.55,-0.95 -4.23,-1.5 -6.97,-2.25 z"
         inkscape:connector-curvature="0"
         style="fill:#000000;stroke-width:0" /><path
         id="path2127"
         d="m 563.37,397.39 0.34,0.22 0.32,0.21 0.32,0.21 0.3,0.21 0.3,0.2 0.28,0.19 0.27,0.19 0.26,0.19 0.26,0.18 0.24,0.18 0.24,0.18 0.23,0.17 0.22,0.18 0.21,0.17 0.41,0.34 0.39,0.34 0.38,0.34 0.35,0.35 0.35,0.36 0.34,0.36 0.34,0.38 0.34,0.4 0.34,0.42 c 3.53,4.34 5.28,9.32 5.28,15.15 0,6.38 -1.84,11.2 -6.23,16.28 -2.05,2.39 -3.33,3.49 -5.93,5.08 l -0.61,-0.8 c 4,-3.12 5.35,-4.87 6.74,-8.61 1.19,-3.34 1.75,-7.12 1.75,-12.1 0,-5.19 -0.66,-9.32 -2,-12.36 -1.39,-3.14 -2.89,-4.93 -6.49,-7.82 z"
         inkscape:connector-curvature="0"
         style="fill:#000000;stroke-width:0" /></g>  </g>
  <g
     transform="translate(-71.329486,25.710698)"
     id="g2373">
    <g
       style="font-style:normal;font-variant:normal;font-weight:normal;font-stretch:normal;letter-spacing:normal;word-spacing:normal;text-anchor:start;fill:none;fill-opacity:1;fill-rule:evenodd;stroke:#000000;stroke-linecap:butt;stroke-linejoin:miter;stroke-miterlimit:10.43299961;stroke-dasharray:none;stroke-dashoffset:0;stroke-opacity:1"
       id="g2371"
       transform="matrix(0.3,0,0,-0.3,-52.5,222.75)"
       xml:space="preserve"
       stroke-miterlimit="10.433"
       font-style="normal"
       font-variant="normal"
       font-weight="normal"
       font-stretch="normal"
       font-size-adjust="none"
       letter-spacing="normal"
       word-spacing="normal"><path
         style="fill:#000000;stroke-width:0"
         inkscape:connector-curvature="0"
         d="m 480.29,427.53 h -4.4 l -3.64,-15.6 c -1.73,-2.25 -3.93,-3.5 -6.07,-3.5 -2.1,0 -3.44,1.36 -3.44,3.44 0,0.45 0.06,1.16 0.15,1.5 l 3.35,14.16 h -4.39 l -4.24,-18.64 c -0.29,-1.35 -0.79,-2.74 -1.68,-4.99 -1.5,-2.89 -1.91,-4.12 -1.91,-5.87 0,-1.5 0.55,-2.24 1.7,-2.24 2.14,0 3.53,2.78 3.53,7.13 0,0.44 0,1.28 -0.04,2.08 -0.05,0.9 -0.05,1.54 -0.05,2.09 0,0.8 0.05,1.34 0.09,2.39 0.96,-2.58 2.5,-3.78 5.14,-3.78 2.65,0 5.04,1.39 7.68,4.48 -0.16,-0.7 -0.21,-1.04 -0.21,-1.54 0,-1.94 0.94,-2.94 2.85,-2.94 1.93,0 3.23,0.7 5.33,2.84 l 0.14,0.46 c -1.24,-0.96 -1.94,-1.3 -2.79,-1.3 -0.84,0 -1.29,0.5 -1.29,1.39 0,0.5 0,0.59 0.29,1.69 z"
         id="path2355" /><path
         style="fill:#000000;stroke-width:0"
         inkscape:connector-curvature="0"
         d="m 497.53,402.38 -0.09,-0.11 -0.09,-0.1 -0.09,-0.1 -0.09,-0.1 -0.08,-0.09 -0.08,-0.1 -0.08,-0.09 -0.08,-0.08 -0.07,-0.09 -0.07,-0.08 -0.08,-0.08 -0.06,-0.07 -0.07,-0.08 -0.07,-0.07 -0.12,-0.14 -0.12,-0.13 -0.12,-0.11 -0.1,-0.12 -0.1,-0.1 -0.1,-0.09 -0.09,-0.09 -0.09,-0.08 -0.08,-0.07 -0.08,-0.07 -0.07,-0.06 -0.07,-0.05 -0.07,-0.05 -0.07,-0.04 -0.06,-0.04 -0.06,-0.03 -0.06,-0.03 -0.06,-0.02 -0.06,-0.02 -0.05,-0.02 -0.06,-0.01 -0.06,-0.01 -0.05,-0.01 h -0.12 c -0.36,0 -0.65,0.34 -0.65,0.73 0,0.52 1.17,5.02 2.39,9.07 1,3.39 1.76,6.34 3.64,13.7 l -0.19,0.19 c -1.94,-0.41 -3.27,-0.63 -5.63,-0.85 v -0.62 c 2.02,-0.08 2.29,-0.19 2.29,-0.97 0,-0.47 -0.04,-0.69 -0.55,-2.58 l -1.63,-6.03 c -0.29,1.55 -0.95,2.14 -2.39,2.14 l 0.14,-0.86 c 1.11,-0.06 1.66,-0.76 1.66,-2.09 0,-5.6 -3.83,-11.94 -7.22,-11.94 -1.25,0 -2.14,1 -2.14,2.44 0,3.04 1.84,7.33 4.28,9.9 1.03,1.07 2.39,1.77 3.42,1.69 v 0 l -0.14,0.86 c -4.79,0 -10.76,-6.94 -10.76,-12.45 0,-2.63 1.48,-4.2 3.87,-4.2 2.5,0 4.13,1.18 6.63,4.85 -0.41,-1.87 -0.47,-2.42 -0.47,-3.28 0,-0.98 0.62,-1.65 1.55,-1.65 1.54,0 3.45,1.51 5.37,4.2 z"
         id="path2357" /><path
         style="fill:#000000;stroke-width:0"
         inkscape:connector-curvature="0"
         d="m 529.61,420.04 -9.95,9.92 c -0.61,0.6 -0.7,0.71 -1.11,0.71 -0.48,0 -0.98,-0.46 -0.98,-1 0,-0.36 0.09,-0.46 0.64,-1 l 9.97,-10.02 -9.97,-10.01 c -0.55,-0.55 -0.64,-0.64 -0.64,-1 0,-0.55 0.5,-0.99 0.98,-0.99 0.41,0 0.5,0.1 1.11,0.69 l 9.91,9.92 10.31,-10.31 c 0.11,-0.05 0.45,-0.3 0.75,-0.3 0.59,0 1,0.44 1,0.99 0,0.11 0,0.31 -0.16,0.56 -0.04,0.09 -7.97,7.92 -10.45,10.45 l 9.11,9.13 c 0.25,0.29 1,0.93 1.25,1.23 0.05,0.11 0.25,0.3 0.25,0.66 0,0.54 -0.41,1 -1,1 -0.39,0 -0.6,-0.21 -1.14,-0.75 z"
         id="path2359" /><path
         style="fill:#000000;stroke-width:0"
         inkscape:connector-curvature="0"
         d="m 585.25,426.78 v 4.33 h -11.31 c -3.94,0 -6.62,-0.44 -8.92,-1.44 -4.83,-2.19 -7.56,-6.08 -7.56,-10.72 0,-3.24 1.23,-6.52 3.53,-9.11 2.59,-3 5.44,-4.28 9.36,-4.28 l 0.7,2.14 c -4.58,0 -8.37,5.03 -8.37,11.16 0,4.78 3.09,7.92 7.78,7.92 H 572 c 4.28,-4.44 5.24,-6.33 5.24,-10.42 0,-5.18 -2.5,-8.66 -6.19,-8.66 l -0.7,-2.14 c 3.39,0 6.28,1.05 8.58,3.08 2.23,2.04 3.59,4.89 3.59,7.57 0,3.79 -2.89,7.52 -8.17,10.57 z"
         id="path2361" /><path
         style="fill:#000000;stroke-width:0"
         inkscape:connector-curvature="0"
         d="m 613.02,439.87 -0.34,-0.22 -0.33,-0.21 -0.32,-0.21 -0.3,-0.21 -0.29,-0.2 -0.28,-0.19 -0.28,-0.19 -0.26,-0.19 -0.25,-0.18 -0.25,-0.18 -0.23,-0.18 -0.23,-0.17 -0.23,-0.18 -0.21,-0.17 -0.41,-0.34 -0.39,-0.34 -0.37,-0.34 -0.36,-0.35 -0.35,-0.35 -0.34,-0.37 -0.34,-0.38 -0.33,-0.4 -0.35,-0.42 c -3.53,-4.34 -5.28,-9.31 -5.28,-15.14 0,-6.33 1.85,-11.22 6.24,-16.3 2.03,-2.39 3.33,-3.48 5.92,-5.07 l 0.59,0.79 c -3.98,3.14 -5.37,4.88 -6.72,8.61 -1.2,3.35 -1.75,7.13 -1.75,12.11 0,5.24 0.66,9.31 2,12.41 1.4,3.09 2.9,4.89 6.47,7.76 z"
         id="path2363" /><path
         style="fill:#000000;stroke-width:0"
         inkscape:connector-curvature="0"
         d="m 624.93,420.7 v 1.98 12.96 c 0,1.36 0.35,1.7 1.71,1.7 6.71,0 9.81,-2.34 9.81,-7.47 0,-4.84 -2.94,-7.33 -8.67,-7.33 -1,0 -1.71,0.05 -2.85,0.14 v -1.98 c 1.3,-0.11 2.14,-0.16 3.44,-0.16 3.89,0 6.58,0.5 8.72,1.71 2.98,1.59 4.78,4.62 4.78,7.92 0,2.09 -0.69,3.98 -2.05,5.42 -1.98,2.2 -6.31,3.59 -11,3.59 h -13.15 v -0.95 c 3.68,-0.39 4.18,-0.89 4.18,-4.48 v -21.57 c 0,-4.18 -0.4,-4.68 -4.18,-5.03 v -0.95 h 13.95 v 0.95 c -3.94,0.14 -4.69,0.85 -4.69,4.49 z"
         id="path2365" /><path
         style="fill:#000000;stroke-width:0"
         inkscape:connector-curvature="0"
         d="m 663.89,409.48 -0.08,-0.06 -0.08,-0.06 -0.07,-0.06 -0.08,-0.06 -0.07,-0.05 -0.07,-0.05 -0.08,-0.05 -0.07,-0.05 -0.06,-0.04 -0.07,-0.04 -0.07,-0.04 -0.07,-0.04 -0.07,-0.03 -0.06,-0.04 -0.07,-0.03 -0.06,-0.03 -0.07,-0.02 -0.06,-0.03 -0.07,-0.02 -0.06,-0.02 -0.07,-0.02 -0.06,-0.02 -0.07,-0.01 -0.06,-0.02 -0.13,-0.02 -0.14,-0.01 -0.13,-0.01 -0.14,-0.01 c -1.14,0 -1.5,0.71 -1.5,2.89 v 9.72 c 0,2.58 -0.25,4.03 -0.98,5.22 -1.12,1.8 -3.25,2.75 -6.19,2.75 -4.68,0 -8.36,-2.44 -8.36,-5.58 0,-1.15 0.98,-2.14 2.14,-2.14 1.19,0 2.23,0.99 2.23,2.08 0,0.2 -0.04,0.45 -0.09,0.8 -0.11,0.45 -0.16,0.86 -0.16,1.2 0,1.34 1.6,2.44 3.6,2.44 2.43,0 3.78,-1.44 3.78,-4.13 v -3.04 -1.19 -7.24 c 0,-1.54 -0.25,-1.98 -1.3,-2.59 -1.19,-0.69 -2.59,-1.14 -3.64,-1.14 -1.73,0 -3.13,1.69 -3.13,3.84 v 0.19 c 0,2.94 2.04,4.74 8.07,6.94 v 1.19 c -7.67,-3.1 -8.52,-3.49 -10.66,-5.38 -1.09,-1 -1.79,-2.69 -1.79,-4.34 0,-3.14 2.18,-5.33 5.23,-5.33 2.19,0 4.23,1.05 7.27,3.64 0.25,-2.59 1.15,-3.64 3.18,-3.64 1.7,0 2.75,0.59 4.49,2.5 z"
         id="path2367" /><path
         style="fill:#000000;stroke-width:0"
         inkscape:connector-curvature="0"
         d="m 665.84,397.39 0.34,0.22 0.33,0.21 0.31,0.21 0.31,0.21 0.29,0.2 0.28,0.19 0.27,0.19 0.26,0.19 0.26,0.18 0.24,0.18 0.24,0.18 0.23,0.17 0.22,0.18 0.22,0.17 0.41,0.34 0.39,0.34 0.37,0.34 0.36,0.35 0.34,0.36 0.34,0.36 0.34,0.38 0.34,0.4 0.34,0.42 c 3.53,4.34 5.28,9.32 5.28,15.15 0,6.38 -1.84,11.2 -6.23,16.28 -2.05,2.39 -3.33,3.49 -5.92,5.08 l -0.61,-0.8 c 4,-3.12 5.34,-4.87 6.73,-8.61 1.19,-3.34 1.75,-7.12 1.75,-12.1 0,-5.19 -0.65,-9.32 -2,-12.36 -1.39,-3.14 -2.89,-4.93 -6.48,-7.82 z"
         id="path2369" /></g>  </g>
</svg>
