<?xml version="1.0" encoding="UTF-8" standalone="no"?>
<!-- Created with Inkscape (http://www.inkscape.org/) -->

<svg
   xmlns:ns0="http://www.iki.fi/pav/software/textext/"
   xmlns:dc="http://purl.org/dc/elements/1.1/"
   xmlns:cc="http://creativecommons.org/ns#"
   xmlns:rdf="http://www.w3.org/1999/02/22-rdf-syntax-ns#"
   xmlns:svg="http://www.w3.org/2000/svg"
   xmlns="http://www.w3.org/2000/svg"
   xmlns:xlink="http://www.w3.org/1999/xlink"
   xmlns:sodipodi="http://sodipodi.sourceforge.net/DTD/sodipodi-0.dtd"
   xmlns:inkscape="http://www.inkscape.org/namespaces/inkscape"
   width="563.5177"
   height="403.01248"
   id="svg2"
   version="1.1"
   inkscape:version="0.91 r13725"
   sodipodi:docname="triangle.svg">
  <sodipodi:namedview
     id="base"
     pagecolor="#ffffff"
     bordercolor="#666666"
     borderopacity="1.0"
     inkscape:pageopacity="0.0"
     inkscape:pageshadow="2"
     inkscape:zoom="1.7295558"
     inkscape:cx="270.98064"
     inkscape:cy="66.057155"
     inkscape:document-units="px"
     inkscape:current-layer="layer1"
     showgrid="false"
     inkscape:window-width="1440"
     inkscape:window-height="852"
     inkscape:window-x="0"
     inkscape:window-y="0"
     inkscape:window-maximized="1"
     fit-margin-top="0"
     fit-margin-left="0"
     fit-margin-right="0"
     fit-margin-bottom="0" />
  <defs
     id="defs4">
    <marker
       style="overflow:visible"
       id="Arrow1Mend"
       refX="0"
       refY="0"
       orient="auto"
       inkscape:stockid="Arrow1Mend">
      <path
         inkscape:connector-curvature="0"
         transform="matrix(-0.4,0,0,-0.4,-4,0)"
         style="fill-rule:evenodd;stroke:#000000;stroke-width:1pt"
         d="M 0,0 5,-5 -12.5,0 5,5 0,0 Z"
         id="path3772" />
    </marker>
    <marker
       style="overflow:visible"
       id="Arrow1Mstart"
       refX="0"
       refY="0"
       orient="auto"
       inkscape:stockid="Arrow1Mstart">
      <path
         inkscape:connector-curvature="0"
         transform="matrix(0.4,0,0,0.4,4,0)"
         style="fill-rule:evenodd;stroke:#000000;stroke-width:1pt"
         d="M 0,0 5,-5 -12.5,0 5,5 0,0 Z"
         id="path3769" />
    </marker>
    <marker
       style="overflow:visible"
       id="Arrow1Lend"
       refX="0"
       refY="0"
       orient="auto"
       inkscape:stockid="Arrow1Lend">
      <path
         inkscape:connector-curvature="0"
         transform="matrix(-0.8,0,0,-0.8,-10,0)"
         style="fill-rule:evenodd;stroke:#000000;stroke-width:1pt"
         d="M 0,0 5,-5 -12.5,0 5,5 0,0 Z"
         id="path3766" />
    </marker>
    <marker
       style="overflow:visible"
       id="Arrow1Lstart"
       refX="0"
       refY="0"
       orient="auto"
       inkscape:stockid="Arrow1Lstart">
      <path
         inkscape:connector-curvature="0"
         transform="matrix(0.8,0,0,0.8,10,0)"
         style="fill-rule:evenodd;stroke:#000000;stroke-width:1pt"
         d="M 0,0 5,-5 -12.5,0 5,5 0,0 Z"
         id="path3763" />
    </marker>
  </defs>
  <metadata
     id="metadata7">
    <rdf:RDF>
      <cc:Work
         rdf:about="">
        <dc:format>image/svg+xml</dc:format>
        <dc:type
           rdf:resource="http://purl.org/dc/dcmitype/StillImage" />
        <dc:title></dc:title>
      </cc:Work>
    </rdf:RDF>
  </metadata>
  <g
     transform="translate(-25.180644,-45.460678)"
     id="layer1"
     inkscape:groupmode="layer"
     inkscape:label="Layer 1">
    <path
       style="fill:#cccccc;fill-opacity:1;stroke:none"
       d="m 58.121556,161.88144 429.974524,99.36912 0,91.24459 -429.974524,-0.62496 z"
       id="path3520"
       inkscape:connector-curvature="0"
       transform="translate(26.669411,46.780705)"
       sodipodi:nodetypes="ccccc" />
    <path
       inkscape:connector-curvature="0"
       id="path2989"
       d="m 84.852814,49.280705 0,349.512785 500.025506,0"
       style="fill:none;stroke:#000000;stroke-width:2;stroke-linecap:butt;stroke-linejoin:miter;stroke-miterlimit:4;stroke-dasharray:none;stroke-opacity:1;marker-start:url(#Arrow1Mstart);marker-end:url(#Arrow1Mend)" />
    <g
       id="g4615"
       transform="translate(-701.20847,-203.11297)" />
    <path
       inkscape:connector-curvature="0"
       id="path5113"
       d="m 85.619929,101.79348 119.073051,206.24058 310.27652,0"
       style="fill:none;stroke:#000000;stroke-width:3;stroke-linecap:round;stroke-linejoin:round;stroke-miterlimit:4;stroke-dasharray:none;stroke-opacity:1" />
    <path
       inkscape:connector-curvature="0"
       id="path5115"
       d="M 83.74504,209.28712 513.09461,307.4063"
       style="fill:none;stroke:#000000;stroke-width:3;stroke-linecap:round;stroke-linejoin:round;stroke-miterlimit:4;stroke-dasharray:3, 9;stroke-dashoffset:0;stroke-opacity:1" />
    <text
       sodipodi:linespacing="125%"
       id="text5119"
       y="440.52341"
       x="500.59537"
       style="font-style:italic;font-variant:normal;font-weight:normal;font-stretch:normal;font-size:38px;line-height:125%;font-family:Serif;-inkscape-font-specification:'Serif Italic';text-align:start;letter-spacing:0px;word-spacing:0px;writing-mode:lr-tb;text-anchor:start;fill:#000000;fill-opacity:1;stroke:none"
       xml:space="preserve"><tspan
         y="440.52341"
         x="500.59537"
         id="tspan5121"
         sodipodi:role="line">D</tspan></text>
    <path
       sodipodi:nodetypes="cc"
       inkscape:connector-curvature="0"
       id="path5127"
       d="m 204.3629,397.40097 0,8.74949"
       style="fill:none;stroke:#000000;stroke-width:3;stroke-linecap:butt;stroke-linejoin:miter;stroke-miterlimit:4;stroke-dasharray:none;stroke-opacity:1" />
    <path
       sodipodi:nodetypes="cc"
       inkscape:connector-curvature="0"
       id="path5129"
       d="m 514.9695,397.40097 0,8.12452"
       style="fill:none;stroke:#000000;stroke-width:3;stroke-linecap:butt;stroke-linejoin:miter;stroke-miterlimit:4;stroke-dasharray:none;stroke-opacity:1" />
    <g
       id="g3122"
       transform="matrix(4,0,0,4,-1535.2417,-427.04572)"
       ns0:preamble="/data/Classes/PhysicsForGeoscientists/Book/Figures/preamble.tex"
       ns0:text="\\[ \\sigma_p \\]">
      <defs
         id="defs3124">
        <g
           id="g3126">
          <symbol
             id="textext-20165ada-0"
             overflow="visible"
             style="overflow:visible">
            <path
               id="path3129"
               d=""
               style="stroke:none"
               inkscape:connector-curvature="0" />
          </symbol>
          <symbol
             id="textext-20165ada-1"
             overflow="visible"
             style="overflow:visible">
            <path
               id="path3132"
               d="m 5.859375,-4.109375 0,-0.875 -2.265625,0 c -0.78125,0 -1.328125,0.09375 -1.78125,0.296875 -0.96875,0.4375 -1.515625,1.203125 -1.515625,2.140625 0,0.640625 0.25,1.296875 0.703125,1.8125 C 1.53125,-0.125 2.09375,0.125 2.875,0.125 3.5625,0.125 4.140625,-0.078125 4.59375,-0.484375 5.046875,-0.890625 5.3125,-1.46875 5.3125,-2 c 0,-0.765625 -0.578125,-1.515625 -1.640625,-2.109375 z m -2.65625,0 C 4.0625,-3.234375 4.25,-2.84375 4.25,-2.03125 4.25,-1 3.765625,-0.296875 3.015625,-0.296875 c -0.90625,0 -1.671875,-1.015625 -1.671875,-2.234375 0,-0.953125 0.625,-1.578125 1.5625,-1.578125 z m 0,0"
               style="stroke:none"
               inkscape:connector-curvature="0" />
          </symbol>
          <symbol
             id="textext-20165ada-2"
             overflow="visible"
             style="overflow:visible">
            <path
               id="path3135"
               d=""
               style="stroke:none"
               inkscape:connector-curvature="0" />
          </symbol>
          <symbol
             id="textext-20165ada-3"
             overflow="visible"
             style="overflow:visible">
            <path
               id="path3138"
               d="m 0.40625,-2.984375 0.171875,0 c 0,0 0.015625,0 0.03125,0 0.09375,-0.046875 0.28125,0.09375 0.28125,0.203125 0,0.0625 -0.265625,1.109375 -0.515625,2.09375 C 0.171875,0.046875 0,0.75 -0.0625,0.953125 c -0.078125,0.34375 -0.171875,0.4375 -0.484375,0.4375 l 0,0.125 1.5,0 0,-0.109375 c -0.34375,0 -0.46875,-0.078125 -0.46875,-0.21875 0,-0.109375 0.125,-0.6875 0.28125,-1.234375 0.171875,0.09375 0.3125,0.125 0.484375,0.125 1.078125,0 2.203125,-1.234375 2.203125,-2.40625 C 3.453125,-2.90625 3.140625,-3.25 2.609375,-3.25 2.125,-3.25 1.78125,-3.015625 1.34375,-2.421875 L 1.5625,-3.15625 1.578125,-3.21875 c 0,0 0,-0.015625 0,-0.03125 l -0.015625,0 c 0,-0.015625 -0.015625,-0.015625 -0.015625,-0.015625 L 1.53125,-3.25 0.390625,-3.09375 Z m 1.9375,0.046875 c 0.3125,0.015625 0.453125,0.203125 0.453125,0.640625 0,0.484375 -0.21875,1.109375 -0.53125,1.578125 -0.3125,0.4375 -0.671875,0.65625 -1.046875,0.65625 -0.203125,0 -0.359375,-0.109375 -0.359375,-0.265625 0,-0.25 0.265625,-1.21875 0.484375,-1.765625 0.203125,-0.5 0.625,-0.859375 1,-0.84375 z m 0,0"
               style="stroke:none"
               inkscape:connector-curvature="0" />
          </symbol>
        </g>
      </defs>
      <g
         id="textext-20165ada-4">
        <g
           id="g3141"
           style="fill:#000000;fill-opacity:1">
          <use
             id="use3143"
             y="134.765"
             x="389.91501"
             xlink:href="#textext-20165ada-1"
             width="560.70892"
             height="393.74271" />
        </g>
        <g
           id="g3145"
           style="fill:#000000;fill-opacity:1">
          <use
             id="use3147"
             y="136.259"
             x="396.47601"
             xlink:href="#textext-20165ada-3"
             width="560.70892"
             height="393.74271" />
        </g>
      </g>
    </g>
    <g
       ns0:text="\\[\n\\sigma_o\n\\]\n"
       ns0:preamble="/data/Classes/PhysicsForGeoscientists/Book/Figures/preamble.tex"
       transform="matrix(4,0,0,4,-1535.8666,-321.42697)"
       id="g3273">
      <defs
         id="defs3275">
        <g
           id="g3277">
          <symbol
             overflow="visible"
             id="textext-bbd8f512-0"
             style="overflow:visible">
            <path
               style="stroke:none"
               d=""
               id="path3280"
               inkscape:connector-curvature="0" />
          </symbol>
          <symbol
             overflow="visible"
             id="textext-bbd8f512-1"
             style="overflow:visible">
            <path
               style="stroke:none"
               d="m 5.859375,-4.109375 0,-0.875 -2.265625,0 c -0.78125,0 -1.328125,0.09375 -1.78125,0.296875 -0.96875,0.4375 -1.515625,1.203125 -1.515625,2.140625 0,0.640625 0.25,1.296875 0.703125,1.8125 C 1.53125,-0.125 2.09375,0.125 2.875,0.125 3.5625,0.125 4.140625,-0.078125 4.59375,-0.484375 5.046875,-0.890625 5.3125,-1.46875 5.3125,-2 c 0,-0.765625 -0.578125,-1.515625 -1.640625,-2.109375 z m -2.65625,0 C 4.0625,-3.234375 4.25,-2.84375 4.25,-2.03125 4.25,-1 3.765625,-0.296875 3.015625,-0.296875 c -0.90625,0 -1.671875,-1.015625 -1.671875,-2.234375 0,-0.953125 0.625,-1.578125 1.5625,-1.578125 z m 0,0"
               id="path3283"
               inkscape:connector-curvature="0" />
          </symbol>
          <symbol
             overflow="visible"
             id="textext-bbd8f512-2"
             style="overflow:visible">
            <path
               style="stroke:none"
               d=""
               id="path3286"
               inkscape:connector-curvature="0" />
          </symbol>
          <symbol
             overflow="visible"
             id="textext-bbd8f512-3"
             style="overflow:visible">
            <path
               style="stroke:none"
               d="m 2.390625,-3.25 c -1.09375,0 -2.1875,1.140625 -2.1875,2.296875 0,0.640625 0.40625,1.03125 1.078125,1.03125 0.484375,0 0.953125,-0.21875 1.390625,-0.640625 0.484375,-0.484375 0.78125,-1.109375 0.78125,-1.65625 0,-0.609375 -0.421875,-1.03125 -1.0625,-1.03125 z M 2.3125,-3.09375 c 0.3125,0 0.515625,0.265625 0.515625,0.6875 0,0.546875 -0.234375,1.28125 -0.5625,1.75 -0.28125,0.390625 -0.546875,0.578125 -0.875,0.578125 -0.34375,0 -0.578125,-0.265625 -0.578125,-0.671875 0,-0.546875 0.21875,-1.1875 0.578125,-1.71875 0.296875,-0.40625 0.59375,-0.625 0.921875,-0.625 z m 0,0"
               id="path3289"
               inkscape:connector-curvature="0" />
          </symbol>
        </g>
      </defs>
      <g
         id="textext-bbd8f512-4">
        <g
           style="fill:#000000;fill-opacity:1"
           id="g3292">
          <use
             xlink:href="#textext-bbd8f512-1"
             x="390.19199"
             y="134.765"
             id="use3294"
             width="560.70892"
             height="393.74271" />
        </g>
        <g
           style="fill:#000000;fill-opacity:1"
           id="g3296">
          <use
             xlink:href="#textext-bbd8f512-3"
             x="396.19901"
             y="136.259"
             id="use3298"
             width="560.70892"
             height="393.74271" />
        </g>
      </g>
    </g>
    <g
       id="g3424"
       transform="matrix(4,0,0,4,-1536.7748,-224.10539)"
       ns0:preamble="/data/Classes/PhysicsForGeoscientists/Book/Figures/preamble.tex"
       ns0:text="\\[\n\\sigma_1\n\\]\n">
      <defs
         id="defs3426">
        <g
           id="g3428">
          <symbol
             id="textext-168cd68e-0"
             overflow="visible"
             style="overflow:visible">
            <path
               id="path3431"
               d=""
               style="stroke:none"
               inkscape:connector-curvature="0" />
          </symbol>
          <symbol
             id="textext-168cd68e-1"
             overflow="visible"
             style="overflow:visible">
            <path
               id="path3434"
               d="m 5.859375,-4.109375 0,-0.875 -2.265625,0 c -0.78125,0 -1.328125,0.09375 -1.78125,0.296875 -0.96875,0.4375 -1.515625,1.203125 -1.515625,2.140625 0,0.640625 0.25,1.296875 0.703125,1.8125 C 1.53125,-0.125 2.09375,0.125 2.875,0.125 3.5625,0.125 4.140625,-0.078125 4.59375,-0.484375 5.046875,-0.890625 5.3125,-1.46875 5.3125,-2 c 0,-0.765625 -0.578125,-1.515625 -1.640625,-2.109375 z m -2.65625,0 C 4.0625,-3.234375 4.25,-2.84375 4.25,-2.03125 4.25,-1 3.765625,-0.296875 3.015625,-0.296875 c -0.90625,0 -1.671875,-1.015625 -1.671875,-2.234375 0,-0.953125 0.625,-1.578125 1.5625,-1.578125 z m 0,0"
               style="stroke:none"
               inkscape:connector-curvature="0" />
          </symbol>
          <symbol
             id="textext-168cd68e-2"
             overflow="visible"
             style="overflow:visible">
            <path
               id="path3437"
               d=""
               style="stroke:none"
               inkscape:connector-curvature="0" />
          </symbol>
          <symbol
             id="textext-168cd68e-3"
             overflow="visible"
             style="overflow:visible">
            <path
               id="path3440"
               d="M 2.140625,-4.984375 0.8125,-4.3125 l 0,0.09375 C 0.90625,-4.25 0.984375,-4.28125 1.015625,-4.296875 1.15625,-4.34375 1.28125,-4.375 1.34375,-4.375 c 0.15625,0 0.234375,0.109375 0.234375,0.34375 l 0,3.34375 c 0,0.25 -0.0625,0.421875 -0.1875,0.484375 C 1.28125,-0.140625 1.1875,-0.125 0.875,-0.109375 L 0.875,0 l 2.03125,0 0,-0.109375 C 2.328125,-0.125 2.203125,-0.1875 2.203125,-0.546875 l 0,-4.421875 z m 0,0"
               style="stroke:none"
               inkscape:connector-curvature="0" />
          </symbol>
        </g>
      </defs>
      <g
         id="textext-168cd68e-4">
        <g
           id="g3443"
           style="fill:#000000;fill-opacity:1">
          <use
             id="use3445"
             y="134.765"
             x="390.19199"
             xlink:href="#textext-168cd68e-1"
             width="560.70892"
             height="393.74271" />
        </g>
        <g
           id="g3447"
           style="fill:#000000;fill-opacity:1">
          <use
             id="use3449"
             y="136.259"
             x="396.19901"
             xlink:href="#textext-168cd68e-3"
             width="560.70892"
             height="393.74271" />
        </g>
      </g>
    </g>
    <text
       xml:space="preserve"
       style="font-style:italic;font-variant:normal;font-weight:normal;font-stretch:normal;font-size:38px;line-height:125%;font-family:Serif;-inkscape-font-specification:'Serif Italic';text-align:start;letter-spacing:0px;word-spacing:0px;writing-mode:lr-tb;text-anchor:start;fill:#000000;fill-opacity:1;stroke:none"
       x="185.11475"
       y="440.52341"
       id="text4222"
       sodipodi:linespacing="125%"><tspan
         sodipodi:role="line"
         id="tspan4224"
         x="185.11475"
         y="440.52341">D<tspan
   style="font-size:64.99999762%;baseline-shift:sub"
   id="tspan4226">c</tspan></tspan></text>
  </g>
</svg>
